<svg width="562" height="98" viewBox="0 0 562 98" fill="none" xmlns="http://www.w3.org/2000/svg">
<path d="M168.33 50H164.092V33.5391H158.664V30.0117H173.758V33.5391H168.33V50ZM182.836 37.3945C181.952 37.3945 181.259 37.6771 180.758 38.2422C180.257 38.7982 179.969 39.5911 179.896 40.6211H185.748C185.73 39.5911 185.461 38.7982 184.941 38.2422C184.422 37.6771 183.72 37.3945 182.836 37.3945ZM183.424 50.2734C180.963 50.2734 179.04 49.5944 177.654 48.2363C176.269 46.8783 175.576 44.9551 175.576 42.4668C175.576 39.9056 176.214 37.9277 177.49 36.5332C178.775 35.1296 180.548 34.4277 182.809 34.4277C184.969 34.4277 186.65 35.043 187.854 36.2734C189.057 37.5039 189.658 39.2038 189.658 41.373V43.3965H179.801C179.846 44.5814 180.197 45.5065 180.854 46.1719C181.51 46.8372 182.43 47.1699 183.615 47.1699C184.536 47.1699 185.406 47.0742 186.227 46.8828C187.047 46.6914 187.904 46.3861 188.797 45.9668V49.1934C188.068 49.5579 187.288 49.8268 186.459 50C185.63 50.1823 184.618 50.2734 183.424 50.2734ZM197.055 41.6875L198.873 39.3633L203.152 34.7148H207.855L201.785 41.3457L208.225 50H203.412L199.01 43.8066L197.219 45.2422V50H193.049V28.7266H197.219V38.2148L197 41.6875H197.055ZM216.619 50.2734C211.861 50.2734 209.482 47.6621 209.482 42.4395C209.482 39.8418 210.13 37.8594 211.424 36.4922C212.718 35.1159 214.573 34.4277 216.988 34.4277C218.757 34.4277 220.342 34.7741 221.746 35.4668L220.516 38.6934C219.859 38.429 219.249 38.2148 218.684 38.0508C218.118 37.8776 217.553 37.791 216.988 37.791C214.819 37.791 213.734 39.3314 213.734 42.4121C213.734 45.4017 214.819 46.8965 216.988 46.8965C217.79 46.8965 218.533 46.7917 219.217 46.582C219.9 46.3633 220.584 46.026 221.268 45.5703V49.1387C220.593 49.5671 219.91 49.8633 219.217 50.0273C218.533 50.1914 217.667 50.2734 216.619 50.2734ZM228.992 50H224.822V28.7266H228.992V50ZM243.088 50L242.281 47.9219H242.172C241.47 48.806 240.745 49.4212 239.998 49.7676C239.26 50.1048 238.294 50.2734 237.1 50.2734C235.632 50.2734 234.475 49.8542 233.627 49.0156C232.788 48.1771 232.369 46.9831 232.369 45.4336C232.369 43.8112 232.934 42.6172 234.064 41.8516C235.204 41.0768 236.917 40.6484 239.205 40.5664L241.857 40.4844V39.8145C241.857 38.265 241.064 37.4902 239.479 37.4902C238.257 37.4902 236.822 37.8594 235.172 38.5977L233.791 35.7812C235.55 34.8607 237.501 34.4004 239.643 34.4004C241.693 34.4004 243.266 34.847 244.359 35.7402C245.453 36.6335 246 37.9915 246 39.8145V50H243.088ZM241.857 42.918L240.244 42.9727C239.032 43.0091 238.13 43.2279 237.537 43.6289C236.945 44.0299 236.648 44.6406 236.648 45.4609C236.648 46.6367 237.323 47.2246 238.672 47.2246C239.638 47.2246 240.408 46.9466 240.982 46.3906C241.566 45.8346 241.857 45.0964 241.857 44.1758V42.918ZM264.416 50H260.246V41.0723C260.246 39.9694 260.05 39.1445 259.658 38.5977C259.266 38.0417 258.642 37.7637 257.785 37.7637C256.618 37.7637 255.775 38.1556 255.256 38.9395C254.736 39.7142 254.477 41.0039 254.477 42.8086V50H250.307V34.7148H253.492L254.053 36.6699H254.285C254.75 35.9316 255.388 35.3757 256.199 35.002C257.02 34.6191 257.949 34.4277 258.988 34.4277C260.766 34.4277 262.115 34.9108 263.035 35.877C263.956 36.834 264.416 38.2194 264.416 40.0332V50ZM288.109 44.4492C288.109 46.2539 287.458 47.6758 286.154 48.7148C284.86 49.7539 283.055 50.2734 280.74 50.2734C278.607 50.2734 276.721 49.8724 275.08 49.0703V45.1328C276.429 45.7344 277.568 46.1582 278.498 46.4043C279.437 46.6504 280.294 46.7734 281.068 46.7734C281.998 46.7734 282.709 46.5957 283.201 46.2402C283.702 45.8848 283.953 45.3561 283.953 44.6543C283.953 44.2624 283.844 43.916 283.625 43.6152C283.406 43.3053 283.083 43.0091 282.654 42.7266C282.235 42.444 281.374 41.9928 280.07 41.373C278.849 40.7988 277.933 40.2474 277.322 39.7188C276.712 39.1901 276.224 38.5749 275.859 37.873C275.495 37.1712 275.312 36.3509 275.312 35.4121C275.312 33.6439 275.91 32.2539 277.104 31.2422C278.307 30.2305 279.965 29.7246 282.08 29.7246C283.119 29.7246 284.108 29.8477 285.047 30.0938C285.995 30.3398 286.984 30.6862 288.014 31.1328L286.646 34.4277C285.58 33.9902 284.696 33.6849 283.994 33.5117C283.301 33.3385 282.618 33.252 281.943 33.252C281.141 33.252 280.526 33.4388 280.098 33.8125C279.669 34.1862 279.455 34.6738 279.455 35.2754C279.455 35.6491 279.542 35.9772 279.715 36.2598C279.888 36.5332 280.161 36.8021 280.535 37.0664C280.918 37.3216 281.816 37.7865 283.229 38.4609C285.097 39.3542 286.378 40.252 287.07 41.1543C287.763 42.0475 288.109 43.1458 288.109 44.4492ZM294.727 42.3301C294.727 43.8431 294.973 44.987 295.465 45.7617C295.966 46.5365 296.777 46.9238 297.898 46.9238C299.01 46.9238 299.808 46.541 300.291 45.7754C300.783 45.0007 301.029 43.8522 301.029 42.3301C301.029 40.8171 300.783 39.6823 300.291 38.9258C299.799 38.1693 298.992 37.791 297.871 37.791C296.759 37.791 295.957 38.1693 295.465 38.9258C294.973 39.6732 294.727 40.8079 294.727 42.3301ZM305.295 42.3301C305.295 44.8184 304.639 46.7643 303.326 48.168C302.014 49.5716 300.186 50.2734 297.844 50.2734C296.376 50.2734 295.082 49.9544 293.961 49.3164C292.84 48.6693 291.979 47.7441 291.377 46.541C290.775 45.3379 290.475 43.9342 290.475 42.3301C290.475 39.8327 291.126 37.8913 292.43 36.5059C293.733 35.1204 295.565 34.4277 297.926 34.4277C299.393 34.4277 300.688 34.7467 301.809 35.3848C302.93 36.0228 303.791 36.9388 304.393 38.1328C304.994 39.3268 305.295 40.7259 305.295 42.3301ZM312.91 50H308.74V28.7266H312.91V50ZM328.127 50L327.566 48.0449H327.348C326.901 48.7559 326.268 49.3073 325.447 49.6992C324.627 50.082 323.693 50.2734 322.645 50.2734C320.849 50.2734 319.495 49.7949 318.584 48.8379C317.673 47.8717 317.217 46.4863 317.217 44.6816V34.7148H321.387V43.6426C321.387 44.7454 321.583 45.5749 321.975 46.1309C322.367 46.6777 322.991 46.9512 323.848 46.9512C325.014 46.9512 325.857 46.5638 326.377 45.7891C326.896 45.0052 327.156 43.7109 327.156 41.9062V34.7148H331.326V50H328.127ZM342.141 46.9512C342.87 46.9512 343.745 46.7917 344.766 46.4727V49.5762C343.727 50.041 342.451 50.2734 340.938 50.2734C339.27 50.2734 338.053 49.8542 337.287 49.0156C336.531 48.168 336.152 46.901 336.152 45.2148V37.8457H334.156V36.082L336.453 34.6875L337.656 31.4609H340.322V34.7148H344.602V37.8457H340.322V45.2148C340.322 45.8073 340.486 46.2448 340.814 46.5273C341.152 46.8099 341.594 46.9512 342.141 46.9512ZM347.691 30.7637C347.691 29.4056 348.448 28.7266 349.961 28.7266C351.474 28.7266 352.23 29.4056 352.23 30.7637C352.23 31.4108 352.039 31.9167 351.656 32.2812C351.283 32.6367 350.717 32.8145 349.961 32.8145C348.448 32.8145 347.691 32.1309 347.691 30.7637ZM352.039 50H347.869V34.7148H352.039V50ZM359.75 42.3301C359.75 43.8431 359.996 44.987 360.488 45.7617C360.99 46.5365 361.801 46.9238 362.922 46.9238C364.034 46.9238 364.831 46.541 365.314 45.7754C365.807 45.0007 366.053 43.8522 366.053 42.3301C366.053 40.8171 365.807 39.6823 365.314 38.9258C364.822 38.1693 364.016 37.791 362.895 37.791C361.783 37.791 360.98 38.1693 360.488 38.9258C359.996 39.6732 359.75 40.8079 359.75 42.3301ZM370.318 42.3301C370.318 44.8184 369.662 46.7643 368.35 48.168C367.037 49.5716 365.21 50.2734 362.867 50.2734C361.4 50.2734 360.105 49.9544 358.984 49.3164C357.863 48.6693 357.002 47.7441 356.4 46.541C355.799 45.3379 355.498 43.9342 355.498 42.3301C355.498 39.8327 356.15 37.8913 357.453 36.5059C358.757 35.1204 360.589 34.4277 362.949 34.4277C364.417 34.4277 365.711 34.7467 366.832 35.3848C367.953 36.0228 368.814 36.9388 369.416 38.1328C370.018 39.3268 370.318 40.7259 370.318 42.3301ZM387.873 50H383.703V41.0723C383.703 39.9694 383.507 39.1445 383.115 38.5977C382.723 38.0417 382.099 37.7637 381.242 37.7637C380.076 37.7637 379.232 38.1556 378.713 38.9395C378.193 39.7142 377.934 41.0039 377.934 42.8086V50H373.764V34.7148H376.949L377.51 36.6699H377.742C378.207 35.9316 378.845 35.3757 379.656 35.002C380.477 34.6191 381.406 34.4277 382.445 34.4277C384.223 34.4277 385.572 34.9108 386.492 35.877C387.413 36.834 387.873 38.2194 387.873 40.0332V50ZM402.83 45.4609C402.83 47.0286 402.283 48.2227 401.189 49.043C400.105 49.8633 398.478 50.2734 396.309 50.2734C395.197 50.2734 394.249 50.196 393.465 50.041C392.681 49.8952 391.947 49.6764 391.264 49.3848V45.9395C392.038 46.304 392.909 46.6094 393.875 46.8555C394.85 47.1016 395.707 47.2246 396.445 47.2246C397.958 47.2246 398.715 46.7871 398.715 45.9121C398.715 45.584 398.615 45.3197 398.414 45.1191C398.214 44.9095 397.867 44.6771 397.375 44.4219C396.883 44.1576 396.227 43.8522 395.406 43.5059C394.23 43.0137 393.365 42.5579 392.809 42.1387C392.262 41.7194 391.861 41.2409 391.605 40.7031C391.359 40.1562 391.236 39.4863 391.236 38.6934C391.236 37.3353 391.76 36.2871 392.809 35.5488C393.866 34.8014 395.361 34.4277 397.293 34.4277C399.134 34.4277 400.925 34.8288 402.666 35.6309L401.408 38.6387C400.643 38.3105 399.927 38.0417 399.262 37.832C398.596 37.6224 397.917 37.5176 397.225 37.5176C395.994 37.5176 395.379 37.8503 395.379 38.5156C395.379 38.8893 395.575 39.2129 395.967 39.4863C396.368 39.7598 397.238 40.1654 398.578 40.7031C399.772 41.1862 400.647 41.6374 401.203 42.0566C401.759 42.4759 402.169 42.959 402.434 43.5059C402.698 44.0527 402.83 44.7044 402.83 45.4609ZM37.2266 71.375H35.5312V74H34.2891V71.375H28.7344V70.2422L34.1562 62.5156H35.5312V70.1953H37.2266V71.375ZM34.2891 70.1953V66.3984C34.2891 65.6536 34.3151 64.8125 34.3672 63.875H34.3047C34.0547 64.375 33.8203 64.7891 33.6016 65.1172L30.0312 70.1953H34.2891ZM41.6953 73.0859C41.9245 73.0859 42.1458 73.0703 42.3594 73.0391C42.5729 73.0026 42.7422 72.9661 42.8672 72.9297V73.9219C42.7266 73.9896 42.5182 74.0443 42.2422 74.0859C41.9714 74.1328 41.7266 74.1562 41.5078 74.1562C39.8516 74.1562 39.0234 73.2839 39.0234 71.5391V66.4453H37.7969V65.8203L39.0234 65.2812L39.5703 63.4531H40.3203V65.4375H42.8047V66.4453H40.3203V71.4844C40.3203 72 40.4427 72.3958 40.6875 72.6719C40.9323 72.9479 41.2682 73.0859 41.6953 73.0859ZM50.4453 74V68.4609C50.4453 67.763 50.2865 67.2422 49.9688 66.8984C49.651 66.5547 49.1536 66.3828 48.4766 66.3828C47.5755 66.3828 46.9167 66.6276 46.5 67.1172C46.0885 67.6068 45.8828 68.4089 45.8828 69.5234V74H44.5859V61.8438H45.8828V65.5234C45.8828 65.9661 45.862 66.3333 45.8203 66.625H45.8984C46.1536 66.2135 46.5156 65.8906 46.9844 65.6562C47.4583 65.4167 47.9974 65.2969 48.6016 65.2969C49.6484 65.2969 50.4323 65.5469 50.9531 66.0469C51.4792 66.5417 51.7422 67.3307 51.7422 68.4141V74H50.4453ZM60.0938 74H58.7656V62.5781H65.1328V63.7578H60.0938V67.9375H64.8281V69.1172H60.0938V74ZM68.1328 74H66.8359V61.8438H68.1328V74ZM78.2734 69.7109C78.2734 71.1068 77.9219 72.1979 77.2188 72.9844C76.5156 73.7656 75.5443 74.1562 74.3047 74.1562C73.5391 74.1562 72.8594 73.9766 72.2656 73.6172C71.6719 73.2578 71.2135 72.7422 70.8906 72.0703C70.5677 71.3984 70.4062 70.612 70.4062 69.7109C70.4062 68.3151 70.7552 67.2292 71.4531 66.4531C72.151 65.6719 73.1198 65.2812 74.3594 65.2812C75.5573 65.2812 76.5078 65.6797 77.2109 66.4766C77.9193 67.2734 78.2734 68.3516 78.2734 69.7109ZM71.75 69.7109C71.75 70.8047 71.9688 71.638 72.4062 72.2109C72.8438 72.7839 73.487 73.0703 74.3359 73.0703C75.1849 73.0703 75.8281 72.7865 76.2656 72.2188C76.7083 71.6458 76.9297 70.8099 76.9297 69.7109C76.9297 68.6224 76.7083 67.7969 76.2656 67.2344C75.8281 66.6667 75.1797 66.3828 74.3203 66.3828C73.4714 66.3828 72.8307 66.6615 72.3984 67.2188C71.9661 67.776 71.75 68.6068 71.75 69.7109ZM87.9453 69.7109C87.9453 71.1068 87.5938 72.1979 86.8906 72.9844C86.1875 73.7656 85.2161 74.1562 83.9766 74.1562C83.2109 74.1562 82.5312 73.9766 81.9375 73.6172C81.3438 73.2578 80.8854 72.7422 80.5625 72.0703C80.2396 71.3984 80.0781 70.612 80.0781 69.7109C80.0781 68.3151 80.4271 67.2292 81.125 66.4531C81.8229 65.6719 82.7917 65.2812 84.0312 65.2812C85.2292 65.2812 86.1797 65.6797 86.8828 66.4766C87.5911 67.2734 87.9453 68.3516 87.9453 69.7109ZM81.4219 69.7109C81.4219 70.8047 81.6406 71.638 82.0781 72.2109C82.5156 72.7839 83.1589 73.0703 84.0078 73.0703C84.8568 73.0703 85.5 72.7865 85.9375 72.2188C86.3802 71.6458 86.6016 70.8099 86.6016 69.7109C86.6016 68.6224 86.3802 67.7969 85.9375 67.2344C85.5 66.6667 84.8516 66.3828 83.9922 66.3828C83.1432 66.3828 82.5026 66.6615 82.0703 67.2188C81.638 67.776 81.4219 68.6068 81.4219 69.7109ZM94.1328 65.2812C94.513 65.2812 94.8542 65.3125 95.1562 65.375L94.9766 66.5781C94.6224 66.5 94.3099 66.4609 94.0391 66.4609C93.3464 66.4609 92.7526 66.7422 92.2578 67.3047C91.7682 67.8672 91.5234 68.5677 91.5234 69.4062V74H90.2266V65.4375H91.2969L91.4453 67.0234H91.5078C91.8255 66.4661 92.2083 66.0365 92.6562 65.7344C93.1042 65.4323 93.5964 65.2812 94.1328 65.2812ZM98.1172 72.1406L98.2344 72.3203C98.099 72.8411 97.9036 73.4453 97.6484 74.1328C97.3932 74.8255 97.1276 75.4688 96.8516 76.0625H95.875C96.0156 75.5208 96.1693 74.8516 96.3359 74.0547C96.5078 73.2578 96.6276 72.6198 96.6953 72.1406H98.1172ZM108.547 74H107.219V63.7578H103.602V62.5781H112.164V63.7578H108.547V74ZM113.891 74V62.5781H115.219V74H113.891ZM123.25 63.6016C121.995 63.6016 121.003 64.0208 120.273 64.8594C119.549 65.6927 119.188 66.8359 119.188 68.2891C119.188 69.7839 119.536 70.9401 120.234 71.7578C120.938 72.5703 121.938 72.9766 123.234 72.9766C124.031 72.9766 124.94 72.8333 125.961 72.5469V73.7109C125.169 74.0078 124.193 74.1562 123.031 74.1562C121.349 74.1562 120.049 73.6458 119.133 72.625C118.221 71.6042 117.766 70.1536 117.766 68.2734C117.766 67.0964 117.984 66.0651 118.422 65.1797C118.865 64.2943 119.5 63.612 120.328 63.1328C121.161 62.6536 122.141 62.4141 123.266 62.4141C124.464 62.4141 125.51 62.6328 126.406 63.0703L125.844 64.2109C124.979 63.8047 124.115 63.6016 123.25 63.6016ZM134.82 74H128.453V62.5781H134.82V63.7578H129.781V67.4375H134.516V68.6094H129.781V72.8125H134.82V74ZM137.359 74V62.5781H138.688V72.7969H143.727V74H137.359ZM149.828 62.5781H153.055C154.57 62.5781 155.667 62.8047 156.344 63.2578C157.021 63.7109 157.359 64.4271 157.359 65.4062C157.359 66.0833 157.169 66.6432 156.789 67.0859C156.414 67.5234 155.865 67.8073 155.141 67.9375V68.0156C156.875 68.3125 157.742 69.224 157.742 70.75C157.742 71.7708 157.396 72.5677 156.703 73.1406C156.016 73.7135 155.052 74 153.812 74H149.828V62.5781ZM151.156 67.4688H153.344C154.281 67.4688 154.956 67.3229 155.367 67.0312C155.779 66.7344 155.984 66.237 155.984 65.5391C155.984 64.8984 155.755 64.4375 155.297 64.1562C154.839 63.8698 154.109 63.7266 153.109 63.7266H151.156V67.4688ZM151.156 68.5938V72.8672H153.539C154.461 72.8672 155.154 72.6901 155.617 72.3359C156.086 71.9766 156.32 71.4167 156.32 70.6562C156.32 69.9479 156.081 69.4271 155.602 69.0938C155.128 68.7604 154.404 68.5938 153.43 68.5938H151.156ZM161.305 74H160.008V65.4375H161.305V74ZM159.898 63.1172C159.898 62.8203 159.971 62.6042 160.117 62.4688C160.263 62.3281 160.445 62.2578 160.664 62.2578C160.872 62.2578 161.052 62.3281 161.203 62.4688C161.354 62.6094 161.43 62.8255 161.43 63.1172C161.43 63.4089 161.354 63.6276 161.203 63.7734C161.052 63.9141 160.872 63.9844 160.664 63.9844C160.445 63.9844 160.263 63.9141 160.117 63.7734C159.971 63.6276 159.898 63.4089 159.898 63.1172ZM171.445 69.7109C171.445 71.1068 171.094 72.1979 170.391 72.9844C169.688 73.7656 168.716 74.1562 167.477 74.1562C166.711 74.1562 166.031 73.9766 165.438 73.6172C164.844 73.2578 164.385 72.7422 164.062 72.0703C163.74 71.3984 163.578 70.612 163.578 69.7109C163.578 68.3151 163.927 67.2292 164.625 66.4531C165.323 65.6719 166.292 65.2812 167.531 65.2812C168.729 65.2812 169.68 65.6797 170.383 66.4766C171.091 67.2734 171.445 68.3516 171.445 69.7109ZM164.922 69.7109C164.922 70.8047 165.141 71.638 165.578 72.2109C166.016 72.7839 166.659 73.0703 167.508 73.0703C168.357 73.0703 169 72.7865 169.438 72.2188C169.88 71.6458 170.102 70.8099 170.102 69.7109C170.102 68.6224 169.88 67.7969 169.438 67.2344C169 66.6667 168.352 66.3828 167.492 66.3828C166.643 66.3828 166.003 66.6615 165.57 67.2188C165.138 67.776 164.922 68.6068 164.922 69.7109ZM185.32 65.9062C185.32 67.0625 184.924 67.9531 184.133 68.5781C183.346 69.1979 182.219 69.5078 180.75 69.5078H179.406V74H178.078V62.5781H181.039C183.893 62.5781 185.32 63.6875 185.32 65.9062ZM179.406 68.3672H180.602C181.779 68.3672 182.63 68.1771 183.156 67.7969C183.682 67.4167 183.945 66.8073 183.945 65.9688C183.945 65.2135 183.698 64.651 183.203 64.2812C182.708 63.9115 181.938 63.7266 180.891 63.7266H179.406V68.3672ZM192.789 74L192.531 72.7812H192.469C192.042 73.3177 191.615 73.6823 191.188 73.875C190.766 74.0625 190.237 74.1562 189.602 74.1562C188.753 74.1562 188.086 73.9375 187.602 73.5C187.122 73.0625 186.883 72.4401 186.883 71.6328C186.883 69.9036 188.266 68.9974 191.031 68.9141L192.484 68.8672V68.3359C192.484 67.6641 192.339 67.1693 192.047 66.8516C191.76 66.5286 191.299 66.3672 190.664 66.3672C189.951 66.3672 189.143 66.5859 188.242 67.0234L187.844 66.0312C188.266 65.8021 188.727 65.6224 189.227 65.4922C189.732 65.362 190.237 65.2969 190.742 65.2969C191.763 65.2969 192.518 65.5234 193.008 65.9766C193.503 66.4297 193.75 67.1562 193.75 68.1562V74H192.789ZM189.859 73.0859C190.667 73.0859 191.299 72.8646 191.758 72.4219C192.221 71.9792 192.453 71.3594 192.453 70.5625V69.7891L191.156 69.8438C190.125 69.8802 189.38 70.0417 188.922 70.3281C188.469 70.6094 188.242 71.0495 188.242 71.6484C188.242 72.1172 188.383 72.474 188.664 72.7188C188.951 72.9635 189.349 73.0859 189.859 73.0859ZM200.336 65.2812C200.716 65.2812 201.057 65.3125 201.359 65.375L201.18 66.5781C200.826 66.5 200.513 66.4609 200.242 66.4609C199.549 66.4609 198.956 66.7422 198.461 67.3047C197.971 67.8672 197.727 68.5677 197.727 69.4062V74H196.43V65.4375H197.5L197.648 67.0234H197.711C198.029 66.4661 198.411 66.0365 198.859 65.7344C199.307 65.4323 199.799 65.2812 200.336 65.2812ZM204.242 69.6172C204.466 69.2995 204.807 68.8828 205.266 68.3672L208.031 65.4375H209.57L206.102 69.0859L209.812 74H208.242L205.219 69.9531L204.242 70.7969V74H202.961V61.8438H204.242V68.2891C204.242 68.5755 204.221 69.0182 204.18 69.6172H204.242ZM212.727 72.1406L212.844 72.3203C212.708 72.8411 212.513 73.4453 212.258 74.1328C212.003 74.8255 211.737 75.4688 211.461 76.0625H210.484C210.625 75.5208 210.779 74.8516 210.945 74.0547C211.117 73.2578 211.237 72.6198 211.305 72.1406H212.727ZM223.156 74H221.828V63.7578H218.211V62.5781H226.773V63.7578H223.156V74ZM233.57 74L233.312 72.7812H233.25C232.823 73.3177 232.396 73.6823 231.969 73.875C231.547 74.0625 231.018 74.1562 230.383 74.1562C229.534 74.1562 228.867 73.9375 228.383 73.5C227.904 73.0625 227.664 72.4401 227.664 71.6328C227.664 69.9036 229.047 68.9974 231.812 68.9141L233.266 68.8672V68.3359C233.266 67.6641 233.12 67.1693 232.828 66.8516C232.542 66.5286 232.081 66.3672 231.445 66.3672C230.732 66.3672 229.924 66.5859 229.023 67.0234L228.625 66.0312C229.047 65.8021 229.508 65.6224 230.008 65.4922C230.513 65.362 231.018 65.2969 231.523 65.2969C232.544 65.2969 233.299 65.5234 233.789 65.9766C234.284 66.4297 234.531 67.1562 234.531 68.1562V74H233.57ZM230.641 73.0859C231.448 73.0859 232.081 72.8646 232.539 72.4219C233.003 71.9792 233.234 71.3594 233.234 70.5625V69.7891L231.938 69.8438C230.906 69.8802 230.161 70.0417 229.703 70.3281C229.25 70.6094 229.023 71.0495 229.023 71.6484C229.023 72.1172 229.164 72.474 229.445 72.7188C229.732 72.9635 230.13 73.0859 230.641 73.0859ZM241.117 65.2812C241.497 65.2812 241.839 65.3125 242.141 65.375L241.961 66.5781C241.607 66.5 241.294 66.4609 241.023 66.4609C240.331 66.4609 239.737 66.7422 239.242 67.3047C238.753 67.8672 238.508 68.5677 238.508 69.4062V74H237.211V65.4375H238.281L238.43 67.0234H238.492C238.81 66.4661 239.193 66.0365 239.641 65.7344C240.089 65.4323 240.581 65.2812 241.117 65.2812ZM249.008 74L248.75 72.7812H248.688C248.26 73.3177 247.833 73.6823 247.406 73.875C246.984 74.0625 246.456 74.1562 245.82 74.1562C244.971 74.1562 244.305 73.9375 243.82 73.5C243.341 73.0625 243.102 72.4401 243.102 71.6328C243.102 69.9036 244.484 68.9974 247.25 68.9141L248.703 68.8672V68.3359C248.703 67.6641 248.557 67.1693 248.266 66.8516C247.979 66.5286 247.518 66.3672 246.883 66.3672C246.169 66.3672 245.362 66.5859 244.461 67.0234L244.062 66.0312C244.484 65.8021 244.945 65.6224 245.445 65.4922C245.951 65.362 246.456 65.2969 246.961 65.2969C247.982 65.2969 248.737 65.5234 249.227 65.9766C249.721 66.4297 249.969 67.1562 249.969 68.1562V74H249.008ZM246.078 73.0859C246.885 73.0859 247.518 72.8646 247.977 72.4219C248.44 71.9792 248.672 71.3594 248.672 70.5625V69.7891L247.375 69.8438C246.344 69.8802 245.599 70.0417 245.141 70.3281C244.688 70.6094 244.461 71.0495 244.461 71.6484C244.461 72.1172 244.602 72.474 244.883 72.7188C245.169 72.9635 245.568 73.0859 246.078 73.0859ZM263.562 74V68.4297C263.562 67.7474 263.417 67.237 263.125 66.8984C262.833 66.5547 262.38 66.3828 261.766 66.3828C260.958 66.3828 260.362 66.6146 259.977 67.0781C259.591 67.5417 259.398 68.2552 259.398 69.2188V74H258.102V68.4297C258.102 67.7474 257.956 67.237 257.664 66.8984C257.372 66.5547 256.917 66.3828 256.297 66.3828C255.484 66.3828 254.888 66.6276 254.508 67.1172C254.133 67.6016 253.945 68.3984 253.945 69.5078V74H252.648V65.4375H253.703L253.914 66.6094H253.977C254.221 66.1927 254.565 65.8672 255.008 65.6328C255.456 65.3984 255.956 65.2812 256.508 65.2812C257.846 65.2812 258.721 65.7656 259.133 66.7344H259.195C259.451 66.2865 259.82 65.9323 260.305 65.6719C260.789 65.4115 261.341 65.2812 261.961 65.2812C262.93 65.2812 263.654 65.5312 264.133 66.0312C264.617 66.526 264.859 67.3203 264.859 68.4141V74H263.562ZM272.805 74L272.547 72.7812H272.484C272.057 73.3177 271.63 73.6823 271.203 73.875C270.781 74.0625 270.253 74.1562 269.617 74.1562C268.768 74.1562 268.102 73.9375 267.617 73.5C267.138 73.0625 266.898 72.4401 266.898 71.6328C266.898 69.9036 268.281 68.9974 271.047 68.9141L272.5 68.8672V68.3359C272.5 67.6641 272.354 67.1693 272.062 66.8516C271.776 66.5286 271.315 66.3672 270.68 66.3672C269.966 66.3672 269.159 66.5859 268.258 67.0234L267.859 66.0312C268.281 65.8021 268.742 65.6224 269.242 65.4922C269.747 65.362 270.253 65.2969 270.758 65.2969C271.779 65.2969 272.534 65.5234 273.023 65.9766C273.518 66.4297 273.766 67.1562 273.766 68.1562V74H272.805ZM269.875 73.0859C270.682 73.0859 271.315 72.8646 271.773 72.4219C272.237 71.9792 272.469 71.3594 272.469 70.5625V69.7891L271.172 69.8438C270.141 69.8802 269.396 70.0417 268.938 70.3281C268.484 70.6094 268.258 71.0495 268.258 71.6484C268.258 72.1172 268.398 72.474 268.68 72.7188C268.966 72.9635 269.365 73.0859 269.875 73.0859ZM282.305 74V68.4609C282.305 67.763 282.146 67.2422 281.828 66.8984C281.51 66.5547 281.013 66.3828 280.336 66.3828C279.44 66.3828 278.784 66.625 278.367 67.1094C277.951 67.5938 277.742 68.3932 277.742 69.5078V74H276.445V65.4375H277.5L277.711 66.6094H277.773C278.039 66.1875 278.411 65.862 278.891 65.6328C279.37 65.3984 279.904 65.2812 280.492 65.2812C281.523 65.2812 282.299 65.5312 282.82 66.0312C283.341 66.526 283.602 67.3203 283.602 68.4141V74H282.305ZM287.57 74H286.273V65.4375H287.57V74ZM286.164 63.1172C286.164 62.8203 286.237 62.6042 286.383 62.4688C286.529 62.3281 286.711 62.2578 286.93 62.2578C287.138 62.2578 287.318 62.3281 287.469 62.4688C287.62 62.6094 287.695 62.8255 287.695 63.1172C287.695 63.4089 287.62 63.6276 287.469 63.7734C287.318 63.9141 287.138 63.9844 286.93 63.9844C286.711 63.9844 286.529 63.9141 286.383 63.7734C286.237 63.6276 286.164 63.4089 286.164 63.1172ZM291.68 72.1406L291.797 72.3203C291.661 72.8411 291.466 73.4453 291.211 74.1328C290.956 74.8255 290.69 75.4688 290.414 76.0625H289.438C289.578 75.5208 289.732 74.8516 289.898 74.0547C290.07 73.2578 290.19 72.6198 290.258 72.1406H291.68ZM303.484 63.6016C302.229 63.6016 301.237 64.0208 300.508 64.8594C299.784 65.6927 299.422 66.8359 299.422 68.2891C299.422 69.7839 299.771 70.9401 300.469 71.7578C301.172 72.5703 302.172 72.9766 303.469 72.9766C304.266 72.9766 305.174 72.8333 306.195 72.5469V73.7109C305.404 74.0078 304.427 74.1562 303.266 74.1562C301.583 74.1562 300.284 73.6458 299.367 72.625C298.456 71.6042 298 70.1536 298 68.2734C298 67.0964 298.219 66.0651 298.656 65.1797C299.099 64.2943 299.734 63.612 300.562 63.1328C301.396 62.6536 302.375 62.4141 303.5 62.4141C304.698 62.4141 305.745 62.6328 306.641 63.0703L306.078 64.2109C305.214 63.8047 304.349 63.6016 303.484 63.6016ZM314.352 74V68.4609C314.352 67.763 314.193 67.2422 313.875 66.8984C313.557 66.5547 313.06 66.3828 312.383 66.3828C311.482 66.3828 310.823 66.6276 310.406 67.1172C309.995 67.6068 309.789 68.4089 309.789 69.5234V74H308.492V61.8438H309.789V65.5234C309.789 65.9661 309.768 66.3333 309.727 66.625H309.805C310.06 66.2135 310.422 65.8906 310.891 65.6562C311.365 65.4167 311.904 65.2969 312.508 65.2969C313.555 65.2969 314.339 65.5469 314.859 66.0469C315.385 66.5417 315.648 67.3307 315.648 68.4141V74H314.352ZM321.938 74.1562C320.672 74.1562 319.672 73.7708 318.938 73C318.208 72.2292 317.844 71.1589 317.844 69.7891C317.844 68.4089 318.182 67.3125 318.859 66.5C319.542 65.6875 320.456 65.2812 321.602 65.2812C322.674 65.2812 323.523 65.6354 324.148 66.3438C324.773 67.0469 325.086 67.9766 325.086 69.1328V69.9531H319.188C319.214 70.9583 319.466 71.7214 319.945 72.2422C320.43 72.763 321.109 73.0234 321.984 73.0234C322.906 73.0234 323.818 72.8307 324.719 72.4453V73.6016C324.26 73.7995 323.826 73.9401 323.414 74.0234C323.008 74.112 322.516 74.1562 321.938 74.1562ZM321.586 66.3672C320.898 66.3672 320.349 66.5911 319.938 67.0391C319.531 67.487 319.292 68.1068 319.219 68.8984H323.695C323.695 68.0807 323.513 67.4557 323.148 67.0234C322.784 66.5859 322.263 66.3672 321.586 66.3672ZM333.164 74V68.4609C333.164 67.763 333.005 67.2422 332.688 66.8984C332.37 66.5547 331.872 66.3828 331.195 66.3828C330.299 66.3828 329.643 66.625 329.227 67.1094C328.81 67.5938 328.602 68.3932 328.602 69.5078V74H327.305V65.4375H328.359L328.57 66.6094H328.633C328.898 66.1875 329.271 65.862 329.75 65.6328C330.229 65.3984 330.763 65.2812 331.352 65.2812C332.383 65.2812 333.159 65.5312 333.68 66.0312C334.201 66.526 334.461 67.3203 334.461 68.4141V74H333.164ZM342.992 74V68.4609C342.992 67.763 342.833 67.2422 342.516 66.8984C342.198 66.5547 341.701 66.3828 341.023 66.3828C340.128 66.3828 339.471 66.625 339.055 67.1094C338.638 67.5938 338.43 68.3932 338.43 69.5078V74H337.133V65.4375H338.188L338.398 66.6094H338.461C338.727 66.1875 339.099 65.862 339.578 65.6328C340.057 65.3984 340.591 65.2812 341.18 65.2812C342.211 65.2812 342.987 65.5312 343.508 66.0312C344.029 66.526 344.289 67.3203 344.289 68.4141V74H342.992ZM352.227 74L351.969 72.7812H351.906C351.479 73.3177 351.052 73.6823 350.625 73.875C350.203 74.0625 349.674 74.1562 349.039 74.1562C348.19 74.1562 347.523 73.9375 347.039 73.5C346.56 73.0625 346.32 72.4401 346.32 71.6328C346.32 69.9036 347.703 68.9974 350.469 68.9141L351.922 68.8672V68.3359C351.922 67.6641 351.776 67.1693 351.484 66.8516C351.198 66.5286 350.737 66.3672 350.102 66.3672C349.388 66.3672 348.581 66.5859 347.68 67.0234L347.281 66.0312C347.703 65.8021 348.164 65.6224 348.664 65.4922C349.169 65.362 349.674 65.2969 350.18 65.2969C351.201 65.2969 351.956 65.5234 352.445 65.9766C352.94 66.4297 353.188 67.1562 353.188 68.1562V74H352.227ZM349.297 73.0859C350.104 73.0859 350.737 72.8646 351.195 72.4219C351.659 71.9792 351.891 71.3594 351.891 70.5625V69.7891L350.594 69.8438C349.562 69.8802 348.818 70.0417 348.359 70.3281C347.906 70.6094 347.68 71.0495 347.68 71.6484C347.68 72.1172 347.82 72.474 348.102 72.7188C348.388 72.9635 348.786 73.0859 349.297 73.0859ZM357.164 74H355.867V65.4375H357.164V74ZM355.758 63.1172C355.758 62.8203 355.831 62.6042 355.977 62.4688C356.122 62.3281 356.305 62.2578 356.523 62.2578C356.732 62.2578 356.911 62.3281 357.062 62.4688C357.214 62.6094 357.289 62.8255 357.289 63.1172C357.289 63.4089 357.214 63.6276 357.062 63.7734C356.911 63.9141 356.732 63.9844 356.523 63.9844C356.305 63.9844 356.122 63.9141 355.977 63.7734C355.831 63.6276 355.758 63.4089 355.758 63.1172ZM366.555 61.8438H367.656V77.875H366.555V61.8438ZM379.805 73.0859C380.034 73.0859 380.255 73.0703 380.469 73.0391C380.682 73.0026 380.852 72.9661 380.977 72.9297V73.9219C380.836 73.9896 380.628 74.0443 380.352 74.0859C380.081 74.1328 379.836 74.1562 379.617 74.1562C377.961 74.1562 377.133 73.2839 377.133 71.5391V66.4453H375.906V65.8203L377.133 65.2812L377.68 63.4531H378.43V65.4375H380.914V66.4453H378.43V71.4844C378.43 72 378.552 72.3958 378.797 72.6719C379.042 72.9479 379.378 73.0859 379.805 73.0859ZM386.312 74.1562C385.047 74.1562 384.047 73.7708 383.312 73C382.583 72.2292 382.219 71.1589 382.219 69.7891C382.219 68.4089 382.557 67.3125 383.234 66.5C383.917 65.6875 384.831 65.2812 385.977 65.2812C387.049 65.2812 387.898 65.6354 388.523 66.3438C389.148 67.0469 389.461 67.9766 389.461 69.1328V69.9531H383.562C383.589 70.9583 383.841 71.7214 384.32 72.2422C384.805 72.763 385.484 73.0234 386.359 73.0234C387.281 73.0234 388.193 72.8307 389.094 72.4453V73.6016C388.635 73.7995 388.201 73.9401 387.789 74.0234C387.383 74.112 386.891 74.1562 386.312 74.1562ZM385.961 66.3672C385.273 66.3672 384.724 66.5911 384.312 67.0391C383.906 67.487 383.667 68.1068 383.594 68.8984H388.07C388.07 68.0807 387.888 67.4557 387.523 67.0234C387.159 66.5859 386.638 66.3672 385.961 66.3672ZM392.961 69.6172C393.185 69.2995 393.526 68.8828 393.984 68.3672L396.75 65.4375H398.289L394.82 69.0859L398.531 74H396.961L393.938 69.9531L392.961 70.7969V74H391.68V61.8438H392.961V68.2891C392.961 68.5755 392.94 69.0182 392.898 69.6172H392.961ZM403.508 74.1562C402.268 74.1562 401.307 73.776 400.625 73.0156C399.948 72.25 399.609 71.1693 399.609 69.7734C399.609 68.3411 399.953 67.2344 400.641 66.4531C401.333 65.6719 402.318 65.2812 403.594 65.2812C404.005 65.2812 404.417 65.3255 404.828 65.4141C405.24 65.5026 405.562 65.6068 405.797 65.7266L405.398 66.8281C405.112 66.7135 404.799 66.6198 404.461 66.5469C404.122 66.4688 403.823 66.4297 403.562 66.4297C401.823 66.4297 400.953 67.5391 400.953 69.7578C400.953 70.8099 401.164 71.6172 401.586 72.1797C402.013 72.7422 402.643 73.0234 403.477 73.0234C404.19 73.0234 404.922 72.8698 405.672 72.5625V73.7109C405.099 74.0078 404.378 74.1562 403.508 74.1562ZM409.008 74H407.711V61.8438H409.008V74ZM417.023 74L416.766 72.7812H416.703C416.276 73.3177 415.849 73.6823 415.422 73.875C415 74.0625 414.471 74.1562 413.836 74.1562C412.987 74.1562 412.32 73.9375 411.836 73.5C411.357 73.0625 411.117 72.4401 411.117 71.6328C411.117 69.9036 412.5 68.9974 415.266 68.9141L416.719 68.8672V68.3359C416.719 67.6641 416.573 67.1693 416.281 66.8516C415.995 66.5286 415.534 66.3672 414.898 66.3672C414.185 66.3672 413.378 66.5859 412.477 67.0234L412.078 66.0312C412.5 65.8021 412.961 65.6224 413.461 65.4922C413.966 65.362 414.471 65.2969 414.977 65.2969C415.997 65.2969 416.753 65.5234 417.242 65.9766C417.737 66.4297 417.984 67.1562 417.984 68.1562V74H417.023ZM414.094 73.0859C414.901 73.0859 415.534 72.8646 415.992 72.4219C416.456 71.9792 416.688 71.3594 416.688 70.5625V69.7891L415.391 69.8438C414.359 69.8802 413.615 70.0417 413.156 70.3281C412.703 70.6094 412.477 71.0495 412.477 71.6484C412.477 72.1172 412.617 72.474 412.898 72.7188C413.185 72.9635 413.583 73.0859 414.094 73.0859ZM426.523 74V68.4609C426.523 67.763 426.365 67.2422 426.047 66.8984C425.729 66.5547 425.232 66.3828 424.555 66.3828C423.659 66.3828 423.003 66.625 422.586 67.1094C422.169 67.5938 421.961 68.3932 421.961 69.5078V74H420.664V65.4375H421.719L421.93 66.6094H421.992C422.258 66.1875 422.63 65.862 423.109 65.6328C423.589 65.3984 424.122 65.2812 424.711 65.2812C425.742 65.2812 426.518 65.5312 427.039 66.0312C427.56 66.526 427.82 67.3203 427.82 68.4141V74H426.523ZM436.016 71.6641C436.016 72.4609 435.719 73.0755 435.125 73.5078C434.531 73.9401 433.698 74.1562 432.625 74.1562C431.49 74.1562 430.604 73.9766 429.969 73.6172V72.4141C430.38 72.6224 430.82 72.7865 431.289 72.9062C431.763 73.026 432.219 73.0859 432.656 73.0859C433.333 73.0859 433.854 72.9792 434.219 72.7656C434.583 72.5469 434.766 72.2161 434.766 71.7734C434.766 71.4401 434.62 71.1562 434.328 70.9219C434.042 70.6823 433.479 70.401 432.641 70.0781C431.844 69.7812 431.276 69.5234 430.938 69.3047C430.604 69.0807 430.354 68.8281 430.188 68.5469C430.026 68.2656 429.945 67.9297 429.945 67.5391C429.945 66.8411 430.229 66.2917 430.797 65.8906C431.365 65.4844 432.143 65.2812 433.133 65.2812C434.055 65.2812 434.956 65.4688 435.836 65.8438L435.375 66.8984C434.516 66.5443 433.737 66.3672 433.039 66.3672C432.424 66.3672 431.961 66.4635 431.648 66.6562C431.336 66.849 431.18 67.1146 431.18 67.4531C431.18 67.6823 431.237 67.8776 431.352 68.0391C431.471 68.2005 431.661 68.3542 431.922 68.5C432.182 68.6458 432.682 68.8568 433.422 69.1328C434.438 69.5026 435.122 69.875 435.477 70.25C435.836 70.625 436.016 71.0964 436.016 71.6641ZM445.523 69.7109C445.523 71.1068 445.172 72.1979 444.469 72.9844C443.766 73.7656 442.794 74.1562 441.555 74.1562C440.789 74.1562 440.109 73.9766 439.516 73.6172C438.922 73.2578 438.464 72.7422 438.141 72.0703C437.818 71.3984 437.656 70.612 437.656 69.7109C437.656 68.3151 438.005 67.2292 438.703 66.4531C439.401 65.6719 440.37 65.2812 441.609 65.2812C442.807 65.2812 443.758 65.6797 444.461 66.4766C445.169 67.2734 445.523 68.3516 445.523 69.7109ZM439 69.7109C439 70.8047 439.219 71.638 439.656 72.2109C440.094 72.7839 440.737 73.0703 441.586 73.0703C442.435 73.0703 443.078 72.7865 443.516 72.2188C443.958 71.6458 444.18 70.8099 444.18 69.7109C444.18 68.6224 443.958 67.7969 443.516 67.2344C443.078 66.6667 442.43 66.3828 441.57 66.3828C440.721 66.3828 440.081 66.6615 439.648 67.2188C439.216 67.776 439 68.6068 439 69.7109ZM449.102 74H447.805V61.8438H449.102V74ZM453.07 65.4375V70.9922C453.07 71.6901 453.229 72.2109 453.547 72.5547C453.865 72.8984 454.362 73.0703 455.039 73.0703C455.935 73.0703 456.589 72.8255 457 72.3359C457.417 71.8464 457.625 71.0469 457.625 69.9375V65.4375H458.922V74H457.852L457.664 72.8516H457.594C457.328 73.2734 456.958 73.5964 456.484 73.8203C456.016 74.0443 455.479 74.1562 454.875 74.1562C453.833 74.1562 453.052 73.9089 452.531 73.4141C452.016 72.9193 451.758 72.1276 451.758 71.0391V65.4375H453.07ZM464.445 73.0859C464.674 73.0859 464.896 73.0703 465.109 73.0391C465.323 73.0026 465.492 72.9661 465.617 72.9297V73.9219C465.477 73.9896 465.268 74.0443 464.992 74.0859C464.721 74.1328 464.477 74.1562 464.258 74.1562C462.602 74.1562 461.773 73.2839 461.773 71.5391V66.4453H460.547V65.8203L461.773 65.2812L462.32 63.4531H463.07V65.4375H465.555V66.4453H463.07V71.4844C463.07 72 463.193 72.3958 463.438 72.6719C463.682 72.9479 464.018 73.0859 464.445 73.0859ZM468.633 74H467.336V65.4375H468.633V74ZM467.227 63.1172C467.227 62.8203 467.299 62.6042 467.445 62.4688C467.591 62.3281 467.773 62.2578 467.992 62.2578C468.201 62.2578 468.38 62.3281 468.531 62.4688C468.682 62.6094 468.758 62.8255 468.758 63.1172C468.758 63.4089 468.682 63.6276 468.531 63.7734C468.38 63.9141 468.201 63.9844 467.992 63.9844C467.773 63.9844 467.591 63.9141 467.445 63.7734C467.299 63.6276 467.227 63.4089 467.227 63.1172ZM478.773 69.7109C478.773 71.1068 478.422 72.1979 477.719 72.9844C477.016 73.7656 476.044 74.1562 474.805 74.1562C474.039 74.1562 473.359 73.9766 472.766 73.6172C472.172 73.2578 471.714 72.7422 471.391 72.0703C471.068 71.3984 470.906 70.612 470.906 69.7109C470.906 68.3151 471.255 67.2292 471.953 66.4531C472.651 65.6719 473.62 65.2812 474.859 65.2812C476.057 65.2812 477.008 65.6797 477.711 66.4766C478.419 67.2734 478.773 68.3516 478.773 69.7109ZM472.25 69.7109C472.25 70.8047 472.469 71.638 472.906 72.2109C473.344 72.7839 473.987 73.0703 474.836 73.0703C475.685 73.0703 476.328 72.7865 476.766 72.2188C477.208 71.6458 477.43 70.8099 477.43 69.7109C477.43 68.6224 477.208 67.7969 476.766 67.2344C476.328 66.6667 475.68 66.3828 474.82 66.3828C473.971 66.3828 473.331 66.6615 472.898 67.2188C472.466 67.776 472.25 68.6068 472.25 69.7109ZM486.914 74V68.4609C486.914 67.763 486.755 67.2422 486.438 66.8984C486.12 66.5547 485.622 66.3828 484.945 66.3828C484.049 66.3828 483.393 66.625 482.977 67.1094C482.56 67.5938 482.352 68.3932 482.352 69.5078V74H481.055V65.4375H482.109L482.32 66.6094H482.383C482.648 66.1875 483.021 65.862 483.5 65.6328C483.979 65.3984 484.513 65.2812 485.102 65.2812C486.133 65.2812 486.909 65.5312 487.43 66.0312C487.951 66.526 488.211 67.3203 488.211 68.4141V74H486.914ZM496.406 71.6641C496.406 72.4609 496.109 73.0755 495.516 73.5078C494.922 73.9401 494.089 74.1562 493.016 74.1562C491.88 74.1562 490.995 73.9766 490.359 73.6172V72.4141C490.771 72.6224 491.211 72.7865 491.68 72.9062C492.154 73.026 492.609 73.0859 493.047 73.0859C493.724 73.0859 494.245 72.9792 494.609 72.7656C494.974 72.5469 495.156 72.2161 495.156 71.7734C495.156 71.4401 495.01 71.1562 494.719 70.9219C494.432 70.6823 493.87 70.401 493.031 70.0781C492.234 69.7812 491.667 69.5234 491.328 69.3047C490.995 69.0807 490.745 68.8281 490.578 68.5469C490.417 68.2656 490.336 67.9297 490.336 67.5391C490.336 66.8411 490.62 66.2917 491.188 65.8906C491.755 65.4844 492.534 65.2812 493.523 65.2812C494.445 65.2812 495.346 65.4688 496.227 65.8438L495.766 66.8984C494.906 66.5443 494.128 66.3672 493.43 66.3672C492.815 66.3672 492.352 66.4635 492.039 66.6562C491.727 66.849 491.57 67.1146 491.57 67.4531C491.57 67.6823 491.628 67.8776 491.742 68.0391C491.862 68.2005 492.052 68.3542 492.312 68.5C492.573 68.6458 493.073 68.8568 493.812 69.1328C494.828 69.5026 495.513 69.875 495.867 70.25C496.227 70.625 496.406 71.0964 496.406 71.6641ZM498.336 73.1719C498.336 72.8229 498.414 72.5599 498.57 72.3828C498.732 72.2005 498.961 72.1094 499.258 72.1094C499.56 72.1094 499.794 72.2005 499.961 72.3828C500.133 72.5599 500.219 72.8229 500.219 73.1719C500.219 73.5104 500.133 73.7708 499.961 73.9531C499.789 74.1354 499.555 74.2266 499.258 74.2266C498.992 74.2266 498.771 74.1458 498.594 73.9844C498.422 73.8177 498.336 73.5469 498.336 73.1719ZM506.211 74.1562C504.971 74.1562 504.01 73.776 503.328 73.0156C502.651 72.25 502.312 71.1693 502.312 69.7734C502.312 68.3411 502.656 67.2344 503.344 66.4531C504.036 65.6719 505.021 65.2812 506.297 65.2812C506.708 65.2812 507.12 65.3255 507.531 65.4141C507.943 65.5026 508.266 65.6068 508.5 65.7266L508.102 66.8281C507.815 66.7135 507.503 66.6198 507.164 66.5469C506.826 66.4688 506.526 66.4297 506.266 66.4297C504.526 66.4297 503.656 67.5391 503.656 69.7578C503.656 70.8099 503.867 71.6172 504.289 72.1797C504.716 72.7422 505.346 73.0234 506.18 73.0234C506.893 73.0234 507.625 72.8698 508.375 72.5625V73.7109C507.802 74.0078 507.081 74.1562 506.211 74.1562ZM517.805 69.7109C517.805 71.1068 517.453 72.1979 516.75 72.9844C516.047 73.7656 515.076 74.1562 513.836 74.1562C513.07 74.1562 512.391 73.9766 511.797 73.6172C511.203 73.2578 510.745 72.7422 510.422 72.0703C510.099 71.3984 509.938 70.612 509.938 69.7109C509.938 68.3151 510.286 67.2292 510.984 66.4531C511.682 65.6719 512.651 65.2812 513.891 65.2812C515.089 65.2812 516.039 65.6797 516.742 66.4766C517.451 67.2734 517.805 68.3516 517.805 69.7109ZM511.281 69.7109C511.281 70.8047 511.5 71.638 511.938 72.2109C512.375 72.7839 513.018 73.0703 513.867 73.0703C514.716 73.0703 515.359 72.7865 515.797 72.2188C516.24 71.6458 516.461 70.8099 516.461 69.7109C516.461 68.6224 516.24 67.7969 515.797 67.2344C515.359 66.6667 514.711 66.3828 513.852 66.3828C513.003 66.3828 512.362 66.6615 511.93 67.2188C511.497 67.776 511.281 68.6068 511.281 69.7109ZM531 74V68.4297C531 67.7474 530.854 67.237 530.562 66.8984C530.271 66.5547 529.818 66.3828 529.203 66.3828C528.396 66.3828 527.799 66.6146 527.414 67.0781C527.029 67.5417 526.836 68.2552 526.836 69.2188V74H525.539V68.4297C525.539 67.7474 525.393 67.237 525.102 66.8984C524.81 66.5547 524.354 66.3828 523.734 66.3828C522.922 66.3828 522.326 66.6276 521.945 67.1172C521.57 67.6016 521.383 68.3984 521.383 69.5078V74H520.086V65.4375H521.141L521.352 66.6094H521.414C521.659 66.1927 522.003 65.8672 522.445 65.6328C522.893 65.3984 523.393 65.2812 523.945 65.2812C525.284 65.2812 526.159 65.7656 526.57 66.7344H526.633C526.888 66.2865 527.258 65.9323 527.742 65.6719C528.227 65.4115 528.779 65.2812 529.398 65.2812C530.367 65.2812 531.091 65.5312 531.57 66.0312C532.055 66.526 532.297 67.3203 532.297 68.4141V74H531Z" fill="black"/>
</svg>
