<svg width="227" height="97" viewBox="0 0 227 97" fill="none" xmlns="http://www.w3.org/2000/svg">
<path d="M53.1172 8.26562V9.47656L51.75 9.82812C52 10.2188 52.125 10.6562 52.125 11.1406C52.125 12.0781 51.7969 12.8099 51.1406 13.3359C50.4896 13.8568 49.5833 14.1172 48.4219 14.1172L47.9922 14.0938L47.6406 14.0547C47.3958 14.2422 47.2734 14.4505 47.2734 14.6797C47.2734 15.0234 47.7109 15.1953 48.5859 15.1953H50.0703C51.0286 15.1953 51.7578 15.401 52.2578 15.8125C52.763 16.224 53.0156 16.8281 53.0156 17.625C53.0156 18.6458 52.5885 19.4375 51.7344 20C50.8854 20.5625 49.6641 20.8438 48.0703 20.8438C46.8516 20.8438 45.9193 20.6302 45.2734 20.2031C44.6328 19.7812 44.3125 19.1875 44.3125 18.4219C44.3125 17.8958 44.4766 17.4557 44.8047 17.1016C45.1328 16.7474 45.6146 16.4948 46.25 16.3438C46.0052 16.2396 45.7917 16.0703 45.6094 15.8359C45.4271 15.5964 45.3359 15.3438 45.3359 15.0781C45.3359 14.7448 45.4323 14.4688 45.625 14.25C45.8177 14.026 46.0964 13.8073 46.4609 13.5938C46.0026 13.3958 45.638 13.0781 45.3672 12.6406C45.1016 12.2031 44.9688 11.6875 44.9688 11.0938C44.9688 10.1406 45.2786 9.40365 45.8984 8.88281C46.5182 8.36198 47.4036 8.10156 48.5547 8.10156C48.7995 8.10156 49.0885 8.125 49.4219 8.17188C49.7604 8.21354 49.9766 8.24479 50.0703 8.26562H53.1172ZM46.375 18.2344C46.375 18.5625 46.5312 18.8203 46.8438 19.0078C47.1615 19.1953 47.6042 19.2891 48.1719 19.2891C49.026 19.2891 49.6953 19.1719 50.1797 18.9375C50.6641 18.7031 50.9062 18.3828 50.9062 17.9766C50.9062 17.6484 50.763 17.4219 50.4766 17.2969C50.1901 17.1719 49.7474 17.1094 49.1484 17.1094H47.9141C47.4766 17.1094 47.1094 17.2109 46.8125 17.4141C46.5208 17.6224 46.375 17.8958 46.375 18.2344ZM47.2422 11.125C47.2422 11.599 47.349 11.974 47.5625 12.25C47.7812 12.526 48.112 12.6641 48.5547 12.6641C49.0026 12.6641 49.3307 12.526 49.5391 12.25C49.7474 11.974 49.8516 11.599 49.8516 11.125C49.8516 10.0729 49.4193 9.54688 48.5547 9.54688C47.6797 9.54688 47.2422 10.0729 47.2422 11.125ZM53.3125 8.26562H55.9219L57.5703 13.1797C57.7109 13.6068 57.8073 14.112 57.8594 14.6953H57.9062C57.9635 14.1589 58.0755 13.6536 58.2422 13.1797L59.8594 8.26562H62.4141L58.7188 18.1172C58.3802 19.0286 57.8958 19.7109 57.2656 20.1641C56.6406 20.6172 55.9089 20.8438 55.0703 20.8438C54.6589 20.8438 54.2552 20.7995 53.8594 20.7109V18.8203C54.1458 18.888 54.4583 18.9219 54.7969 18.9219C55.2188 18.9219 55.5859 18.7917 55.8984 18.5312C56.2161 18.276 56.4635 17.888 56.6406 17.3672L56.7812 16.9375L53.3125 8.26562ZM68.4688 17.1562C67.4427 17.1562 66.638 16.7839 66.0547 16.0391H65.9297C66.013 16.7682 66.0547 17.1901 66.0547 17.3047V20.8438H63.6719V8.26562H65.6094L65.9453 9.39844H66.0547C66.612 8.53385 67.4375 8.10156 68.5312 8.10156C69.5625 8.10156 70.3698 8.5 70.9531 9.29688C71.5365 10.0938 71.8281 11.2005 71.8281 12.6172C71.8281 13.5495 71.6901 14.3594 71.4141 15.0469C71.1432 15.7344 70.7552 16.2578 70.25 16.6172C69.7448 16.9766 69.151 17.1562 68.4688 17.1562ZM67.7656 10.0078C67.1771 10.0078 66.7474 10.1901 66.4766 10.5547C66.2057 10.9141 66.0651 11.5104 66.0547 12.3438V12.6016C66.0547 13.5391 66.1927 14.2109 66.4688 14.6172C66.75 15.0234 67.1927 15.2266 67.7969 15.2266C68.8646 15.2266 69.3984 14.3464 69.3984 12.5859C69.3984 11.7266 69.2656 11.0833 69 10.6562C68.7396 10.224 68.3281 10.0078 67.7656 10.0078ZM79.8906 14.4062C79.8906 15.3021 79.5781 15.9844 78.9531 16.4531C78.3333 16.9219 77.4036 17.1562 76.1641 17.1562C75.5286 17.1562 74.987 17.112 74.5391 17.0234C74.0911 16.9401 73.6719 16.8151 73.2812 16.6484V14.6797C73.724 14.888 74.2214 15.0625 74.7734 15.2031C75.3307 15.3438 75.8203 15.4141 76.2422 15.4141C77.1068 15.4141 77.5391 15.1641 77.5391 14.6641C77.5391 14.4766 77.4818 14.3255 77.3672 14.2109C77.2526 14.0911 77.0547 13.9583 76.7734 13.8125C76.4922 13.6615 76.1172 13.487 75.6484 13.2891C74.9766 13.0078 74.4818 12.7474 74.1641 12.5078C73.8516 12.2682 73.6224 11.9948 73.4766 11.6875C73.3359 11.375 73.2656 10.9922 73.2656 10.5391C73.2656 9.76302 73.5651 9.16406 74.1641 8.74219C74.7682 8.3151 75.6224 8.10156 76.7266 8.10156C77.7786 8.10156 78.8021 8.33073 79.7969 8.78906L79.0781 10.5078C78.6406 10.3203 78.2318 10.1667 77.8516 10.0469C77.4714 9.92708 77.0833 9.86719 76.6875 9.86719C75.9844 9.86719 75.6328 10.0573 75.6328 10.4375C75.6328 10.651 75.7448 10.8359 75.9688 10.9922C76.1979 11.1484 76.6953 11.3802 77.4609 11.6875C78.1432 11.9635 78.6432 12.2214 78.9609 12.4609C79.2786 12.7005 79.513 12.9766 79.6641 13.2891C79.8151 13.6016 79.8906 13.974 79.8906 14.4062ZM80.5 8.26562H83.1094L84.7578 13.1797C84.8984 13.6068 84.9948 14.112 85.0469 14.6953H85.0938C85.151 14.1589 85.263 13.6536 85.4297 13.1797L87.0469 8.26562H89.6016L85.9062 18.1172C85.5677 19.0286 85.0833 19.7109 84.4531 20.1641C83.8281 20.6172 83.0964 20.8438 82.2578 20.8438C81.8464 20.8438 81.4427 20.7995 81.0469 20.7109V18.8203C81.3333 18.888 81.6458 18.9219 81.9844 18.9219C82.4062 18.9219 82.7734 18.7917 83.0859 18.5312C83.4036 18.276 83.651 17.888 83.8281 17.3672L83.9688 16.9375L80.5 8.26562ZM96.9531 14.4062C96.9531 15.3021 96.6406 15.9844 96.0156 16.4531C95.3958 16.9219 94.4661 17.1562 93.2266 17.1562C92.5911 17.1562 92.0495 17.112 91.6016 17.0234C91.1536 16.9401 90.7344 16.8151 90.3438 16.6484V14.6797C90.7865 14.888 91.2839 15.0625 91.8359 15.2031C92.3932 15.3438 92.8828 15.4141 93.3047 15.4141C94.1693 15.4141 94.6016 15.1641 94.6016 14.6641C94.6016 14.4766 94.5443 14.3255 94.4297 14.2109C94.3151 14.0911 94.1172 13.9583 93.8359 13.8125C93.5547 13.6615 93.1797 13.487 92.7109 13.2891C92.0391 13.0078 91.5443 12.7474 91.2266 12.5078C90.9141 12.2682 90.6849 11.9948 90.5391 11.6875C90.3984 11.375 90.3281 10.9922 90.3281 10.5391C90.3281 9.76302 90.6276 9.16406 91.2266 8.74219C91.8307 8.3151 92.6849 8.10156 93.7891 8.10156C94.8411 8.10156 95.8646 8.33073 96.8594 8.78906L96.1406 10.5078C95.7031 10.3203 95.2943 10.1667 94.9141 10.0469C94.5339 9.92708 94.1458 9.86719 93.75 9.86719C93.0469 9.86719 92.6953 10.0573 92.6953 10.4375C92.6953 10.651 92.8073 10.8359 93.0312 10.9922C93.2604 11.1484 93.7578 11.3802 94.5234 11.6875C95.2057 11.9635 95.7057 12.2214 96.0234 12.4609C96.3411 12.7005 96.5755 12.9766 96.7266 13.2891C96.8776 13.6016 96.9531 13.974 96.9531 14.4062ZM105.992 17L105.32 13.9453L104.414 10.0859H104.359L102.766 17H100.203L97.7188 8.26562H100.094L101.102 12.1328C101.263 12.8255 101.427 13.7812 101.594 15H101.641C101.661 14.6042 101.753 13.9766 101.914 13.1172L102.039 12.4531L103.117 8.26562H105.742L106.766 12.4531C106.786 12.5677 106.818 12.737 106.859 12.9609C106.906 13.1849 106.951 13.4245 106.992 13.6797C107.034 13.9297 107.07 14.1771 107.102 14.4219C107.138 14.6615 107.159 14.8542 107.164 15H107.211C107.258 14.625 107.341 14.112 107.461 13.4609C107.581 12.8047 107.667 12.362 107.719 12.1328L108.766 8.26562H111.102L108.586 17H105.992ZM112.414 6.00781C112.414 5.23177 112.846 4.84375 113.711 4.84375C114.576 4.84375 115.008 5.23177 115.008 6.00781C115.008 6.3776 114.898 6.66667 114.68 6.875C114.466 7.07812 114.143 7.17969 113.711 7.17969C112.846 7.17969 112.414 6.78906 112.414 6.00781ZM114.898 17H112.516V8.26562H114.898V17ZM125.227 17H122.844V11.8984C122.844 11.2682 122.737 10.7969 122.523 10.4844C122.315 10.1667 121.984 10.0078 121.531 10.0078C120.922 10.0078 120.479 10.2318 120.203 10.6797C119.927 11.1276 119.789 11.8646 119.789 12.8906V17H117.406V8.26562H119.227L119.547 9.38281H119.68C119.914 8.98177 120.253 8.66927 120.695 8.44531C121.138 8.21615 121.646 8.10156 122.219 8.10156C123.526 8.10156 124.411 8.52865 124.875 9.38281H125.086C125.32 8.97656 125.664 8.66146 126.117 8.4375C126.576 8.21354 127.091 8.10156 127.664 8.10156C128.654 8.10156 129.401 8.35677 129.906 8.86719C130.417 9.3724 130.672 10.1849 130.672 11.3047V17H128.281V11.8984C128.281 11.2682 128.174 10.7969 127.961 10.4844C127.753 10.1667 127.422 10.0078 126.969 10.0078C126.385 10.0078 125.948 10.2161 125.656 10.6328C125.37 11.0495 125.227 11.7109 125.227 12.6172V17ZM140.305 17L139.633 13.9453L138.727 10.0859H138.672L137.078 17H134.516L132.031 8.26562H134.406L135.414 12.1328C135.576 12.8255 135.74 13.7812 135.906 15H135.953C135.974 14.6042 136.065 13.9766 136.227 13.1172L136.352 12.4531L137.43 8.26562H140.055L141.078 12.4531C141.099 12.5677 141.13 12.737 141.172 12.9609C141.219 13.1849 141.263 13.4245 141.305 13.6797C141.346 13.9297 141.383 14.1771 141.414 14.4219C141.451 14.6615 141.471 14.8542 141.477 15H141.523C141.57 14.625 141.654 14.112 141.773 13.4609C141.893 12.8047 141.979 12.362 142.031 12.1328L143.078 8.26562H145.414L142.898 17H140.305ZM150.445 9.79688C149.94 9.79688 149.544 9.95833 149.258 10.2812C148.971 10.599 148.807 11.0521 148.766 11.6406H152.109C152.099 11.0521 151.945 10.599 151.648 10.2812C151.352 9.95833 150.951 9.79688 150.445 9.79688ZM150.781 17.1562C149.375 17.1562 148.276 16.7682 147.484 15.9922C146.693 15.2161 146.297 14.1172 146.297 12.6953C146.297 11.2318 146.661 10.1016 147.391 9.30469C148.125 8.5026 149.138 8.10156 150.43 8.10156C151.664 8.10156 152.625 8.45312 153.312 9.15625C154 9.85938 154.344 10.8307 154.344 12.0703V13.2266H148.711C148.737 13.9036 148.938 14.4323 149.312 14.8125C149.688 15.1927 150.214 15.3828 150.891 15.3828C151.417 15.3828 151.914 15.3281 152.383 15.2188C152.852 15.1094 153.341 14.9349 153.852 14.6953V16.5391C153.435 16.7474 152.99 16.901 152.516 17C152.042 17.1042 151.464 17.1562 150.781 17.1562ZM161.828 17L161.367 15.8125H161.305C160.904 16.3177 160.49 16.6693 160.062 16.8672C159.641 17.0599 159.089 17.1562 158.406 17.1562C157.568 17.1562 156.906 16.9167 156.422 16.4375C155.943 15.9583 155.703 15.276 155.703 14.3906C155.703 13.4635 156.026 12.7812 156.672 12.3438C157.323 11.901 158.302 11.6562 159.609 11.6094L161.125 11.5625V11.1797C161.125 10.2943 160.672 9.85156 159.766 9.85156C159.068 9.85156 158.247 10.0625 157.305 10.4844L156.516 8.875C157.521 8.34896 158.635 8.08594 159.859 8.08594C161.031 8.08594 161.93 8.34115 162.555 8.85156C163.18 9.36198 163.492 10.138 163.492 11.1797V17H161.828ZM161.125 12.9531L160.203 12.9844C159.51 13.0052 158.995 13.1302 158.656 13.3594C158.318 13.5885 158.148 13.9375 158.148 14.4062C158.148 15.0781 158.534 15.4141 159.305 15.4141C159.857 15.4141 160.297 15.2552 160.625 14.9375C160.958 14.6198 161.125 14.1979 161.125 13.6719V12.9531ZM170.828 8.10156C171.151 8.10156 171.419 8.125 171.633 8.17188L171.453 10.4062C171.26 10.3542 171.026 10.3281 170.75 10.3281C169.99 10.3281 169.396 10.5234 168.969 10.9141C168.547 11.3047 168.336 11.8516 168.336 12.5547V17H165.953V8.26562H167.758L168.109 9.73438H168.227C168.497 9.24479 168.862 8.85156 169.32 8.55469C169.784 8.2526 170.286 8.10156 170.828 8.10156ZM172.883 15.8828C172.883 15.4453 173 15.1146 173.234 14.8906C173.469 14.6667 173.81 14.5547 174.258 14.5547C174.69 14.5547 175.023 14.6693 175.258 14.8984C175.497 15.1276 175.617 15.4557 175.617 15.8828C175.617 16.2943 175.497 16.6198 175.258 16.8594C175.018 17.0938 174.685 17.2109 174.258 17.2109C173.82 17.2109 173.482 17.0964 173.242 16.8672C173.003 16.6328 172.883 16.3047 172.883 15.8828ZM181.328 17.1562C178.609 17.1562 177.25 15.6641 177.25 12.6797C177.25 11.1953 177.62 10.0625 178.359 9.28125C179.099 8.49479 180.159 8.10156 181.539 8.10156C182.549 8.10156 183.456 8.29948 184.258 8.69531L183.555 10.5391C183.18 10.388 182.831 10.2656 182.508 10.1719C182.185 10.0729 181.862 10.0234 181.539 10.0234C180.299 10.0234 179.68 10.9036 179.68 12.6641C179.68 14.3724 180.299 15.2266 181.539 15.2266C181.997 15.2266 182.422 15.1667 182.812 15.0469C183.203 14.9219 183.594 14.7292 183.984 14.4688V16.5078C183.599 16.7526 183.208 16.9219 182.812 17.0156C182.422 17.1094 181.927 17.1562 181.328 17.1562ZM187.914 12.6172C187.914 13.4818 188.055 14.1354 188.336 14.5781C188.622 15.0208 189.086 15.2422 189.727 15.2422C190.362 15.2422 190.818 15.0234 191.094 14.5859C191.375 14.1432 191.516 13.487 191.516 12.6172C191.516 11.7526 191.375 11.1042 191.094 10.6719C190.812 10.2396 190.352 10.0234 189.711 10.0234C189.076 10.0234 188.617 10.2396 188.336 10.6719C188.055 11.099 187.914 11.7474 187.914 12.6172ZM193.953 12.6172C193.953 14.0391 193.578 15.151 192.828 15.9531C192.078 16.7552 191.034 17.1562 189.695 17.1562C188.857 17.1562 188.117 16.974 187.477 16.6094C186.836 16.2396 186.344 15.7109 186 15.0234C185.656 14.3359 185.484 13.5339 185.484 12.6172C185.484 11.1901 185.857 10.0807 186.602 9.28906C187.346 8.4974 188.393 8.10156 189.742 8.10156C190.581 8.10156 191.32 8.28385 191.961 8.64844C192.602 9.01302 193.094 9.53646 193.438 10.2188C193.781 10.901 193.953 11.7005 193.953 12.6172ZM203.742 17H201.359V11.8984C201.359 11.2682 201.253 10.7969 201.039 10.4844C200.831 10.1667 200.5 10.0078 200.047 10.0078C199.438 10.0078 198.995 10.2318 198.719 10.6797C198.443 11.1276 198.305 11.8646 198.305 12.8906V17H195.922V8.26562H197.742L198.062 9.38281H198.195C198.43 8.98177 198.768 8.66927 199.211 8.44531C199.654 8.21615 200.161 8.10156 200.734 8.10156C202.042 8.10156 202.927 8.52865 203.391 9.38281H203.602C203.836 8.97656 204.18 8.66146 204.633 8.4375C205.091 8.21354 205.607 8.10156 206.18 8.10156C207.169 8.10156 207.917 8.35677 208.422 8.86719C208.932 9.3724 209.188 10.1849 209.188 11.3047V17H206.797V11.8984C206.797 11.2682 206.69 10.7969 206.477 10.4844C206.268 10.1667 205.938 10.0078 205.484 10.0078C204.901 10.0078 204.464 10.2161 204.172 10.6328C203.885 11.0495 203.742 11.7109 203.742 12.6172V17Z" fill="black"/>
<path d="M88.1406 27.4141C89.1823 27.4141 90.0078 27.6562 90.6172 28.1406C91.2266 28.625 91.5312 29.2943 91.5312 30.1484C91.5312 30.7109 91.3568 31.224 91.0078 31.6875C90.6589 32.151 90.1016 32.5729 89.3359 32.9531C90.263 33.3958 90.9219 33.862 91.3125 34.3516C91.7031 34.8359 91.8984 35.3984 91.8984 36.0391C91.8984 36.987 91.5677 37.7448 90.9062 38.3125C90.2448 38.875 89.3385 39.1562 88.1875 39.1562C86.9688 39.1562 86.0312 38.8906 85.375 38.3594C84.7188 37.8229 84.3906 37.0651 84.3906 36.0859C84.3906 34.7786 85.1875 33.7604 86.7812 33.0312C86.0625 32.625 85.5469 32.1875 85.2344 31.7188C84.9219 31.2448 84.7656 30.7161 84.7656 30.1328C84.7656 29.3047 85.0703 28.6458 85.6797 28.1562C86.2943 27.6615 87.1146 27.4141 88.1406 27.4141ZM85.6719 36.1172C85.6719 36.7422 85.888 37.2292 86.3203 37.5781C86.7578 37.9271 87.3698 38.1016 88.1562 38.1016C88.9323 38.1016 89.5365 37.9193 89.9688 37.5547C90.401 37.1901 90.6172 36.6901 90.6172 36.0547C90.6172 35.5495 90.4141 35.1016 90.0078 34.7109C89.6016 34.3151 88.8932 33.9323 87.8828 33.5625C87.1068 33.8958 86.5443 34.2656 86.1953 34.6719C85.8464 35.0729 85.6719 35.5547 85.6719 36.1172ZM88.125 28.4688C87.474 28.4688 86.9635 28.625 86.5938 28.9375C86.224 29.25 86.0391 29.6667 86.0391 30.1875C86.0391 30.6667 86.1927 31.0781 86.5 31.4219C86.8073 31.7656 87.375 32.1094 88.2031 32.4531C88.9479 32.1406 89.474 31.8047 89.7812 31.4453C90.0938 31.0859 90.25 30.6667 90.25 30.1875C90.25 29.6615 90.0599 29.2448 89.6797 28.9375C89.3047 28.625 88.7865 28.4688 88.125 28.4688ZM100.594 30.2656C100.594 30.9948 100.388 31.5911 99.9766 32.0547C99.5703 32.5182 98.9922 32.8281 98.2422 32.9844V33.0469C99.1589 33.1615 99.8385 33.4531 100.281 33.9219C100.724 34.3906 100.945 35.0052 100.945 35.7656C100.945 36.8542 100.568 37.6927 99.8125 38.2812C99.0573 38.8646 97.9844 39.1562 96.5938 39.1562C95.9896 39.1562 95.4349 39.1094 94.9297 39.0156C94.4297 38.9271 93.9427 38.7682 93.4688 38.5391V37.3047C93.9635 37.5495 94.4896 37.737 95.0469 37.8672C95.6094 37.9922 96.1406 38.0547 96.6406 38.0547C98.6146 38.0547 99.6016 37.2812 99.6016 35.7344C99.6016 34.349 98.513 33.6562 96.3359 33.6562H95.2109V32.5391H96.3516C97.2422 32.5391 97.9479 32.3438 98.4688 31.9531C98.9896 31.5573 99.25 31.0104 99.25 30.3125C99.25 29.7552 99.0573 29.3177 98.6719 29C98.2917 28.6823 97.7734 28.5234 97.1172 28.5234C96.6172 28.5234 96.1458 28.5911 95.7031 28.7266C95.2604 28.862 94.7552 29.112 94.1875 29.4766L93.5312 28.6016C94 28.2318 94.5391 27.9427 95.1484 27.7344C95.763 27.5208 96.4089 27.4141 97.0859 27.4141C98.1953 27.4141 99.0573 27.6693 99.6719 28.1797C100.286 28.6849 100.594 29.3802 100.594 30.2656ZM107.477 39H106.211V30.8594C106.211 30.1823 106.232 29.5417 106.273 28.9375C106.164 29.0469 106.042 29.1615 105.906 29.2812C105.771 29.401 105.151 29.9089 104.047 30.8047L103.359 29.9141L106.383 27.5781H107.477V39ZM125.023 39H123.461L119.297 33.4609L118.102 34.5234V39H116.773V27.5781H118.102V33.2422L123.281 27.5781H124.852L120.258 32.5391L125.023 39ZM127.703 39H126.406V30.4375H127.703V39ZM126.297 28.1172C126.297 27.8203 126.37 27.6042 126.516 27.4688C126.661 27.3281 126.844 27.2578 127.062 27.2578C127.271 27.2578 127.451 27.3281 127.602 27.4688C127.753 27.6094 127.828 27.8255 127.828 28.1172C127.828 28.4089 127.753 28.6276 127.602 28.7734C127.451 28.9141 127.271 28.9844 127.062 28.9844C126.844 28.9844 126.661 28.9141 126.516 28.7734C126.37 28.6276 126.297 28.4089 126.297 28.1172ZM136.312 39V33.4609C136.312 32.763 136.154 32.2422 135.836 31.8984C135.518 31.5547 135.021 31.3828 134.344 31.3828C133.448 31.3828 132.792 31.625 132.375 32.1094C131.958 32.5938 131.75 33.3932 131.75 34.5078V39H130.453V30.4375H131.508L131.719 31.6094H131.781C132.047 31.1875 132.419 30.862 132.898 30.6328C133.378 30.3984 133.911 30.2812 134.5 30.2812C135.531 30.2812 136.307 30.5312 136.828 31.0312C137.349 31.526 137.609 32.3203 137.609 33.4141V39H136.312ZM147.289 30.4375V31.2578L145.703 31.4453C145.849 31.6276 145.979 31.8672 146.094 32.1641C146.208 32.4557 146.266 32.7865 146.266 33.1562C146.266 33.9948 145.979 34.6641 145.406 35.1641C144.833 35.6641 144.047 35.9141 143.047 35.9141C142.792 35.9141 142.552 35.8932 142.328 35.8516C141.776 36.1432 141.5 36.5104 141.5 36.9531C141.5 37.1875 141.596 37.362 141.789 37.4766C141.982 37.5859 142.312 37.6406 142.781 37.6406H144.297C145.224 37.6406 145.935 37.8359 146.43 38.2266C146.93 38.6172 147.18 39.1849 147.18 39.9297C147.18 40.8776 146.799 41.599 146.039 42.0938C145.279 42.5938 144.169 42.8438 142.711 42.8438C141.591 42.8438 140.727 42.6354 140.117 42.2188C139.513 41.8021 139.211 41.2135 139.211 40.4531C139.211 39.9323 139.378 39.4818 139.711 39.1016C140.044 38.7214 140.513 38.4635 141.117 38.3281C140.898 38.2292 140.714 38.0755 140.562 37.8672C140.417 37.6589 140.344 37.4167 140.344 37.1406C140.344 36.8281 140.427 36.5547 140.594 36.3203C140.76 36.0859 141.023 35.8594 141.383 35.6406C140.94 35.4583 140.578 35.1484 140.297 34.7109C140.021 34.2734 139.883 33.7734 139.883 33.2109C139.883 32.2734 140.164 31.5521 140.727 31.0469C141.289 30.5365 142.086 30.2812 143.117 30.2812C143.565 30.2812 143.969 30.3333 144.328 30.4375H147.289ZM140.461 40.4375C140.461 40.901 140.656 41.2526 141.047 41.4922C141.438 41.7318 141.997 41.8516 142.727 41.8516C143.815 41.8516 144.62 41.6875 145.141 41.3594C145.667 41.0365 145.93 40.5964 145.93 40.0391C145.93 39.5755 145.786 39.2526 145.5 39.0703C145.214 38.8932 144.674 38.8047 143.883 38.8047H142.328C141.74 38.8047 141.281 38.9453 140.953 39.2266C140.625 39.5078 140.461 39.9115 140.461 40.4375ZM141.164 33.1797C141.164 33.7786 141.333 34.2318 141.672 34.5391C142.01 34.8464 142.482 35 143.086 35C144.352 35 144.984 34.3854 144.984 33.1562C144.984 31.8698 144.344 31.2266 143.062 31.2266C142.453 31.2266 141.984 31.3906 141.656 31.7188C141.328 32.0469 141.164 32.5339 141.164 33.1797ZM159.844 35.9609C159.844 36.9661 159.479 37.75 158.75 38.3125C158.021 38.875 157.031 39.1562 155.781 39.1562C154.427 39.1562 153.385 38.9818 152.656 38.6328V37.3516C153.125 37.5495 153.635 37.7057 154.188 37.8203C154.74 37.9349 155.286 37.9922 155.828 37.9922C156.714 37.9922 157.38 37.8255 157.828 37.4922C158.276 37.1536 158.5 36.6849 158.5 36.0859C158.5 35.6901 158.419 35.3672 158.258 35.1172C158.102 34.862 157.836 34.6276 157.461 34.4141C157.091 34.2005 156.526 33.9583 155.766 33.6875C154.703 33.3073 153.943 32.8568 153.484 32.3359C153.031 31.8151 152.805 31.1354 152.805 30.2969C152.805 29.4167 153.135 28.7161 153.797 28.1953C154.458 27.6745 155.333 27.4141 156.422 27.4141C157.557 27.4141 158.602 27.6224 159.555 28.0391L159.141 29.1953C158.198 28.7995 157.281 28.6016 156.391 28.6016C155.688 28.6016 155.138 28.7526 154.742 29.0547C154.346 29.3568 154.148 29.776 154.148 30.3125C154.148 30.7083 154.221 31.0339 154.367 31.2891C154.513 31.5391 154.758 31.7708 155.102 31.9844C155.451 32.1927 155.982 32.4245 156.695 32.6797C157.893 33.1068 158.716 33.5651 159.164 34.0547C159.617 34.5443 159.844 35.1797 159.844 35.9609ZM164.75 38.0859C164.979 38.0859 165.201 38.0703 165.414 38.0391C165.628 38.0026 165.797 37.9661 165.922 37.9297V38.9219C165.781 38.9896 165.573 39.0443 165.297 39.0859C165.026 39.1328 164.781 39.1562 164.562 39.1562C162.906 39.1562 162.078 38.2839 162.078 36.5391V31.4453H160.852V30.8203L162.078 30.2812L162.625 28.4531H163.375V30.4375H165.859V31.4453H163.375V36.4844C163.375 37 163.497 37.3958 163.742 37.6719C163.987 37.9479 164.323 38.0859 164.75 38.0859ZM167.453 38.1719C167.453 37.8229 167.531 37.5599 167.688 37.3828C167.849 37.2005 168.078 37.1094 168.375 37.1094C168.677 37.1094 168.911 37.2005 169.078 37.3828C169.25 37.5599 169.336 37.8229 169.336 38.1719C169.336 38.5104 169.25 38.7708 169.078 38.9531C168.906 39.1354 168.672 39.2266 168.375 39.2266C168.109 39.2266 167.888 39.1458 167.711 38.9844C167.539 38.8177 167.453 38.5469 167.453 38.1719ZM177.422 37.1406L177.539 37.3203C177.404 37.8411 177.208 38.4453 176.953 39.1328C176.698 39.8255 176.432 40.4688 176.156 41.0625H175.18C175.32 40.5208 175.474 39.8516 175.641 39.0547C175.812 38.2578 175.932 37.6198 176 37.1406H177.422ZM189.391 39L185.516 28.875H185.453C185.526 29.6771 185.562 30.6302 185.562 31.7344V39H184.336V27.5781H186.336L189.953 37H190.016L193.664 27.5781H195.648V39H194.32V31.6406C194.32 30.7969 194.357 29.8802 194.43 28.8906H194.367L190.461 39H189.391ZM203.859 39L203.602 37.7812H203.539C203.112 38.3177 202.685 38.6823 202.258 38.875C201.836 39.0625 201.307 39.1562 200.672 39.1562C199.823 39.1562 199.156 38.9375 198.672 38.5C198.193 38.0625 197.953 37.4401 197.953 36.6328C197.953 34.9036 199.336 33.9974 202.102 33.9141L203.555 33.8672V33.3359C203.555 32.6641 203.409 32.1693 203.117 31.8516C202.831 31.5286 202.37 31.3672 201.734 31.3672C201.021 31.3672 200.214 31.5859 199.312 32.0234L198.914 31.0312C199.336 30.8021 199.797 30.6224 200.297 30.4922C200.802 30.362 201.307 30.2969 201.812 30.2969C202.833 30.2969 203.589 30.5234 204.078 30.9766C204.573 31.4297 204.82 32.1562 204.82 33.1562V39H203.859ZM200.93 38.0859C201.737 38.0859 202.37 37.8646 202.828 37.4219C203.292 36.9792 203.523 36.3594 203.523 35.5625V34.7891L202.227 34.8438C201.195 34.8802 200.451 35.0417 199.992 35.3281C199.539 35.6094 199.312 36.0495 199.312 36.6484C199.312 37.1172 199.453 37.474 199.734 37.7188C200.021 37.9635 200.419 38.0859 200.93 38.0859ZM208.719 30.4375V35.9922C208.719 36.6901 208.878 37.2109 209.195 37.5547C209.513 37.8984 210.01 38.0703 210.688 38.0703C211.583 38.0703 212.237 37.8255 212.648 37.3359C213.065 36.8464 213.273 36.0469 213.273 34.9375V30.4375H214.57V39H213.5L213.312 37.8516H213.242C212.977 38.2734 212.607 38.5964 212.133 38.8203C211.664 39.0443 211.128 39.1562 210.523 39.1562C209.482 39.1562 208.701 38.9089 208.18 38.4141C207.664 37.9193 207.406 37.1276 207.406 36.0391V30.4375H208.719ZM218.625 39H217.328V30.4375H218.625V39ZM217.219 28.1172C217.219 27.8203 217.292 27.6042 217.438 27.4688C217.583 27.3281 217.766 27.2578 217.984 27.2578C218.193 27.2578 218.372 27.3281 218.523 27.4688C218.674 27.6094 218.75 27.8255 218.75 28.1172C218.75 28.4089 218.674 28.6276 218.523 28.7734C218.372 28.9141 218.193 28.9844 217.984 28.9844C217.766 28.9844 217.583 28.9141 217.438 28.7734C217.292 28.6276 217.219 28.4089 217.219 28.1172ZM97.7578 54.8203H100.977V55.8984H97.7578V59.2266H96.6719V55.8984H93.4688V54.8203H96.6719V51.4766H97.7578V54.8203ZM110.164 55.2734C110.164 57.2474 109.852 58.7214 109.227 59.6953C108.607 60.6693 107.656 61.1562 106.375 61.1562C105.146 61.1562 104.211 60.6589 103.57 59.6641C102.93 58.6641 102.609 57.2005 102.609 55.2734C102.609 53.2839 102.919 51.8073 103.539 50.8438C104.159 49.8802 105.104 49.3984 106.375 49.3984C107.615 49.3984 108.555 49.901 109.195 50.9062C109.841 51.9115 110.164 53.3672 110.164 55.2734ZM103.922 55.2734C103.922 56.9349 104.117 58.1458 104.508 58.9062C104.898 59.6615 105.521 60.0391 106.375 60.0391C107.24 60.0391 107.865 59.6562 108.25 58.8906C108.641 58.1198 108.836 56.9141 108.836 55.2734C108.836 53.6328 108.641 52.4323 108.25 51.6719C107.865 50.9062 107.24 50.5234 106.375 50.5234C105.521 50.5234 104.898 50.901 104.508 51.6562C104.117 52.4062 103.922 53.612 103.922 55.2734ZM119.258 61H111.75V59.8828L114.758 56.8594C115.674 55.9323 116.279 55.2708 116.57 54.875C116.862 54.4792 117.081 54.0938 117.227 53.7188C117.372 53.3438 117.445 52.9401 117.445 52.5078C117.445 51.8984 117.26 51.4167 116.891 51.0625C116.521 50.7031 116.008 50.5234 115.352 50.5234C114.878 50.5234 114.427 50.6016 114 50.7578C113.578 50.9141 113.107 51.1979 112.586 51.6094L111.898 50.7266C112.951 49.8516 114.096 49.4141 115.336 49.4141C116.409 49.4141 117.25 49.6901 117.859 50.2422C118.469 50.7891 118.773 51.526 118.773 52.4531C118.773 53.1771 118.57 53.8932 118.164 54.6016C117.758 55.3099 116.997 56.2057 115.883 57.2891L113.383 59.7344V59.7969H119.258V61ZM128.477 55.2734C128.477 57.2474 128.164 58.7214 127.539 59.6953C126.919 60.6693 125.969 61.1562 124.688 61.1562C123.458 61.1562 122.523 60.6589 121.883 59.6641C121.242 58.6641 120.922 57.2005 120.922 55.2734C120.922 53.2839 121.232 51.8073 121.852 50.8438C122.471 49.8802 123.417 49.3984 124.688 49.3984C125.927 49.3984 126.867 49.901 127.508 50.9062C128.154 51.9115 128.477 53.3672 128.477 55.2734ZM122.234 55.2734C122.234 56.9349 122.43 58.1458 122.82 58.9062C123.211 59.6615 123.833 60.0391 124.688 60.0391C125.552 60.0391 126.177 59.6562 126.562 58.8906C126.953 58.1198 127.148 56.9141 127.148 55.2734C127.148 53.6328 126.953 52.4323 126.562 51.6719C126.177 50.9062 125.552 50.5234 124.688 50.5234C123.833 50.5234 123.211 50.901 122.82 51.6562C122.43 52.4062 122.234 53.612 122.234 55.2734ZM137.141 52.2656C137.141 52.9948 136.935 53.5911 136.523 54.0547C136.117 54.5182 135.539 54.8281 134.789 54.9844V55.0469C135.706 55.1615 136.385 55.4531 136.828 55.9219C137.271 56.3906 137.492 57.0052 137.492 57.7656C137.492 58.8542 137.115 59.6927 136.359 60.2812C135.604 60.8646 134.531 61.1562 133.141 61.1562C132.536 61.1562 131.982 61.1094 131.477 61.0156C130.977 60.9271 130.49 60.7682 130.016 60.5391V59.3047C130.51 59.5495 131.036 59.737 131.594 59.8672C132.156 59.9922 132.688 60.0547 133.188 60.0547C135.161 60.0547 136.148 59.2812 136.148 57.7344C136.148 56.349 135.06 55.6562 132.883 55.6562H131.758V54.5391H132.898C133.789 54.5391 134.495 54.3438 135.016 53.9531C135.536 53.5573 135.797 53.0104 135.797 52.3125C135.797 51.7552 135.604 51.3177 135.219 51C134.839 50.6823 134.32 50.5234 133.664 50.5234C133.164 50.5234 132.693 50.5911 132.25 50.7266C131.807 50.862 131.302 51.112 130.734 51.4766L130.078 50.6016C130.547 50.2318 131.086 49.9427 131.695 49.7344C132.31 49.5208 132.956 49.4141 133.633 49.4141C134.742 49.4141 135.604 49.6693 136.219 50.1797C136.833 50.6849 137.141 51.3802 137.141 52.2656ZM150.945 55.2734C150.945 57.2474 150.633 58.7214 150.008 59.6953C149.388 60.6693 148.438 61.1562 147.156 61.1562C145.927 61.1562 144.992 60.6589 144.352 59.6641C143.711 58.6641 143.391 57.2005 143.391 55.2734C143.391 53.2839 143.701 51.8073 144.32 50.8438C144.94 49.8802 145.885 49.3984 147.156 49.3984C148.396 49.3984 149.336 49.901 149.977 50.9062C150.622 51.9115 150.945 53.3672 150.945 55.2734ZM144.703 55.2734C144.703 56.9349 144.898 58.1458 145.289 58.9062C145.68 59.6615 146.302 60.0391 147.156 60.0391C148.021 60.0391 148.646 59.6562 149.031 58.8906C149.422 58.1198 149.617 56.9141 149.617 55.2734C149.617 53.6328 149.422 52.4323 149.031 51.6719C148.646 50.9062 148.021 50.5234 147.156 50.5234C146.302 50.5234 145.68 50.901 145.289 51.6562C144.898 52.4062 144.703 53.612 144.703 55.2734ZM160.039 61H152.531V59.8828L155.539 56.8594C156.456 55.9323 157.06 55.2708 157.352 54.875C157.643 54.4792 157.862 54.0938 158.008 53.7188C158.154 53.3438 158.227 52.9401 158.227 52.5078C158.227 51.8984 158.042 51.4167 157.672 51.0625C157.302 50.7031 156.789 50.5234 156.133 50.5234C155.659 50.5234 155.208 50.6016 154.781 50.7578C154.359 50.9141 153.888 51.1979 153.367 51.6094L152.68 50.7266C153.732 49.8516 154.878 49.4141 156.117 49.4141C157.19 49.4141 158.031 49.6901 158.641 50.2422C159.25 50.7891 159.555 51.526 159.555 52.4531C159.555 53.1771 159.352 53.8932 158.945 54.6016C158.539 55.3099 157.779 56.2057 156.664 57.2891L154.164 59.7344V59.7969H160.039V61ZM169.258 55.2734C169.258 57.2474 168.945 58.7214 168.32 59.6953C167.701 60.6693 166.75 61.1562 165.469 61.1562C164.24 61.1562 163.305 60.6589 162.664 59.6641C162.023 58.6641 161.703 57.2005 161.703 55.2734C161.703 53.2839 162.013 51.8073 162.633 50.8438C163.253 49.8802 164.198 49.3984 165.469 49.3984C166.708 49.3984 167.648 49.901 168.289 50.9062C168.935 51.9115 169.258 53.3672 169.258 55.2734ZM163.016 55.2734C163.016 56.9349 163.211 58.1458 163.602 58.9062C163.992 59.6615 164.615 60.0391 165.469 60.0391C166.333 60.0391 166.958 59.6562 167.344 58.8906C167.734 58.1198 167.93 56.9141 167.93 55.2734C167.93 53.6328 167.734 52.4323 167.344 51.6719C166.958 50.9062 166.333 50.5234 165.469 50.5234C164.615 50.5234 163.992 50.901 163.602 51.6562C163.211 52.4062 163.016 53.612 163.016 55.2734ZM172.289 61L177.023 50.7734H170.797V49.5781H178.398V50.6172L173.727 61H172.289ZM191.234 52.2656C191.234 52.9948 191.029 53.5911 190.617 54.0547C190.211 54.5182 189.633 54.8281 188.883 54.9844V55.0469C189.799 55.1615 190.479 55.4531 190.922 55.9219C191.365 56.3906 191.586 57.0052 191.586 57.7656C191.586 58.8542 191.208 59.6927 190.453 60.2812C189.698 60.8646 188.625 61.1562 187.234 61.1562C186.63 61.1562 186.076 61.1094 185.57 61.0156C185.07 60.9271 184.583 60.7682 184.109 60.5391V59.3047C184.604 59.5495 185.13 59.737 185.688 59.8672C186.25 59.9922 186.781 60.0547 187.281 60.0547C189.255 60.0547 190.242 59.2812 190.242 57.7344C190.242 56.349 189.154 55.6562 186.977 55.6562H185.852V54.5391H186.992C187.883 54.5391 188.589 54.3438 189.109 53.9531C189.63 53.5573 189.891 53.0104 189.891 52.3125C189.891 51.7552 189.698 51.3177 189.312 51C188.932 50.6823 188.414 50.5234 187.758 50.5234C187.258 50.5234 186.786 50.5911 186.344 50.7266C185.901 50.862 185.396 51.112 184.828 51.4766L184.172 50.6016C184.641 50.2318 185.18 49.9427 185.789 49.7344C186.404 49.5208 187.049 49.4141 187.727 49.4141C188.836 49.4141 189.698 49.6693 190.312 50.1797C190.927 50.6849 191.234 51.3802 191.234 52.2656ZM200.883 55.2734C200.883 57.2474 200.57 58.7214 199.945 59.6953C199.326 60.6693 198.375 61.1562 197.094 61.1562C195.865 61.1562 194.93 60.6589 194.289 59.6641C193.648 58.6641 193.328 57.2005 193.328 55.2734C193.328 53.2839 193.638 51.8073 194.258 50.8438C194.878 49.8802 195.823 49.3984 197.094 49.3984C198.333 49.3984 199.273 49.901 199.914 50.9062C200.56 51.9115 200.883 53.3672 200.883 55.2734ZM194.641 55.2734C194.641 56.9349 194.836 58.1458 195.227 58.9062C195.617 59.6615 196.24 60.0391 197.094 60.0391C197.958 60.0391 198.583 59.6562 198.969 58.8906C199.359 58.1198 199.555 56.9141 199.555 55.2734C199.555 53.6328 199.359 52.4323 198.969 51.6719C198.583 50.9062 197.958 50.5234 197.094 50.5234C196.24 50.5234 195.617 50.901 195.227 51.6562C194.836 52.4062 194.641 53.612 194.641 55.2734ZM209.977 61H202.469V59.8828L205.477 56.8594C206.393 55.9323 206.997 55.2708 207.289 54.875C207.581 54.4792 207.799 54.0938 207.945 53.7188C208.091 53.3438 208.164 52.9401 208.164 52.5078C208.164 51.8984 207.979 51.4167 207.609 51.0625C207.24 50.7031 206.727 50.5234 206.07 50.5234C205.596 50.5234 205.146 50.6016 204.719 50.7578C204.297 50.9141 203.826 51.1979 203.305 51.6094L202.617 50.7266C203.669 49.8516 204.815 49.4141 206.055 49.4141C207.128 49.4141 207.969 49.6901 208.578 50.2422C209.188 50.7891 209.492 51.526 209.492 52.4531C209.492 53.1771 209.289 53.8932 208.883 54.6016C208.477 55.3099 207.716 56.2057 206.602 57.2891L204.102 59.7344V59.7969H209.977V61ZM219.195 55.2734C219.195 57.2474 218.883 58.7214 218.258 59.6953C217.638 60.6693 216.688 61.1562 215.406 61.1562C214.177 61.1562 213.242 60.6589 212.602 59.6641C211.961 58.6641 211.641 57.2005 211.641 55.2734C211.641 53.2839 211.951 51.8073 212.57 50.8438C213.19 49.8802 214.135 49.3984 215.406 49.3984C216.646 49.3984 217.586 49.901 218.227 50.9062C218.872 51.9115 219.195 53.3672 219.195 55.2734ZM212.953 55.2734C212.953 56.9349 213.148 58.1458 213.539 58.9062C213.93 59.6615 214.552 60.0391 215.406 60.0391C216.271 60.0391 216.896 59.6562 217.281 58.8906C217.672 58.1198 217.867 56.9141 217.867 55.2734C217.867 53.6328 217.672 52.4323 217.281 51.6719C216.896 50.9062 216.271 50.5234 215.406 50.5234C214.552 50.5234 213.93 50.901 213.539 51.6562C213.148 52.4062 212.953 53.612 212.953 55.2734ZM75.2891 76.8203H78.5078V77.8984H75.2891V81.2266H74.2031V77.8984H71V76.8203H74.2031V73.4766H75.2891V76.8203ZM88.1719 80.375H86.4766V83H85.2344V80.375H79.6797V79.2422L85.1016 71.5156H86.4766V79.1953H88.1719V80.375ZM85.2344 79.1953V75.3984C85.2344 74.6536 85.2604 73.8125 85.3125 72.875H85.25C85 73.375 84.7656 73.7891 84.5469 74.1172L80.9766 79.1953H85.2344ZM97.3281 80.375H95.6328V83H94.3906V80.375H88.8359V79.2422L94.2578 71.5156H95.6328V79.1953H97.3281V80.375ZM94.3906 79.1953V75.3984C94.3906 74.6536 94.4167 73.8125 94.4688 72.875H94.4062C94.1562 73.375 93.9219 73.7891 93.7031 74.1172L90.1328 79.1953H94.3906ZM110.164 77.2734C110.164 79.2474 109.852 80.7214 109.227 81.6953C108.607 82.6693 107.656 83.1562 106.375 83.1562C105.146 83.1562 104.211 82.6589 103.57 81.6641C102.93 80.6641 102.609 79.2005 102.609 77.2734C102.609 75.2839 102.919 73.8073 103.539 72.8438C104.159 71.8802 105.104 71.3984 106.375 71.3984C107.615 71.3984 108.555 71.901 109.195 72.9062C109.841 73.9115 110.164 75.3672 110.164 77.2734ZM103.922 77.2734C103.922 78.9349 104.117 80.1458 104.508 80.9062C104.898 81.6615 105.521 82.0391 106.375 82.0391C107.24 82.0391 107.865 81.6562 108.25 80.8906C108.641 80.1198 108.836 78.9141 108.836 77.2734C108.836 75.6328 108.641 74.4323 108.25 73.6719C107.865 72.9062 107.24 72.5234 106.375 72.5234C105.521 72.5234 104.898 72.901 104.508 73.6562C104.117 74.4062 103.922 75.612 103.922 77.2734ZM119.258 83H111.75V81.8828L114.758 78.8594C115.674 77.9323 116.279 77.2708 116.57 76.875C116.862 76.4792 117.081 76.0938 117.227 75.7188C117.372 75.3438 117.445 74.9401 117.445 74.5078C117.445 73.8984 117.26 73.4167 116.891 73.0625C116.521 72.7031 116.008 72.5234 115.352 72.5234C114.878 72.5234 114.427 72.6016 114 72.7578C113.578 72.9141 113.107 73.1979 112.586 73.6094L111.898 72.7266C112.951 71.8516 114.096 71.4141 115.336 71.4141C116.409 71.4141 117.25 71.6901 117.859 72.2422C118.469 72.7891 118.773 73.526 118.773 74.4531C118.773 75.1771 118.57 75.8932 118.164 76.6016C117.758 77.3099 116.997 78.2057 115.883 79.2891L113.383 81.7344V81.7969H119.258V83ZM128.477 77.2734C128.477 79.2474 128.164 80.7214 127.539 81.6953C126.919 82.6693 125.969 83.1562 124.688 83.1562C123.458 83.1562 122.523 82.6589 121.883 81.6641C121.242 80.6641 120.922 79.2005 120.922 77.2734C120.922 75.2839 121.232 73.8073 121.852 72.8438C122.471 71.8802 123.417 71.3984 124.688 71.3984C125.927 71.3984 126.867 71.901 127.508 72.9062C128.154 73.9115 128.477 75.3672 128.477 77.2734ZM122.234 77.2734C122.234 78.9349 122.43 80.1458 122.82 80.9062C123.211 81.6615 123.833 82.0391 124.688 82.0391C125.552 82.0391 126.177 81.6562 126.562 80.8906C126.953 80.1198 127.148 78.9141 127.148 77.2734C127.148 75.6328 126.953 74.4323 126.562 73.6719C126.177 72.9062 125.552 72.5234 124.688 72.5234C123.833 72.5234 123.211 72.901 122.82 73.6562C122.43 74.4062 122.234 75.612 122.234 77.2734ZM137.141 74.2656C137.141 74.9948 136.935 75.5911 136.523 76.0547C136.117 76.5182 135.539 76.8281 134.789 76.9844V77.0469C135.706 77.1615 136.385 77.4531 136.828 77.9219C137.271 78.3906 137.492 79.0052 137.492 79.7656C137.492 80.8542 137.115 81.6927 136.359 82.2812C135.604 82.8646 134.531 83.1562 133.141 83.1562C132.536 83.1562 131.982 83.1094 131.477 83.0156C130.977 82.9271 130.49 82.7682 130.016 82.5391V81.3047C130.51 81.5495 131.036 81.737 131.594 81.8672C132.156 81.9922 132.688 82.0547 133.188 82.0547C135.161 82.0547 136.148 81.2812 136.148 79.7344C136.148 78.349 135.06 77.6562 132.883 77.6562H131.758V76.5391H132.898C133.789 76.5391 134.495 76.3438 135.016 75.9531C135.536 75.5573 135.797 75.0104 135.797 74.3125C135.797 73.7552 135.604 73.3177 135.219 73C134.839 72.6823 134.32 72.5234 133.664 72.5234C133.164 72.5234 132.693 72.5911 132.25 72.7266C131.807 72.862 131.302 73.112 130.734 73.4766L130.078 72.6016C130.547 72.2318 131.086 71.9427 131.695 71.7344C132.31 71.5208 132.956 71.4141 133.633 71.4141C134.742 71.4141 135.604 71.6693 136.219 72.1797C136.833 72.6849 137.141 73.3802 137.141 74.2656ZM150.945 77.2734C150.945 79.2474 150.633 80.7214 150.008 81.6953C149.388 82.6693 148.438 83.1562 147.156 83.1562C145.927 83.1562 144.992 82.6589 144.352 81.6641C143.711 80.6641 143.391 79.2005 143.391 77.2734C143.391 75.2839 143.701 73.8073 144.32 72.8438C144.94 71.8802 145.885 71.3984 147.156 71.3984C148.396 71.3984 149.336 71.901 149.977 72.9062C150.622 73.9115 150.945 75.3672 150.945 77.2734ZM144.703 77.2734C144.703 78.9349 144.898 80.1458 145.289 80.9062C145.68 81.6615 146.302 82.0391 147.156 82.0391C148.021 82.0391 148.646 81.6562 149.031 80.8906C149.422 80.1198 149.617 78.9141 149.617 77.2734C149.617 75.6328 149.422 74.4323 149.031 73.6719C148.646 72.9062 148.021 72.5234 147.156 72.5234C146.302 72.5234 145.68 72.901 145.289 73.6562C144.898 74.4062 144.703 75.612 144.703 77.2734ZM160.039 83H152.531V81.8828L155.539 78.8594C156.456 77.9323 157.06 77.2708 157.352 76.875C157.643 76.4792 157.862 76.0938 158.008 75.7188C158.154 75.3438 158.227 74.9401 158.227 74.5078C158.227 73.8984 158.042 73.4167 157.672 73.0625C157.302 72.7031 156.789 72.5234 156.133 72.5234C155.659 72.5234 155.208 72.6016 154.781 72.7578C154.359 72.9141 153.888 73.1979 153.367 73.6094L152.68 72.7266C153.732 71.8516 154.878 71.4141 156.117 71.4141C157.19 71.4141 158.031 71.6901 158.641 72.2422C159.25 72.7891 159.555 73.526 159.555 74.4531C159.555 75.1771 159.352 75.8932 158.945 76.6016C158.539 77.3099 157.779 78.2057 156.664 79.2891L154.164 81.7344V81.7969H160.039V83ZM169.258 77.2734C169.258 79.2474 168.945 80.7214 168.32 81.6953C167.701 82.6693 166.75 83.1562 165.469 83.1562C164.24 83.1562 163.305 82.6589 162.664 81.6641C162.023 80.6641 161.703 79.2005 161.703 77.2734C161.703 75.2839 162.013 73.8073 162.633 72.8438C163.253 71.8802 164.198 71.3984 165.469 71.3984C166.708 71.3984 167.648 71.901 168.289 72.9062C168.935 73.9115 169.258 75.3672 169.258 77.2734ZM163.016 77.2734C163.016 78.9349 163.211 80.1458 163.602 80.9062C163.992 81.6615 164.615 82.0391 165.469 82.0391C166.333 82.0391 166.958 81.6562 167.344 80.8906C167.734 80.1198 167.93 78.9141 167.93 77.2734C167.93 75.6328 167.734 74.4323 167.344 73.6719C166.958 72.9062 166.333 72.5234 165.469 72.5234C164.615 72.5234 163.992 72.901 163.602 73.6562C163.211 74.4062 163.016 75.612 163.016 77.2734ZM172.289 83L177.023 72.7734H170.797V71.5781H178.398V72.6172L173.727 83H172.289ZM191.234 74.2656C191.234 74.9948 191.029 75.5911 190.617 76.0547C190.211 76.5182 189.633 76.8281 188.883 76.9844V77.0469C189.799 77.1615 190.479 77.4531 190.922 77.9219C191.365 78.3906 191.586 79.0052 191.586 79.7656C191.586 80.8542 191.208 81.6927 190.453 82.2812C189.698 82.8646 188.625 83.1562 187.234 83.1562C186.63 83.1562 186.076 83.1094 185.57 83.0156C185.07 82.9271 184.583 82.7682 184.109 82.5391V81.3047C184.604 81.5495 185.13 81.737 185.688 81.8672C186.25 81.9922 186.781 82.0547 187.281 82.0547C189.255 82.0547 190.242 81.2812 190.242 79.7344C190.242 78.349 189.154 77.6562 186.977 77.6562H185.852V76.5391H186.992C187.883 76.5391 188.589 76.3438 189.109 75.9531C189.63 75.5573 189.891 75.0104 189.891 74.3125C189.891 73.7552 189.698 73.3177 189.312 73C188.932 72.6823 188.414 72.5234 187.758 72.5234C187.258 72.5234 186.786 72.5911 186.344 72.7266C185.901 72.862 185.396 73.112 184.828 73.4766L184.172 72.6016C184.641 72.2318 185.18 71.9427 185.789 71.7344C186.404 71.5208 187.049 71.4141 187.727 71.4141C188.836 71.4141 189.698 71.6693 190.312 72.1797C190.927 72.6849 191.234 73.3802 191.234 74.2656ZM200.883 77.2734C200.883 79.2474 200.57 80.7214 199.945 81.6953C199.326 82.6693 198.375 83.1562 197.094 83.1562C195.865 83.1562 194.93 82.6589 194.289 81.6641C193.648 80.6641 193.328 79.2005 193.328 77.2734C193.328 75.2839 193.638 73.8073 194.258 72.8438C194.878 71.8802 195.823 71.3984 197.094 71.3984C198.333 71.3984 199.273 71.901 199.914 72.9062C200.56 73.9115 200.883 75.3672 200.883 77.2734ZM194.641 77.2734C194.641 78.9349 194.836 80.1458 195.227 80.9062C195.617 81.6615 196.24 82.0391 197.094 82.0391C197.958 82.0391 198.583 81.6562 198.969 80.8906C199.359 80.1198 199.555 78.9141 199.555 77.2734C199.555 75.6328 199.359 74.4323 198.969 73.6719C198.583 72.9062 197.958 72.5234 197.094 72.5234C196.24 72.5234 195.617 72.901 195.227 73.6562C194.836 74.4062 194.641 75.612 194.641 77.2734ZM209.977 83H202.469V81.8828L205.477 78.8594C206.393 77.9323 206.997 77.2708 207.289 76.875C207.581 76.4792 207.799 76.0938 207.945 75.7188C208.091 75.3438 208.164 74.9401 208.164 74.5078C208.164 73.8984 207.979 73.4167 207.609 73.0625C207.24 72.7031 206.727 72.5234 206.07 72.5234C205.596 72.5234 205.146 72.6016 204.719 72.7578C204.297 72.9141 203.826 73.1979 203.305 73.6094L202.617 72.7266C203.669 71.8516 204.815 71.4141 206.055 71.4141C207.128 71.4141 207.969 71.6901 208.578 72.2422C209.188 72.7891 209.492 73.526 209.492 74.4531C209.492 75.1771 209.289 75.8932 208.883 76.6016C208.477 77.3099 207.716 78.2057 206.602 79.2891L204.102 81.7344V81.7969H209.977V83ZM219.195 77.2734C219.195 79.2474 218.883 80.7214 218.258 81.6953C217.638 82.6693 216.688 83.1562 215.406 83.1562C214.177 83.1562 213.242 82.6589 212.602 81.6641C211.961 80.6641 211.641 79.2005 211.641 77.2734C211.641 75.2839 211.951 73.8073 212.57 72.8438C213.19 71.8802 214.135 71.3984 215.406 71.3984C216.646 71.3984 217.586 71.901 218.227 72.9062C218.872 73.9115 219.195 75.3672 219.195 77.2734ZM212.953 77.2734C212.953 78.9349 213.148 80.1458 213.539 80.9062C213.93 81.6615 214.552 82.0391 215.406 82.0391C216.271 82.0391 216.896 81.6562 217.281 80.8906C217.672 80.1198 217.867 78.9141 217.867 77.2734C217.867 75.6328 217.672 74.4323 217.281 73.6719C216.896 72.9062 216.271 72.5234 215.406 72.5234C214.552 72.5234 213.93 72.901 213.539 73.6562C213.148 74.4062 212.953 75.612 212.953 77.2734Z" fill="#5A5950"/>
</svg>
