<svg width="562" height="58" viewBox="0 0 562 58" fill="none" xmlns="http://www.w3.org/2000/svg">
<path d="M168.33 23H164.092V6.53906H158.664V3.01172H173.758V6.53906H168.33V23ZM182.836 10.3945C181.952 10.3945 181.259 10.6771 180.758 11.2422C180.257 11.7982 179.969 12.5911 179.896 13.6211H185.748C185.73 12.5911 185.461 11.7982 184.941 11.2422C184.422 10.6771 183.72 10.3945 182.836 10.3945ZM183.424 23.2734C180.963 23.2734 179.04 22.5944 177.654 21.2363C176.269 19.8783 175.576 17.9551 175.576 15.4668C175.576 12.9056 176.214 10.9277 177.49 9.5332C178.775 8.12956 180.548 7.42773 182.809 7.42773C184.969 7.42773 186.65 8.04297 187.854 9.27344C189.057 10.5039 189.658 12.2038 189.658 14.373V16.3965H179.801C179.846 17.5814 180.197 18.5065 180.854 19.1719C181.51 19.8372 182.43 20.1699 183.615 20.1699C184.536 20.1699 185.406 20.0742 186.227 19.8828C187.047 19.6914 187.904 19.3861 188.797 18.9668V22.1934C188.068 22.5579 187.288 22.8268 186.459 23C185.63 23.1823 184.618 23.2734 183.424 23.2734ZM197.055 14.6875L198.873 12.3633L203.152 7.71484H207.855L201.785 14.3457L208.225 23H203.412L199.01 16.8066L197.219 18.2422V23H193.049V1.72656H197.219V11.2148L197 14.6875H197.055ZM216.619 23.2734C211.861 23.2734 209.482 20.6621 209.482 15.4395C209.482 12.8418 210.13 10.8594 211.424 9.49219C212.718 8.11589 214.573 7.42773 216.988 7.42773C218.757 7.42773 220.342 7.77409 221.746 8.4668L220.516 11.6934C219.859 11.429 219.249 11.2148 218.684 11.0508C218.118 10.8776 217.553 10.791 216.988 10.791C214.819 10.791 213.734 12.3314 213.734 15.4121C213.734 18.4017 214.819 19.8965 216.988 19.8965C217.79 19.8965 218.533 19.7917 219.217 19.582C219.9 19.3633 220.584 19.026 221.268 18.5703V22.1387C220.593 22.5671 219.91 22.8633 219.217 23.0273C218.533 23.1914 217.667 23.2734 216.619 23.2734ZM228.992 23H224.822V1.72656H228.992V23ZM243.088 23L242.281 20.9219H242.172C241.47 21.806 240.745 22.4212 239.998 22.7676C239.26 23.1048 238.294 23.2734 237.1 23.2734C235.632 23.2734 234.475 22.8542 233.627 22.0156C232.788 21.1771 232.369 19.9831 232.369 18.4336C232.369 16.8112 232.934 15.6172 234.064 14.8516C235.204 14.0768 236.917 13.6484 239.205 13.5664L241.857 13.4844V12.8145C241.857 11.265 241.064 10.4902 239.479 10.4902C238.257 10.4902 236.822 10.8594 235.172 11.5977L233.791 8.78125C235.55 7.86068 237.501 7.40039 239.643 7.40039C241.693 7.40039 243.266 7.84701 244.359 8.74023C245.453 9.63346 246 10.9915 246 12.8145V23H243.088ZM241.857 15.918L240.244 15.9727C239.032 16.0091 238.13 16.2279 237.537 16.6289C236.945 17.0299 236.648 17.6406 236.648 18.4609C236.648 19.6367 237.323 20.2246 238.672 20.2246C239.638 20.2246 240.408 19.9466 240.982 19.3906C241.566 18.8346 241.857 18.0964 241.857 17.1758V15.918ZM264.416 23H260.246V14.0723C260.246 12.9694 260.05 12.1445 259.658 11.5977C259.266 11.0417 258.642 10.7637 257.785 10.7637C256.618 10.7637 255.775 11.1556 255.256 11.9395C254.736 12.7142 254.477 14.0039 254.477 15.8086V23H250.307V7.71484H253.492L254.053 9.66992H254.285C254.75 8.93164 255.388 8.37565 256.199 8.00195C257.02 7.61914 257.949 7.42773 258.988 7.42773C260.766 7.42773 262.115 7.91081 263.035 8.87695C263.956 9.83398 264.416 11.2194 264.416 13.0332V23ZM288.109 17.4492C288.109 19.2539 287.458 20.6758 286.154 21.7148C284.86 22.7539 283.055 23.2734 280.74 23.2734C278.607 23.2734 276.721 22.8724 275.08 22.0703V18.1328C276.429 18.7344 277.568 19.1582 278.498 19.4043C279.437 19.6504 280.294 19.7734 281.068 19.7734C281.998 19.7734 282.709 19.5957 283.201 19.2402C283.702 18.8848 283.953 18.3561 283.953 17.6543C283.953 17.2624 283.844 16.916 283.625 16.6152C283.406 16.3053 283.083 16.0091 282.654 15.7266C282.235 15.444 281.374 14.9928 280.07 14.373C278.849 13.7988 277.933 13.2474 277.322 12.7188C276.712 12.1901 276.224 11.5749 275.859 10.873C275.495 10.1712 275.312 9.35091 275.312 8.41211C275.312 6.64388 275.91 5.25391 277.104 4.24219C278.307 3.23047 279.965 2.72461 282.08 2.72461C283.119 2.72461 284.108 2.84766 285.047 3.09375C285.995 3.33984 286.984 3.6862 288.014 4.13281L286.646 7.42773C285.58 6.99023 284.696 6.6849 283.994 6.51172C283.301 6.33854 282.618 6.25195 281.943 6.25195C281.141 6.25195 280.526 6.4388 280.098 6.8125C279.669 7.1862 279.455 7.67383 279.455 8.27539C279.455 8.64909 279.542 8.97721 279.715 9.25977C279.888 9.5332 280.161 9.80208 280.535 10.0664C280.918 10.3216 281.816 10.7865 283.229 11.4609C285.097 12.3542 286.378 13.252 287.07 14.1543C287.763 15.0475 288.109 16.1458 288.109 17.4492ZM294.727 15.3301C294.727 16.8431 294.973 17.987 295.465 18.7617C295.966 19.5365 296.777 19.9238 297.898 19.9238C299.01 19.9238 299.808 19.541 300.291 18.7754C300.783 18.0007 301.029 16.8522 301.029 15.3301C301.029 13.8171 300.783 12.6823 300.291 11.9258C299.799 11.1693 298.992 10.791 297.871 10.791C296.759 10.791 295.957 11.1693 295.465 11.9258C294.973 12.6732 294.727 13.8079 294.727 15.3301ZM305.295 15.3301C305.295 17.8184 304.639 19.7643 303.326 21.168C302.014 22.5716 300.186 23.2734 297.844 23.2734C296.376 23.2734 295.082 22.9544 293.961 22.3164C292.84 21.6693 291.979 20.7441 291.377 19.541C290.775 18.3379 290.475 16.9342 290.475 15.3301C290.475 12.8327 291.126 10.8913 292.43 9.50586C293.733 8.12044 295.565 7.42773 297.926 7.42773C299.393 7.42773 300.688 7.74674 301.809 8.38477C302.93 9.02279 303.791 9.9388 304.393 11.1328C304.994 12.3268 305.295 13.7259 305.295 15.3301ZM312.91 23H308.74V1.72656H312.91V23ZM328.127 23L327.566 21.0449H327.348C326.901 21.7559 326.268 22.3073 325.447 22.6992C324.627 23.082 323.693 23.2734 322.645 23.2734C320.849 23.2734 319.495 22.7949 318.584 21.8379C317.673 20.8717 317.217 19.4863 317.217 17.6816V7.71484H321.387V16.6426C321.387 17.7454 321.583 18.5749 321.975 19.1309C322.367 19.6777 322.991 19.9512 323.848 19.9512C325.014 19.9512 325.857 19.5638 326.377 18.7891C326.896 18.0052 327.156 16.7109 327.156 14.9062V7.71484H331.326V23H328.127ZM342.141 19.9512C342.87 19.9512 343.745 19.7917 344.766 19.4727V22.5762C343.727 23.041 342.451 23.2734 340.938 23.2734C339.27 23.2734 338.053 22.8542 337.287 22.0156C336.531 21.168 336.152 19.901 336.152 18.2148V10.8457H334.156V9.08203L336.453 7.6875L337.656 4.46094H340.322V7.71484H344.602V10.8457H340.322V18.2148C340.322 18.8073 340.486 19.2448 340.814 19.5273C341.152 19.8099 341.594 19.9512 342.141 19.9512ZM347.691 3.76367C347.691 2.4056 348.448 1.72656 349.961 1.72656C351.474 1.72656 352.23 2.4056 352.23 3.76367C352.23 4.41081 352.039 4.91667 351.656 5.28125C351.283 5.63672 350.717 5.81445 349.961 5.81445C348.448 5.81445 347.691 5.13086 347.691 3.76367ZM352.039 23H347.869V7.71484H352.039V23ZM359.75 15.3301C359.75 16.8431 359.996 17.987 360.488 18.7617C360.99 19.5365 361.801 19.9238 362.922 19.9238C364.034 19.9238 364.831 19.541 365.314 18.7754C365.807 18.0007 366.053 16.8522 366.053 15.3301C366.053 13.8171 365.807 12.6823 365.314 11.9258C364.822 11.1693 364.016 10.791 362.895 10.791C361.783 10.791 360.98 11.1693 360.488 11.9258C359.996 12.6732 359.75 13.8079 359.75 15.3301ZM370.318 15.3301C370.318 17.8184 369.662 19.7643 368.35 21.168C367.037 22.5716 365.21 23.2734 362.867 23.2734C361.4 23.2734 360.105 22.9544 358.984 22.3164C357.863 21.6693 357.002 20.7441 356.4 19.541C355.799 18.3379 355.498 16.9342 355.498 15.3301C355.498 12.8327 356.15 10.8913 357.453 9.50586C358.757 8.12044 360.589 7.42773 362.949 7.42773C364.417 7.42773 365.711 7.74674 366.832 8.38477C367.953 9.02279 368.814 9.9388 369.416 11.1328C370.018 12.3268 370.318 13.7259 370.318 15.3301ZM387.873 23H383.703V14.0723C383.703 12.9694 383.507 12.1445 383.115 11.5977C382.723 11.0417 382.099 10.7637 381.242 10.7637C380.076 10.7637 379.232 11.1556 378.713 11.9395C378.193 12.7142 377.934 14.0039 377.934 15.8086V23H373.764V7.71484H376.949L377.51 9.66992H377.742C378.207 8.93164 378.845 8.37565 379.656 8.00195C380.477 7.61914 381.406 7.42773 382.445 7.42773C384.223 7.42773 385.572 7.91081 386.492 8.87695C387.413 9.83398 387.873 11.2194 387.873 13.0332V23ZM402.83 18.4609C402.83 20.0286 402.283 21.2227 401.189 22.043C400.105 22.8633 398.478 23.2734 396.309 23.2734C395.197 23.2734 394.249 23.196 393.465 23.041C392.681 22.8952 391.947 22.6764 391.264 22.3848V18.9395C392.038 19.304 392.909 19.6094 393.875 19.8555C394.85 20.1016 395.707 20.2246 396.445 20.2246C397.958 20.2246 398.715 19.7871 398.715 18.9121C398.715 18.584 398.615 18.3197 398.414 18.1191C398.214 17.9095 397.867 17.6771 397.375 17.4219C396.883 17.1576 396.227 16.8522 395.406 16.5059C394.23 16.0137 393.365 15.5579 392.809 15.1387C392.262 14.7194 391.861 14.2409 391.605 13.7031C391.359 13.1562 391.236 12.4863 391.236 11.6934C391.236 10.3353 391.76 9.28711 392.809 8.54883C393.866 7.80143 395.361 7.42773 397.293 7.42773C399.134 7.42773 400.925 7.82878 402.666 8.63086L401.408 11.6387C400.643 11.3105 399.927 11.0417 399.262 10.832C398.596 10.6224 397.917 10.5176 397.225 10.5176C395.994 10.5176 395.379 10.8503 395.379 11.5156C395.379 11.8893 395.575 12.2129 395.967 12.4863C396.368 12.7598 397.238 13.1654 398.578 13.7031C399.772 14.1862 400.647 14.6374 401.203 15.0566C401.759 15.4759 402.169 15.959 402.434 16.5059C402.698 17.0527 402.83 17.7044 402.83 18.4609ZM37.2266 44.375H35.5312V47H34.2891V44.375H28.7344V43.2422L34.1562 35.5156H35.5312V43.1953H37.2266V44.375ZM34.2891 43.1953V39.3984C34.2891 38.6536 34.3151 37.8125 34.3672 36.875H34.3047C34.0547 37.375 33.8203 37.7891 33.6016 38.1172L30.0312 43.1953H34.2891ZM41.6953 46.0859C41.9245 46.0859 42.1458 46.0703 42.3594 46.0391C42.5729 46.0026 42.7422 45.9661 42.8672 45.9297V46.9219C42.7266 46.9896 42.5182 47.0443 42.2422 47.0859C41.9714 47.1328 41.7266 47.1562 41.5078 47.1562C39.8516 47.1562 39.0234 46.2839 39.0234 44.5391V39.4453H37.7969V38.8203L39.0234 38.2812L39.5703 36.4531H40.3203V38.4375H42.8047V39.4453H40.3203V44.4844C40.3203 45 40.4427 45.3958 40.6875 45.6719C40.9323 45.9479 41.2682 46.0859 41.6953 46.0859ZM50.4453 47V41.4609C50.4453 40.763 50.2865 40.2422 49.9688 39.8984C49.651 39.5547 49.1536 39.3828 48.4766 39.3828C47.5755 39.3828 46.9167 39.6276 46.5 40.1172C46.0885 40.6068 45.8828 41.4089 45.8828 42.5234V47H44.5859V34.8438H45.8828V38.5234C45.8828 38.9661 45.862 39.3333 45.8203 39.625H45.8984C46.1536 39.2135 46.5156 38.8906 46.9844 38.6562C47.4583 38.4167 47.9974 38.2969 48.6016 38.2969C49.6484 38.2969 50.4323 38.5469 50.9531 39.0469C51.4792 39.5417 51.7422 40.3307 51.7422 41.4141V47H50.4453ZM60.0938 47H58.7656V35.5781H65.1328V36.7578H60.0938V40.9375H64.8281V42.1172H60.0938V47ZM68.1328 47H66.8359V34.8438H68.1328V47ZM78.2734 42.7109C78.2734 44.1068 77.9219 45.1979 77.2188 45.9844C76.5156 46.7656 75.5443 47.1562 74.3047 47.1562C73.5391 47.1562 72.8594 46.9766 72.2656 46.6172C71.6719 46.2578 71.2135 45.7422 70.8906 45.0703C70.5677 44.3984 70.4062 43.612 70.4062 42.7109C70.4062 41.3151 70.7552 40.2292 71.4531 39.4531C72.151 38.6719 73.1198 38.2812 74.3594 38.2812C75.5573 38.2812 76.5078 38.6797 77.2109 39.4766C77.9193 40.2734 78.2734 41.3516 78.2734 42.7109ZM71.75 42.7109C71.75 43.8047 71.9688 44.638 72.4062 45.2109C72.8438 45.7839 73.487 46.0703 74.3359 46.0703C75.1849 46.0703 75.8281 45.7865 76.2656 45.2188C76.7083 44.6458 76.9297 43.8099 76.9297 42.7109C76.9297 41.6224 76.7083 40.7969 76.2656 40.2344C75.8281 39.6667 75.1797 39.3828 74.3203 39.3828C73.4714 39.3828 72.8307 39.6615 72.3984 40.2188C71.9661 40.776 71.75 41.6068 71.75 42.7109ZM87.9453 42.7109C87.9453 44.1068 87.5938 45.1979 86.8906 45.9844C86.1875 46.7656 85.2161 47.1562 83.9766 47.1562C83.2109 47.1562 82.5312 46.9766 81.9375 46.6172C81.3438 46.2578 80.8854 45.7422 80.5625 45.0703C80.2396 44.3984 80.0781 43.612 80.0781 42.7109C80.0781 41.3151 80.4271 40.2292 81.125 39.4531C81.8229 38.6719 82.7917 38.2812 84.0312 38.2812C85.2292 38.2812 86.1797 38.6797 86.8828 39.4766C87.5911 40.2734 87.9453 41.3516 87.9453 42.7109ZM81.4219 42.7109C81.4219 43.8047 81.6406 44.638 82.0781 45.2109C82.5156 45.7839 83.1589 46.0703 84.0078 46.0703C84.8568 46.0703 85.5 45.7865 85.9375 45.2188C86.3802 44.6458 86.6016 43.8099 86.6016 42.7109C86.6016 41.6224 86.3802 40.7969 85.9375 40.2344C85.5 39.6667 84.8516 39.3828 83.9922 39.3828C83.1432 39.3828 82.5026 39.6615 82.0703 40.2188C81.638 40.776 81.4219 41.6068 81.4219 42.7109ZM94.1328 38.2812C94.513 38.2812 94.8542 38.3125 95.1562 38.375L94.9766 39.5781C94.6224 39.5 94.3099 39.4609 94.0391 39.4609C93.3464 39.4609 92.7526 39.7422 92.2578 40.3047C91.7682 40.8672 91.5234 41.5677 91.5234 42.4062V47H90.2266V38.4375H91.2969L91.4453 40.0234H91.5078C91.8255 39.4661 92.2083 39.0365 92.6562 38.7344C93.1042 38.4323 93.5964 38.2812 94.1328 38.2812ZM98.1172 45.1406L98.2344 45.3203C98.099 45.8411 97.9036 46.4453 97.6484 47.1328C97.3932 47.8255 97.1276 48.4688 96.8516 49.0625H95.875C96.0156 48.5208 96.1693 47.8516 96.3359 47.0547C96.5078 46.2578 96.6276 45.6198 96.6953 45.1406H98.1172ZM108.547 47H107.219V36.7578H103.602V35.5781H112.164V36.7578H108.547V47ZM113.891 47V35.5781H115.219V47H113.891ZM123.25 36.6016C121.995 36.6016 121.003 37.0208 120.273 37.8594C119.549 38.6927 119.188 39.8359 119.188 41.2891C119.188 42.7839 119.536 43.9401 120.234 44.7578C120.938 45.5703 121.938 45.9766 123.234 45.9766C124.031 45.9766 124.94 45.8333 125.961 45.5469V46.7109C125.169 47.0078 124.193 47.1562 123.031 47.1562C121.349 47.1562 120.049 46.6458 119.133 45.625C118.221 44.6042 117.766 43.1536 117.766 41.2734C117.766 40.0964 117.984 39.0651 118.422 38.1797C118.865 37.2943 119.5 36.612 120.328 36.1328C121.161 35.6536 122.141 35.4141 123.266 35.4141C124.464 35.4141 125.51 35.6328 126.406 36.0703L125.844 37.2109C124.979 36.8047 124.115 36.6016 123.25 36.6016ZM134.82 47H128.453V35.5781H134.82V36.7578H129.781V40.4375H134.516V41.6094H129.781V45.8125H134.82V47ZM137.359 47V35.5781H138.688V45.7969H143.727V47H137.359ZM149.828 35.5781H153.055C154.57 35.5781 155.667 35.8047 156.344 36.2578C157.021 36.7109 157.359 37.4271 157.359 38.4062C157.359 39.0833 157.169 39.6432 156.789 40.0859C156.414 40.5234 155.865 40.8073 155.141 40.9375V41.0156C156.875 41.3125 157.742 42.224 157.742 43.75C157.742 44.7708 157.396 45.5677 156.703 46.1406C156.016 46.7135 155.052 47 153.812 47H149.828V35.5781ZM151.156 40.4688H153.344C154.281 40.4688 154.956 40.3229 155.367 40.0312C155.779 39.7344 155.984 39.237 155.984 38.5391C155.984 37.8984 155.755 37.4375 155.297 37.1562C154.839 36.8698 154.109 36.7266 153.109 36.7266H151.156V40.4688ZM151.156 41.5938V45.8672H153.539C154.461 45.8672 155.154 45.6901 155.617 45.3359C156.086 44.9766 156.32 44.4167 156.32 43.6562C156.32 42.9479 156.081 42.4271 155.602 42.0938C155.128 41.7604 154.404 41.5938 153.43 41.5938H151.156ZM161.305 47H160.008V38.4375H161.305V47ZM159.898 36.1172C159.898 35.8203 159.971 35.6042 160.117 35.4688C160.263 35.3281 160.445 35.2578 160.664 35.2578C160.872 35.2578 161.052 35.3281 161.203 35.4688C161.354 35.6094 161.43 35.8255 161.43 36.1172C161.43 36.4089 161.354 36.6276 161.203 36.7734C161.052 36.9141 160.872 36.9844 160.664 36.9844C160.445 36.9844 160.263 36.9141 160.117 36.7734C159.971 36.6276 159.898 36.4089 159.898 36.1172ZM171.445 42.7109C171.445 44.1068 171.094 45.1979 170.391 45.9844C169.688 46.7656 168.716 47.1562 167.477 47.1562C166.711 47.1562 166.031 46.9766 165.438 46.6172C164.844 46.2578 164.385 45.7422 164.062 45.0703C163.74 44.3984 163.578 43.612 163.578 42.7109C163.578 41.3151 163.927 40.2292 164.625 39.4531C165.323 38.6719 166.292 38.2812 167.531 38.2812C168.729 38.2812 169.68 38.6797 170.383 39.4766C171.091 40.2734 171.445 41.3516 171.445 42.7109ZM164.922 42.7109C164.922 43.8047 165.141 44.638 165.578 45.2109C166.016 45.7839 166.659 46.0703 167.508 46.0703C168.357 46.0703 169 45.7865 169.438 45.2188C169.88 44.6458 170.102 43.8099 170.102 42.7109C170.102 41.6224 169.88 40.7969 169.438 40.2344C169 39.6667 168.352 39.3828 167.492 39.3828C166.643 39.3828 166.003 39.6615 165.57 40.2188C165.138 40.776 164.922 41.6068 164.922 42.7109ZM185.32 38.9062C185.32 40.0625 184.924 40.9531 184.133 41.5781C183.346 42.1979 182.219 42.5078 180.75 42.5078H179.406V47H178.078V35.5781H181.039C183.893 35.5781 185.32 36.6875 185.32 38.9062ZM179.406 41.3672H180.602C181.779 41.3672 182.63 41.1771 183.156 40.7969C183.682 40.4167 183.945 39.8073 183.945 38.9688C183.945 38.2135 183.698 37.651 183.203 37.2812C182.708 36.9115 181.938 36.7266 180.891 36.7266H179.406V41.3672ZM192.789 47L192.531 45.7812H192.469C192.042 46.3177 191.615 46.6823 191.188 46.875C190.766 47.0625 190.237 47.1562 189.602 47.1562C188.753 47.1562 188.086 46.9375 187.602 46.5C187.122 46.0625 186.883 45.4401 186.883 44.6328C186.883 42.9036 188.266 41.9974 191.031 41.9141L192.484 41.8672V41.3359C192.484 40.6641 192.339 40.1693 192.047 39.8516C191.76 39.5286 191.299 39.3672 190.664 39.3672C189.951 39.3672 189.143 39.5859 188.242 40.0234L187.844 39.0312C188.266 38.8021 188.727 38.6224 189.227 38.4922C189.732 38.362 190.237 38.2969 190.742 38.2969C191.763 38.2969 192.518 38.5234 193.008 38.9766C193.503 39.4297 193.75 40.1562 193.75 41.1562V47H192.789ZM189.859 46.0859C190.667 46.0859 191.299 45.8646 191.758 45.4219C192.221 44.9792 192.453 44.3594 192.453 43.5625V42.7891L191.156 42.8438C190.125 42.8802 189.38 43.0417 188.922 43.3281C188.469 43.6094 188.242 44.0495 188.242 44.6484C188.242 45.1172 188.383 45.474 188.664 45.7188C188.951 45.9635 189.349 46.0859 189.859 46.0859ZM200.336 38.2812C200.716 38.2812 201.057 38.3125 201.359 38.375L201.18 39.5781C200.826 39.5 200.513 39.4609 200.242 39.4609C199.549 39.4609 198.956 39.7422 198.461 40.3047C197.971 40.8672 197.727 41.5677 197.727 42.4062V47H196.43V38.4375H197.5L197.648 40.0234H197.711C198.029 39.4661 198.411 39.0365 198.859 38.7344C199.307 38.4323 199.799 38.2812 200.336 38.2812ZM204.242 42.6172C204.466 42.2995 204.807 41.8828 205.266 41.3672L208.031 38.4375H209.57L206.102 42.0859L209.812 47H208.242L205.219 42.9531L204.242 43.7969V47H202.961V34.8438H204.242V41.2891C204.242 41.5755 204.221 42.0182 204.18 42.6172H204.242ZM212.727 45.1406L212.844 45.3203C212.708 45.8411 212.513 46.4453 212.258 47.1328C212.003 47.8255 211.737 48.4688 211.461 49.0625H210.484C210.625 48.5208 210.779 47.8516 210.945 47.0547C211.117 46.2578 211.237 45.6198 211.305 45.1406H212.727ZM223.156 47H221.828V36.7578H218.211V35.5781H226.773V36.7578H223.156V47ZM233.57 47L233.312 45.7812H233.25C232.823 46.3177 232.396 46.6823 231.969 46.875C231.547 47.0625 231.018 47.1562 230.383 47.1562C229.534 47.1562 228.867 46.9375 228.383 46.5C227.904 46.0625 227.664 45.4401 227.664 44.6328C227.664 42.9036 229.047 41.9974 231.812 41.9141L233.266 41.8672V41.3359C233.266 40.6641 233.12 40.1693 232.828 39.8516C232.542 39.5286 232.081 39.3672 231.445 39.3672C230.732 39.3672 229.924 39.5859 229.023 40.0234L228.625 39.0312C229.047 38.8021 229.508 38.6224 230.008 38.4922C230.513 38.362 231.018 38.2969 231.523 38.2969C232.544 38.2969 233.299 38.5234 233.789 38.9766C234.284 39.4297 234.531 40.1562 234.531 41.1562V47H233.57ZM230.641 46.0859C231.448 46.0859 232.081 45.8646 232.539 45.4219C233.003 44.9792 233.234 44.3594 233.234 43.5625V42.7891L231.938 42.8438C230.906 42.8802 230.161 43.0417 229.703 43.3281C229.25 43.6094 229.023 44.0495 229.023 44.6484C229.023 45.1172 229.164 45.474 229.445 45.7188C229.732 45.9635 230.13 46.0859 230.641 46.0859ZM241.117 38.2812C241.497 38.2812 241.839 38.3125 242.141 38.375L241.961 39.5781C241.607 39.5 241.294 39.4609 241.023 39.4609C240.331 39.4609 239.737 39.7422 239.242 40.3047C238.753 40.8672 238.508 41.5677 238.508 42.4062V47H237.211V38.4375H238.281L238.43 40.0234H238.492C238.81 39.4661 239.193 39.0365 239.641 38.7344C240.089 38.4323 240.581 38.2812 241.117 38.2812ZM249.008 47L248.75 45.7812H248.688C248.26 46.3177 247.833 46.6823 247.406 46.875C246.984 47.0625 246.456 47.1562 245.82 47.1562C244.971 47.1562 244.305 46.9375 243.82 46.5C243.341 46.0625 243.102 45.4401 243.102 44.6328C243.102 42.9036 244.484 41.9974 247.25 41.9141L248.703 41.8672V41.3359C248.703 40.6641 248.557 40.1693 248.266 39.8516C247.979 39.5286 247.518 39.3672 246.883 39.3672C246.169 39.3672 245.362 39.5859 244.461 40.0234L244.062 39.0312C244.484 38.8021 244.945 38.6224 245.445 38.4922C245.951 38.362 246.456 38.2969 246.961 38.2969C247.982 38.2969 248.737 38.5234 249.227 38.9766C249.721 39.4297 249.969 40.1562 249.969 41.1562V47H249.008ZM246.078 46.0859C246.885 46.0859 247.518 45.8646 247.977 45.4219C248.44 44.9792 248.672 44.3594 248.672 43.5625V42.7891L247.375 42.8438C246.344 42.8802 245.599 43.0417 245.141 43.3281C244.688 43.6094 244.461 44.0495 244.461 44.6484C244.461 45.1172 244.602 45.474 244.883 45.7188C245.169 45.9635 245.568 46.0859 246.078 46.0859ZM263.562 47V41.4297C263.562 40.7474 263.417 40.237 263.125 39.8984C262.833 39.5547 262.38 39.3828 261.766 39.3828C260.958 39.3828 260.362 39.6146 259.977 40.0781C259.591 40.5417 259.398 41.2552 259.398 42.2188V47H258.102V41.4297C258.102 40.7474 257.956 40.237 257.664 39.8984C257.372 39.5547 256.917 39.3828 256.297 39.3828C255.484 39.3828 254.888 39.6276 254.508 40.1172C254.133 40.6016 253.945 41.3984 253.945 42.5078V47H252.648V38.4375H253.703L253.914 39.6094H253.977C254.221 39.1927 254.565 38.8672 255.008 38.6328C255.456 38.3984 255.956 38.2812 256.508 38.2812C257.846 38.2812 258.721 38.7656 259.133 39.7344H259.195C259.451 39.2865 259.82 38.9323 260.305 38.6719C260.789 38.4115 261.341 38.2812 261.961 38.2812C262.93 38.2812 263.654 38.5312 264.133 39.0312C264.617 39.526 264.859 40.3203 264.859 41.4141V47H263.562ZM272.805 47L272.547 45.7812H272.484C272.057 46.3177 271.63 46.6823 271.203 46.875C270.781 47.0625 270.253 47.1562 269.617 47.1562C268.768 47.1562 268.102 46.9375 267.617 46.5C267.138 46.0625 266.898 45.4401 266.898 44.6328C266.898 42.9036 268.281 41.9974 271.047 41.9141L272.5 41.8672V41.3359C272.5 40.6641 272.354 40.1693 272.062 39.8516C271.776 39.5286 271.315 39.3672 270.68 39.3672C269.966 39.3672 269.159 39.5859 268.258 40.0234L267.859 39.0312C268.281 38.8021 268.742 38.6224 269.242 38.4922C269.747 38.362 270.253 38.2969 270.758 38.2969C271.779 38.2969 272.534 38.5234 273.023 38.9766C273.518 39.4297 273.766 40.1562 273.766 41.1562V47H272.805ZM269.875 46.0859C270.682 46.0859 271.315 45.8646 271.773 45.4219C272.237 44.9792 272.469 44.3594 272.469 43.5625V42.7891L271.172 42.8438C270.141 42.8802 269.396 43.0417 268.938 43.3281C268.484 43.6094 268.258 44.0495 268.258 44.6484C268.258 45.1172 268.398 45.474 268.68 45.7188C268.966 45.9635 269.365 46.0859 269.875 46.0859ZM282.305 47V41.4609C282.305 40.763 282.146 40.2422 281.828 39.8984C281.51 39.5547 281.013 39.3828 280.336 39.3828C279.44 39.3828 278.784 39.625 278.367 40.1094C277.951 40.5938 277.742 41.3932 277.742 42.5078V47H276.445V38.4375H277.5L277.711 39.6094H277.773C278.039 39.1875 278.411 38.862 278.891 38.6328C279.37 38.3984 279.904 38.2812 280.492 38.2812C281.523 38.2812 282.299 38.5312 282.82 39.0312C283.341 39.526 283.602 40.3203 283.602 41.4141V47H282.305ZM287.57 47H286.273V38.4375H287.57V47ZM286.164 36.1172C286.164 35.8203 286.237 35.6042 286.383 35.4688C286.529 35.3281 286.711 35.2578 286.93 35.2578C287.138 35.2578 287.318 35.3281 287.469 35.4688C287.62 35.6094 287.695 35.8255 287.695 36.1172C287.695 36.4089 287.62 36.6276 287.469 36.7734C287.318 36.9141 287.138 36.9844 286.93 36.9844C286.711 36.9844 286.529 36.9141 286.383 36.7734C286.237 36.6276 286.164 36.4089 286.164 36.1172ZM291.68 45.1406L291.797 45.3203C291.661 45.8411 291.466 46.4453 291.211 47.1328C290.956 47.8255 290.69 48.4688 290.414 49.0625H289.438C289.578 48.5208 289.732 47.8516 289.898 47.0547C290.07 46.2578 290.19 45.6198 290.258 45.1406H291.68ZM303.484 36.6016C302.229 36.6016 301.237 37.0208 300.508 37.8594C299.784 38.6927 299.422 39.8359 299.422 41.2891C299.422 42.7839 299.771 43.9401 300.469 44.7578C301.172 45.5703 302.172 45.9766 303.469 45.9766C304.266 45.9766 305.174 45.8333 306.195 45.5469V46.7109C305.404 47.0078 304.427 47.1562 303.266 47.1562C301.583 47.1562 300.284 46.6458 299.367 45.625C298.456 44.6042 298 43.1536 298 41.2734C298 40.0964 298.219 39.0651 298.656 38.1797C299.099 37.2943 299.734 36.612 300.562 36.1328C301.396 35.6536 302.375 35.4141 303.5 35.4141C304.698 35.4141 305.745 35.6328 306.641 36.0703L306.078 37.2109C305.214 36.8047 304.349 36.6016 303.484 36.6016ZM314.352 47V41.4609C314.352 40.763 314.193 40.2422 313.875 39.8984C313.557 39.5547 313.06 39.3828 312.383 39.3828C311.482 39.3828 310.823 39.6276 310.406 40.1172C309.995 40.6068 309.789 41.4089 309.789 42.5234V47H308.492V34.8438H309.789V38.5234C309.789 38.9661 309.768 39.3333 309.727 39.625H309.805C310.06 39.2135 310.422 38.8906 310.891 38.6562C311.365 38.4167 311.904 38.2969 312.508 38.2969C313.555 38.2969 314.339 38.5469 314.859 39.0469C315.385 39.5417 315.648 40.3307 315.648 41.4141V47H314.352ZM321.938 47.1562C320.672 47.1562 319.672 46.7708 318.938 46C318.208 45.2292 317.844 44.1589 317.844 42.7891C317.844 41.4089 318.182 40.3125 318.859 39.5C319.542 38.6875 320.456 38.2812 321.602 38.2812C322.674 38.2812 323.523 38.6354 324.148 39.3438C324.773 40.0469 325.086 40.9766 325.086 42.1328V42.9531H319.188C319.214 43.9583 319.466 44.7214 319.945 45.2422C320.43 45.763 321.109 46.0234 321.984 46.0234C322.906 46.0234 323.818 45.8307 324.719 45.4453V46.6016C324.26 46.7995 323.826 46.9401 323.414 47.0234C323.008 47.112 322.516 47.1562 321.938 47.1562ZM321.586 39.3672C320.898 39.3672 320.349 39.5911 319.938 40.0391C319.531 40.487 319.292 41.1068 319.219 41.8984H323.695C323.695 41.0807 323.513 40.4557 323.148 40.0234C322.784 39.5859 322.263 39.3672 321.586 39.3672ZM333.164 47V41.4609C333.164 40.763 333.005 40.2422 332.688 39.8984C332.37 39.5547 331.872 39.3828 331.195 39.3828C330.299 39.3828 329.643 39.625 329.227 40.1094C328.81 40.5938 328.602 41.3932 328.602 42.5078V47H327.305V38.4375H328.359L328.57 39.6094H328.633C328.898 39.1875 329.271 38.862 329.75 38.6328C330.229 38.3984 330.763 38.2812 331.352 38.2812C332.383 38.2812 333.159 38.5312 333.68 39.0312C334.201 39.526 334.461 40.3203 334.461 41.4141V47H333.164ZM342.992 47V41.4609C342.992 40.763 342.833 40.2422 342.516 39.8984C342.198 39.5547 341.701 39.3828 341.023 39.3828C340.128 39.3828 339.471 39.625 339.055 40.1094C338.638 40.5938 338.43 41.3932 338.43 42.5078V47H337.133V38.4375H338.188L338.398 39.6094H338.461C338.727 39.1875 339.099 38.862 339.578 38.6328C340.057 38.3984 340.591 38.2812 341.18 38.2812C342.211 38.2812 342.987 38.5312 343.508 39.0312C344.029 39.526 344.289 40.3203 344.289 41.4141V47H342.992ZM352.227 47L351.969 45.7812H351.906C351.479 46.3177 351.052 46.6823 350.625 46.875C350.203 47.0625 349.674 47.1562 349.039 47.1562C348.19 47.1562 347.523 46.9375 347.039 46.5C346.56 46.0625 346.32 45.4401 346.32 44.6328C346.32 42.9036 347.703 41.9974 350.469 41.9141L351.922 41.8672V41.3359C351.922 40.6641 351.776 40.1693 351.484 39.8516C351.198 39.5286 350.737 39.3672 350.102 39.3672C349.388 39.3672 348.581 39.5859 347.68 40.0234L347.281 39.0312C347.703 38.8021 348.164 38.6224 348.664 38.4922C349.169 38.362 349.674 38.2969 350.18 38.2969C351.201 38.2969 351.956 38.5234 352.445 38.9766C352.94 39.4297 353.188 40.1562 353.188 41.1562V47H352.227ZM349.297 46.0859C350.104 46.0859 350.737 45.8646 351.195 45.4219C351.659 44.9792 351.891 44.3594 351.891 43.5625V42.7891L350.594 42.8438C349.562 42.8802 348.818 43.0417 348.359 43.3281C347.906 43.6094 347.68 44.0495 347.68 44.6484C347.68 45.1172 347.82 45.474 348.102 45.7188C348.388 45.9635 348.786 46.0859 349.297 46.0859ZM357.164 47H355.867V38.4375H357.164V47ZM355.758 36.1172C355.758 35.8203 355.831 35.6042 355.977 35.4688C356.122 35.3281 356.305 35.2578 356.523 35.2578C356.732 35.2578 356.911 35.3281 357.062 35.4688C357.214 35.6094 357.289 35.8255 357.289 36.1172C357.289 36.4089 357.214 36.6276 357.062 36.7734C356.911 36.9141 356.732 36.9844 356.523 36.9844C356.305 36.9844 356.122 36.9141 355.977 36.7734C355.831 36.6276 355.758 36.4089 355.758 36.1172ZM366.555 34.8438H367.656V50.875H366.555V34.8438ZM379.805 46.0859C380.034 46.0859 380.255 46.0703 380.469 46.0391C380.682 46.0026 380.852 45.9661 380.977 45.9297V46.9219C380.836 46.9896 380.628 47.0443 380.352 47.0859C380.081 47.1328 379.836 47.1562 379.617 47.1562C377.961 47.1562 377.133 46.2839 377.133 44.5391V39.4453H375.906V38.8203L377.133 38.2812L377.68 36.4531H378.43V38.4375H380.914V39.4453H378.43V44.4844C378.43 45 378.552 45.3958 378.797 45.6719C379.042 45.9479 379.378 46.0859 379.805 46.0859ZM386.312 47.1562C385.047 47.1562 384.047 46.7708 383.312 46C382.583 45.2292 382.219 44.1589 382.219 42.7891C382.219 41.4089 382.557 40.3125 383.234 39.5C383.917 38.6875 384.831 38.2812 385.977 38.2812C387.049 38.2812 387.898 38.6354 388.523 39.3438C389.148 40.0469 389.461 40.9766 389.461 42.1328V42.9531H383.562C383.589 43.9583 383.841 44.7214 384.32 45.2422C384.805 45.763 385.484 46.0234 386.359 46.0234C387.281 46.0234 388.193 45.8307 389.094 45.4453V46.6016C388.635 46.7995 388.201 46.9401 387.789 47.0234C387.383 47.112 386.891 47.1562 386.312 47.1562ZM385.961 39.3672C385.273 39.3672 384.724 39.5911 384.312 40.0391C383.906 40.487 383.667 41.1068 383.594 41.8984H388.07C388.07 41.0807 387.888 40.4557 387.523 40.0234C387.159 39.5859 386.638 39.3672 385.961 39.3672ZM392.961 42.6172C393.185 42.2995 393.526 41.8828 393.984 41.3672L396.75 38.4375H398.289L394.82 42.0859L398.531 47H396.961L393.938 42.9531L392.961 43.7969V47H391.68V34.8438H392.961V41.2891C392.961 41.5755 392.94 42.0182 392.898 42.6172H392.961ZM403.508 47.1562C402.268 47.1562 401.307 46.776 400.625 46.0156C399.948 45.25 399.609 44.1693 399.609 42.7734C399.609 41.3411 399.953 40.2344 400.641 39.4531C401.333 38.6719 402.318 38.2812 403.594 38.2812C404.005 38.2812 404.417 38.3255 404.828 38.4141C405.24 38.5026 405.562 38.6068 405.797 38.7266L405.398 39.8281C405.112 39.7135 404.799 39.6198 404.461 39.5469C404.122 39.4688 403.823 39.4297 403.562 39.4297C401.823 39.4297 400.953 40.5391 400.953 42.7578C400.953 43.8099 401.164 44.6172 401.586 45.1797C402.013 45.7422 402.643 46.0234 403.477 46.0234C404.19 46.0234 404.922 45.8698 405.672 45.5625V46.7109C405.099 47.0078 404.378 47.1562 403.508 47.1562ZM409.008 47H407.711V34.8438H409.008V47ZM417.023 47L416.766 45.7812H416.703C416.276 46.3177 415.849 46.6823 415.422 46.875C415 47.0625 414.471 47.1562 413.836 47.1562C412.987 47.1562 412.32 46.9375 411.836 46.5C411.357 46.0625 411.117 45.4401 411.117 44.6328C411.117 42.9036 412.5 41.9974 415.266 41.9141L416.719 41.8672V41.3359C416.719 40.6641 416.573 40.1693 416.281 39.8516C415.995 39.5286 415.534 39.3672 414.898 39.3672C414.185 39.3672 413.378 39.5859 412.477 40.0234L412.078 39.0312C412.5 38.8021 412.961 38.6224 413.461 38.4922C413.966 38.362 414.471 38.2969 414.977 38.2969C415.997 38.2969 416.753 38.5234 417.242 38.9766C417.737 39.4297 417.984 40.1562 417.984 41.1562V47H417.023ZM414.094 46.0859C414.901 46.0859 415.534 45.8646 415.992 45.4219C416.456 44.9792 416.688 44.3594 416.688 43.5625V42.7891L415.391 42.8438C414.359 42.8802 413.615 43.0417 413.156 43.3281C412.703 43.6094 412.477 44.0495 412.477 44.6484C412.477 45.1172 412.617 45.474 412.898 45.7188C413.185 45.9635 413.583 46.0859 414.094 46.0859ZM426.523 47V41.4609C426.523 40.763 426.365 40.2422 426.047 39.8984C425.729 39.5547 425.232 39.3828 424.555 39.3828C423.659 39.3828 423.003 39.625 422.586 40.1094C422.169 40.5938 421.961 41.3932 421.961 42.5078V47H420.664V38.4375H421.719L421.93 39.6094H421.992C422.258 39.1875 422.63 38.862 423.109 38.6328C423.589 38.3984 424.122 38.2812 424.711 38.2812C425.742 38.2812 426.518 38.5312 427.039 39.0312C427.56 39.526 427.82 40.3203 427.82 41.4141V47H426.523ZM436.016 44.6641C436.016 45.4609 435.719 46.0755 435.125 46.5078C434.531 46.9401 433.698 47.1562 432.625 47.1562C431.49 47.1562 430.604 46.9766 429.969 46.6172V45.4141C430.38 45.6224 430.82 45.7865 431.289 45.9062C431.763 46.026 432.219 46.0859 432.656 46.0859C433.333 46.0859 433.854 45.9792 434.219 45.7656C434.583 45.5469 434.766 45.2161 434.766 44.7734C434.766 44.4401 434.62 44.1562 434.328 43.9219C434.042 43.6823 433.479 43.401 432.641 43.0781C431.844 42.7812 431.276 42.5234 430.938 42.3047C430.604 42.0807 430.354 41.8281 430.188 41.5469C430.026 41.2656 429.945 40.9297 429.945 40.5391C429.945 39.8411 430.229 39.2917 430.797 38.8906C431.365 38.4844 432.143 38.2812 433.133 38.2812C434.055 38.2812 434.956 38.4688 435.836 38.8438L435.375 39.8984C434.516 39.5443 433.737 39.3672 433.039 39.3672C432.424 39.3672 431.961 39.4635 431.648 39.6562C431.336 39.849 431.18 40.1146 431.18 40.4531C431.18 40.6823 431.237 40.8776 431.352 41.0391C431.471 41.2005 431.661 41.3542 431.922 41.5C432.182 41.6458 432.682 41.8568 433.422 42.1328C434.438 42.5026 435.122 42.875 435.477 43.25C435.836 43.625 436.016 44.0964 436.016 44.6641ZM445.523 42.7109C445.523 44.1068 445.172 45.1979 444.469 45.9844C443.766 46.7656 442.794 47.1562 441.555 47.1562C440.789 47.1562 440.109 46.9766 439.516 46.6172C438.922 46.2578 438.464 45.7422 438.141 45.0703C437.818 44.3984 437.656 43.612 437.656 42.7109C437.656 41.3151 438.005 40.2292 438.703 39.4531C439.401 38.6719 440.37 38.2812 441.609 38.2812C442.807 38.2812 443.758 38.6797 444.461 39.4766C445.169 40.2734 445.523 41.3516 445.523 42.7109ZM439 42.7109C439 43.8047 439.219 44.638 439.656 45.2109C440.094 45.7839 440.737 46.0703 441.586 46.0703C442.435 46.0703 443.078 45.7865 443.516 45.2188C443.958 44.6458 444.18 43.8099 444.18 42.7109C444.18 41.6224 443.958 40.7969 443.516 40.2344C443.078 39.6667 442.43 39.3828 441.57 39.3828C440.721 39.3828 440.081 39.6615 439.648 40.2188C439.216 40.776 439 41.6068 439 42.7109ZM449.102 47H447.805V34.8438H449.102V47ZM453.07 38.4375V43.9922C453.07 44.6901 453.229 45.2109 453.547 45.5547C453.865 45.8984 454.362 46.0703 455.039 46.0703C455.935 46.0703 456.589 45.8255 457 45.3359C457.417 44.8464 457.625 44.0469 457.625 42.9375V38.4375H458.922V47H457.852L457.664 45.8516H457.594C457.328 46.2734 456.958 46.5964 456.484 46.8203C456.016 47.0443 455.479 47.1562 454.875 47.1562C453.833 47.1562 453.052 46.9089 452.531 46.4141C452.016 45.9193 451.758 45.1276 451.758 44.0391V38.4375H453.07ZM464.445 46.0859C464.674 46.0859 464.896 46.0703 465.109 46.0391C465.323 46.0026 465.492 45.9661 465.617 45.9297V46.9219C465.477 46.9896 465.268 47.0443 464.992 47.0859C464.721 47.1328 464.477 47.1562 464.258 47.1562C462.602 47.1562 461.773 46.2839 461.773 44.5391V39.4453H460.547V38.8203L461.773 38.2812L462.32 36.4531H463.07V38.4375H465.555V39.4453H463.07V44.4844C463.07 45 463.193 45.3958 463.438 45.6719C463.682 45.9479 464.018 46.0859 464.445 46.0859ZM468.633 47H467.336V38.4375H468.633V47ZM467.227 36.1172C467.227 35.8203 467.299 35.6042 467.445 35.4688C467.591 35.3281 467.773 35.2578 467.992 35.2578C468.201 35.2578 468.38 35.3281 468.531 35.4688C468.682 35.6094 468.758 35.8255 468.758 36.1172C468.758 36.4089 468.682 36.6276 468.531 36.7734C468.38 36.9141 468.201 36.9844 467.992 36.9844C467.773 36.9844 467.591 36.9141 467.445 36.7734C467.299 36.6276 467.227 36.4089 467.227 36.1172ZM478.773 42.7109C478.773 44.1068 478.422 45.1979 477.719 45.9844C477.016 46.7656 476.044 47.1562 474.805 47.1562C474.039 47.1562 473.359 46.9766 472.766 46.6172C472.172 46.2578 471.714 45.7422 471.391 45.0703C471.068 44.3984 470.906 43.612 470.906 42.7109C470.906 41.3151 471.255 40.2292 471.953 39.4531C472.651 38.6719 473.62 38.2812 474.859 38.2812C476.057 38.2812 477.008 38.6797 477.711 39.4766C478.419 40.2734 478.773 41.3516 478.773 42.7109ZM472.25 42.7109C472.25 43.8047 472.469 44.638 472.906 45.2109C473.344 45.7839 473.987 46.0703 474.836 46.0703C475.685 46.0703 476.328 45.7865 476.766 45.2188C477.208 44.6458 477.43 43.8099 477.43 42.7109C477.43 41.6224 477.208 40.7969 476.766 40.2344C476.328 39.6667 475.68 39.3828 474.82 39.3828C473.971 39.3828 473.331 39.6615 472.898 40.2188C472.466 40.776 472.25 41.6068 472.25 42.7109ZM486.914 47V41.4609C486.914 40.763 486.755 40.2422 486.438 39.8984C486.12 39.5547 485.622 39.3828 484.945 39.3828C484.049 39.3828 483.393 39.625 482.977 40.1094C482.56 40.5938 482.352 41.3932 482.352 42.5078V47H481.055V38.4375H482.109L482.32 39.6094H482.383C482.648 39.1875 483.021 38.862 483.5 38.6328C483.979 38.3984 484.513 38.2812 485.102 38.2812C486.133 38.2812 486.909 38.5312 487.43 39.0312C487.951 39.526 488.211 40.3203 488.211 41.4141V47H486.914ZM496.406 44.6641C496.406 45.4609 496.109 46.0755 495.516 46.5078C494.922 46.9401 494.089 47.1562 493.016 47.1562C491.88 47.1562 490.995 46.9766 490.359 46.6172V45.4141C490.771 45.6224 491.211 45.7865 491.68 45.9062C492.154 46.026 492.609 46.0859 493.047 46.0859C493.724 46.0859 494.245 45.9792 494.609 45.7656C494.974 45.5469 495.156 45.2161 495.156 44.7734C495.156 44.4401 495.01 44.1562 494.719 43.9219C494.432 43.6823 493.87 43.401 493.031 43.0781C492.234 42.7812 491.667 42.5234 491.328 42.3047C490.995 42.0807 490.745 41.8281 490.578 41.5469C490.417 41.2656 490.336 40.9297 490.336 40.5391C490.336 39.8411 490.62 39.2917 491.188 38.8906C491.755 38.4844 492.534 38.2812 493.523 38.2812C494.445 38.2812 495.346 38.4688 496.227 38.8438L495.766 39.8984C494.906 39.5443 494.128 39.3672 493.43 39.3672C492.815 39.3672 492.352 39.4635 492.039 39.6562C491.727 39.849 491.57 40.1146 491.57 40.4531C491.57 40.6823 491.628 40.8776 491.742 41.0391C491.862 41.2005 492.052 41.3542 492.312 41.5C492.573 41.6458 493.073 41.8568 493.812 42.1328C494.828 42.5026 495.513 42.875 495.867 43.25C496.227 43.625 496.406 44.0964 496.406 44.6641ZM498.336 46.1719C498.336 45.8229 498.414 45.5599 498.57 45.3828C498.732 45.2005 498.961 45.1094 499.258 45.1094C499.56 45.1094 499.794 45.2005 499.961 45.3828C500.133 45.5599 500.219 45.8229 500.219 46.1719C500.219 46.5104 500.133 46.7708 499.961 46.9531C499.789 47.1354 499.555 47.2266 499.258 47.2266C498.992 47.2266 498.771 47.1458 498.594 46.9844C498.422 46.8177 498.336 46.5469 498.336 46.1719ZM506.211 47.1562C504.971 47.1562 504.01 46.776 503.328 46.0156C502.651 45.25 502.312 44.1693 502.312 42.7734C502.312 41.3411 502.656 40.2344 503.344 39.4531C504.036 38.6719 505.021 38.2812 506.297 38.2812C506.708 38.2812 507.12 38.3255 507.531 38.4141C507.943 38.5026 508.266 38.6068 508.5 38.7266L508.102 39.8281C507.815 39.7135 507.503 39.6198 507.164 39.5469C506.826 39.4688 506.526 39.4297 506.266 39.4297C504.526 39.4297 503.656 40.5391 503.656 42.7578C503.656 43.8099 503.867 44.6172 504.289 45.1797C504.716 45.7422 505.346 46.0234 506.18 46.0234C506.893 46.0234 507.625 45.8698 508.375 45.5625V46.7109C507.802 47.0078 507.081 47.1562 506.211 47.1562ZM517.805 42.7109C517.805 44.1068 517.453 45.1979 516.75 45.9844C516.047 46.7656 515.076 47.1562 513.836 47.1562C513.07 47.1562 512.391 46.9766 511.797 46.6172C511.203 46.2578 510.745 45.7422 510.422 45.0703C510.099 44.3984 509.938 43.612 509.938 42.7109C509.938 41.3151 510.286 40.2292 510.984 39.4531C511.682 38.6719 512.651 38.2812 513.891 38.2812C515.089 38.2812 516.039 38.6797 516.742 39.4766C517.451 40.2734 517.805 41.3516 517.805 42.7109ZM511.281 42.7109C511.281 43.8047 511.5 44.638 511.938 45.2109C512.375 45.7839 513.018 46.0703 513.867 46.0703C514.716 46.0703 515.359 45.7865 515.797 45.2188C516.24 44.6458 516.461 43.8099 516.461 42.7109C516.461 41.6224 516.24 40.7969 515.797 40.2344C515.359 39.6667 514.711 39.3828 513.852 39.3828C513.003 39.3828 512.362 39.6615 511.93 40.2188C511.497 40.776 511.281 41.6068 511.281 42.7109ZM531 47V41.4297C531 40.7474 530.854 40.237 530.562 39.8984C530.271 39.5547 529.818 39.3828 529.203 39.3828C528.396 39.3828 527.799 39.6146 527.414 40.0781C527.029 40.5417 526.836 41.2552 526.836 42.2188V47H525.539V41.4297C525.539 40.7474 525.393 40.237 525.102 39.8984C524.81 39.5547 524.354 39.3828 523.734 39.3828C522.922 39.3828 522.326 39.6276 521.945 40.1172C521.57 40.6016 521.383 41.3984 521.383 42.5078V47H520.086V38.4375H521.141L521.352 39.6094H521.414C521.659 39.1927 522.003 38.8672 522.445 38.6328C522.893 38.3984 523.393 38.2812 523.945 38.2812C525.284 38.2812 526.159 38.7656 526.57 39.7344H526.633C526.888 39.2865 527.258 38.9323 527.742 38.6719C528.227 38.4115 528.779 38.2812 529.398 38.2812C530.367 38.2812 531.091 38.5312 531.57 39.0312C532.055 39.526 532.297 40.3203 532.297 41.4141V47H531Z" fill="black"/>
</svg>
