<svg width="100%" height="100%" viewBox="0 0 38 68" fill="none" xmlns="http://www.w3.org/2000/svg">
<g clip-path="url(#clip0)">
<path d="M4.75 68L4.75 59.5H28.5V68H4.75ZM4.75 55.25V51H28.5V55.25H4.75ZM4.75 46.75L4.75 42.5H28.5V46.75H4.75ZM4.75 34L4.75 29.75H28.5V34H4.75ZM4.75 17V12.75H28.5V17H4.75ZM4.75 4.25L4.75 0H28.5V4.25H4.75ZM4.75 25.5V23.375H28.5V25.5H4.75ZM4.75 38.25V36.125H28.5V38.25H4.75ZM4.75 10.625V8.5H28.5V10.625H4.75ZM30.875 68V63.75H33.25V68H30.875ZM30.875 55.25V51H33.25V55.25H30.875ZM30.875 46.75V42.5H33.25V46.75H30.875ZM30.875 25.5V21.25H33.25V25.5H30.875ZM30.875 4.25V0H33.25V4.25H30.875ZM30.875 17V8.5H33.25V17H30.875ZM30.875 38.25V29.75H33.25V38.25H30.875Z" fill="#34B6F8"/>
</g>
<defs>
<clipPath id="clip0">
<rect width="68" height="38" fill="white" transform="translate(0 68) rotate(-90)"/>
</clipPath>
</defs>
</svg>
