<svg width="144" height="76" viewBox="0 0 144 76" fill="none" xmlns="http://www.w3.org/2000/svg">
<path d="M0 9.5H18V57H0V9.5ZM27 9.5H36V57H27V9.5ZM45 9.5H54V57H45V9.5ZM72 9.5H81V57H72V9.5ZM108 9.5H117V57H108V9.5ZM135 9.5H144V57H135V9.5ZM90 9.5H94.5V57H90V9.5ZM63 9.5H67.5V57H63V9.5ZM121.5 9.5H126V57H121.5V9.5ZM0 61.75H9V66.5H0V61.75ZM27 61.75H36V66.5H27V61.75ZM45 61.75H54V66.5H45V61.75ZM90 61.75H99V66.5H90V61.75ZM135 61.75H144V66.5H135V61.75ZM108 61.75H126V66.5H108V61.75ZM63 61.75H81V66.5H63V61.75Z" fill="black"/>
</svg>
