<svg width="255" height="23" viewBox="0 0 255 23" fill="none" xmlns="http://www.w3.org/2000/svg">
<path d="M8.75 17L7.32812 13.3672H2.75L1.34375 17H0L4.51562 5.53125H5.63281L10.125 17H8.75ZM6.91406 12.1719L5.58594 8.63281C5.41406 8.1849 5.23698 7.63542 5.05469 6.98438C4.9401 7.48438 4.77604 8.03385 4.5625 8.63281L3.21875 12.1719H6.91406ZM17.3281 15.8516H17.2578C16.6589 16.7214 15.763 17.1562 14.5703 17.1562C13.4505 17.1562 12.5781 16.7734 11.9531 16.0078C11.3333 15.2422 11.0234 14.1536 11.0234 12.7422C11.0234 11.3307 11.3359 10.2344 11.9609 9.45312C12.5859 8.67188 13.4557 8.28125 14.5703 8.28125C15.7318 8.28125 16.6224 8.70312 17.2422 9.54688H17.3438L17.2891 8.92969L17.2578 8.32812V4.84375H18.5547V17H17.5L17.3281 15.8516ZM14.7344 16.0703C15.6198 16.0703 16.2604 15.8307 16.6562 15.3516C17.0573 14.8672 17.2578 14.0885 17.2578 13.0156V12.7422C17.2578 11.5286 17.0547 10.6641 16.6484 10.1484C16.2474 9.6276 15.6042 9.36719 14.7188 9.36719C13.9583 9.36719 13.375 9.66406 12.9688 10.2578C12.5677 10.8464 12.3672 11.6797 12.3672 12.7578C12.3672 13.8516 12.5677 14.6771 12.9688 15.2344C13.3698 15.7917 13.9583 16.0703 14.7344 16.0703ZM27.1406 15.8516H27.0703C26.4714 16.7214 25.5755 17.1562 24.3828 17.1562C23.263 17.1562 22.3906 16.7734 21.7656 16.0078C21.1458 15.2422 20.8359 14.1536 20.8359 12.7422C20.8359 11.3307 21.1484 10.2344 21.7734 9.45312C22.3984 8.67188 23.2682 8.28125 24.3828 8.28125C25.5443 8.28125 26.4349 8.70312 27.0547 9.54688H27.1562L27.1016 8.92969L27.0703 8.32812V4.84375H28.3672V17H27.3125L27.1406 15.8516ZM24.5469 16.0703C25.4323 16.0703 26.0729 15.8307 26.4688 15.3516C26.8698 14.8672 27.0703 14.0885 27.0703 13.0156V12.7422C27.0703 11.5286 26.8672 10.6641 26.4609 10.1484C26.0599 9.6276 25.4167 9.36719 24.5312 9.36719C23.7708 9.36719 23.1875 9.66406 22.7812 10.2578C22.3802 10.8464 22.1797 11.6797 22.1797 12.7578C22.1797 13.8516 22.3802 14.6771 22.7812 15.2344C23.1823 15.7917 23.7708 16.0703 24.5469 16.0703ZM40.5469 17L40.2891 15.7812H40.2266C39.7995 16.3177 39.3724 16.6823 38.9453 16.875C38.5234 17.0625 37.9948 17.1562 37.3594 17.1562C36.5104 17.1562 35.8438 16.9375 35.3594 16.5C34.8802 16.0625 34.6406 15.4401 34.6406 14.6328C34.6406 12.9036 36.0234 11.9974 38.7891 11.9141L40.2422 11.8672V11.3359C40.2422 10.6641 40.0964 10.1693 39.8047 9.85156C39.5182 9.52865 39.0573 9.36719 38.4219 9.36719C37.7083 9.36719 36.901 9.58594 36 10.0234L35.6016 9.03125C36.0234 8.80208 36.4844 8.6224 36.9844 8.49219C37.4896 8.36198 37.9948 8.29688 38.5 8.29688C39.5208 8.29688 40.276 8.52344 40.7656 8.97656C41.2604 9.42969 41.5078 10.1562 41.5078 11.1562V17H40.5469ZM37.6172 16.0859C38.4245 16.0859 39.0573 15.8646 39.5156 15.4219C39.9792 14.9792 40.2109 14.3594 40.2109 13.5625V12.7891L38.9141 12.8438C37.8828 12.8802 37.138 13.0417 36.6797 13.3281C36.2266 13.6094 36 14.0495 36 14.6484C36 15.1172 36.1406 15.474 36.4219 15.7188C36.7083 15.9635 37.1068 16.0859 37.6172 16.0859ZM49.6406 17H48.3438V4.84375H49.6406V17ZM53.6875 17H52.3906V8.4375H53.6875V17ZM52.2812 6.11719C52.2812 5.82031 52.3542 5.60417 52.5 5.46875C52.6458 5.32812 52.8281 5.25781 53.0469 5.25781C53.2552 5.25781 53.4349 5.32812 53.5859 5.46875C53.737 5.60938 53.8125 5.82552 53.8125 6.11719C53.8125 6.40885 53.737 6.6276 53.5859 6.77344C53.4349 6.91406 53.2552 6.98438 53.0469 6.98438C52.8281 6.98438 52.6458 6.91406 52.5 6.77344C52.3542 6.6276 52.2812 6.40885 52.2812 6.11719ZM59.2031 16.0859C59.4323 16.0859 59.6536 16.0703 59.8672 16.0391C60.0807 16.0026 60.25 15.9661 60.375 15.9297V16.9219C60.2344 16.9896 60.026 17.0443 59.75 17.0859C59.4792 17.1328 59.2344 17.1562 59.0156 17.1562C57.3594 17.1562 56.5312 16.2839 56.5312 14.5391V9.44531H55.3047V8.82031L56.5312 8.28125L57.0781 6.45312H57.8281V8.4375H60.3125V9.44531H57.8281V14.4844C57.8281 15 57.9505 15.3958 58.1953 15.6719C58.4401 15.9479 58.776 16.0859 59.2031 16.0859ZM64.8594 16.0859C65.0885 16.0859 65.3099 16.0703 65.5234 16.0391C65.737 16.0026 65.9062 15.9661 66.0312 15.9297V16.9219C65.8906 16.9896 65.6823 17.0443 65.4062 17.0859C65.1354 17.1328 64.8906 17.1562 64.6719 17.1562C63.0156 17.1562 62.1875 16.2839 62.1875 14.5391V9.44531H60.9609V8.82031L62.1875 8.28125L62.7344 6.45312H63.4844V8.4375H65.9688V9.44531H63.4844V14.4844C63.4844 15 63.6068 15.3958 63.8516 15.6719C64.0964 15.9479 64.4323 16.0859 64.8594 16.0859ZM69.0469 17H67.75V4.84375H69.0469V17ZM75.4141 17.1562C74.1484 17.1562 73.1484 16.7708 72.4141 16C71.6849 15.2292 71.3203 14.1589 71.3203 12.7891C71.3203 11.4089 71.6589 10.3125 72.3359 9.5C73.0182 8.6875 73.9323 8.28125 75.0781 8.28125C76.151 8.28125 77 8.63542 77.625 9.34375C78.25 10.0469 78.5625 10.9766 78.5625 12.1328V12.9531H72.6641C72.6901 13.9583 72.9427 14.7214 73.4219 15.2422C73.9062 15.763 74.5859 16.0234 75.4609 16.0234C76.3828 16.0234 77.2943 15.8307 78.1953 15.4453V16.6016C77.737 16.7995 77.3021 16.9401 76.8906 17.0234C76.4844 17.112 75.9922 17.1562 75.4141 17.1562ZM75.0625 9.36719C74.375 9.36719 73.8255 9.59115 73.4141 10.0391C73.0078 10.487 72.7682 11.1068 72.6953 11.8984H77.1719C77.1719 11.0807 76.9896 10.4557 76.625 10.0234C76.2604 9.58594 75.7396 9.36719 75.0625 9.36719ZM88.9219 8.29688C90.0469 8.29688 90.9193 8.68229 91.5391 9.45312C92.1641 10.2188 92.4766 11.3047 92.4766 12.7109C92.4766 14.1172 92.1615 15.2109 91.5312 15.9922C90.9062 16.7682 90.0365 17.1562 88.9219 17.1562C88.3646 17.1562 87.8542 17.0547 87.3906 16.8516C86.9323 16.6432 86.5469 16.3255 86.2344 15.8984H86.1406L85.8672 17H84.9375V4.84375H86.2344V7.79688C86.2344 8.45833 86.2135 9.05208 86.1719 9.57812H86.2344C86.8385 8.72396 87.7344 8.29688 88.9219 8.29688ZM88.7344 9.38281C87.849 9.38281 87.2109 9.63802 86.8203 10.1484C86.4297 10.6536 86.2344 11.5078 86.2344 12.7109C86.2344 13.9141 86.4349 14.776 86.8359 15.2969C87.237 15.8125 87.8802 16.0703 88.7656 16.0703C89.5625 16.0703 90.1562 15.7812 90.5469 15.2031C90.9375 14.6198 91.1328 13.7839 91.1328 12.6953C91.1328 11.5807 90.9375 10.75 90.5469 10.2031C90.1562 9.65625 89.5521 9.38281 88.7344 9.38281ZM96.0469 17H94.75V8.4375H96.0469V17ZM94.6406 6.11719C94.6406 5.82031 94.7135 5.60417 94.8594 5.46875C95.0052 5.32812 95.1875 5.25781 95.4062 5.25781C95.6146 5.25781 95.7943 5.32812 95.9453 5.46875C96.0964 5.60938 96.1719 5.82552 96.1719 6.11719C96.1719 6.40885 96.0964 6.6276 95.9453 6.77344C95.7943 6.91406 95.6146 6.98438 95.4062 6.98438C95.1875 6.98438 95.0052 6.91406 94.8594 6.77344C94.7135 6.6276 94.6406 6.40885 94.6406 6.11719ZM101.562 16.0859C101.792 16.0859 102.013 16.0703 102.227 16.0391C102.44 16.0026 102.609 15.9661 102.734 15.9297V16.9219C102.594 16.9896 102.385 17.0443 102.109 17.0859C101.839 17.1328 101.594 17.1562 101.375 17.1562C99.7188 17.1562 98.8906 16.2839 98.8906 14.5391V9.44531H97.6641V8.82031L98.8906 8.28125L99.4375 6.45312H100.188V8.4375H102.672V9.44531H100.188V14.4844C100.188 15 100.31 15.3958 100.555 15.6719C100.799 15.9479 101.135 16.0859 101.562 16.0859ZM116 12.7109C116 14.1068 115.648 15.1979 114.945 15.9844C114.242 16.7656 113.271 17.1562 112.031 17.1562C111.266 17.1562 110.586 16.9766 109.992 16.6172C109.398 16.2578 108.94 15.7422 108.617 15.0703C108.294 14.3984 108.133 13.612 108.133 12.7109C108.133 11.3151 108.482 10.2292 109.18 9.45312C109.878 8.67188 110.846 8.28125 112.086 8.28125C113.284 8.28125 114.234 8.67969 114.938 9.47656C115.646 10.2734 116 11.3516 116 12.7109ZM109.477 12.7109C109.477 13.8047 109.695 14.638 110.133 15.2109C110.57 15.7839 111.214 16.0703 112.062 16.0703C112.911 16.0703 113.555 15.7865 113.992 15.2188C114.435 14.6458 114.656 13.8099 114.656 12.7109C114.656 11.6224 114.435 10.7969 113.992 10.2344C113.555 9.66667 112.906 9.38281 112.047 9.38281C111.198 9.38281 110.557 9.66146 110.125 10.2188C109.693 10.776 109.477 11.6068 109.477 12.7109ZM122.141 9.44531H119.961V17H118.664V9.44531H117.133V8.85938L118.664 8.39062V7.91406C118.664 5.8099 119.583 4.75781 121.422 4.75781C121.875 4.75781 122.406 4.84896 123.016 5.03125L122.68 6.07031C122.18 5.90885 121.753 5.82812 121.398 5.82812C120.909 5.82812 120.547 5.99219 120.312 6.32031C120.078 6.64323 119.961 7.16406 119.961 7.88281V8.4375H122.141V9.44531ZM131.844 8.29688C132.969 8.29688 133.841 8.68229 134.461 9.45312C135.086 10.2188 135.398 11.3047 135.398 12.7109C135.398 14.1172 135.083 15.2109 134.453 15.9922C133.828 16.7682 132.958 17.1562 131.844 17.1562C131.286 17.1562 130.776 17.0547 130.312 16.8516C129.854 16.6432 129.469 16.3255 129.156 15.8984H129.062L128.789 17H127.859V4.84375H129.156V7.79688C129.156 8.45833 129.135 9.05208 129.094 9.57812H129.156C129.76 8.72396 130.656 8.29688 131.844 8.29688ZM131.656 9.38281C130.771 9.38281 130.133 9.63802 129.742 10.1484C129.352 10.6536 129.156 11.5078 129.156 12.7109C129.156 13.9141 129.357 14.776 129.758 15.2969C130.159 15.8125 130.802 16.0703 131.688 16.0703C132.484 16.0703 133.078 15.7812 133.469 15.2031C133.859 14.6198 134.055 13.7839 134.055 12.6953C134.055 11.5807 133.859 10.75 133.469 10.2031C133.078 9.65625 132.474 9.38281 131.656 9.38281ZM145.062 12.7109C145.062 14.1068 144.711 15.1979 144.008 15.9844C143.305 16.7656 142.333 17.1562 141.094 17.1562C140.328 17.1562 139.648 16.9766 139.055 16.6172C138.461 16.2578 138.003 15.7422 137.68 15.0703C137.357 14.3984 137.195 13.612 137.195 12.7109C137.195 11.3151 137.544 10.2292 138.242 9.45312C138.94 8.67188 139.909 8.28125 141.148 8.28125C142.346 8.28125 143.297 8.67969 144 9.47656C144.708 10.2734 145.062 11.3516 145.062 12.7109ZM138.539 12.7109C138.539 13.8047 138.758 14.638 139.195 15.2109C139.633 15.7839 140.276 16.0703 141.125 16.0703C141.974 16.0703 142.617 15.7865 143.055 15.2188C143.497 14.6458 143.719 13.8099 143.719 12.7109C143.719 11.6224 143.497 10.7969 143.055 10.2344C142.617 9.66667 141.969 9.38281 141.109 9.38281C140.26 9.38281 139.62 9.66146 139.188 10.2188C138.755 10.776 138.539 11.6068 138.539 12.7109ZM153.172 15.8516H153.102C152.503 16.7214 151.607 17.1562 150.414 17.1562C149.294 17.1562 148.422 16.7734 147.797 16.0078C147.177 15.2422 146.867 14.1536 146.867 12.7422C146.867 11.3307 147.18 10.2344 147.805 9.45312C148.43 8.67188 149.299 8.28125 150.414 8.28125C151.576 8.28125 152.466 8.70312 153.086 9.54688H153.188L153.133 8.92969L153.102 8.32812V4.84375H154.398V17H153.344L153.172 15.8516ZM150.578 16.0703C151.464 16.0703 152.104 15.8307 152.5 15.3516C152.901 14.8672 153.102 14.0885 153.102 13.0156V12.7422C153.102 11.5286 152.898 10.6641 152.492 10.1484C152.091 9.6276 151.448 9.36719 150.562 9.36719C149.802 9.36719 149.219 9.66406 148.812 10.2578C148.411 10.8464 148.211 11.6797 148.211 12.7578C148.211 13.8516 148.411 14.6771 148.812 15.2344C149.214 15.7917 149.802 16.0703 150.578 16.0703ZM155.797 8.4375H157.188L159.062 13.3203C159.474 14.4349 159.729 15.2396 159.828 15.7344H159.891C159.958 15.4688 160.099 15.0156 160.312 14.375C160.531 13.7292 161.24 11.75 162.438 8.4375H163.828L160.148 18.1875C159.784 19.151 159.357 19.8333 158.867 20.2344C158.383 20.6406 157.786 20.8438 157.078 20.8438C156.682 20.8438 156.292 20.7995 155.906 20.7109V19.6719C156.193 19.7344 156.513 19.7656 156.867 19.7656C157.758 19.7656 158.393 19.2656 158.773 18.2656L159.25 17.0469L155.797 8.4375ZM172.141 16.0859C172.37 16.0859 172.591 16.0703 172.805 16.0391C173.018 16.0026 173.188 15.9661 173.312 15.9297V16.9219C173.172 16.9896 172.964 17.0443 172.688 17.0859C172.417 17.1328 172.172 17.1562 171.953 17.1562C170.297 17.1562 169.469 16.2839 169.469 14.5391V9.44531H168.242V8.82031L169.469 8.28125L170.016 6.45312H170.766V8.4375H173.25V9.44531H170.766V14.4844C170.766 15 170.888 15.3958 171.133 15.6719C171.378 15.9479 171.714 16.0859 172.141 16.0859ZM178.648 17.1562C177.383 17.1562 176.383 16.7708 175.648 16C174.919 15.2292 174.555 14.1589 174.555 12.7891C174.555 11.4089 174.893 10.3125 175.57 9.5C176.253 8.6875 177.167 8.28125 178.312 8.28125C179.385 8.28125 180.234 8.63542 180.859 9.34375C181.484 10.0469 181.797 10.9766 181.797 12.1328V12.9531H175.898C175.924 13.9583 176.177 14.7214 176.656 15.2422C177.141 15.763 177.82 16.0234 178.695 16.0234C179.617 16.0234 180.529 15.8307 181.43 15.4453V16.6016C180.971 16.7995 180.536 16.9401 180.125 17.0234C179.719 17.112 179.227 17.1562 178.648 17.1562ZM178.297 9.36719C177.609 9.36719 177.06 9.59115 176.648 10.0391C176.242 10.487 176.003 11.1068 175.93 11.8984H180.406C180.406 11.0807 180.224 10.4557 179.859 10.0234C179.495 9.58594 178.974 9.36719 178.297 9.36719ZM186.078 12.6172L183.102 8.4375H184.578L186.836 11.7188L189.086 8.4375H190.547L187.57 12.6172L190.703 17H189.234L186.836 13.5312L184.414 17H182.945L186.078 12.6172ZM195.172 16.0859C195.401 16.0859 195.622 16.0703 195.836 16.0391C196.049 16.0026 196.219 15.9661 196.344 15.9297V16.9219C196.203 16.9896 195.995 17.0443 195.719 17.0859C195.448 17.1328 195.203 17.1562 194.984 17.1562C193.328 17.1562 192.5 16.2839 192.5 14.5391V9.44531H191.273V8.82031L192.5 8.28125L193.047 6.45312H193.797V8.4375H196.281V9.44531H193.797V14.4844C193.797 15 193.919 15.3958 194.164 15.6719C194.409 15.9479 194.745 16.0859 195.172 16.0859Z" fill="black"/>
</svg>
