<svg xmlns="http://www.w3.org/2000/svg" xmlns:xlink="http://www.w3.org/1999/xlink" height="177.7" preserveAspectRatio="xMidYMid meet" version="1.1" viewBox="96.7 123.8 231.8 177.7" width="231.8" zoomAndPan="magnify">
 <g id="surface1">
  <g id="change1_1"><path d="m308.07 153.71c0 8.89-8.04 16.1-17.96 16.1h-7c-9.92 0-17.97-7.21-17.97-16.1s8.05-16.1 17.97-16.1h7c9.92 0 17.96 7.21 17.96 16.1" fill="#5c87cd"/></g>
  <path d="m3080.7 2714.9c0-88.9-80.4-161-179.6-161h-70c-99.2 0-179.7 72.1-179.7 161s80.5 161 179.7 161h70c99.2 0 179.6-72.1 179.6-161zm0 0" fill="none" stroke="#191a1b" stroke-linecap="round" stroke-linejoin="round" stroke-miterlimit="10" stroke-width="50" transform="matrix(.1 0 0 -.1 0 425.2)"/>
  <g id="change1_2"><path d="m148.61 168.39h-25.47v-30.78h25.47v30.78" fill="#5c87cd"/></g>
  <path d="m1486.1 2568.1h-254.7v307.8h254.7zm0 0" fill="none" stroke="#191a1b" stroke-linecap="round" stroke-linejoin="round" stroke-miterlimit="10" stroke-width="50" transform="matrix(.1 0 0 -.1 0 425.2)"/>
  <g id="change2_1"><path d="m306.55 144.5h-55.36v-0.07c0-10.03-6.46-18.16-14.44-18.16h-48.3c-7.97 0-14.43 8.13-14.43 18.16v0.07h-55.37c-10.73 0-19.435 8.71-19.435 19.44v115.55c0 10.73 8.705 19.44 19.435 19.44h187.9c10.74 0 19.43-8.71 19.43-19.44v-115.55c0-10.73-8.69-19.44-19.43-19.44" fill="#f79ccf"/></g>
  <path d="m3065.5 2807h-553.6v0.7c0 100.3-64.6 181.6-144.4 181.6h-483c-79.7 0-144.3-81.3-144.3-181.6v-0.7h-553.7c-107.3 0-194.35-87.1-194.35-194.4v-1155.5c0-107.3 87.05-194.4 194.35-194.4h1879c107.4 0 194.3 87.1 194.3 194.4v1155.5c0 107.3-86.9 194.4-194.3 194.4zm0 0" fill="none" stroke="#191a1b" stroke-linecap="round" stroke-linejoin="round" stroke-miterlimit="10" stroke-width="50" transform="matrix(.1 0 0 -.1 0 425.2)"/>
  <g id="change3_1"><path d="m276.59 221.71c0 35.34-28.65 63.99-63.99 63.99s-63.99-28.65-63.99-63.99c0-35.33 28.65-63.98 63.99-63.98s63.99 28.65 63.99 63.98" fill="#fff"/></g>
  <path d="m2765.9 2034.9c0-353.4-286.5-639.9-639.9-639.9s-639.9 286.5-639.9 639.9c0 353.3 286.5 639.8 639.9 639.8s639.9-286.5 639.9-639.8zm0 0" fill="none" stroke="#191a1b" stroke-linecap="round" stroke-linejoin="round" stroke-miterlimit="10" stroke-width="50" transform="matrix(.1 0 0 -.1 0 425.2)"/>
  <g id="change4_1"><path d="m257.15 221.71c0 24.61-19.94 44.56-44.55 44.56-24.6 0-44.55-19.95-44.55-44.56 0-24.6 19.95-44.55 44.55-44.55 24.61 0 44.55 19.95 44.55 44.55" fill="#80d4c4"/></g>
  <path d="m2571.5 2034.9c0-246.1-199.4-445.6-445.5-445.6-246 0-445.5 199.5-445.5 445.6 0 246 199.5 445.5 445.5 445.5 246.1 0 445.5-199.5 445.5-445.5zm0 0" fill="none" stroke="#191a1b" stroke-linecap="round" stroke-linejoin="round" stroke-miterlimit="10" stroke-width="50" transform="matrix(.1 0 0 -.1 0 425.2)"/>
  <g id="change3_2"><path d="m306.25 168.39c0 4.84-3.93 8.77-8.77 8.77-4.85 0-8.78-3.93-8.78-8.77s3.93-8.77 8.78-8.77c4.84 0 8.77 3.93 8.77 8.77" fill="#fff"/></g>
  <path d="m3062.5 2568.1c0-48.4-39.3-87.7-87.7-87.7-48.5 0-87.8 39.3-87.8 87.7s39.3 87.7 87.8 87.7c48.4 0 87.7-39.3 87.7-87.7zm0 0" fill="none" stroke="#191a1b" stroke-linecap="round" stroke-linejoin="round" stroke-miterlimit="10" stroke-width="50" transform="matrix(.1 0 0 -.1 0 425.2)"/>
 </g>
<head xmlns=""/></svg>