<?xml version="1.0" encoding="utf-8"?>
<!-- Generator: Adobe Illustrator 16.0.0, SVG Export Plug-In . SVG Version: 6.00 Build 0)  -->
<!DOCTYPE svg PUBLIC "-//W3C//DTD SVG 1.1//EN" "http://www.w3.org/Graphics/SVG/1.1/DTD/svg11.dtd">
<svg version="1.1" id="Layer_1" xmlns="http://www.w3.org/2000/svg" xmlns:xlink="http://www.w3.org/1999/xlink" x="0px" y="0px"
	 width="100px" height="91.379px" viewBox="0 0 100 91.379" enable-background="new 0 0 100 91.379" xml:space="preserve">
<g id="change2">
	<circle fill="#FFFFFF" cx="35.9" cy="55.479" r="33.521"/>
</g>
<g id="change1">
	<path fill="#00A79D" d="M35.938,91.379c-1.694,0-3.411-0.123-5.102-0.361C11.244,88.225-2.429,70.014,0.36,50.42
		c2.503-17.583,17.762-30.842,35.495-30.842c1.695,0,3.412,0.123,5.104,0.362c19.596,2.791,33.268,21.002,30.479,40.599
		C68.932,78.12,53.671,91.379,35.938,91.379z M35.855,24.33c-15.382,0-28.617,11.504-30.79,26.758
		C2.646,68.09,14.507,83.891,31.506,86.312c1.469,0.211,2.96,0.312,4.432,0.312c15.384,0,28.625-11.504,30.796-26.756
		c2.42-17.004-9.443-32.804-26.445-35.225C38.82,24.437,37.328,24.33,35.855,24.33z"/>
</g>
<g id="change3_1_">
	<path fill="#154854" d="M97.357,0l-4.073,2.069c-21.298,10.825-44.93,35.898-57.852,57.103c-1.262-2.357-1.636-3.133-2.819-5.73
		C27.58,44.4,20.757,36.316,17.424,33.218l-6.051,1.657l0.139,0.363c3.396,4.853,9.101,15.385,16.821,37.963
		c0.523,0.994,1.088,1.986,1.762,2.924c1.765,2.465,3.809,3.201,5.213,3.385c0.002,0,0.002,0,0.002,0
		c4.003,0.522,6.772-2.328,8.878-5.816C59.764,36.109,88.074,12.522,100,4.734L97.357,0z"/>
</g>
</svg>
