<svg xmlns="http://www.w3.org/2000/svg" xmlns:xlink="http://www.w3.org/1999/xlink" version="1.1" x="0px" y="0px" viewBox="-0.5 -0.5 501 501" enable-background="new -0.5 -0.5 501 501" xml:space="preserve" style="fill: rgb(0, 0, 0);">
<g id="__id1162_srf8fudbpp"><circle cx="250" cy="250" r="250" style="fill: rgb(255, 255, 255);"></circle></g>
<g id="__id1163_srf8fudbpp"><path d="M250,500.5c-66.9,0-129.8-26.1-177.1-73.4C25.6,379.8-0.5,316.9-0.5,250S25.6,120.2,72.9,72.9  C120.2,25.6,183.1-0.5,250-0.5s129.8,26.1,177.1,73.4c47.3,47.3,73.4,110.2,73.4,177.1s-26.1,129.8-73.4,177.1  C379.8,474.4,316.9,500.5,250,500.5z M250,14.5c-62.9,0-122,24.5-166.5,69C39,128,14.5,187.1,14.5,250s24.5,122,69,166.5  c44.5,44.5,103.6,69,166.5,69s122-24.5,166.5-69c44.5-44.5,69-103.6,69-166.5s-24.5-122-69-166.5C372,39,312.9,14.5,250,14.5z" style="fill: rgb(84, 84, 84);"></path></g>
</svg>