<svg xmlns="http://www.w3.org/2000/svg" xmlns:xlink="http://www.w3.org/1999/xlink" height="500.9" preserveAspectRatio="xMidYMid meet" version="1.0" viewBox="0.0 -0.9 438.1 500.9" width="438.1" zoomAndPan="magnify"><defs><clipPath id="a"><path d="M 69 60 L 438.121094 60 L 438.121094 485 L 69 485 Z M 69 60"/></clipPath></defs><g><g id="change1_1"><path d="M 267.953125 320.675781 C 264.902344 321.34375 262.597656 323.917969 262.28125 327.085938 L 262.308594 327.085938 L 262.308594 328.550781 L 262.207031 328.550781 L 262.207031 343.226562 L 262.308594 343.226562 L 262.308594 344.691406 C 262.808594 348.246094 265.835938 350.992188 269.527344 350.992188 L 340.429688 350.992188 C 340.429688 348.902344 340.429688 346.800781 340.429688 344.691406 L 340.429688 327.085938 C 340.429688 325.328125 340.429688 323.578125 340.429688 321.835938 C 317.6875 321.984375 289.777344 321.339844 267.953125 320.675781 Z M 420.660156 334.5 L 420.734375 327.085938 L 420.585938 327.085938 C 420.214844 323.390625 417.132812 320.492188 413.335938 320.492188 L 409.144531 320.492188 C 409.125 322.757812 406.777344 324.960938 406.722656 327.085938 L 406.96875 344.691406 C 406.757812 346.097656 407.386719 347.34375 407.117188 348.390625 C 406.910156 349.191406 406.589844 350.066406 406.167969 350.992188 L 413.335938 350.992188 C 417.03125 350.992188 420.058594 348.246094 420.558594 344.691406 L 420.570312 343.226562 L 420.660156 343.226562 Z M 350.304688 51.226562 C 350.304688 51.226562 350.304688 51.234375 350.304688 51.234375 C 350.304688 51.234375 345.289062 47.382812 343.078125 38.917969 C 342.398438 39.09375 341.679688 39.195312 340.933594 39.195312 C 340.867188 39.195312 340.804688 39.1875 340.734375 39.183594 C 334.324219 39.972656 326.851562 43.636719 323.800781 49.191406 C 321.238281 53.863281 317.671875 63.554688 319.25 71.257812 C 319.878906 74.339844 321.726562 77.847656 326.902344 77.847656 C 328.363281 77.847656 330.539062 77.753906 332.792969 77.753906 C 338.710938 77.753906 344.257812 74.878906 347.675781 70.046875 L 355.546875 58.914062 C 353.632812 56.464844 351.882812 53.894531 350.304688 51.226562 Z M 275.453125 235.386719 L 302.585938 251.769531 L 299.226562 255.050781 L 307.296875 251.210938 C 307.796875 249.589844 307.199219 247.730469 305.613281 246.773438 L 283.371094 233.339844 L 282.609375 232.878906 L 280.460938 231.582031 C 279.148438 233.621094 276.027344 231.421875 274.375 230.789062 C 274.339844 230.9375 274.273438 231.078125 274.152344 231.183594 C 274.011719 231.304688 273.84375 231.363281 273.671875 231.363281 C 273.46875 231.363281 273.261719 231.277344 273.117188 231.109375 L 272.96875 230.9375 C 272.410156 231.285156 271.679688 231.902344 270.847656 232.605469 L 272.546875 233.628906 Z M 249.558594 235.601562 L 250.375 235 C 248.921875 235.066406 248.507812 234.652344 243.730469 234.21875 L 240.679688 236.46875 L 206.808594 261.46875 C 204.679688 263.039062 204.730469 266.238281 206.90625 267.742188 L 217.433594 275.019531 L 220.402344 272.421875 L 209.699219 265.023438 Z M 273.242188 285.097656 L 258.414062 299.5625 C 257.097656 300.847656 255.046875 301.019531 253.53125 299.972656 L 238.292969 289.441406 L 241.742188 287.171875 L 256.117188 297.105469 L 272.667969 280.960938 C 275.960938 280.015625 279.257812 277.175781 279.257812 277.175781 C 279.257812 277.175781 276.074219 281.46875 273.242188 285.097656" fill="#f14544"/></g><g id="change2_1"><path d="M 220.402344 272.421875 L 217.433594 275.019531 L 215.355469 276.839844 L 218.140625 278.765625 C 218.140625 278.765625 215.941406 284.921875 220.625 288.4375 C 225.3125 291.949219 232.128906 288.4375 232.128906 288.4375 L 235.882812 291.027344 L 238.292969 289.441406 L 241.742188 287.171875 L 243.085938 286.285156 L 222.367188 270.703125 Z M 261.285156 487.085938 L 244.242188 487.085938 C 243.839844 487.085938 243.511719 487.414062 243.511719 487.816406 C 243.511719 488.222656 243.839844 488.550781 244.242188 488.550781 L 261.285156 488.550781 C 261.5 488.550781 261.6875 488.457031 261.820312 488.3125 C 261.941406 488.183594 262.019531 488.011719 262.019531 487.816406 C 262.019531 487.738281 261.996094 487.664062 261.972656 487.59375 C 261.878906 487.300781 261.613281 487.085938 261.285156 487.085938 Z M 436.429688 489.917969 L 436.324219 489.425781 L 406.636719 350.992188 L 406.167969 350.992188 C 404.046875 355.6875 399.34375 361.875 393.371094 368.609375 L 418.886719 487.59375 C 418.949219 487.800781 418.980469 488.058594 419.039062 488.332031 C 419.042969 488.335938 419.046875 488.34375 419.046875 488.347656 L 420.136719 493.414062 C 420.960938 497.257812 424.355469 500 428.28125 500 C 433.585938 500 437.542969 495.109375 436.429688 489.917969 Z M 296.898438 488.539062 L 296.738281 490.933594 C 296.414062 495.839844 300.304688 500 305.222656 500 C 309.699219 500 313.410156 496.527344 313.707031 492.058594 L 313.902344 489.101562 C 313.914062 489.101562 313.9375 489.09375 313.9375 489.09375 L 323.050781 350.992188 L 306.003906 350.992188 Z M 384.140625 487.085938 L 367.097656 487.085938 C 367.003906 487.085938 366.910156 487.105469 366.828125 487.140625 C 366.558594 487.246094 366.367188 487.507812 366.367188 487.816406 C 366.367188 488.160156 366.605469 488.433594 366.917969 488.515625 C 366.976562 488.53125 367.035156 488.550781 367.097656 488.550781 L 384.140625 488.550781 C 384.546875 488.550781 384.875 488.222656 384.875 487.816406 C 384.875 487.414062 384.546875 487.085938 384.140625 487.085938 Z M 10.511719 405.789062 L 8.867188 404.996094 C 8.9375 405.074219 9.019531 405.140625 9.117188 405.183594 Z M 90.359375 424.921875 L 82.109375 436.851562 L 80.121094 439.726562 L 0 408.625 C 0 408.625 3.433594 406.730469 8.53125 404.835938 L 8.527344 404.835938 L 8.621094 404.800781 C 8.65625 404.785156 8.6875 404.773438 8.726562 404.761719 L 10.429688 404.15625 C 17.019531 401.90625 25.722656 399.972656 33.492188 401.65625 C 38.800781 402.804688 44.933594 402.847656 50.644531 402.421875 L 52.203125 402.296875 C 53.5625 402.171875 54.890625 402.027344 56.171875 401.867188 L 57.796875 401.652344 C 59.453125 401.421875 61.011719 401.171875 62.417969 400.921875 L 63.964844 400.640625 C 66.59375 400.144531 68.550781 399.695312 69.46875 399.472656 C 69.847656 399.382812 70.054688 399.328125 70.054688 399.328125 C 70.054688 399.328125 77.878906 407.617188 75.535156 415.039062 Z M 190.210938 484.265625 L 212.4375 484.265625 L 212.4375 500 L 124.910156 500 C 124.910156 500 126.089844 497.792969 128.21875 494.808594 C 128.335938 494.894531 128.476562 494.957031 128.636719 494.957031 L 129.796875 494.957031 L 128.21875 494.808594 L 129.179688 493.492188 C 133.648438 487.550781 141.335938 479.5625 150.8125 478.699219 C 152.503906 478.546875 154.191406 478.390625 155.859375 478.230469 L 171.6875 476.660156 C 177.476562 476.0625 181.34375 475.636719 181.34375 475.636719 C 181.34375 475.636719 181.449219 475.660156 181.625 475.710938 C 182.949219 476.089844 188.660156 478.0625 190.210938 484.265625" fill="#3e986c"/></g><g id="change3_1"><path d="M 307.296875 251.210938 L 299.226562 255.050781 L 282.558594 262.976562 C 282.558594 262.976562 276.167969 267.953125 274.277344 271.019531 C 271.9375 274.828125 265.054688 278.199219 265.929688 280.394531 C 266.808594 282.59375 267.785156 281.660156 271.429688 281.222656 C 271.839844 281.171875 272.253906 281.078125 272.667969 280.960938 C 275.960938 280.015625 279.257812 277.175781 279.257812 277.175781 C 279.257812 277.175781 276.074219 281.46875 273.242188 285.097656 C 271.515625 287.308594 269.917969 289.273438 269.25 289.867188 C 269.25 289.867188 274.363281 291.722656 276.394531 290.746094 C 278.429688 289.769531 277.746094 287.71875 281.261719 287.71875 C 284.777344 287.71875 288.289062 286.351562 289.65625 284.59375 C 291.023438 282.835938 290.144531 281.859375 293.367188 281.761719 C 296.589844 281.664062 302.386719 276.746094 302.390625 276.742188 C 309.160156 275.113281 319.964844 273.125 325.597656 272.117188 L 311.839844 249.050781 Z M 340.648438 23.527344 C 340.539062 23.527344 340.433594 23.539062 340.324219 23.542969 L 340.289062 24.050781 L 340.179688 25.597656 L 339.988281 28.316406 L 339.746094 31.785156 L 334.527344 31.785156 L 334.527344 18.9375 C 328.40625 18.9375 325.613281 11.523438 325.613281 11.523438 C 312.9375 20.832031 302.4375 11.128906 302.4375 11.128906 C 300.976562 12.535156 298.601562 18.554688 298.542969 22.648438 C 298.5 25.585938 298.679688 27.925781 298.933594 29.882812 C 298.9375 29.839844 298.953125 29.796875 298.964844 29.753906 C 298.996094 29.941406 299.015625 30.132812 299.078125 30.316406 C 299.097656 30.378906 299.132812 30.433594 299.152344 30.496094 C 299.144531 30.488281 299.132812 30.484375 299.121094 30.476562 C 299.058594 30.410156 299.019531 30.335938 298.984375 30.257812 C 299.398438 33.308594 299.972656 35.441406 300.105469 37.554688 C 300.335938 41.230469 302.464844 52.539062 304.59375 60.394531 C 304.59375 60.402344 304.597656 60.414062 304.601562 60.421875 C 305.015625 61.953125 305.429688 63.355469 305.828125 64.539062 C 306.410156 66.257812 306.960938 67.527344 307.4375 68.09375 C 308.789062 69.699219 313.980469 71.273438 319.25 71.257812 C 323.757812 71.242188 328.316406 70.066406 330.585938 66.710938 C 332.480469 63.910156 334.738281 59.589844 336.675781 54.625 C 338.546875 49.828125 340.105469 44.429688 340.734375 39.183594 C 340.804688 39.1875 340.867188 39.195312 340.933594 39.195312 C 341.679688 39.195312 342.398438 39.09375 343.078125 38.917969 C 343.519531 38.804688 343.945312 38.660156 344.351562 38.484375 C 347.210938 37.242188 349.152344 34.484375 349.0625 31.292969 C 348.945312 26.988281 345.179688 23.527344 340.648438 23.527344 Z M 280.871094 230.632812 C 280.769531 231.027344 280.625 231.328125 280.460938 231.582031 C 279.148438 233.621094 276.027344 231.421875 274.375 230.789062 C 274.386719 230.742188 274.375 230.691406 274.375 230.640625 C 274.371094 230.820312 274.308594 230.996094 274.191406 231.128906 C 274.140625 231.191406 274.070312 231.238281 273.992188 231.277344 L 273.992188 231.28125 C 273.988281 231.28125 273.988281 231.285156 273.984375 231.285156 C 273.980469 231.289062 273.976562 231.292969 273.972656 231.296875 C 273.882812 231.335938 273.78125 231.359375 273.664062 231.359375 C 273.515625 231.359375 273.398438 231.316406 273.300781 231.253906 C 273.296875 231.253906 273.296875 231.25 273.292969 231.25 C 273.207031 231.195312 273.136719 231.125 273.085938 231.042969 C 272.933594 231.085938 272.785156 231.144531 272.628906 231.167969 C 272.128906 231.527344 271.523438 232.035156 270.847656 232.605469 C 270.691406 232.734375 270.535156 232.867188 270.371094 233.003906 C 270.023438 233.296875 269.664062 233.59375 269.292969 233.886719 C 269.132812 234.015625 268.964844 234.132812 268.804688 234.253906 C 268.628906 234.425781 268.433594 234.574219 268.234375 234.710938 C 268.222656 234.753906 268.199219 234.789062 268.183594 234.828125 C 268.164062 234.863281 268.148438 234.898438 268.125 234.929688 C 268.101562 234.960938 268.078125 234.984375 268.050781 235.011719 C 268.015625 235.046875 267.972656 235.078125 267.929688 235.105469 C 267.902344 235.121094 267.878906 235.136719 267.847656 235.148438 C 267.769531 235.183594 267.675781 235.203125 267.570312 235.203125 C 267.5625 235.203125 267.554688 235.199219 267.546875 235.199219 C 267.539062 235.199219 267.535156 235.203125 267.53125 235.203125 C 267.507812 235.203125 267.496094 235.195312 267.476562 235.195312 C 266.480469 235.828125 265.476562 236.3125 264.527344 236.4375 C 262.441406 236.71875 261.316406 235.582031 259.429688 234.847656 C 259.410156 234.886719 259.371094 234.90625 259.347656 234.941406 C 259.335938 234.960938 259.320312 234.976562 259.304688 234.992188 C 259.253906 235.050781 259.191406 235.097656 259.113281 235.136719 C 259.109375 235.136719 259.109375 235.136719 259.105469 235.136719 C 259.023438 235.175781 258.9375 235.21875 258.824219 235.21875 C 258.730469 235.21875 258.667969 235.183594 258.59375 235.15625 C 258.558594 235.144531 258.519531 235.140625 258.484375 235.125 C 258.484375 235.125 258.480469 235.125 258.476562 235.125 C 258.386719 235.09375 258.308594 235.042969 258.246094 234.984375 C 257.4375 234.816406 256.714844 234.417969 255.898438 234.28125 C 255.339844 234.300781 254.742188 234.355469 254.066406 234.472656 C 252.101562 234.8125 251.105469 234.96875 250.375 235 C 248.921875 235.066406 248.507812 234.652344 243.730469 234.21875 C 243.335938 234.183594 242.9375 234.148438 242.484375 234.113281 C 238.398438 233.792969 233.605469 229.257812 233.605469 229.257812 L 221.035156 220.0625 L 217.195312 217.253906 L 217.183594 217.113281 C 216.261719 205.296875 224.566406 194.75 236.269531 192.875 L 236.269531 192.878906 L 254.179688 212.234375 L 254.085938 212.320312 C 254.554688 212.429688 254.992188 212.601562 255.394531 212.839844 C 255.402344 212.695312 255.375 212.546875 255.300781 212.414062 C 257.007812 211.441406 261.734375 208.804688 263.003906 208.703125 C 263.511719 208.664062 264.464844 208.757812 265.582031 209.003906 C 267.875 209.515625 270.894531 210.691406 272.375 212.816406 C 273.671875 214.671875 275.121094 219.238281 277.355469 223.523438 C 278.917969 226.519531 281.300781 228.933594 280.871094 230.632812" fill="#f35f43"/></g><g clip-path="url(#a)" id="change4_1"><path d="M 272.546875 233.628906 L 270.847656 232.605469 C 270.691406 232.734375 270.535156 232.867188 270.371094 233.003906 C 270.023438 233.296875 269.664062 233.59375 269.292969 233.886719 C 268.949219 234.160156 268.59375 234.425781 268.238281 234.679688 C 268.214844 234.757812 268.183594 234.835938 268.128906 234.90625 C 267.988281 235.101562 267.765625 235.203125 267.542969 235.203125 C 267.523438 235.203125 267.507812 235.1875 267.488281 235.1875 C 266.492188 235.820312 265.480469 236.3125 264.527344 236.4375 C 262.429688 236.71875 261.304688 235.570312 259.402344 234.835938 C 259.269531 235.050781 259.054688 235.203125 258.804688 235.203125 C 258.722656 235.203125 258.644531 235.191406 258.5625 235.164062 L 257.695312 234.863281 L 255.996094 234.277344 C 255.414062 234.289062 254.78125 234.347656 254.066406 234.472656 C 252.101562 234.8125 251.105469 234.96875 250.375 235 L 249.558594 235.601562 L 209.699219 265.023438 L 220.402344 272.421875 L 222.367188 270.703125 L 243.085938 286.285156 L 241.742188 287.171875 L 256.117188 297.105469 L 272.667969 280.960938 C 272.253906 281.078125 271.839844 281.171875 271.429688 281.222656 C 267.785156 281.660156 266.808594 282.59375 265.929688 280.394531 C 265.054688 278.199219 271.9375 274.828125 274.277344 271.019531 C 276.167969 267.953125 282.558594 262.976562 282.558594 262.976562 L 299.226562 255.050781 L 302.585938 251.769531 L 275.453125 235.386719 Z M 304.601562 60.421875 L 304.589844 60.394531 C 300.488281 61.65625 287.746094 68.957031 287.730469 68.964844 L 279.421875 73.421875 C 279.421875 73.421875 276.757812 75.515625 273.527344 78.789062 L 187.4375 150.363281 C 179.351562 157.085938 174.855469 167.289062 175.699219 177.765625 C 176.070312 182.386719 176.992188 187.027344 178.914062 190.527344 C 184.648438 200.945312 212.78125 223.523438 212.78125 223.523438 C 212.78125 223.523438 216.355469 222.792969 221.035156 220.0625 L 217.195312 217.253906 L 217.183594 217.113281 C 216.261719 205.296875 224.566406 194.75 236.269531 192.875 L 236.269531 192.878906 L 233.550781 189.433594 C 233.546875 189.433594 233.542969 189.433594 233.539062 189.433594 C 233.515625 189.375 233.472656 189.328125 233.433594 189.28125 C 233.511719 189.058594 233.671875 188.785156 233.808594 188.496094 L 261.535156 174.476562 C 261.546875 174.492188 261.558594 174.507812 261.566406 174.523438 C 261.660156 174.667969 261.78125 174.746094 261.910156 174.796875 C 261.925781 174.804688 261.941406 174.808594 261.960938 174.816406 C 262.011719 174.832031 262.058594 174.847656 262.109375 174.851562 C 262.148438 174.855469 262.175781 174.871094 262.214844 174.871094 C 262.28125 185.9375 263.804688 198.28125 265.582031 209.003906 C 267.875 209.515625 270.894531 210.691406 272.375 212.816406 C 273.671875 214.671875 275.121094 219.238281 277.355469 223.523438 C 278.917969 226.519531 281.300781 228.933594 280.871094 230.632812 C 280.769531 231.027344 280.625 231.328125 280.460938 231.582031 L 282.609375 232.878906 L 283.371094 233.339844 L 286.070312 232.640625 C 286.070312 232.628906 285.65625 196.035156 285.523438 162.347656 C 285.4375 140.34375 285.472656 119.59375 285.820312 111.078125 C 285.886719 109.429688 285.964844 108.222656 286.058594 107.570312 C 286.710938 103 290.128906 91.699219 293.378906 81.566406 C 295.578125 74.695312 299.949219 68.730469 305.835938 64.554688 L 305.828125 64.539062 C 305.429688 63.355469 305.015625 61.953125 304.601562 60.421875 Z M 435.773438 105.601562 C 426.921875 91.542969 361.242188 61.574219 361.167969 61.539062 L 361.164062 61.535156 C 361.164062 61.535156 351.953125 72.257812 346.710938 100.914062 C 342.515625 123.871094 341.011719 192.644531 340.578125 233.285156 L 311.839844 249.050781 L 325.597656 272.117188 L 331.257812 281.613281 L 340.429688 278.195312 C 340.429688 290.046875 340.429688 304.902344 340.429688 320.492188 C 340.429688 320.9375 340.429688 321.386719 340.429688 321.835938 C 340.429688 323.578125 340.429688 325.328125 340.429688 327.085938 C 340.429688 327.570312 340.429688 328.0625 340.429688 328.550781 C 340.429688 333.433594 340.429688 338.347656 340.429688 343.226562 C 340.429688 343.714844 340.429688 344.203125 340.429688 344.691406 C 340.429688 346.800781 340.429688 348.902344 340.429688 350.992188 C 340.429688 386.847656 340.429688 418.722656 340.429688 418.722656 C 340.429688 418.722656 349.570312 411.042969 361.09375 400.550781 C 366.171875 395.925781 371.710938 390.757812 377.136719 385.457031 C 382.910156 379.820312 388.550781 374.039062 393.371094 368.609375 C 399.34375 361.875 404.046875 355.6875 406.167969 350.992188 C 406.589844 350.066406 406.910156 349.191406 407.117188 348.390625 C 407.386719 347.34375 407.625 346.097656 407.832031 344.691406 C 407.902344 344.21875 407.96875 343.734375 408.035156 343.226562 C 408.53125 339.265625 408.835938 334.21875 409 328.550781 C 409.015625 328.066406 409.027344 327.578125 409.039062 327.085938 C 409.09375 324.960938 409.125 322.757812 409.144531 320.492188 C 409.351562 293.253906 407.214844 257.773438 406.96875 253.777344 L 406.878906 253.808594 L 346.730469 276.589844 C 346.644531 276.621094 346.558594 276.636719 346.472656 276.636719 C 346.1875 276.636719 345.925781 276.464844 345.804688 276.1875 C 345.800781 276.179688 345.789062 276.175781 345.785156 276.164062 C 345.644531 275.785156 345.835938 275.363281 346.210938 275.222656 L 406.761719 252.289062 L 407.703125 251.929688 C 408.015625 251.816406 408.347656 251.929688 408.539062 252.179688 C 408.578125 252.234375 408.625 252.289062 408.648438 252.355469 C 408.652344 252.367188 408.652344 252.378906 408.65625 252.386719 C 411.753906 250.511719 418.289062 246.300781 421.53125 242.277344 C 425.875 236.894531 444.628906 119.667969 435.773438 105.601562 Z M 183.175781 443.761719 L 181.625 475.710938 C 182.949219 476.089844 188.660156 478.0625 190.210938 484.265625 L 212.4375 484.265625 L 212.4375 443.761719 L 200.167969 444.789062 Z M 70.054688 399.328125 C 70.054688 399.328125 69.828125 399.375 69.46875 399.472656 C 69.847656 399.382812 70.054688 399.328125 70.054688 399.328125 Z M 82.566406 383.335938 L 106.90625 401 L 90.359375 424.921875 L 75.535156 415.039062 C 77.878906 407.617188 70.054688 399.328125 70.054688 399.328125 L 82.566406 383.335938" fill="#e9eaf7"/></g><g id="change5_1"><path d="M 381.433594 216.257812 C 383.101562 215.972656 387.976562 215.492188 390.710938 219.042969 C 390.957031 219.363281 391.414062 219.425781 391.734375 219.175781 C 392.058594 218.929688 392.117188 218.472656 391.871094 218.148438 C 389.738281 215.378906 386.644531 214.65625 384.214844 214.585938 C 387.09375 213.347656 392.023438 212.46875 398.136719 216.3125 C 398.476562 216.53125 398.929688 216.425781 399.144531 216.085938 C 399.359375 215.742188 399.257812 215.289062 398.914062 215.074219 C 390.726562 209.921875 384.269531 212.703125 381.691406 214.289062 C 381.6875 213.453125 381.683594 212.226562 381.683594 210.734375 C 381.671875 203.085938 381.699219 187.59375 382.050781 171.542969 C 382.058594 171.136719 381.738281 170.804688 381.335938 170.792969 C 380.933594 170.78125 380.59375 171.105469 380.585938 171.511719 C 380.222656 188.136719 380.203125 204.191406 380.21875 211.535156 C 380.222656 213.191406 380.226562 214.40625 380.230469 215.082031 C 380.152344 215.140625 380.089844 215.214844 380.039062 215.296875 L 348.34375 229.023438 L 341.140625 232.144531 C 340.769531 232.304688 340.601562 232.734375 340.761719 233.105469 C 340.769531 233.128906 340.792969 233.136719 340.804688 233.160156 C 340.9375 233.394531 341.175781 233.546875 341.433594 233.546875 C 341.53125 233.546875 341.628906 233.527344 341.722656 233.488281 L 381.257812 216.367188 C 381.320312 216.339844 381.382812 216.300781 381.433594 216.257812 Z M 256.117188 225.074219 L 254.503906 223.875 C 254.179688 223.636719 253.722656 223.703125 253.480469 224.027344 C 253.238281 224.351562 253.308594 224.8125 253.632812 225.050781 L 254.886719 225.984375 L 258.726562 228.835938 L 265.902344 234.164062 L 267.105469 235.058594 C 267.222656 235.144531 267.355469 235.175781 267.488281 235.1875 C 267.507812 235.1875 267.523438 235.203125 267.542969 235.203125 C 267.765625 235.203125 267.988281 235.101562 268.128906 234.90625 C 268.183594 234.835938 268.214844 234.757812 268.238281 234.679688 C 268.3125 234.4375 268.246094 234.175781 268.070312 233.984375 C 268.039062 233.953125 268.019531 233.910156 267.980469 233.882812 L 259.960938 227.925781 Z M 248.957031 230.359375 C 248.691406 230.382812 248.457031 230.550781 248.347656 230.808594 C 248.34375 230.824219 248.332031 230.832031 248.324219 230.847656 C 248.191406 231.230469 248.398438 231.648438 248.777344 231.777344 L 252.835938 233.183594 L 255.996094 234.277344 L 257.695312 234.863281 L 258.5625 235.164062 C 258.644531 235.191406 258.722656 235.203125 258.804688 235.203125 C 259.054688 235.203125 259.269531 235.050781 259.402344 234.835938 C 259.429688 234.789062 259.476562 234.761719 259.496094 234.710938 C 259.496094 234.710938 259.496094 234.707031 259.496094 234.707031 C 259.625 234.324219 259.421875 233.910156 259.042969 233.777344 L 254.265625 232.128906 L 249.257812 230.394531 C 249.15625 230.359375 249.054688 230.351562 248.957031 230.359375 Z M 245.132812 222.078125 C 245.308594 222.078125 245.484375 222.015625 245.621094 221.890625 L 255.167969 213.320312 C 255.429688 213.082031 255.46875 212.710938 255.300781 212.414062 C 255.273438 212.371094 255.257812 212.324219 255.222656 212.285156 C 254.949219 211.984375 254.488281 211.957031 254.1875 212.230469 L 254.179688 212.234375 L 244.644531 220.800781 C 244.34375 221.070312 244.320312 221.535156 244.589844 221.835938 C 244.734375 221.996094 244.933594 222.078125 245.132812 222.078125 Z M 240.953125 248.992188 L 270.789062 270.039062 C 270.917969 270.128906 271.066406 270.171875 271.210938 270.171875 C 271.441406 270.171875 271.667969 270.066406 271.8125 269.863281 C 272.042969 269.53125 271.964844 269.074219 271.632812 268.84375 L 241.796875 247.796875 C 241.46875 247.5625 241.011719 247.644531 240.777344 247.972656 C 240.542969 248.304688 240.625 248.761719 240.953125 248.992188 Z M 266.988281 275.222656 C 267.21875 275.222656 267.445312 275.113281 267.589844 274.910156 C 267.820312 274.578125 267.742188 274.121094 267.414062 273.890625 L 236.546875 252.117188 C 236.21875 251.886719 235.761719 251.964844 235.527344 252.296875 C 235.292969 252.625 235.371094 253.082031 235.703125 253.316406 L 266.566406 275.085938 C 266.695312 275.175781 266.84375 275.222656 266.988281 275.222656 Z M 246.179688 243.757812 C 245.945312 244.089844 246.023438 244.546875 246.355469 244.777344 L 275.488281 265.328125 C 275.613281 265.417969 275.761719 265.460938 275.90625 265.460938 C 276.140625 265.460938 276.363281 265.351562 276.507812 265.148438 C 276.742188 264.820312 276.660156 264.363281 276.332031 264.128906 L 247.199219 243.582031 C 246.867188 243.347656 246.414062 243.425781 246.179688 243.757812 Z M 238.269531 270.28125 C 238.035156 270.613281 238.117188 271.070312 238.445312 271.300781 L 257.308594 284.605469 C 257.4375 284.695312 257.582031 284.738281 257.730469 284.738281 C 257.960938 284.738281 258.183594 284.632812 258.328125 284.429688 C 258.5625 284.097656 258.480469 283.640625 258.152344 283.410156 L 239.289062 270.105469 C 238.960938 269.871094 238.503906 269.949219 238.269531 270.28125 Z M 263 280.433594 C 263.230469 280.433594 263.457031 280.324219 263.601562 280.121094 C 263.835938 279.792969 263.753906 279.335938 263.425781 279.101562 L 230.976562 256.214844 C 230.644531 255.980469 230.1875 256.058594 229.953125 256.390625 C 229.722656 256.722656 229.800781 257.179688 230.132812 257.410156 L 262.578125 280.300781 C 262.710938 280.390625 262.855469 280.433594 263 280.433594 Z M 263.5625 239.96875 C 263.332031 240.300781 263.410156 240.757812 263.738281 240.988281 L 271.632812 246.554688 C 271.757812 246.644531 271.90625 246.691406 272.050781 246.691406 C 272.28125 246.691406 272.507812 246.582031 272.652344 246.378906 C 272.886719 246.050781 272.804688 245.59375 272.476562 245.359375 L 264.585938 239.792969 C 264.253906 239.5625 263.796875 239.640625 263.5625 239.96875 Z M 286.058594 256.566406 C 286.289062 256.566406 286.515625 256.460938 286.65625 256.257812 C 286.890625 255.925781 286.8125 255.46875 286.480469 255.238281 L 276.199219 247.984375 C 275.867188 247.753906 275.410156 247.832031 275.179688 248.160156 C 274.945312 248.492188 275.023438 248.949219 275.355469 249.183594 L 285.636719 256.433594 C 285.765625 256.523438 285.910156 256.566406 286.058594 256.566406 Z M 280.570312 260.722656 C 280.800781 260.722656 281.027344 260.617188 281.171875 260.414062 C 281.402344 260.082031 281.324219 259.625 280.992188 259.394531 L 271.632812 252.792969 C 271.304688 252.558594 270.847656 252.636719 270.613281 252.96875 C 270.378906 253.296875 270.460938 253.753906 270.789062 253.988281 L 280.148438 260.589844 C 280.277344 260.679688 280.425781 260.722656 280.570312 260.722656 Z M 273.117188 231.109375 C 273.261719 231.277344 273.46875 231.363281 273.671875 231.363281 C 273.84375 231.363281 274.011719 231.304688 274.152344 231.183594 C 274.273438 231.078125 274.339844 230.9375 274.375 230.789062 C 274.421875 230.570312 274.382812 230.335938 274.226562 230.152344 L 269.992188 225.261719 L 268.226562 223.214844 L 263.554688 217.816406 C 263.289062 217.511719 262.828125 217.476562 262.523438 217.742188 C 262.21875 218.007812 262.183594 218.46875 262.449219 218.773438 L 265.941406 222.8125 L 268.84375 226.167969 L 272.96875 230.9375 Z M 268.199219 120.609375 L 268.523438 121.265625 L 268.148438 122.316406 L 263.863281 134.273438 C 263.8125 134.410156 263.804688 134.554688 263.839844 134.695312 L 267.796875 150.898438 L 264.777344 149.914062 C 264.394531 149.789062 263.980469 150 263.855469 150.386719 C 263.730469 150.769531 263.941406 151.183594 264.324219 151.308594 L 268.203125 152.570312 L 271.128906 164.539062 L 272.234375 169.066406 L 279.859375 200.308594 C 279.941406 200.644531 280.242188 200.867188 280.570312 200.867188 C 280.628906 200.867188 280.6875 200.859375 280.746094 200.847656 C 281.140625 200.75 281.378906 200.355469 281.285156 199.960938 L 273.574219 168.390625 L 269.550781 151.902344 L 265.316406 134.5625 L 268.09375 126.804688 L 269.425781 123.089844 L 271.425781 127.132812 C 271.605469 127.492188 272.042969 127.640625 272.40625 127.464844 C 272.769531 127.285156 272.917969 126.84375 272.738281 126.484375 L 268.335938 117.582031 L 263.84375 108.503906 L 271.359375 97.105469 L 277.15625 88.316406 L 283.171875 79.191406 C 283.394531 78.855469 283.300781 78.402344 282.964844 78.179688 C 282.625 77.957031 282.171875 78.050781 281.949219 78.386719 L 276.511719 86.632812 L 272.945312 92.035156 L 262.390625 108.046875 C 262.246094 108.265625 262.230469 108.542969 262.347656 108.777344 Z M 381.519531 163.460938 C 381.527344 163.460938 381.535156 163.460938 381.542969 163.460938 C 381.9375 163.460938 382.261719 163.144531 382.273438 162.75 C 382.917969 141.015625 384.023438 127.109375 385.5625 121.410156 C 392.90625 94.230469 416.316406 99.457031 417.3125 99.691406 C 417.554688 99.746094 417.785156 99.667969 417.960938 99.511719 C 418.066406 99.417969 418.15625 99.300781 418.191406 99.148438 C 418.285156 98.753906 418.042969 98.359375 417.652344 98.265625 C 417.621094 98.261719 417.269531 98.183594 416.675781 98.089844 C 411.9375 97.351562 391.015625 95.625 384.148438 121.027344 C 382.578125 126.835938 381.457031 140.859375 380.808594 162.707031 C 380.796875 163.109375 381.117188 163.445312 381.519531 163.460938 Z M 359.09375 71.753906 C 358.726562 71.917969 358.558594 72.351562 358.722656 72.722656 L 373.3125 105.359375 L 360.324219 118.183594 C 360.140625 118.363281 360.066406 118.625 360.125 118.871094 L 370.1875 161.15625 L 345.59375 196.199219 C 345.359375 196.53125 345.4375 196.984375 345.769531 197.21875 C 345.898438 197.308594 346.046875 197.351562 346.191406 197.351562 C 346.421875 197.351562 346.648438 197.242188 346.789062 197.039062 L 371.574219 161.726562 C 371.695312 161.558594 371.738281 161.34375 371.6875 161.136719 L 361.644531 118.933594 L 374.703125 106.042969 C 374.921875 105.828125 374.980469 105.503906 374.859375 105.222656 L 360.0625 72.121094 C 359.898438 71.753906 359.464844 71.585938 359.09375 71.753906 Z M 394.828125 299.984375 C 394.730469 299.945312 394.628906 299.917969 394.515625 299.925781 C 376.945312 300.734375 361.597656 290.523438 361.441406 290.421875 C 361.105469 290.195312 360.648438 290.28125 360.425781 290.617188 C 360.199219 290.953125 360.285156 291.410156 360.621094 291.636719 C 360.773438 291.738281 375.328125 301.4375 392.523438 301.4375 C 393.089844 301.4375 393.660156 301.417969 394.234375 301.394531 C 394.351562 301.390625 394.464844 301.394531 394.582031 301.386719 C 394.984375 301.371094 395.296875 301.027344 395.277344 300.621094 C 395.265625 300.332031 395.082031 300.089844 394.828125 299.984375 Z M 229.015625 184.875 C 229.023438 184.886719 229.03125 184.894531 229.042969 184.90625 L 232.519531 189.3125 C 232.664062 189.492188 232.878906 189.589844 233.097656 189.589844 C 233.253906 189.589844 233.414062 189.539062 233.550781 189.433594 C 233.828125 189.210938 233.890625 188.835938 233.734375 188.53125 C 233.714844 188.488281 233.703125 188.441406 233.671875 188.402344 L 230.351562 184.203125 C 230.652344 177.621094 223.15625 165.691406 222.835938 165.179688 C 222.617188 164.835938 222.164062 164.734375 221.824219 164.953125 C 221.480469 165.167969 221.378906 165.621094 221.597656 165.960938 C 221.664062 166.070312 227.785156 175.808594 228.765625 182.195312 L 211.910156 160.855469 C 211.65625 160.535156 211.199219 160.484375 210.878906 160.734375 C 210.5625 160.984375 210.507812 161.445312 210.757812 161.761719 Z M 261.476562 174.21875 C 261.488281 174.308594 261.515625 174.390625 261.554688 174.46875 C 261.675781 174.707031 261.925781 174.871094 262.207031 174.871094 C 262.207031 174.871094 262.210938 174.867188 262.214844 174.867188 C 262.238281 174.867188 262.261719 174.867188 262.285156 174.863281 C 262.6875 174.820312 262.980469 174.460938 262.933594 174.058594 L 262.902344 173.785156 L 262.203125 167.425781 L 261.992188 165.511719 C 261.992188 165.496094 261.992188 165.480469 261.988281 165.46875 L 256.675781 117.191406 C 256.632812 116.792969 256.277344 116.496094 255.867188 116.546875 C 255.46875 116.589844 255.175781 116.953125 255.222656 117.355469 L 260.179688 162.429688 C 252.734375 149.625 252.765625 138.496094 252.765625 138.375 C 252.769531 137.972656 252.445312 137.640625 252.042969 137.636719 C 252.039062 137.636719 252.035156 137.636719 252.035156 137.636719 C 251.632812 137.636719 251.304688 137.957031 251.300781 138.359375 C 251.296875 138.894531 251.242188 151.574219 260.554688 165.824219 Z M 167.234375 483.339844 C 167.335938 483.652344 167.621094 483.847656 167.933594 483.847656 C 168.007812 483.847656 168.082031 483.839844 168.15625 483.8125 C 168.542969 483.691406 168.753906 483.277344 168.628906 482.894531 C 167.765625 480.210938 165.746094 478.261719 164.679688 477.371094 C 164.296875 477.054688 164.027344 476.863281 163.992188 476.839844 C 163.65625 476.609375 163.203125 476.695312 162.972656 477.027344 C 162.863281 477.1875 162.832031 477.378906 162.859375 477.554688 C 162.886719 477.746094 162.988281 477.929688 163.164062 478.046875 C 163.195312 478.066406 166.210938 480.164062 167.234375 483.339844 Z M 160.238281 484.0625 C 160.335938 484.371094 160.625 484.570312 160.933594 484.570312 C 161.007812 484.570312 161.085938 484.558594 161.160156 484.535156 C 161.542969 484.410156 161.753906 483.996094 161.632812 483.613281 C 160.757812 480.902344 158.703125 478.9375 157.644531 478.0625 C 157.28125 477.761719 157.03125 477.585938 156.992188 477.558594 C 156.660156 477.332031 156.203125 477.417969 155.976562 477.75 C 155.875 477.898438 155.84375 478.066406 155.859375 478.230469 C 155.878906 478.441406 155.980469 478.640625 156.164062 478.769531 C 156.195312 478.789062 159.210938 480.882812 160.238281 484.0625 Z M 174.234375 482.621094 C 174.335938 482.929688 174.621094 483.128906 174.929688 483.128906 C 175.003906 483.128906 175.082031 483.117188 175.15625 483.09375 C 175.539062 482.96875 175.753906 482.554688 175.628906 482.171875 C 174.765625 479.496094 172.757812 477.550781 171.6875 476.660156 C 171.300781 476.335938 171.027344 476.144531 170.988281 476.117188 C 170.65625 475.886719 170.199219 475.976562 169.972656 476.308594 C 169.859375 476.472656 169.824219 476.667969 169.855469 476.847656 C 169.890625 477.035156 169.992188 477.210938 170.160156 477.324219 C 170.191406 477.347656 173.210938 479.441406 174.234375 482.621094 Z M 59.648438 410.601562 C 59.59375 410.855469 59.695312 411.097656 59.871094 411.265625 C 59.96875 411.359375 60.082031 411.433594 60.21875 411.460938 C 60.269531 411.472656 60.316406 411.476562 60.363281 411.476562 C 60.707031 411.476562 61.011719 411.234375 61.082031 410.886719 C 61.347656 409.566406 61.136719 408.171875 60.6875 406.839844 C 60.007812 404.820312 58.78125 402.953125 57.796875 401.652344 C 57.703125 401.53125 57.601562 401.394531 57.515625 401.28125 C 57.265625 400.964844 56.804688 400.90625 56.488281 401.15625 C 56.265625 401.332031 56.183594 401.605469 56.226562 401.863281 C 56.25 401.976562 56.285156 402.089844 56.363281 402.1875 C 57.554688 403.699219 60.257812 407.550781 59.648438 410.601562 Z M 63.652344 402.601562 C 65.023438 404.429688 67.167969 407.824219 66.613281 410.601562 C 66.535156 410.996094 66.792969 411.382812 67.1875 411.460938 C 67.238281 411.472656 67.285156 411.476562 67.332031 411.476562 C 67.675781 411.476562 67.980469 411.234375 68.050781 410.886719 C 68.722656 407.523438 66.308594 403.691406 64.796875 401.6875 C 64.460938 401.242188 64.167969 400.878906 63.964844 400.640625 C 63.800781 400.449219 63.695312 400.332031 63.667969 400.300781 C 63.394531 400.003906 62.929688 399.980469 62.632812 400.257812 C 62.441406 400.433594 62.375 400.6875 62.417969 400.921875 C 62.445312 401.054688 62.488281 401.183594 62.585938 401.289062 C 62.601562 401.308594 63.054688 401.808594 63.652344 402.601562 Z M 53.582031 410.601562 C 53.503906 410.996094 53.761719 411.382812 54.15625 411.460938 C 54.207031 411.472656 54.253906 411.476562 54.300781 411.476562 C 54.644531 411.476562 54.949219 411.234375 55.019531 410.886719 C 55.609375 407.9375 53.871094 404.652344 52.203125 402.296875 C 52.117188 402.179688 52.035156 402.050781 51.953125 401.9375 C 51.710938 401.609375 51.253906 401.539062 50.925781 401.78125 C 50.714844 401.933594 50.625 402.179688 50.644531 402.421875 C 50.652344 402.558594 50.683594 402.6875 50.769531 402.804688 C 52.054688 404.550781 54.125 407.890625 53.582031 410.601562 Z M 408.65625 252.386719 C 408.652344 252.378906 408.652344 252.367188 408.648438 252.355469 C 408.625 252.289062 408.578125 252.234375 408.539062 252.179688 C 408.347656 251.929688 408.015625 251.816406 407.703125 251.929688 L 406.761719 252.289062 L 346.210938 275.222656 C 345.835938 275.363281 345.644531 275.785156 345.785156 276.164062 C 345.789062 276.175781 345.800781 276.179688 345.804688 276.1875 C 345.925781 276.464844 346.1875 276.636719 346.472656 276.636719 C 346.558594 276.636719 346.644531 276.621094 346.730469 276.589844 L 406.878906 253.808594 L 406.96875 253.777344 L 408.222656 253.300781 C 408.59375 253.160156 408.777344 252.757812 408.65625 252.386719 Z M 212.4375 493.492188 L 128.636719 493.492188 C 128.234375 493.492188 127.90625 493.820312 127.90625 494.222656 C 127.90625 494.46875 128.03125 494.675781 128.21875 494.808594 C 128.335938 494.894531 128.476562 494.957031 128.636719 494.957031 L 212.4375 494.957031 C 212.84375 494.957031 213.171875 494.628906 213.171875 494.222656 C 213.171875 493.820312 212.84375 493.492188 212.4375 493.492188 Z M 82.945312 435.648438 C 82.90625 435.621094 82.871094 435.585938 82.828125 435.566406 L 10.429688 404.15625 L 9.703125 403.839844 C 9.328125 403.679688 8.898438 403.851562 8.738281 404.222656 C 8.660156 404.398438 8.664062 404.589844 8.726562 404.761719 C 8.792969 404.941406 8.925781 405.101562 9.117188 405.183594 L 82.109375 436.851562 L 82.242188 436.910156 C 82.339844 436.949219 82.4375 436.96875 82.535156 436.96875 C 82.816406 436.96875 83.085938 436.804688 83.207031 436.527344 C 83.347656 436.203125 83.222656 435.84375 82.945312 435.648438 Z M 310.0625 34.726562 C 309.683594 34.589844 309.265625 34.796875 309.132812 35.175781 C 307.601562 39.589844 306.003906 45.101562 307.097656 46.316406 C 308.234375 47.578125 310.914062 48.425781 311.21875 48.519531 C 311.289062 48.539062 311.359375 48.550781 311.429688 48.550781 C 311.746094 48.550781 312.035156 48.347656 312.132812 48.03125 C 312.25 47.644531 312.03125 47.234375 311.644531 47.117188 C 310.933594 46.898438 308.921875 46.15625 308.21875 45.382812 C 307.847656 44.585938 309.109375 39.710938 310.515625 35.65625 C 310.648438 35.273438 310.445312 34.855469 310.0625 34.726562 Z M 324.066406 47.285156 C 324.183594 46.898438 323.96875 46.488281 323.582031 46.367188 C 323.199219 46.25 322.785156 46.464844 322.664062 46.851562 C 321.132812 51.773438 312.1875 50.402344 312.09375 50.390625 C 311.691406 50.324219 311.320312 50.597656 311.257812 50.996094 C 311.191406 51.394531 311.464844 51.773438 311.863281 51.835938 C 312.003906 51.859375 313.242188 52.050781 314.886719 52.050781 C 318.078125 52.050781 322.804688 51.332031 324.066406 47.285156 Z M 318.277344 54.503906 C 317.046875 54.878906 315.765625 55.019531 314.480469 54.933594 C 314.054688 54.898438 313.726562 55.207031 313.695312 55.609375 C 313.667969 56.015625 313.972656 56.363281 314.375 56.394531 C 314.660156 56.414062 314.945312 56.425781 315.226562 56.425781 C 316.40625 56.425781 317.574219 56.246094 318.707031 55.902344 C 319.09375 55.78125 319.3125 55.375 319.191406 54.988281 C 319.074219 54.601562 318.664062 54.382812 318.277344 54.503906 Z M 324.828125 29.269531 C 324.984375 28.894531 324.804688 28.46875 324.429688 28.316406 C 319.285156 26.210938 315.996094 29.308594 315.855469 29.441406 C 315.566406 29.71875 315.558594 30.183594 315.839844 30.476562 C 315.980469 30.625 316.171875 30.699219 316.363281 30.699219 C 316.546875 30.699219 316.730469 30.632812 316.875 30.492188 C 316.898438 30.46875 319.605469 27.925781 323.875 29.671875 C 324.25 29.824219 324.679688 29.644531 324.828125 29.269531 Z M 299.121094 30.476562 C 299.265625 30.625 299.457031 30.699219 299.648438 30.699219 C 299.832031 30.699219 300.015625 30.632812 300.15625 30.492188 C 300.183594 30.46875 302.890625 27.925781 307.160156 29.671875 C 307.53125 29.824219 307.960938 29.644531 308.113281 29.269531 C 308.269531 28.894531 308.089844 28.46875 307.714844 28.316406 C 302.574219 26.214844 299.277344 29.308594 299.140625 29.441406 C 299.015625 29.5625 298.949219 29.722656 298.933594 29.882812 C 298.949219 30.011719 298.964844 30.132812 298.984375 30.257812 C 299.019531 30.335938 299.058594 30.410156 299.121094 30.476562 Z M 303.414062 34.847656 C 302.570312 34.847656 301.886719 35.53125 301.886719 36.375 C 301.886719 37.21875 302.570312 37.902344 303.414062 37.902344 C 304.257812 37.902344 304.941406 37.21875 304.941406 36.375 C 304.941406 35.53125 304.257812 34.847656 303.414062 34.847656 Z M 322.148438 36.375 C 322.148438 35.53125 321.464844 34.847656 320.621094 34.847656 C 319.773438 34.847656 319.089844 35.53125 319.089844 36.375 C 319.089844 37.21875 319.773438 37.902344 320.621094 37.902344 C 321.464844 37.902344 322.148438 37.21875 322.148438 36.375 Z M 325.613281 11.523438 C 325.613281 11.523438 328.40625 18.9375 334.527344 18.9375 L 334.527344 31.785156 L 339.746094 31.785156 L 339.988281 28.316406 L 340.179688 25.597656 L 340.289062 24.050781 L 340.324219 23.542969 C 340.433594 23.539062 340.539062 23.527344 340.648438 23.527344 C 345.179688 23.527344 348.945312 26.988281 349.0625 31.292969 C 349.152344 34.484375 347.210938 37.242188 344.351562 38.484375 C 343.945312 38.660156 343.519531 38.804688 343.078125 38.917969 C 345.289062 47.382812 350.304688 51.234375 350.304688 51.234375 C 350.304688 51.234375 350.304688 51.226562 350.304688 51.226562 C 350.328125 51.089844 357.3125 10.777344 333.21875 2.085938 C 332.703125 1.894531 332.171875 1.714844 331.628906 1.542969 C 331.355469 1.46875 331.101562 1.378906 330.824219 1.308594 C 330.742188 1.285156 330.667969 1.257812 330.585938 1.238281 C 330.585938 1.238281 330.589844 1.246094 330.589844 1.246094 C 322.601562 -0.9375 312.195312 -0.507812 306.796875 4.589844 C 303.425781 7.773438 302.4375 11.128906 302.4375 11.128906 C 302.4375 11.128906 312.9375 20.832031 325.613281 11.523438 Z M 325.597656 272.117188 C 319.964844 273.125 309.160156 275.113281 302.390625 276.742188 C 302.386719 276.746094 296.589844 281.664062 293.367188 281.761719 C 290.144531 281.859375 291.023438 282.835938 289.65625 284.59375 C 288.289062 286.351562 284.777344 287.71875 281.261719 287.71875 C 277.746094 287.71875 278.429688 289.769531 276.394531 290.746094 C 274.363281 291.722656 269.25 289.867188 269.25 289.867188 C 269.917969 289.273438 271.515625 287.308594 273.242188 285.097656 L 258.414062 299.5625 C 257.097656 300.847656 255.046875 301.019531 253.53125 299.972656 L 238.292969 289.441406 L 235.882812 291.027344 L 232.128906 288.4375 C 232.128906 288.4375 225.3125 291.949219 220.625 288.4375 C 215.941406 284.921875 218.140625 278.765625 218.140625 278.765625 L 215.355469 276.839844 L 217.433594 275.019531 L 206.90625 267.742188 C 204.730469 266.238281 204.679688 263.039062 206.808594 261.46875 L 240.679688 236.46875 C 217.867188 238.78125 193.148438 242.007812 183.957031 245.753906 C 165.199219 253.394531 82.535156 383.296875 82.535156 383.296875 L 82.566406 383.335938 L 101.851562 408.308594 L 124.910156 438.171875 L 166.589844 376.347656 L 166.589844 453.457031 L 226.332031 453.457031 L 231.886719 319.386719 C 231.886719 319.386719 247.15625 320.039062 267.953125 320.675781 C 289.777344 321.339844 317.6875 321.984375 340.429688 321.835938 C 340.429688 321.386719 340.429688 320.9375 340.429688 320.492188 C 340.429688 304.902344 340.429688 290.046875 340.429688 278.195312 L 331.257812 281.613281 Z M 361.164062 61.535156 L 361.167969 61.539062 C 359.125 60.5625 357.238281 59.6875 355.546875 58.914062 L 347.675781 70.046875 C 344.257812 74.878906 338.710938 77.753906 332.792969 77.753906 C 330.539062 77.753906 328.363281 77.847656 326.902344 77.847656 C 321.726562 77.847656 319.878906 74.339844 319.25 71.257812 C 313.980469 71.273438 308.789062 69.699219 307.4375 68.09375 C 306.960938 67.527344 306.410156 66.257812 305.828125 64.539062 L 305.835938 64.554688 C 299.949219 68.730469 295.578125 74.695312 293.378906 81.566406 C 290.128906 91.699219 286.710938 103 286.058594 107.570312 C 285.964844 108.222656 285.886719 109.429688 285.820312 111.078125 C 285.472656 119.59375 285.4375 140.34375 285.523438 162.347656 C 285.65625 196.035156 286.070312 232.628906 286.070312 232.640625 L 286.074219 232.640625 L 286.070312 232.640625 L 283.371094 233.339844 L 305.613281 246.773438 C 307.199219 247.730469 307.796875 249.589844 307.296875 251.210938 L 311.839844 249.050781 L 340.578125 233.285156 C 341.011719 192.644531 342.515625 123.871094 346.710938 100.914062 C 351.953125 72.257812 361.164062 61.535156 361.164062 61.535156 Z M 304.601562 60.421875 C 304.597656 60.414062 304.59375 60.402344 304.59375 60.394531 C 304.59375 60.394531 304.589844 60.394531 304.589844 60.394531 Z M 436.617188 487.085938 L 419.574219 487.085938 C 419.25 487.085938 418.980469 487.300781 418.886719 487.59375 C 418.863281 487.664062 418.839844 487.738281 418.839844 487.816406 C 418.839844 488.011719 418.917969 488.183594 419.039062 488.3125 C 419.175781 488.457031 419.363281 488.550781 419.574219 488.550781 L 436.617188 488.550781 C 437.023438 488.550781 437.351562 488.222656 437.351562 487.816406 C 437.351562 487.414062 437.023438 487.085938 436.617188 487.085938 Z M 314.035156 487.097656 C 314.019531 487.09375 314.003906 487.085938 313.988281 487.085938 L 296.945312 487.085938 C 296.539062 487.085938 296.210938 487.414062 296.210938 487.816406 C 296.210938 488.207031 296.515625 488.515625 296.898438 488.539062 C 296.914062 488.542969 296.925781 488.550781 296.945312 488.550781 L 313.988281 488.550781 C 314.394531 488.550781 314.71875 488.222656 314.71875 487.816406 C 314.71875 487.429688 314.417969 487.121094 314.035156 487.097656 Z M 409 328.550781 L 420.660156 328.550781 C 421.066406 328.550781 421.394531 328.222656 421.394531 327.816406 C 421.394531 327.410156 421.066406 327.085938 420.660156 327.085938 L 409.039062 327.085938 C 409.027344 327.578125 409.015625 328.066406 409 328.550781 Z M 262.207031 327.085938 C 261.800781 327.085938 261.472656 327.410156 261.472656 327.816406 C 261.472656 328.222656 261.800781 328.550781 262.207031 328.550781 L 340.429688 328.550781 C 340.429688 328.0625 340.429688 327.570312 340.429688 327.085938 Z M 262.207031 343.226562 C 261.800781 343.226562 261.472656 343.554688 261.472656 343.957031 C 261.472656 344.363281 261.800781 344.691406 262.207031 344.691406 L 340.429688 344.691406 C 340.429688 344.203125 340.429688 343.714844 340.429688 343.226562 Z M 420.660156 344.691406 C 421.066406 344.691406 421.394531 344.363281 421.394531 343.957031 C 421.394531 343.554688 421.066406 343.226562 420.660156 343.226562 L 408.035156 343.226562 C 407.96875 343.734375 407.902344 344.21875 407.832031 344.691406 Z M 245.039062 487.085938 L 261.285156 487.085938 C 261.613281 487.085938 261.878906 487.300781 261.972656 487.59375 L 291.269531 350.992188 L 274.222656 350.992188 Z M 244.726562 488.550781 L 244.433594 489.917969 C 243.320312 495.109375 247.273438 500 252.578125 500 C 256.507812 500 259.902344 497.257812 260.726562 493.414062 L 261.820312 488.3125 C 261.6875 488.457031 261.5 488.550781 261.285156 488.550781 Z M 383.964844 488.550781 L 367.097656 488.550781 C 367.035156 488.550781 366.976562 488.53125 366.917969 488.515625 L 367.152344 492.058594 C 367.449219 496.527344 371.160156 500 375.636719 500 C 380.554688 500 384.449219 495.839844 384.121094 490.933594 Z M 367.097656 487.085938 C 367.003906 487.085938 366.910156 487.105469 366.828125 487.140625 L 361.09375 400.550781 C 366.171875 395.925781 371.710938 390.757812 377.136719 385.457031 L 383.867188 487.085938 L 367.097656 487.085938" fill="#15253d"/></g></g><head xmlns=""/></svg>