<svg width="244" height="158" viewBox="0 0 244 158" fill="none" xmlns="http://www.w3.org/2000/svg">
<path d="M3.34277 11H1.25781V1.00586H6.98633V2.74219H3.34277V5.31934H6.7334V7.04883H3.34277V11ZM14.1914 11L13.9111 10.0225H13.8018C13.5785 10.3779 13.2617 10.6536 12.8516 10.8496C12.4414 11.041 11.9743 11.1367 11.4502 11.1367C10.5524 11.1367 9.87565 10.8975 9.41992 10.4189C8.96419 9.93587 8.73633 9.24316 8.73633 8.34082V3.35742H10.8213V7.82129C10.8213 8.37272 10.9193 8.78743 11.1152 9.06543C11.3112 9.33887 11.6234 9.47559 12.0518 9.47559C12.6351 9.47559 13.0566 9.2819 13.3164 8.89453C13.5762 8.5026 13.7061 7.85547 13.7061 6.95312V3.35742H15.791V11H14.1914ZM20.0635 11H17.9785V0.363281H20.0635V11ZM24.3428 11H22.2578V0.363281H24.3428V11ZM37.2285 11H35.1436V6.53613C35.1436 5.9847 35.0456 5.57227 34.8496 5.29883C34.6536 5.02083 34.3415 4.88184 33.9131 4.88184C33.3298 4.88184 32.9082 5.0778 32.6484 5.46973C32.3887 5.8571 32.2588 6.50195 32.2588 7.4043V11H30.1738V3.35742H31.7666L32.0469 4.33496H32.1631C32.3955 3.96582 32.7145 3.68783 33.1201 3.50098C33.5303 3.30957 33.9951 3.21387 34.5146 3.21387C35.4033 3.21387 36.0778 3.4554 36.5381 3.93848C36.9984 4.41699 37.2285 5.1097 37.2285 6.0166V11ZM44.2285 11L43.8252 9.96094H43.7705C43.4196 10.403 43.0573 10.7106 42.6836 10.8838C42.3145 11.0524 41.8314 11.1367 41.2344 11.1367C40.5007 11.1367 39.9219 10.9271 39.498 10.5078C39.0788 10.0885 38.8691 9.49154 38.8691 8.7168C38.8691 7.9056 39.1517 7.30859 39.7168 6.92578C40.2865 6.53841 41.1432 6.32422 42.2871 6.2832L43.6133 6.24219V5.90723C43.6133 5.13249 43.2168 4.74512 42.4238 4.74512C41.8132 4.74512 41.0954 4.92969 40.2705 5.29883L39.5801 3.89062C40.4596 3.43034 41.4349 3.2002 42.5059 3.2002C43.5312 3.2002 44.3174 3.4235 44.8643 3.87012C45.4111 4.31673 45.6846 4.99577 45.6846 5.90723V11H44.2285ZM43.6133 7.45898L42.8066 7.48633C42.2005 7.50456 41.7493 7.61393 41.4531 7.81445C41.1569 8.01497 41.0088 8.32031 41.0088 8.73047C41.0088 9.31836 41.346 9.6123 42.0205 9.6123C42.5036 9.6123 42.8887 9.47331 43.1758 9.19531C43.4674 8.91732 43.6133 8.54818 43.6133 8.08789V7.45898ZM54.6807 11H52.5957V6.53613C52.5957 5.9847 52.5023 5.57227 52.3154 5.29883C52.1331 5.02083 51.8438 4.88184 51.4473 4.88184C50.9141 4.88184 50.5267 5.0778 50.2852 5.46973C50.0436 5.86165 49.9229 6.50651 49.9229 7.4043V11H47.8379V3.35742H49.4307L49.7109 4.33496H49.8271C50.0322 3.98405 50.3285 3.71061 50.7158 3.51465C51.1032 3.31413 51.5475 3.21387 52.0488 3.21387C53.1927 3.21387 53.9674 3.58757 54.373 4.33496H54.5576C54.7627 3.97949 55.0635 3.70378 55.46 3.50781C55.861 3.31185 56.3122 3.21387 56.8135 3.21387C57.6794 3.21387 58.3333 3.43717 58.7754 3.88379C59.222 4.32585 59.4453 5.03678 59.4453 6.0166V11H57.3535V6.53613C57.3535 5.9847 57.2601 5.57227 57.0732 5.29883C56.891 5.02083 56.6016 4.88184 56.2051 4.88184C55.6947 4.88184 55.3118 5.06413 55.0566 5.42871C54.806 5.79329 54.6807 6.37207 54.6807 7.16504V11ZM64.7568 4.69727C64.3148 4.69727 63.9684 4.83854 63.7178 5.12109C63.4671 5.39909 63.3236 5.79557 63.2871 6.31055H66.2129C66.2038 5.79557 66.0693 5.39909 65.8096 5.12109C65.5498 4.83854 65.1989 4.69727 64.7568 4.69727ZM65.0508 11.1367C63.8203 11.1367 62.8587 10.7972 62.166 10.1182C61.4733 9.43913 61.127 8.47754 61.127 7.2334C61.127 5.9528 61.446 4.96387 62.084 4.2666C62.7266 3.56478 63.613 3.21387 64.7432 3.21387C65.8232 3.21387 66.6641 3.52148 67.2656 4.13672C67.8672 4.75195 68.168 5.60189 68.168 6.68652V7.69824H63.2393C63.262 8.29069 63.4375 8.75326 63.7656 9.08594C64.0938 9.41862 64.554 9.58496 65.1465 9.58496C65.6068 9.58496 66.042 9.53711 66.4521 9.44141C66.8623 9.3457 67.2907 9.19303 67.7373 8.9834V10.5967C67.3727 10.779 66.9831 10.9134 66.5684 11C66.1536 11.0911 65.6478 11.1367 65.0508 11.1367ZM75.1611 7.16504C75.1611 7.92155 75.2842 8.49349 75.5303 8.88086C75.7809 9.26823 76.1865 9.46191 76.7471 9.46191C77.3031 9.46191 77.7018 9.27051 77.9434 8.8877C78.1895 8.50033 78.3125 7.92611 78.3125 7.16504C78.3125 6.40853 78.1895 5.84115 77.9434 5.46289C77.6973 5.08464 77.2939 4.89551 76.7334 4.89551C76.1774 4.89551 75.7764 5.08464 75.5303 5.46289C75.2842 5.83659 75.1611 6.40397 75.1611 7.16504ZM80.4453 7.16504C80.4453 8.40918 80.1172 9.38216 79.4609 10.084C78.8047 10.7858 77.891 11.1367 76.7197 11.1367C75.986 11.1367 75.3389 10.9772 74.7783 10.6582C74.2178 10.3346 73.7871 9.87207 73.4863 9.27051C73.1855 8.66895 73.0352 7.96712 73.0352 7.16504C73.0352 5.91634 73.361 4.94564 74.0127 4.25293C74.6644 3.56022 75.5804 3.21387 76.7607 3.21387C77.4945 3.21387 78.1416 3.37337 78.7021 3.69238C79.2627 4.01139 79.6934 4.4694 79.9941 5.06641C80.2949 5.66341 80.4453 6.36296 80.4453 7.16504ZM86.3926 4.92285H84.5879V11H82.5029V4.92285H81.3545V3.91797L82.5029 3.35742V2.79688C82.5029 1.92643 82.7171 1.29069 83.1455 0.889648C83.5739 0.488607 84.2598 0.288086 85.2031 0.288086C85.9232 0.288086 86.5635 0.395182 87.124 0.609375L86.5908 2.14062C86.1715 2.00846 85.7842 1.94238 85.4287 1.94238C85.1325 1.94238 84.9183 2.03125 84.7861 2.20898C84.654 2.38216 84.5879 2.60547 84.5879 2.87891V3.35742H86.3926V4.92285ZM94.3975 4.69727C93.9554 4.69727 93.609 4.83854 93.3584 5.12109C93.1077 5.39909 92.9642 5.79557 92.9277 6.31055H95.8535C95.8444 5.79557 95.71 5.39909 95.4502 5.12109C95.1904 4.83854 94.8395 4.69727 94.3975 4.69727ZM94.6914 11.1367C93.4609 11.1367 92.4993 10.7972 91.8066 10.1182C91.1139 9.43913 90.7676 8.47754 90.7676 7.2334C90.7676 5.9528 91.0866 4.96387 91.7246 4.2666C92.3672 3.56478 93.2536 3.21387 94.3838 3.21387C95.4639 3.21387 96.3047 3.52148 96.9062 4.13672C97.5078 4.75195 97.8086 5.60189 97.8086 6.68652V7.69824H92.8799C92.9027 8.29069 93.0781 8.75326 93.4062 9.08594C93.7344 9.41862 94.1947 9.58496 94.7871 9.58496C95.2474 9.58496 95.6826 9.53711 96.0928 9.44141C96.5029 9.3457 96.9313 9.19303 97.3779 8.9834V10.5967C97.0133 10.779 96.6237 10.9134 96.209 11C95.7943 11.0911 95.2884 11.1367 94.6914 11.1367ZM106.559 11H104.474V6.53613C104.474 5.9847 104.376 5.57227 104.18 5.29883C103.984 5.02083 103.672 4.88184 103.243 4.88184C102.66 4.88184 102.238 5.0778 101.979 5.46973C101.719 5.8571 101.589 6.50195 101.589 7.4043V11H99.5039V3.35742H101.097L101.377 4.33496H101.493C101.726 3.96582 102.045 3.68783 102.45 3.50098C102.86 3.30957 103.325 3.21387 103.845 3.21387C104.733 3.21387 105.408 3.4554 105.868 3.93848C106.328 4.41699 106.559 5.1097 106.559 6.0166V11ZM111.925 9.47559C112.289 9.47559 112.727 9.39583 113.237 9.23633V10.7881C112.718 11.0205 112.08 11.1367 111.323 11.1367C110.489 11.1367 109.881 10.9271 109.498 10.5078C109.12 10.084 108.931 9.45052 108.931 8.60742V4.92285H107.933V4.04102L109.081 3.34375L109.683 1.73047H111.016V3.35742H113.155V4.92285H111.016V8.60742C111.016 8.90365 111.098 9.1224 111.262 9.26367C111.43 9.40495 111.651 9.47559 111.925 9.47559ZM119.055 3.21387C119.337 3.21387 119.572 3.23438 119.759 3.27539L119.602 5.23047C119.433 5.1849 119.228 5.16211 118.986 5.16211C118.321 5.16211 117.801 5.33301 117.428 5.6748C117.059 6.0166 116.874 6.49512 116.874 7.11035V11H114.789V3.35742H116.368L116.676 4.64258H116.778C117.015 4.21419 117.334 3.87012 117.735 3.61035C118.141 3.34603 118.581 3.21387 119.055 3.21387ZM126 11L125.597 9.96094H125.542C125.191 10.403 124.829 10.7106 124.455 10.8838C124.086 11.0524 123.603 11.1367 123.006 11.1367C122.272 11.1367 121.693 10.9271 121.27 10.5078C120.85 10.0885 120.641 9.49154 120.641 8.7168C120.641 7.9056 120.923 7.30859 121.488 6.92578C122.058 6.53841 122.915 6.32422 124.059 6.2832L125.385 6.24219V5.90723C125.385 5.13249 124.988 4.74512 124.195 4.74512C123.585 4.74512 122.867 4.92969 122.042 5.29883L121.352 3.89062C122.231 3.43034 123.206 3.2002 124.277 3.2002C125.303 3.2002 126.089 3.4235 126.636 3.87012C127.183 4.31673 127.456 4.99577 127.456 5.90723V11H126ZM125.385 7.45898L124.578 7.48633C123.972 7.50456 123.521 7.61393 123.225 7.81445C122.928 8.01497 122.78 8.32031 122.78 8.73047C122.78 9.31836 123.118 9.6123 123.792 9.6123C124.275 9.6123 124.66 9.47331 124.947 9.19531C125.239 8.91732 125.385 8.54818 125.385 8.08789V7.45898ZM136.664 11H134.579V6.53613C134.579 5.9847 134.481 5.57227 134.285 5.29883C134.089 5.02083 133.777 4.88184 133.349 4.88184C132.765 4.88184 132.344 5.0778 132.084 5.46973C131.824 5.8571 131.694 6.50195 131.694 7.4043V11H129.609V3.35742H131.202L131.482 4.33496H131.599C131.831 3.96582 132.15 3.68783 132.556 3.50098C132.966 3.30957 133.431 3.21387 133.95 3.21387C134.839 3.21387 135.513 3.4554 135.974 3.93848C136.434 4.41699 136.664 5.1097 136.664 6.0166V11ZM142.03 9.47559C142.395 9.47559 142.832 9.39583 143.343 9.23633V10.7881C142.823 11.0205 142.185 11.1367 141.429 11.1367C140.595 11.1367 139.986 10.9271 139.604 10.5078C139.225 10.084 139.036 9.45052 139.036 8.60742V4.92285H138.038V4.04102L139.187 3.34375L139.788 1.73047H141.121V3.35742H143.261V4.92285H141.121V8.60742C141.121 8.90365 141.203 9.1224 141.367 9.26367C141.536 9.40495 141.757 9.47559 142.03 9.47559ZM144.601 10.0225C144.601 9.63965 144.703 9.35026 144.908 9.1543C145.113 8.95833 145.412 8.86035 145.804 8.86035C146.182 8.86035 146.474 8.96061 146.679 9.16113C146.888 9.36165 146.993 9.64876 146.993 10.0225C146.993 10.3825 146.888 10.6673 146.679 10.877C146.469 11.082 146.177 11.1846 145.804 11.1846C145.421 11.1846 145.125 11.0843 144.915 10.8838C144.705 10.6787 144.601 10.3916 144.601 10.0225ZM144.601 4.37598C144.601 3.99316 144.703 3.70378 144.908 3.50781C145.113 3.31185 145.412 3.21387 145.804 3.21387C146.182 3.21387 146.474 3.31413 146.679 3.51465C146.888 3.71517 146.993 4.00228 146.993 4.37598C146.993 4.74512 146.886 5.03223 146.672 5.2373C146.462 5.43783 146.173 5.53809 145.804 5.53809C145.421 5.53809 145.125 5.43783 144.915 5.2373C144.705 5.03678 144.601 4.74967 144.601 4.37598ZM157.213 13.2148H151.402V12.2578H157.213V13.2148ZM162.969 13.2148H157.158V12.2578H162.969V13.2148ZM168.725 13.2148H162.914V12.2578H168.725V13.2148ZM174.48 13.2148H168.67V12.2578H174.48V13.2148ZM180.236 13.2148H174.426V12.2578H180.236V13.2148ZM185.992 13.2148H180.182V12.2578H185.992V13.2148ZM191.748 13.2148H185.938V12.2578H191.748V13.2148ZM197.504 13.2148H191.693V12.2578H197.504V13.2148ZM203.26 13.2148H197.449V12.2578H203.26V13.2148ZM209.016 13.2148H203.205V12.2578H209.016V13.2148ZM214.771 13.2148H208.961V12.2578H214.771V13.2148ZM220.527 13.2148H214.717V12.2578H220.527V13.2148ZM226.283 13.2148H220.473V12.2578H226.283V13.2148ZM232.039 13.2148H226.229V12.2578H232.039V13.2148ZM237.795 13.2148H231.984V12.2578H237.795V13.2148ZM243.551 13.2148H237.74V12.2578H243.551V13.2148ZM7.37598 59L6.65137 56.6211H3.00781L2.2832 59H0L3.52734 48.9648H6.11816L9.65918 59H7.37598ZM6.14551 54.8438C5.47559 52.6882 5.09733 51.4691 5.01074 51.1865C4.92871 50.904 4.86947 50.6807 4.83301 50.5166C4.68262 51.0999 4.25195 52.5423 3.54102 54.8438H6.14551ZM13.1797 59.1367C12.2819 59.1367 11.5755 58.7881 11.0605 58.0908C10.5501 57.3936 10.2949 56.4274 10.2949 55.1924C10.2949 53.9391 10.5547 52.9639 11.0742 52.2666C11.5983 51.5648 12.3184 51.2139 13.2344 51.2139C14.196 51.2139 14.9297 51.5876 15.4355 52.335H15.5039C15.3991 51.7653 15.3467 51.2572 15.3467 50.8105V48.3633H17.4385V59H15.8389L15.4355 58.0088H15.3467C14.8727 58.7607 14.1504 59.1367 13.1797 59.1367ZM13.9111 57.4756C14.4443 57.4756 14.834 57.3206 15.0801 57.0107C15.3307 56.7008 15.4674 56.1745 15.4902 55.4316V55.2061C15.4902 54.3857 15.3626 53.7979 15.1074 53.4424C14.8568 53.0869 14.4466 52.9092 13.877 52.9092C13.4121 52.9092 13.0498 53.1074 12.79 53.5039C12.5348 53.8958 12.4072 54.4678 12.4072 55.2197C12.4072 55.9717 12.5371 56.5368 12.7969 56.915C13.0566 57.2887 13.4281 57.4756 13.9111 57.4756ZM22.0391 59.1367C21.1413 59.1367 20.4349 58.7881 19.9199 58.0908C19.4095 57.3936 19.1543 56.4274 19.1543 55.1924C19.1543 53.9391 19.4141 52.9639 19.9336 52.2666C20.4577 51.5648 21.1777 51.2139 22.0938 51.2139C23.0553 51.2139 23.7891 51.5876 24.2949 52.335H24.3633C24.2585 51.7653 24.2061 51.2572 24.2061 50.8105V48.3633H26.2979V59H24.6982L24.2949 58.0088H24.2061C23.7321 58.7607 23.0098 59.1367 22.0391 59.1367ZM22.7705 57.4756C23.3037 57.4756 23.6934 57.3206 23.9395 57.0107C24.1901 56.7008 24.3268 56.1745 24.3496 55.4316V55.2061C24.3496 54.3857 24.222 53.7979 23.9668 53.4424C23.7161 53.0869 23.306 52.9092 22.7363 52.9092C22.2715 52.9092 21.9092 53.1074 21.6494 53.5039C21.3942 53.8958 21.2666 54.4678 21.2666 55.2197C21.2666 55.9717 21.3965 56.5368 21.6562 56.915C21.916 57.2887 22.2874 57.4756 22.7705 57.4756ZM32.7441 51.2139C33.0267 51.2139 33.2614 51.2344 33.4482 51.2754L33.291 53.2305C33.1224 53.1849 32.9173 53.1621 32.6758 53.1621C32.0104 53.1621 31.4909 53.333 31.1172 53.6748C30.748 54.0166 30.5635 54.4951 30.5635 55.1104V59H28.4785V51.3574H30.0576L30.3652 52.6426H30.4678C30.7048 52.2142 31.0238 51.8701 31.4248 51.6104C31.8304 51.346 32.2702 51.2139 32.7441 51.2139ZM38.001 52.6973C37.5589 52.6973 37.2126 52.8385 36.9619 53.1211C36.7113 53.3991 36.5677 53.7956 36.5312 54.3105H39.457C39.4479 53.7956 39.3135 53.3991 39.0537 53.1211C38.7939 52.8385 38.443 52.6973 38.001 52.6973ZM38.2949 59.1367C37.0645 59.1367 36.1029 58.7972 35.4102 58.1182C34.7174 57.4391 34.3711 56.4775 34.3711 55.2334C34.3711 53.9528 34.6901 52.9639 35.3281 52.2666C35.9707 51.5648 36.8571 51.2139 37.9873 51.2139C39.0674 51.2139 39.9082 51.5215 40.5098 52.1367C41.1113 52.752 41.4121 53.6019 41.4121 54.6865V55.6982H36.4834C36.5062 56.2907 36.6816 56.7533 37.0098 57.0859C37.3379 57.4186 37.7982 57.585 38.3906 57.585C38.8509 57.585 39.2861 57.5371 39.6963 57.4414C40.1064 57.3457 40.5348 57.193 40.9814 56.9834V58.5967C40.6169 58.779 40.2272 58.9134 39.8125 59C39.3978 59.0911 38.8919 59.1367 38.2949 59.1367ZM48.4395 56.7305C48.4395 57.5143 48.166 58.1113 47.6191 58.5215C47.0768 58.9316 46.2633 59.1367 45.1787 59.1367C44.6227 59.1367 44.1488 59.098 43.7568 59.0205C43.3649 58.9476 42.998 58.8382 42.6562 58.6924V56.9697C43.0436 57.152 43.4788 57.3047 43.9619 57.4277C44.4495 57.5508 44.8779 57.6123 45.2471 57.6123C46.0036 57.6123 46.3818 57.3936 46.3818 56.9561C46.3818 56.792 46.3317 56.6598 46.2314 56.5596C46.1312 56.4548 45.958 56.3385 45.7119 56.2109C45.4658 56.0788 45.1377 55.9261 44.7275 55.7529C44.1396 55.5068 43.7067 55.279 43.4287 55.0693C43.1553 54.8597 42.9548 54.6204 42.8271 54.3516C42.7041 54.0781 42.6426 53.7432 42.6426 53.3467C42.6426 52.6676 42.9046 52.1436 43.4287 51.7744C43.9574 51.4007 44.7048 51.2139 45.6709 51.2139C46.5915 51.2139 47.487 51.4144 48.3574 51.8154L47.7285 53.3193C47.3457 53.1553 46.988 53.0208 46.6553 52.916C46.3226 52.8112 45.9831 52.7588 45.6367 52.7588C45.0215 52.7588 44.7139 52.9251 44.7139 53.2578C44.7139 53.4447 44.8118 53.6064 45.0078 53.7432C45.2083 53.8799 45.6436 54.0827 46.3135 54.3516C46.9105 54.5931 47.348 54.8187 47.626 55.0283C47.904 55.238 48.109 55.4795 48.2412 55.7529C48.3734 56.0264 48.4395 56.3522 48.4395 56.7305ZM55.3984 56.7305C55.3984 57.5143 55.125 58.1113 54.5781 58.5215C54.0358 58.9316 53.2223 59.1367 52.1377 59.1367C51.5817 59.1367 51.1077 59.098 50.7158 59.0205C50.3239 58.9476 49.957 58.8382 49.6152 58.6924V56.9697C50.0026 57.152 50.4378 57.3047 50.9209 57.4277C51.4085 57.5508 51.8369 57.6123 52.2061 57.6123C52.9626 57.6123 53.3408 57.3936 53.3408 56.9561C53.3408 56.792 53.2907 56.6598 53.1904 56.5596C53.0902 56.4548 52.917 56.3385 52.6709 56.2109C52.4248 56.0788 52.0967 55.9261 51.6865 55.7529C51.0986 55.5068 50.6657 55.279 50.3877 55.0693C50.1143 54.8597 49.9137 54.6204 49.7861 54.3516C49.6631 54.0781 49.6016 53.7432 49.6016 53.3467C49.6016 52.6676 49.8636 52.1436 50.3877 51.7744C50.9163 51.4007 51.6637 51.2139 52.6299 51.2139C53.5505 51.2139 54.446 51.4144 55.3164 51.8154L54.6875 53.3193C54.3047 53.1553 53.9469 53.0208 53.6143 52.916C53.2816 52.8112 52.9421 52.7588 52.5957 52.7588C51.9805 52.7588 51.6729 52.9251 51.6729 53.2578C51.6729 53.4447 51.7708 53.6064 51.9668 53.7432C52.1673 53.8799 52.6025 54.0827 53.2725 54.3516C53.8695 54.5931 54.307 54.8187 54.585 55.0283C54.863 55.238 55.068 55.4795 55.2002 55.7529C55.3324 56.0264 55.3984 56.3522 55.3984 56.7305ZM56.7314 58.0225C56.7314 57.6396 56.834 57.3503 57.0391 57.1543C57.2441 56.9583 57.5426 56.8604 57.9346 56.8604C58.3128 56.8604 58.6045 56.9606 58.8096 57.1611C59.0192 57.3617 59.124 57.6488 59.124 58.0225C59.124 58.3825 59.0192 58.6673 58.8096 58.877C58.5999 59.082 58.3083 59.1846 57.9346 59.1846C57.5518 59.1846 57.2555 59.0843 57.0459 58.8838C56.8363 58.6787 56.7314 58.3916 56.7314 58.0225ZM56.7314 52.376C56.7314 51.9932 56.834 51.7038 57.0391 51.5078C57.2441 51.3118 57.5426 51.2139 57.9346 51.2139C58.3128 51.2139 58.6045 51.3141 58.8096 51.5146C59.0192 51.7152 59.124 52.0023 59.124 52.376C59.124 52.7451 59.0169 53.0322 58.8027 53.2373C58.5931 53.4378 58.3037 53.5381 57.9346 53.5381C57.5518 53.5381 57.2555 53.4378 57.0459 53.2373C56.8363 53.0368 56.7314 52.7497 56.7314 52.376ZM69.3438 61.2148H63.5332V60.2578H69.3438V61.2148ZM75.0996 61.2148H69.2891V60.2578H75.0996V61.2148ZM80.8555 61.2148H75.0449V60.2578H80.8555V61.2148ZM86.6113 61.2148H80.8008V60.2578H86.6113V61.2148ZM92.3672 61.2148H86.5566V60.2578H92.3672V61.2148ZM98.123 61.2148H92.3125V60.2578H98.123V61.2148ZM103.879 61.2148H98.0684V60.2578H103.879V61.2148ZM109.635 61.2148H103.824V60.2578H109.635V61.2148ZM115.391 61.2148H109.58V60.2578H115.391V61.2148ZM121.146 61.2148H115.336V60.2578H121.146V61.2148ZM126.902 61.2148H121.092V60.2578H126.902V61.2148ZM132.658 61.2148H126.848V60.2578H132.658V61.2148ZM138.414 61.2148H132.604V60.2578H138.414V61.2148ZM144.17 61.2148H138.359V60.2578H144.17V61.2148ZM149.926 61.2148H144.115V60.2578H149.926V61.2148ZM155.682 61.2148H149.871V60.2578H155.682V61.2148ZM161.438 61.2148H155.627V60.2578H161.438V61.2148ZM167.193 61.2148H161.383V60.2578H167.193V61.2148ZM172.949 61.2148H167.139V60.2578H172.949V61.2148ZM178.705 61.2148H172.895V60.2578H178.705V61.2148ZM184.461 61.2148H178.65V60.2578H184.461V61.2148ZM190.217 61.2148H184.406V60.2578H190.217V61.2148ZM195.973 61.2148H190.162V60.2578H195.973V61.2148ZM201.729 61.2148H195.918V60.2578H201.729V61.2148ZM207.484 61.2148H201.674V60.2578H207.484V61.2148ZM213.24 61.2148H207.43V60.2578H213.24V61.2148ZM218.996 61.2148H213.186V60.2578H218.996V61.2148ZM224.752 61.2148H218.941V60.2578H224.752V61.2148ZM230.508 61.2148H224.697V60.2578H230.508V61.2148ZM236.264 61.2148H230.453V60.2578H236.264V61.2148ZM242.02 61.2148H236.209V60.2578H242.02V61.2148ZM3.37695 101.709H4.07422C4.72591 101.709 5.21354 101.581 5.53711 101.326C5.86068 101.066 6.02246 100.69 6.02246 100.198C6.02246 99.7015 5.88574 99.3346 5.6123 99.0977C5.34342 98.8607 4.9196 98.7422 4.34082 98.7422H3.37695V101.709ZM8.16211 100.123C8.16211 101.199 7.82487 102.021 7.15039 102.591C6.48047 103.16 5.52572 103.445 4.28613 103.445H3.37695V107H1.25781V97.0059H4.4502C5.66243 97.0059 6.58301 97.2679 7.21191 97.792C7.84538 98.3115 8.16211 99.0885 8.16211 100.123ZM16.9395 107H14.8545V102.536C14.8545 101.433 14.4443 100.882 13.624 100.882C13.0407 100.882 12.6191 101.08 12.3594 101.477C12.0996 101.873 11.9697 102.516 11.9697 103.404V107H9.88477V96.3633H11.9697V98.5303C11.9697 98.6989 11.9538 99.0954 11.9219 99.7197L11.874 100.335H11.9834C12.4482 99.5876 13.1865 99.2139 14.1982 99.2139C15.096 99.2139 15.7773 99.4554 16.2422 99.9385C16.707 100.422 16.9395 101.114 16.9395 102.017V107ZM20.7471 103.165C20.7471 103.922 20.8701 104.493 21.1162 104.881C21.3669 105.268 21.7725 105.462 22.333 105.462C22.889 105.462 23.2878 105.271 23.5293 104.888C23.7754 104.5 23.8984 103.926 23.8984 103.165C23.8984 102.409 23.7754 101.841 23.5293 101.463C23.2832 101.085 22.8799 100.896 22.3193 100.896C21.7633 100.896 21.3623 101.085 21.1162 101.463C20.8701 101.837 20.7471 102.404 20.7471 103.165ZM26.0312 103.165C26.0312 104.409 25.7031 105.382 25.0469 106.084C24.3906 106.786 23.4769 107.137 22.3057 107.137C21.5719 107.137 20.9248 106.977 20.3643 106.658C19.8037 106.335 19.373 105.872 19.0723 105.271C18.7715 104.669 18.6211 103.967 18.6211 103.165C18.6211 101.916 18.9469 100.946 19.5986 100.253C20.2503 99.5602 21.1663 99.2139 22.3467 99.2139C23.0804 99.2139 23.7275 99.3734 24.2881 99.6924C24.8486 100.011 25.2793 100.469 25.5801 101.066C25.8809 101.663 26.0312 102.363 26.0312 103.165ZM34.8086 107H32.7236V102.536C32.7236 101.985 32.6257 101.572 32.4297 101.299C32.2337 101.021 31.9215 100.882 31.4932 100.882C30.9098 100.882 30.4883 101.078 30.2285 101.47C29.9688 101.857 29.8389 102.502 29.8389 103.404V107H27.7539V99.3574H29.3467L29.627 100.335H29.7432C29.9756 99.9658 30.2946 99.6878 30.7002 99.501C31.1104 99.3096 31.5752 99.2139 32.0947 99.2139C32.9834 99.2139 33.6579 99.4554 34.1182 99.9385C34.5785 100.417 34.8086 101.11 34.8086 102.017V107ZM40.1201 100.697C39.6781 100.697 39.3317 100.839 39.0811 101.121C38.8304 101.399 38.6868 101.796 38.6504 102.311H41.5762C41.5671 101.796 41.4326 101.399 41.1729 101.121C40.9131 100.839 40.5622 100.697 40.1201 100.697ZM40.4141 107.137C39.1836 107.137 38.222 106.797 37.5293 106.118C36.8366 105.439 36.4902 104.478 36.4902 103.233C36.4902 101.953 36.8092 100.964 37.4473 100.267C38.0898 99.5648 38.9762 99.2139 40.1064 99.2139C41.1865 99.2139 42.0273 99.5215 42.6289 100.137C43.2305 100.752 43.5312 101.602 43.5312 102.687V103.698H38.6025C38.6253 104.291 38.8008 104.753 39.1289 105.086C39.457 105.419 39.9173 105.585 40.5098 105.585C40.9701 105.585 41.4053 105.537 41.8154 105.441C42.2256 105.346 42.654 105.193 43.1006 104.983V106.597C42.736 106.779 42.3464 106.913 41.9316 107C41.5169 107.091 41.0111 107.137 40.4141 107.137ZM44.9326 106.022C44.9326 105.64 45.0352 105.35 45.2402 105.154C45.4453 104.958 45.7438 104.86 46.1357 104.86C46.514 104.86 46.8057 104.961 47.0107 105.161C47.2204 105.362 47.3252 105.649 47.3252 106.022C47.3252 106.382 47.2204 106.667 47.0107 106.877C46.8011 107.082 46.5094 107.185 46.1357 107.185C45.7529 107.185 45.4567 107.084 45.2471 106.884C45.0374 106.679 44.9326 106.392 44.9326 106.022ZM44.9326 100.376C44.9326 99.9932 45.0352 99.7038 45.2402 99.5078C45.4453 99.3118 45.7438 99.2139 46.1357 99.2139C46.514 99.2139 46.8057 99.3141 47.0107 99.5146C47.2204 99.7152 47.3252 100.002 47.3252 100.376C47.3252 100.745 47.2181 101.032 47.0039 101.237C46.7943 101.438 46.5049 101.538 46.1357 101.538C45.7529 101.538 45.4567 101.438 45.2471 101.237C45.0374 101.037 44.9326 100.75 44.9326 100.376ZM57.5449 109.215H51.7344V108.258H57.5449V109.215ZM63.3008 109.215H57.4902V108.258H63.3008V109.215ZM69.0566 109.215H63.2461V108.258H69.0566V109.215ZM74.8125 109.215H69.002V108.258H74.8125V109.215ZM80.5684 109.215H74.7578V108.258H80.5684V109.215ZM86.3242 109.215H80.5137V108.258H86.3242V109.215ZM92.0801 109.215H86.2695V108.258H92.0801V109.215ZM97.8359 109.215H92.0254V108.258H97.8359V109.215ZM103.592 109.215H97.7812V108.258H103.592V109.215ZM109.348 109.215H103.537V108.258H109.348V109.215ZM115.104 109.215H109.293V108.258H115.104V109.215ZM120.859 109.215H115.049V108.258H120.859V109.215ZM126.615 109.215H120.805V108.258H126.615V109.215ZM132.371 109.215H126.561V108.258H132.371V109.215ZM138.127 109.215H132.316V108.258H138.127V109.215ZM143.883 109.215H138.072V108.258H143.883V109.215ZM149.639 109.215H143.828V108.258H149.639V109.215ZM155.395 109.215H149.584V108.258H155.395V109.215ZM161.15 109.215H155.34V108.258H161.15V109.215ZM166.906 109.215H161.096V108.258H166.906V109.215ZM172.662 109.215H166.852V108.258H172.662V109.215ZM178.418 109.215H172.607V108.258H178.418V109.215ZM184.174 109.215H178.363V108.258H184.174V109.215ZM189.93 109.215H184.119V108.258H189.93V109.215ZM195.686 109.215H189.875V108.258H195.686V109.215ZM201.441 109.215H195.631V108.258H201.441V109.215ZM207.197 109.215H201.387V108.258H207.197V109.215ZM212.953 109.215H207.143V108.258H212.953V109.215ZM218.709 109.215H212.898V108.258H218.709V109.215ZM224.465 109.215H218.654V108.258H224.465V109.215ZM230.221 109.215H224.41V108.258H230.221V109.215ZM235.977 109.215H230.166V108.258H235.977V109.215ZM241.732 109.215H235.922V108.258H241.732V109.215ZM7.01367 155H1.25781V145.006H7.01367V146.742H3.37695V148.937H6.76074V150.673H3.37695V153.25H7.01367V155ZM15.7842 155H13.6992V150.536C13.6992 149.985 13.6058 149.572 13.4189 149.299C13.2367 149.021 12.9473 148.882 12.5508 148.882C12.0176 148.882 11.6302 149.078 11.3887 149.47C11.1471 149.862 11.0264 150.507 11.0264 151.404V155H8.94141V147.357H10.5342L10.8145 148.335H10.9307C11.1357 147.984 11.432 147.711 11.8193 147.515C12.2067 147.314 12.651 147.214 13.1523 147.214C14.2962 147.214 15.071 147.588 15.4766 148.335H15.6611C15.8662 147.979 16.167 147.704 16.5635 147.508C16.9645 147.312 17.4157 147.214 17.917 147.214C18.7829 147.214 19.4368 147.437 19.8789 147.884C20.3255 148.326 20.5488 149.037 20.5488 150.017V155H18.457V150.536C18.457 149.985 18.3636 149.572 18.1768 149.299C17.9945 149.021 17.7051 148.882 17.3086 148.882C16.7982 148.882 16.4154 149.064 16.1602 149.429C15.9095 149.793 15.7842 150.372 15.7842 151.165V155ZM27.5488 155L27.1455 153.961H27.0908C26.7399 154.403 26.3776 154.711 26.0039 154.884C25.6348 155.052 25.1517 155.137 24.5547 155.137C23.821 155.137 23.2422 154.927 22.8184 154.508C22.3991 154.089 22.1895 153.492 22.1895 152.717C22.1895 151.906 22.472 151.309 23.0371 150.926C23.6068 150.538 24.4635 150.324 25.6074 150.283L26.9336 150.242V149.907C26.9336 149.132 26.5371 148.745 25.7441 148.745C25.1335 148.745 24.4157 148.93 23.5908 149.299L22.9004 147.891C23.7799 147.43 24.7552 147.2 25.8262 147.2C26.8516 147.2 27.6377 147.424 28.1846 147.87C28.7314 148.317 29.0049 148.996 29.0049 149.907V155H27.5488ZM26.9336 151.459L26.127 151.486C25.5208 151.505 25.0697 151.614 24.7734 151.814C24.4772 152.015 24.3291 152.32 24.3291 152.73C24.3291 153.318 24.6663 153.612 25.3408 153.612C25.8239 153.612 26.209 153.473 26.4961 153.195C26.7878 152.917 26.9336 152.548 26.9336 152.088V151.459ZM31.0693 145.382C31.0693 144.703 31.4476 144.363 32.2041 144.363C32.9606 144.363 33.3389 144.703 33.3389 145.382C33.3389 145.705 33.2432 145.958 33.0518 146.141C32.8649 146.318 32.5824 146.407 32.2041 146.407C31.4476 146.407 31.0693 146.065 31.0693 145.382ZM33.2432 155H31.1582V147.357H33.2432V155ZM37.5225 155H35.4375V144.363H37.5225V155ZM48.207 155L47.8037 153.961H47.749C47.3981 154.403 47.0358 154.711 46.6621 154.884C46.293 155.052 45.8099 155.137 45.2129 155.137C44.4792 155.137 43.9004 154.927 43.4766 154.508C43.0573 154.089 42.8477 153.492 42.8477 152.717C42.8477 151.906 43.1302 151.309 43.6953 150.926C44.265 150.538 45.1217 150.324 46.2656 150.283L47.5918 150.242V149.907C47.5918 149.132 47.1953 148.745 46.4023 148.745C45.7917 148.745 45.0739 148.93 44.249 149.299L43.5586 147.891C44.4382 147.43 45.4134 147.2 46.4844 147.2C47.5098 147.2 48.2959 147.424 48.8428 147.87C49.3896 148.317 49.6631 148.996 49.6631 149.907V155H48.207ZM47.5918 151.459L46.7852 151.486C46.179 151.505 45.7279 151.614 45.4316 151.814C45.1354 152.015 44.9873 152.32 44.9873 152.73C44.9873 153.318 45.3245 153.612 45.999 153.612C46.4821 153.612 46.8672 153.473 47.1543 153.195C47.446 152.917 47.5918 152.548 47.5918 152.088V151.459ZM54.2363 155.137C53.3385 155.137 52.6322 154.788 52.1172 154.091C51.6068 153.394 51.3516 152.427 51.3516 151.192C51.3516 149.939 51.6113 148.964 52.1309 148.267C52.6549 147.565 53.375 147.214 54.291 147.214C55.2526 147.214 55.9863 147.588 56.4922 148.335H56.5605C56.4557 147.765 56.4033 147.257 56.4033 146.811V144.363H58.4951V155H56.8955L56.4922 154.009H56.4033C55.9294 154.761 55.207 155.137 54.2363 155.137ZM54.9678 153.476C55.501 153.476 55.8906 153.321 56.1367 153.011C56.3874 152.701 56.5241 152.174 56.5469 151.432V151.206C56.5469 150.386 56.4193 149.798 56.1641 149.442C55.9134 149.087 55.5033 148.909 54.9336 148.909C54.4688 148.909 54.1064 149.107 53.8467 149.504C53.5915 149.896 53.4639 150.468 53.4639 151.22C53.4639 151.972 53.5938 152.537 53.8535 152.915C54.1133 153.289 54.4847 153.476 54.9678 153.476ZM63.0957 155.137C62.1979 155.137 61.4915 154.788 60.9766 154.091C60.4661 153.394 60.2109 152.427 60.2109 151.192C60.2109 149.939 60.4707 148.964 60.9902 148.267C61.5143 147.565 62.2344 147.214 63.1504 147.214C64.112 147.214 64.8457 147.588 65.3516 148.335H65.4199C65.3151 147.765 65.2627 147.257 65.2627 146.811V144.363H67.3545V155H65.7549L65.3516 154.009H65.2627C64.7887 154.761 64.0664 155.137 63.0957 155.137ZM63.8271 153.476C64.3604 153.476 64.75 153.321 64.9961 153.011C65.2467 152.701 65.3835 152.174 65.4062 151.432V151.206C65.4062 150.386 65.2786 149.798 65.0234 149.442C64.7728 149.087 64.3626 148.909 63.793 148.909C63.3281 148.909 62.9658 149.107 62.7061 149.504C62.4508 149.896 62.3232 150.468 62.3232 151.22C62.3232 151.972 62.4531 152.537 62.7129 152.915C62.9727 153.289 63.3441 153.476 63.8271 153.476ZM73.8008 147.214C74.0833 147.214 74.318 147.234 74.5049 147.275L74.3477 149.23C74.179 149.185 73.974 149.162 73.7324 149.162C73.0671 149.162 72.5475 149.333 72.1738 149.675C71.8047 150.017 71.6201 150.495 71.6201 151.11V155H69.5352V147.357H71.1143L71.4219 148.643H71.5244C71.7614 148.214 72.0804 147.87 72.4814 147.61C72.887 147.346 73.3268 147.214 73.8008 147.214ZM79.0576 148.697C78.6156 148.697 78.2692 148.839 78.0186 149.121C77.7679 149.399 77.6243 149.796 77.5879 150.311H80.5137C80.5046 149.796 80.3701 149.399 80.1104 149.121C79.8506 148.839 79.4997 148.697 79.0576 148.697ZM79.3516 155.137C78.1211 155.137 77.1595 154.797 76.4668 154.118C75.7741 153.439 75.4277 152.478 75.4277 151.233C75.4277 149.953 75.7467 148.964 76.3848 148.267C77.0273 147.565 77.9137 147.214 79.0439 147.214C80.124 147.214 80.9648 147.521 81.5664 148.137C82.168 148.752 82.4688 149.602 82.4688 150.687V151.698H77.54C77.5628 152.291 77.7383 152.753 78.0664 153.086C78.3945 153.419 78.8548 153.585 79.4473 153.585C79.9076 153.585 80.3428 153.537 80.7529 153.441C81.1631 153.346 81.5915 153.193 82.0381 152.983V154.597C81.6735 154.779 81.2839 154.913 80.8691 155C80.4544 155.091 79.9486 155.137 79.3516 155.137ZM89.4961 152.73C89.4961 153.514 89.2227 154.111 88.6758 154.521C88.1335 154.932 87.32 155.137 86.2354 155.137C85.6794 155.137 85.2054 155.098 84.8135 155.021C84.4215 154.948 84.0547 154.838 83.7129 154.692V152.97C84.1003 153.152 84.5355 153.305 85.0186 153.428C85.5062 153.551 85.9346 153.612 86.3037 153.612C87.0602 153.612 87.4385 153.394 87.4385 152.956C87.4385 152.792 87.3883 152.66 87.2881 152.56C87.1878 152.455 87.0146 152.339 86.7686 152.211C86.5225 152.079 86.1943 151.926 85.7842 151.753C85.1963 151.507 84.7633 151.279 84.4854 151.069C84.2119 150.86 84.0114 150.62 83.8838 150.352C83.7607 150.078 83.6992 149.743 83.6992 149.347C83.6992 148.668 83.9613 148.144 84.4854 147.774C85.014 147.401 85.7614 147.214 86.7275 147.214C87.6481 147.214 88.5436 147.414 89.4141 147.815L88.7852 149.319C88.4023 149.155 88.0446 149.021 87.7119 148.916C87.3792 148.811 87.0397 148.759 86.6934 148.759C86.0781 148.759 85.7705 148.925 85.7705 149.258C85.7705 149.445 85.8685 149.606 86.0645 149.743C86.265 149.88 86.7002 150.083 87.3701 150.352C87.9671 150.593 88.4046 150.819 88.6826 151.028C88.9606 151.238 89.1657 151.479 89.2979 151.753C89.43 152.026 89.4961 152.352 89.4961 152.73ZM96.4551 152.73C96.4551 153.514 96.1816 154.111 95.6348 154.521C95.0924 154.932 94.279 155.137 93.1943 155.137C92.6383 155.137 92.1644 155.098 91.7725 155.021C91.3805 154.948 91.0137 154.838 90.6719 154.692V152.97C91.0592 153.152 91.4945 153.305 91.9775 153.428C92.4652 153.551 92.8936 153.612 93.2627 153.612C94.0192 153.612 94.3975 153.394 94.3975 152.956C94.3975 152.792 94.3473 152.66 94.2471 152.56C94.1468 152.455 93.9736 152.339 93.7275 152.211C93.4814 152.079 93.1533 151.926 92.7432 151.753C92.1553 151.507 91.7223 151.279 91.4443 151.069C91.1709 150.86 90.9704 150.62 90.8428 150.352C90.7197 150.078 90.6582 149.743 90.6582 149.347C90.6582 148.668 90.9202 148.144 91.4443 147.774C91.973 147.401 92.7204 147.214 93.6865 147.214C94.6071 147.214 95.5026 147.414 96.373 147.815L95.7441 149.319C95.3613 149.155 95.0036 149.021 94.6709 148.916C94.3382 148.811 93.9987 148.759 93.6523 148.759C93.0371 148.759 92.7295 148.925 92.7295 149.258C92.7295 149.445 92.8275 149.606 93.0234 149.743C93.224 149.88 93.6592 150.083 94.3291 150.352C94.9261 150.593 95.3636 150.819 95.6416 151.028C95.9196 151.238 96.1247 151.479 96.2568 151.753C96.389 152.026 96.4551 152.352 96.4551 152.73ZM97.7881 154.022C97.7881 153.64 97.8906 153.35 98.0957 153.154C98.3008 152.958 98.5993 152.86 98.9912 152.86C99.3695 152.86 99.6611 152.961 99.8662 153.161C100.076 153.362 100.181 153.649 100.181 154.022C100.181 154.382 100.076 154.667 99.8662 154.877C99.6566 155.082 99.3649 155.185 98.9912 155.185C98.6084 155.185 98.3122 155.084 98.1025 154.884C97.8929 154.679 97.7881 154.392 97.7881 154.022ZM97.7881 148.376C97.7881 147.993 97.8906 147.704 98.0957 147.508C98.3008 147.312 98.5993 147.214 98.9912 147.214C99.3695 147.214 99.6611 147.314 99.8662 147.515C100.076 147.715 100.181 148.002 100.181 148.376C100.181 148.745 100.074 149.032 99.8594 149.237C99.6497 149.438 99.3604 149.538 98.9912 149.538C98.6084 149.538 98.3122 149.438 98.1025 149.237C97.8929 149.037 97.7881 148.75 97.7881 148.376ZM110.4 157.215H104.59V156.258H110.4V157.215ZM116.156 157.215H110.346V156.258H116.156V157.215ZM121.912 157.215H116.102V156.258H121.912V157.215ZM127.668 157.215H121.857V156.258H127.668V157.215ZM133.424 157.215H127.613V156.258H133.424V157.215ZM139.18 157.215H133.369V156.258H139.18V157.215ZM144.936 157.215H139.125V156.258H144.936V157.215ZM150.691 157.215H144.881V156.258H150.691V157.215ZM156.447 157.215H150.637V156.258H156.447V157.215ZM162.203 157.215H156.393V156.258H162.203V157.215ZM167.959 157.215H162.148V156.258H167.959V157.215ZM173.715 157.215H167.904V156.258H173.715V157.215ZM179.471 157.215H173.66V156.258H179.471V157.215ZM185.227 157.215H179.416V156.258H185.227V157.215ZM190.982 157.215H185.172V156.258H190.982V157.215ZM196.738 157.215H190.928V156.258H196.738V157.215ZM202.494 157.215H196.684V156.258H202.494V157.215ZM208.25 157.215H202.439V156.258H208.25V157.215ZM214.006 157.215H208.195V156.258H214.006V157.215ZM219.762 157.215H213.951V156.258H219.762V157.215ZM225.518 157.215H219.707V156.258H225.518V157.215ZM231.273 157.215H225.463V156.258H231.273V157.215ZM237.029 157.215H231.219V156.258H237.029V157.215ZM242.785 157.215H236.975V156.258H242.785V157.215Z" fill="black"/>
</svg>
