<svg width="510" height="73" viewBox="0 0 510 73" fill="none" xmlns="http://www.w3.org/2000/svg">
<path d="M37.9336 55L34.207 42.7656H15.4688L11.7422 55H0L18.1406 3.39062H31.4648L49.6758 55H37.9336ZM31.6055 33.625C28.1602 22.5391 26.2148 16.2695 25.7695 14.8164C25.3477 13.3633 25.043 12.2148 24.8555 11.3711C24.082 14.3711 21.8672 21.7891 18.2109 33.625H31.6055ZM67.7812 55.7031C63.1641 55.7031 59.5312 53.9102 56.8828 50.3242C54.2578 46.7383 52.9453 41.7695 52.9453 35.418C52.9453 28.9727 54.2812 23.957 56.9531 20.3711C59.6484 16.7617 63.3516 14.957 68.0625 14.957C73.0078 14.957 76.7812 16.8789 79.3828 20.7227H79.7344C79.1953 17.793 78.9258 15.1797 78.9258 12.8828V0.296875H89.6836V55H81.457L79.3828 49.9023H78.9258C76.4883 53.7695 72.7734 55.7031 67.7812 55.7031ZM71.543 47.1602C74.2852 47.1602 76.2891 46.3633 77.5547 44.7695C78.8438 43.1758 79.5469 40.4688 79.6641 36.6484V35.4883C79.6641 31.2695 79.0078 28.2461 77.6953 26.418C76.4062 24.5898 74.2969 23.6758 71.3672 23.6758C68.9766 23.6758 67.1133 24.6953 65.7773 26.7344C64.4648 28.75 63.8086 31.6914 63.8086 35.5586C63.8086 39.4258 64.4766 42.332 65.8125 44.2773C67.1484 46.1992 69.0586 47.1602 71.543 47.1602ZM113.344 55.7031C108.727 55.7031 105.094 53.9102 102.445 50.3242C99.8203 46.7383 98.5078 41.7695 98.5078 35.418C98.5078 28.9727 99.8438 23.957 102.516 20.3711C105.211 16.7617 108.914 14.957 113.625 14.957C118.57 14.957 122.344 16.8789 124.945 20.7227H125.297C124.758 17.793 124.488 15.1797 124.488 12.8828V0.296875H135.246V55H127.02L124.945 49.9023H124.488C122.051 53.7695 118.336 55.7031 113.344 55.7031ZM117.105 47.1602C119.848 47.1602 121.852 46.3633 123.117 44.7695C124.406 43.1758 125.109 40.4688 125.227 36.6484V35.4883C125.227 31.2695 124.57 28.2461 123.258 26.418C121.969 24.5898 119.859 23.6758 116.93 23.6758C114.539 23.6758 112.676 24.6953 111.34 26.7344C110.027 28.75 109.371 31.6914 109.371 35.5586C109.371 39.4258 110.039 42.332 111.375 44.2773C112.711 46.1992 114.621 47.1602 117.105 47.1602ZM190.125 55L188.051 49.6562H187.77C185.965 51.9297 184.102 53.5117 182.18 54.4023C180.281 55.2695 177.797 55.7031 174.727 55.7031C170.953 55.7031 167.977 54.625 165.797 52.4688C163.641 50.3125 162.562 47.2422 162.562 43.2578C162.562 39.0859 164.016 36.0156 166.922 34.0469C169.852 32.0547 174.258 30.9531 180.141 30.7422L186.961 30.5312V28.8086C186.961 24.8242 184.922 22.832 180.844 22.832C177.703 22.832 174.012 23.7812 169.77 25.6797L166.219 18.4375C170.742 16.0703 175.758 14.8867 181.266 14.8867C186.539 14.8867 190.582 16.0352 193.395 18.332C196.207 20.6289 197.613 24.1211 197.613 28.8086V55H190.125ZM186.961 36.7891L182.812 36.9297C179.695 37.0234 177.375 37.5859 175.852 38.6172C174.328 39.6484 173.566 41.2188 173.566 43.3281C173.566 46.3516 175.301 47.8633 178.77 47.8633C181.254 47.8633 183.234 47.1484 184.711 45.7188C186.211 44.2891 186.961 42.3906 186.961 40.0234V36.7891ZM263.672 55H252.949V32.043C252.949 26.3711 250.84 23.5352 246.621 23.5352C243.621 23.5352 241.453 24.5547 240.117 26.5938C238.781 28.6328 238.113 31.9375 238.113 36.5078V55H227.391V0.296875H238.113V11.4414C238.113 12.3086 238.031 14.3477 237.867 17.5586L237.621 20.7227H238.184C240.574 16.8789 244.371 14.957 249.574 14.957C254.191 14.957 257.695 16.1992 260.086 18.6836C262.477 21.168 263.672 24.7305 263.672 29.3711V55ZM290.988 22.5859C288.715 22.5859 286.934 23.3125 285.645 24.7656C284.355 26.1953 283.617 28.2344 283.43 30.8828H298.477C298.43 28.2344 297.738 26.1953 296.402 24.7656C295.066 23.3125 293.262 22.5859 290.988 22.5859ZM292.5 55.7031C286.172 55.7031 281.227 53.957 277.664 50.4648C274.102 46.9727 272.32 42.0273 272.32 35.6289C272.32 29.043 273.961 23.957 277.242 20.3711C280.547 16.7617 285.105 14.957 290.918 14.957C296.473 14.957 300.797 16.5391 303.891 19.7031C306.984 22.8672 308.531 27.2383 308.531 32.8164V38.0195H283.184C283.301 41.0664 284.203 43.4453 285.891 45.1562C287.578 46.8672 289.945 47.7227 292.992 47.7227C295.359 47.7227 297.598 47.4766 299.707 46.9844C301.816 46.4922 304.02 45.707 306.316 44.6289V52.9258C304.441 53.8633 302.438 54.5547 300.305 55C298.172 55.4688 295.57 55.7031 292.5 55.7031ZM342.211 55L340.137 49.6562H339.855C338.051 51.9297 336.188 53.5117 334.266 54.4023C332.367 55.2695 329.883 55.7031 326.812 55.7031C323.039 55.7031 320.062 54.625 317.883 52.4688C315.727 50.3125 314.648 47.2422 314.648 43.2578C314.648 39.0859 316.102 36.0156 319.008 34.0469C321.938 32.0547 326.344 30.9531 332.227 30.7422L339.047 30.5312V28.8086C339.047 24.8242 337.008 22.832 332.93 22.832C329.789 22.832 326.098 23.7812 321.855 25.6797L318.305 18.4375C322.828 16.0703 327.844 14.8867 333.352 14.8867C338.625 14.8867 342.668 16.0352 345.48 18.332C348.293 20.6289 349.699 24.1211 349.699 28.8086V55H342.211ZM339.047 36.7891L334.898 36.9297C331.781 37.0234 329.461 37.5859 327.938 38.6172C326.414 39.6484 325.652 41.2188 325.652 43.3281C325.652 46.3516 327.387 47.8633 330.855 47.8633C333.34 47.8633 335.32 47.1484 336.797 45.7188C338.297 44.2891 339.047 42.3906 339.047 40.0234V36.7891ZM373.219 55.7031C368.602 55.7031 364.969 53.9102 362.32 50.3242C359.695 46.7383 358.383 41.7695 358.383 35.418C358.383 28.9727 359.719 23.957 362.391 20.3711C365.086 16.7617 368.789 14.957 373.5 14.957C378.445 14.957 382.219 16.8789 384.82 20.7227H385.172C384.633 17.793 384.363 15.1797 384.363 12.8828V0.296875H395.121V55H386.895L384.82 49.9023H384.363C381.926 53.7695 378.211 55.7031 373.219 55.7031ZM376.98 47.1602C379.723 47.1602 381.727 46.3633 382.992 44.7695C384.281 43.1758 384.984 40.4688 385.102 36.6484V35.4883C385.102 31.2695 384.445 28.2461 383.133 26.418C381.844 24.5898 379.734 23.6758 376.805 23.6758C374.414 23.6758 372.551 24.6953 371.215 26.7344C369.902 28.75 369.246 31.6914 369.246 35.5586C369.246 39.4258 369.914 42.332 371.25 44.2773C372.586 46.1992 374.496 47.1602 376.98 47.1602ZM405.879 5.53516C405.879 2.04297 407.824 0.296875 411.715 0.296875C415.605 0.296875 417.551 2.04297 417.551 5.53516C417.551 7.19922 417.059 8.5 416.074 9.4375C415.113 10.3516 413.66 10.8086 411.715 10.8086C407.824 10.8086 405.879 9.05078 405.879 5.53516ZM417.059 55H406.336V15.6953H417.059V55ZM464.625 55H453.902V32.043C453.902 29.207 453.398 27.0859 452.391 25.6797C451.383 24.25 449.777 23.5352 447.574 23.5352C444.574 23.5352 442.406 24.543 441.07 26.5586C439.734 28.5508 439.066 31.8672 439.066 36.5078V55H428.344V15.6953H436.535L437.977 20.7227H438.574C439.77 18.8242 441.41 17.3945 443.496 16.4336C445.605 15.4492 447.996 14.957 450.668 14.957C455.238 14.957 458.707 16.1992 461.074 18.6836C463.441 21.1445 464.625 24.707 464.625 29.3711V55ZM509.871 15.6953V21.1445L503.719 22.7266C504.844 24.4844 505.406 26.4531 505.406 28.6328C505.406 32.8516 503.93 36.1445 500.977 38.5117C498.047 40.8555 493.969 42.0273 488.742 42.0273L486.809 41.9219L485.227 41.7461C484.125 42.5898 483.574 43.5273 483.574 44.5586C483.574 46.1055 485.543 46.8789 489.48 46.8789H496.16C500.473 46.8789 503.754 47.8047 506.004 49.6562C508.277 51.5078 509.414 54.2266 509.414 57.8125C509.414 62.4062 507.492 65.9688 503.648 68.5C499.828 71.0312 494.332 72.2969 487.16 72.2969C481.676 72.2969 477.48 71.3359 474.574 69.4141C471.691 67.5156 470.25 64.8438 470.25 61.3984C470.25 59.0312 470.988 57.0508 472.465 55.457C473.941 53.8633 476.109 52.7266 478.969 52.0469C477.867 51.5781 476.906 50.8164 476.086 49.7617C475.266 48.6836 474.855 47.5469 474.855 46.3516C474.855 44.8516 475.289 43.6094 476.156 42.625C477.023 41.6172 478.277 40.6328 479.918 39.6719C477.855 38.7812 476.215 37.3516 474.996 35.3828C473.801 33.4141 473.203 31.0938 473.203 28.4219C473.203 24.1328 474.598 20.8164 477.387 18.4727C480.176 16.1289 484.16 14.957 489.34 14.957C490.441 14.957 491.742 15.0625 493.242 15.2734C494.766 15.4609 495.738 15.6016 496.16 15.6953H509.871ZM479.531 60.5547C479.531 62.0312 480.234 63.1914 481.641 64.0352C483.07 64.8789 485.062 65.3008 487.617 65.3008C491.461 65.3008 494.473 64.7734 496.652 63.7188C498.832 62.6641 499.922 61.2227 499.922 59.3945C499.922 57.918 499.277 56.8984 497.988 56.3359C496.699 55.7734 494.707 55.4922 492.012 55.4922H486.457C484.488 55.4922 482.836 55.9492 481.5 56.8633C480.188 57.8008 479.531 59.0312 479.531 60.5547ZM483.434 28.5625C483.434 30.6953 483.914 32.3828 484.875 33.625C485.859 34.8672 487.348 35.4883 489.34 35.4883C491.355 35.4883 492.832 34.8672 493.77 33.625C494.707 32.3828 495.176 30.6953 495.176 28.5625C495.176 23.8281 493.23 21.4609 489.34 21.4609C485.402 21.4609 483.434 23.8281 483.434 28.5625Z" fill="black"/>
</svg>
