<svg width="765" height="131" viewBox="0 0 765 131" fill="none" xmlns="http://www.w3.org/2000/svg">
<path d="M49.5244 100L44.6592 84.0273H20.1953L15.3301 100H0L23.6836 32.6211H41.0791L64.8545 100H49.5244ZM41.2627 72.0938C36.7646 57.6204 34.2249 49.4352 33.6436 47.5381C33.0928 45.641 32.695 44.1416 32.4502 43.04C31.4404 46.9567 28.5488 56.6413 23.7754 72.0938H41.2627ZM88.4922 100.918C82.4642 100.918 77.7214 98.5771 74.2637 93.8955C70.8366 89.2139 69.123 82.7269 69.123 74.4346C69.123 66.0199 70.8672 59.4717 74.3555 54.79C77.8743 50.0778 82.709 47.7217 88.8594 47.7217C95.3158 47.7217 100.242 50.2308 103.639 55.249H104.098C103.394 51.4242 103.042 48.0124 103.042 45.0137V28.582H117.087V100H106.347L103.639 93.3447H103.042C99.8597 98.3936 95.0098 100.918 88.4922 100.918ZM93.4033 89.7646C96.9834 89.7646 99.5996 88.7243 101.252 86.6436C102.935 84.5628 103.853 81.0286 104.006 76.041V74.5264C104.006 69.0186 103.149 65.0713 101.436 62.6846C99.7526 60.2979 96.9987 59.1045 93.1738 59.1045C90.0527 59.1045 87.6201 60.4355 85.876 63.0977C84.1624 65.7292 83.3057 69.5693 83.3057 74.6182C83.3057 79.667 84.1777 83.4613 85.9219 86.001C87.666 88.5101 90.1598 89.7646 93.4033 89.7646ZM147.977 100.918C141.949 100.918 137.206 98.5771 133.748 93.8955C130.321 89.2139 128.607 82.7269 128.607 74.4346C128.607 66.0199 130.352 59.4717 133.84 54.79C137.359 50.0778 142.193 47.7217 148.344 47.7217C154.8 47.7217 159.727 50.2308 163.123 55.249H163.582C162.878 51.4242 162.526 48.0124 162.526 45.0137V28.582H176.571V100H165.831L163.123 93.3447H162.526C159.344 98.3936 154.494 100.918 147.977 100.918ZM152.888 89.7646C156.468 89.7646 159.084 88.7243 160.736 86.6436C162.419 84.5628 163.337 81.0286 163.49 76.041V74.5264C163.49 69.0186 162.633 65.0713 160.92 62.6846C159.237 60.2979 156.483 59.1045 152.658 59.1045C149.537 59.1045 147.104 60.4355 145.36 63.0977C143.647 65.7292 142.79 69.5693 142.79 74.6182C142.79 79.667 143.662 83.4613 145.406 86.001C147.15 88.5101 149.644 89.7646 152.888 89.7646ZM248.219 100L245.511 93.0234H245.144C242.787 95.9915 240.355 98.057 237.846 99.2197C235.367 100.352 232.124 100.918 228.115 100.918C223.189 100.918 219.303 99.5104 216.457 96.6953C213.642 93.8802 212.234 89.8717 212.234 84.6699C212.234 79.2233 214.132 75.2148 217.926 72.6445C221.751 70.0436 227.503 68.6055 235.184 68.3301L244.088 68.0547V65.8057C244.088 60.6038 241.426 58.0029 236.102 58.0029C232.001 58.0029 227.182 59.2422 221.644 61.7207L217.008 52.2656C222.913 49.1751 229.462 47.6299 236.652 47.6299C243.537 47.6299 248.815 49.1292 252.487 52.1279C256.159 55.1266 257.995 59.6859 257.995 65.8057V100H248.219ZM244.088 76.2246L238.672 76.4082C234.602 76.5306 231.573 77.265 229.584 78.6113C227.595 79.9577 226.601 82.0078 226.601 84.7617C226.601 88.709 228.865 90.6826 233.394 90.6826C236.637 90.6826 239.223 89.7493 241.15 87.8828C243.109 86.0163 244.088 83.5378 244.088 80.4473V76.2246ZM344.238 100H330.239V70.0283C330.239 62.6234 327.485 58.9209 321.978 58.9209C318.061 58.9209 315.23 60.252 313.486 62.9141C311.742 65.5762 310.87 69.8906 310.87 75.8574V100H296.871V28.582H310.87V43.1318C310.87 44.264 310.763 46.9261 310.549 51.1182L310.228 55.249H310.962C314.083 50.2308 319.04 47.7217 325.833 47.7217C331.861 47.7217 336.436 49.3434 339.557 52.5869C342.678 55.8304 344.238 60.4814 344.238 66.54V100ZM379.901 57.6816C376.933 57.6816 374.608 58.6302 372.925 60.5273C371.242 62.3939 370.278 65.056 370.033 68.5137H389.678C389.617 65.056 388.714 62.3939 386.97 60.5273C385.226 58.6302 382.869 57.6816 379.901 57.6816ZM381.875 100.918C373.613 100.918 367.157 98.6383 362.506 94.0791C357.855 89.5199 355.529 83.0635 355.529 74.71C355.529 66.1117 357.671 59.4717 361.955 54.79C366.27 50.0778 372.221 47.7217 379.81 47.7217C387.062 47.7217 392.707 49.7871 396.746 53.918C400.785 58.0488 402.805 63.7555 402.805 71.0381V77.8311H369.712C369.865 81.8089 371.043 84.9147 373.246 87.1484C375.449 89.3822 378.54 90.499 382.518 90.499C385.608 90.499 388.53 90.1777 391.284 89.5352C394.038 88.8926 396.914 87.8675 399.913 86.46V97.292C397.465 98.516 394.849 99.4186 392.064 100C389.28 100.612 385.883 100.918 381.875 100.918ZM446.775 100L444.067 93.0234H443.7C441.344 95.9915 438.911 98.057 436.402 99.2197C433.924 100.352 430.68 100.918 426.672 100.918C421.745 100.918 417.859 99.5104 415.014 96.6953C412.199 93.8802 410.791 89.8717 410.791 84.6699C410.791 79.2233 412.688 75.2148 416.482 72.6445C420.307 70.0436 426.06 68.6055 433.74 68.3301L442.645 68.0547V65.8057C442.645 60.6038 439.982 58.0029 434.658 58.0029C430.558 58.0029 425.739 59.2422 420.2 61.7207L415.564 52.2656C421.47 49.1751 428.018 47.6299 435.209 47.6299C442.094 47.6299 447.372 49.1292 451.044 52.1279C454.716 55.1266 456.552 59.6859 456.552 65.8057V100H446.775ZM442.645 76.2246L437.229 76.4082C433.159 76.5306 430.13 77.265 428.141 78.6113C426.152 79.9577 425.157 82.0078 425.157 84.7617C425.157 88.709 427.422 90.6826 431.95 90.6826C435.194 90.6826 437.779 89.7493 439.707 87.8828C441.665 86.0163 442.645 83.5378 442.645 80.4473V76.2246ZM487.258 100.918C481.23 100.918 476.487 98.5771 473.029 93.8955C469.602 89.2139 467.889 82.7269 467.889 74.4346C467.889 66.0199 469.633 59.4717 473.121 54.79C476.64 50.0778 481.475 47.7217 487.625 47.7217C494.081 47.7217 499.008 50.2308 502.404 55.249H502.863C502.16 51.4242 501.808 48.0124 501.808 45.0137V28.582H515.853V100H505.112L502.404 93.3447H501.808C498.625 98.3936 493.775 100.918 487.258 100.918ZM492.169 89.7646C495.749 89.7646 498.365 88.7243 500.018 86.6436C501.701 84.5628 502.618 81.0286 502.771 76.041V74.5264C502.771 69.0186 501.915 65.0713 500.201 62.6846C498.518 60.2979 495.764 59.1045 491.939 59.1045C488.818 59.1045 486.386 60.4355 484.642 63.0977C482.928 65.7292 482.071 69.5693 482.071 74.6182C482.071 79.667 482.943 83.4613 484.688 86.001C486.432 88.5101 488.925 89.7646 492.169 89.7646ZM529.897 35.4209C529.897 30.8617 532.437 28.582 537.517 28.582C542.596 28.582 545.136 30.8617 545.136 35.4209C545.136 37.5934 544.493 39.2917 543.208 40.5156C541.953 41.709 540.056 42.3057 537.517 42.3057C532.437 42.3057 529.897 40.0107 529.897 35.4209ZM544.493 100H530.494V48.6855H544.493V100ZM606.594 100H592.595V70.0283C592.595 66.3258 591.937 63.5566 590.621 61.7207C589.305 59.8542 587.209 58.9209 584.333 58.9209C580.416 58.9209 577.586 60.2367 575.842 62.8682C574.098 65.4691 573.226 69.7988 573.226 75.8574V100H559.227V48.6855H569.921L571.803 55.249H572.583C574.144 52.7705 576.285 50.904 579.009 49.6494C581.763 48.3643 584.884 47.7217 588.372 47.7217C594.339 47.7217 598.868 49.3434 601.958 52.5869C605.049 55.7998 606.594 60.4508 606.594 66.54V100ZM665.665 48.6855V55.7998L657.633 57.8652C659.102 60.1602 659.836 62.7305 659.836 65.5762C659.836 71.084 657.908 75.3831 654.053 78.4736C650.228 81.5335 644.904 83.0635 638.08 83.0635L635.556 82.9258L633.49 82.6963C632.052 83.7979 631.333 85.0218 631.333 86.3682C631.333 88.3877 633.903 89.3975 639.044 89.3975H647.765C653.395 89.3975 657.679 90.6061 660.616 93.0234C663.584 95.4408 665.068 98.9902 665.068 103.672C665.068 109.669 662.559 114.32 657.541 117.625C652.553 120.93 645.378 122.582 636.015 122.582C628.854 122.582 623.377 121.327 619.583 118.818C615.819 116.34 613.938 112.852 613.938 108.354C613.938 105.263 614.901 102.677 616.829 100.597C618.757 98.516 621.587 97.0319 625.32 96.1445C623.882 95.5326 622.628 94.5381 621.557 93.1611C620.486 91.7536 619.95 90.2695 619.95 88.709C619.95 86.7507 620.516 85.1289 621.648 83.8438C622.781 82.528 624.418 81.2428 626.56 79.9883C623.867 78.8255 621.725 76.959 620.134 74.3887C618.573 71.8184 617.793 68.7891 617.793 65.3008C617.793 59.7012 619.614 55.3714 623.255 52.3115C626.896 49.2516 632.098 47.7217 638.86 47.7217C640.299 47.7217 641.997 47.8594 643.955 48.1348C645.944 48.3796 647.214 48.5632 647.765 48.6855H665.665ZM626.055 107.252C626.055 109.18 626.973 110.694 628.809 111.796C630.675 112.897 633.276 113.448 636.611 113.448C641.63 113.448 645.562 112.76 648.407 111.383C651.253 110.006 652.676 108.124 652.676 105.737C652.676 103.81 651.834 102.479 650.151 101.744C648.468 101.01 645.868 100.643 642.349 100.643H635.097C632.526 100.643 630.369 101.239 628.625 102.433C626.911 103.657 626.055 105.263 626.055 107.252ZM631.149 65.4844C631.149 68.2689 631.777 70.472 633.031 72.0938C634.316 73.7155 636.259 74.5264 638.86 74.5264C641.492 74.5264 643.42 73.7155 644.644 72.0938C645.868 70.472 646.479 68.2689 646.479 65.4844C646.479 59.3034 643.94 56.2129 638.86 56.2129C633.72 56.2129 631.149 59.3034 631.149 65.4844Z" fill="black"/>
</svg>
