<svg width="658" height="100" viewBox="0 0 658 100" fill="none" xmlns="http://www.w3.org/2000/svg">
<path d="M37.9336 77L34.207 64.7656H15.4688L11.7422 77H0L18.1406 25.3906H31.4648L49.6758 77H37.9336ZM31.6055 55.625C28.1602 44.5391 26.2148 38.2695 25.7695 36.8164C25.3477 35.3633 25.043 34.2148 24.8555 33.3711C24.082 36.3711 21.8672 43.7891 18.2109 55.625H31.6055ZM67.7812 77.7031C63.1641 77.7031 59.5312 75.9102 56.8828 72.3242C54.2578 68.7383 52.9453 63.7695 52.9453 57.418C52.9453 50.9727 54.2812 45.957 56.9531 42.3711C59.6484 38.7617 63.3516 36.957 68.0625 36.957C73.0078 36.957 76.7812 38.8789 79.3828 42.7227H79.7344C79.1953 39.793 78.9258 37.1797 78.9258 34.8828V22.2969H89.6836V77H81.457L79.3828 71.9023H78.9258C76.4883 75.7695 72.7734 77.7031 67.7812 77.7031ZM71.543 69.1602C74.2852 69.1602 76.2891 68.3633 77.5547 66.7695C78.8438 65.1758 79.5469 62.4688 79.6641 58.6484V57.4883C79.6641 53.2695 79.0078 50.2461 77.6953 48.418C76.4062 46.5898 74.2969 45.6758 71.3672 45.6758C68.9766 45.6758 67.1133 46.6953 65.7773 48.7344C64.4648 50.75 63.8086 53.6914 63.8086 57.5586C63.8086 61.4258 64.4766 64.332 65.8125 66.2773C67.1484 68.1992 69.0586 69.1602 71.543 69.1602ZM113.344 77.7031C108.727 77.7031 105.094 75.9102 102.445 72.3242C99.8203 68.7383 98.5078 63.7695 98.5078 57.418C98.5078 50.9727 99.8438 45.957 102.516 42.3711C105.211 38.7617 108.914 36.957 113.625 36.957C118.57 36.957 122.344 38.8789 124.945 42.7227H125.297C124.758 39.793 124.488 37.1797 124.488 34.8828V22.2969H135.246V77H127.02L124.945 71.9023H124.488C122.051 75.7695 118.336 77.7031 113.344 77.7031ZM117.105 69.1602C119.848 69.1602 121.852 68.3633 123.117 66.7695C124.406 65.1758 125.109 62.4688 125.227 58.6484V57.4883C125.227 53.2695 124.57 50.2461 123.258 48.418C121.969 46.5898 119.859 45.6758 116.93 45.6758C114.539 45.6758 112.676 46.6953 111.34 48.7344C110.027 50.75 109.371 53.6914 109.371 57.5586C109.371 61.4258 110.039 64.332 111.375 66.2773C112.711 68.1992 114.621 69.1602 117.105 69.1602ZM190.125 77L188.051 71.6562H187.77C185.965 73.9297 184.102 75.5117 182.18 76.4023C180.281 77.2695 177.797 77.7031 174.727 77.7031C170.953 77.7031 167.977 76.625 165.797 74.4688C163.641 72.3125 162.562 69.2422 162.562 65.2578C162.562 61.0859 164.016 58.0156 166.922 56.0469C169.852 54.0547 174.258 52.9531 180.141 52.7422L186.961 52.5312V50.8086C186.961 46.8242 184.922 44.832 180.844 44.832C177.703 44.832 174.012 45.7812 169.77 47.6797L166.219 40.4375C170.742 38.0703 175.758 36.8867 181.266 36.8867C186.539 36.8867 190.582 38.0352 193.395 40.332C196.207 42.6289 197.613 46.1211 197.613 50.8086V77H190.125ZM186.961 58.7891L182.812 58.9297C179.695 59.0234 177.375 59.5859 175.852 60.6172C174.328 61.6484 173.566 63.2188 173.566 65.3281C173.566 68.3516 175.301 69.8633 178.77 69.8633C181.254 69.8633 183.234 69.1484 184.711 67.7188C186.211 66.2891 186.961 64.3906 186.961 62.0234V58.7891ZM263.672 77H252.949V54.043C252.949 48.3711 250.84 45.5352 246.621 45.5352C243.621 45.5352 241.453 46.5547 240.117 48.5938C238.781 50.6328 238.113 53.9375 238.113 58.5078V77H227.391V22.2969H238.113V33.4414C238.113 34.3086 238.031 36.3477 237.867 39.5586L237.621 42.7227H238.184C240.574 38.8789 244.371 36.957 249.574 36.957C254.191 36.957 257.695 38.1992 260.086 40.6836C262.477 43.168 263.672 46.7305 263.672 51.3711V77ZM290.988 44.5859C288.715 44.5859 286.934 45.3125 285.645 46.7656C284.355 48.1953 283.617 50.2344 283.43 52.8828H298.477C298.43 50.2344 297.738 48.1953 296.402 46.7656C295.066 45.3125 293.262 44.5859 290.988 44.5859ZM292.5 77.7031C286.172 77.7031 281.227 75.957 277.664 72.4648C274.102 68.9727 272.32 64.0273 272.32 57.6289C272.32 51.043 273.961 45.957 277.242 42.3711C280.547 38.7617 285.105 36.957 290.918 36.957C296.473 36.957 300.797 38.5391 303.891 41.7031C306.984 44.8672 308.531 49.2383 308.531 54.8164V60.0195H283.184C283.301 63.0664 284.203 65.4453 285.891 67.1562C287.578 68.8672 289.945 69.7227 292.992 69.7227C295.359 69.7227 297.598 69.4766 299.707 68.9844C301.816 68.4922 304.02 67.707 306.316 66.6289V74.9258C304.441 75.8633 302.438 76.5547 300.305 77C298.172 77.4688 295.57 77.7031 292.5 77.7031ZM342.211 77L340.137 71.6562H339.855C338.051 73.9297 336.188 75.5117 334.266 76.4023C332.367 77.2695 329.883 77.7031 326.812 77.7031C323.039 77.7031 320.062 76.625 317.883 74.4688C315.727 72.3125 314.648 69.2422 314.648 65.2578C314.648 61.0859 316.102 58.0156 319.008 56.0469C321.938 54.0547 326.344 52.9531 332.227 52.7422L339.047 52.5312V50.8086C339.047 46.8242 337.008 44.832 332.93 44.832C329.789 44.832 326.098 45.7812 321.855 47.6797L318.305 40.4375C322.828 38.0703 327.844 36.8867 333.352 36.8867C338.625 36.8867 342.668 38.0352 345.48 40.332C348.293 42.6289 349.699 46.1211 349.699 50.8086V77H342.211ZM339.047 58.7891L334.898 58.9297C331.781 59.0234 329.461 59.5859 327.938 60.6172C326.414 61.6484 325.652 63.2188 325.652 65.3281C325.652 68.3516 327.387 69.8633 330.855 69.8633C333.34 69.8633 335.32 69.1484 336.797 67.7188C338.297 66.2891 339.047 64.3906 339.047 62.0234V58.7891ZM373.219 77.7031C368.602 77.7031 364.969 75.9102 362.32 72.3242C359.695 68.7383 358.383 63.7695 358.383 57.418C358.383 50.9727 359.719 45.957 362.391 42.3711C365.086 38.7617 368.789 36.957 373.5 36.957C378.445 36.957 382.219 38.8789 384.82 42.7227H385.172C384.633 39.793 384.363 37.1797 384.363 34.8828V22.2969H395.121V77H386.895L384.82 71.9023H384.363C381.926 75.7695 378.211 77.7031 373.219 77.7031ZM376.98 69.1602C379.723 69.1602 381.727 68.3633 382.992 66.7695C384.281 65.1758 384.984 62.4688 385.102 58.6484V57.4883C385.102 53.2695 384.445 50.2461 383.133 48.418C381.844 46.5898 379.734 45.6758 376.805 45.6758C374.414 45.6758 372.551 46.6953 371.215 48.7344C369.902 50.75 369.246 53.6914 369.246 57.5586C369.246 61.4258 369.914 64.332 371.25 66.2773C372.586 68.1992 374.496 69.1602 376.98 69.1602ZM405.879 27.5352C405.879 24.043 407.824 22.2969 411.715 22.2969C415.605 22.2969 417.551 24.043 417.551 27.5352C417.551 29.1992 417.059 30.5 416.074 31.4375C415.113 32.3516 413.66 32.8086 411.715 32.8086C407.824 32.8086 405.879 31.0508 405.879 27.5352ZM417.059 77H406.336V37.6953H417.059V77ZM464.625 77H453.902V54.043C453.902 51.207 453.398 49.0859 452.391 47.6797C451.383 46.25 449.777 45.5352 447.574 45.5352C444.574 45.5352 442.406 46.543 441.07 48.5586C439.734 50.5508 439.066 53.8672 439.066 58.5078V77H428.344V37.6953H436.535L437.977 42.7227H438.574C439.77 40.8242 441.41 39.3945 443.496 38.4336C445.605 37.4492 447.996 36.957 450.668 36.957C455.238 36.957 458.707 38.1992 461.074 40.6836C463.441 43.1445 464.625 46.707 464.625 51.3711V77ZM509.871 37.6953V43.1445L503.719 44.7266C504.844 46.4844 505.406 48.4531 505.406 50.6328C505.406 54.8516 503.93 58.1445 500.977 60.5117C498.047 62.8555 493.969 64.0273 488.742 64.0273L486.809 63.9219L485.227 63.7461C484.125 64.5898 483.574 65.5273 483.574 66.5586C483.574 68.1055 485.543 68.8789 489.48 68.8789H496.16C500.473 68.8789 503.754 69.8047 506.004 71.6562C508.277 73.5078 509.414 76.2266 509.414 79.8125C509.414 84.4062 507.492 87.9688 503.648 90.5C499.828 93.0312 494.332 94.2969 487.16 94.2969C481.676 94.2969 477.48 93.3359 474.574 91.4141C471.691 89.5156 470.25 86.8438 470.25 83.3984C470.25 81.0312 470.988 79.0508 472.465 77.457C473.941 75.8633 476.109 74.7266 478.969 74.0469C477.867 73.5781 476.906 72.8164 476.086 71.7617C475.266 70.6836 474.855 69.5469 474.855 68.3516C474.855 66.8516 475.289 65.6094 476.156 64.625C477.023 63.6172 478.277 62.6328 479.918 61.6719C477.855 60.7812 476.215 59.3516 474.996 57.3828C473.801 55.4141 473.203 53.0938 473.203 50.4219C473.203 46.1328 474.598 42.8164 477.387 40.4727C480.176 38.1289 484.16 36.957 489.34 36.957C490.441 36.957 491.742 37.0625 493.242 37.2734C494.766 37.4609 495.738 37.6016 496.16 37.6953H509.871ZM479.531 82.5547C479.531 84.0312 480.234 85.1914 481.641 86.0352C483.07 86.8789 485.062 87.3008 487.617 87.3008C491.461 87.3008 494.473 86.7734 496.652 85.7188C498.832 84.6641 499.922 83.2227 499.922 81.3945C499.922 79.918 499.277 78.8984 497.988 78.3359C496.699 77.7734 494.707 77.4922 492.012 77.4922H486.457C484.488 77.4922 482.836 77.9492 481.5 78.8633C480.188 79.8008 479.531 81.0312 479.531 82.5547ZM483.434 50.5625C483.434 52.6953 483.914 54.3828 484.875 55.625C485.859 56.8672 487.348 57.4883 489.34 57.4883C491.355 57.4883 492.832 56.8672 493.77 55.625C494.707 54.3828 495.176 52.6953 495.176 50.5625C495.176 45.8281 493.23 43.4609 489.34 43.4609C485.402 43.4609 483.434 45.8281 483.434 50.5625Z" fill="black"/>
</svg>
