<svg xmlns="http://www.w3.org/2000/svg" xmlns:xlink="http://www.w3.org/1999/xlink" version="1.1" x="0px" y="0px" viewBox="0 0 2000 50" enable-background="new 0 0 2000 50" xml:space="preserve" style="fill: rgb(0, 0, 0);">
<g id="__id274_sndj4446ka">
	<rect x="0" width="2000" height="50" style="fill: none;"></rect>
	<g id="__id275_sndj4446ka">
		<rect x="1900" width="50" height="20" style="fill: rgb(6 137 195);"></rect>
		<rect x="1800" width="50" height="20" style="fill: rgb(6 137 195);"></rect>
		<rect x="1700" width="50" height="20" style="fill: rgb(6 137 195);"></rect>
		<rect x="1500" width="50" height="20" style="fill: rgb(6 137 195);"></rect>
		<rect x="1400" width="50" height="20" style="fill: rgb(6 137 195);"></rect>
		<rect x="1600" width="50" height="20" style="fill: rgb(6 137 195);"></rect>
		<rect x="1300" width="50" height="20" style="fill: rgb(6 137 195);"></rect>
		<rect x="200" width="50" height="20" style="fill: rgb(6 137 195);"></rect>
		<rect x="300" width="50" height="20" style="fill: rgb(6 137 195);"></rect>
		<rect x="400" width="50" height="20" style="fill: rgb(6 137 195);"></rect>
		<rect x="100" width="50" height="20" style="fill: rgb(6 137 195);"></rect>
		<rect x="0" width="50" height="20" style="fill: rgb(6 137 195);"></rect>
		<rect x="600" width="50" height="20" style="fill: rgb(6 137 195);"></rect>
		<rect x="900" width="50" height="20" style="fill: rgb(6 137 195);"></rect>
		<rect x="1000" width="50" height="20" style="fill: rgb(6 137 195);"></rect>
		<rect x="1100" width="50" height="20" style="fill: rgb(6 137 195);"></rect>
		<rect x="700" width="50" height="20" style="fill: rgb(6 137 195);"></rect>
		<rect x="1200" width="50" height="20" style="fill:rgb(6 137 195);"></rect>
		<rect x="800" width="50" height="20" style="fill: rgb(6 137 195);"></rect>
		<rect x="500" width="50" height="20" style="fill: rgb(6 137 195);"></rect>
	</g>
</g>
<g id="__id276_sndj4446ka">
</g>
<g id="__id277_sndj4446ka">
</g>
</svg>