<svg xmlns="http://www.w3.org/2000/svg" xmlns:xlink="http://www.w3.org/1999/xlink" version="1.1" x="0px" y="0px" viewBox="0 0 360 439.336" enable-background="new 0 0 360 439.336" xml:space="preserve" style="fill: rgb(0, 0, 0);">
<g id="__id827_sqxbocntid">
	<g id="__id828_sqxbocntid">
		<rect y="165.438" width="360" height="193.5" style="fill: rgb(126, 51, 78);"></rect>
	</g>
	<g id="__id829_sqxbocntid">
		<rect y="165.438" opacity="0.37" width="360" height="193.5" style="fill: rgb(126, 51, 78);"></rect>
	</g>
	<g id="__id830_sqxbocntid">
		<polygon points="360,165.5 0,165.5 180,0   " style="fill: rgb(126, 51, 78);"></polygon>
	</g>
	<g id="__id831_sqxbocntid">
		<rect x="28" y="60.613" width="304" height="287.148" style="fill: rgb(255, 255, 255);"></rect>
	</g>
	<g id="__id832_sqxbocntid">
		<path d="M0,416.344c0,12.477,9.156,22.992,20.453,22.992h319.094c11.297,0,20.453-10.316,20.453-22.793    c0,0-360-257.254-360-251.012V416.344z" style="fill: rgb(126, 51, 78);"></path>
		<path d="M360,416.344c0,12.477-9.156,22.992-20.453,22.992H20.453C9.156,439.336,0,429.02,0,416.543    c0,0,360-257.254,360-251.012V416.344z" style="fill: rgb(126, 51, 78);"></path>
	</g>
	<g id="__id833_sqxbocntid">
		<path opacity="0.24" d="M360,416.344c0,12.477-9.156,22.992-20.453,22.992H20.453    C9.156,439.336,0,429.02,0,416.543c0,0,360-257.254,360-251.012V416.344z" style="fill: rgb(255, 255, 255);"></path>
	</g>
	<g id="__id834_sqxbocntid">
		<path id="__id835_sqxbocntid" d="M180.695,122.453c-8.234-12.727-21.961-21.633-38.422-21.633    c-23.336,0-41.168,21.238-41.168,38.188c0,32.895,24.699,48.367,79.59,96.73c54.895-48.363,79.598-63.836,79.598-96.73    c0-16.949-17.848-38.188-41.176-38.188C202.656,100.82,188.93,109.727,180.695,122.453z" style="fill: rgb(255, 201, 206);"></path>
	</g>
	<g id="__id836_sqxbocntid">
		<path d="M184.605,120.167c-13.437-20.151-38.138-29.59-60.895-19.674c-9.787,4.265-17.941,12.646-22.836,22.021    c-4.191,8.026-4.894,16.621-3.637,25.449c2.156,15.148,11.029,27.496,21.326,38.349c16.735,17.639,36.233,32.766,54.506,48.743    c1.478,1.292,2.951,2.588,4.424,3.885c1.944,1.711,4.461,1.711,6.404,0c18.92-16.649,38.857-32.415,56.658-50.288    c10.658-10.702,20.302-23.071,23.215-38.232c3.792-19.733-5.301-37.802-22.48-48.067c-20.913-12.496-47.947-4.456-62.046,14.34    c-0.854,1.139-1.669,2.291-2.458,3.475c-3.25,4.875,4.598,9.404,7.82,4.571c12.419-18.625,36.517-25.376,55.506-12.395    c7.584,5.185,13.254,13.524,15.248,22.46c1.336,5.984,0.048,12.962-1.673,18.745c-3.89,13.08-14.04,23.475-23.605,32.701    c-16.795,16.199-35.079,30.878-52.588,46.286c2.135,0,4.27,0,6.404,0c-17.223-15.157-35.075-29.678-51.729-45.468    c-9.802-9.294-19.845-19.659-24.214-32.747c-1.904-5.703-2.989-12.429-2.118-18.421c1.327-9.128,7.284-16.949,14.228-22.663    c18.298-15.058,44.464-6.88,56.721,11.501C180.008,129.572,187.856,125.042,184.605,120.167z" style="fill: rgb(255, 255, 255);"></path>
	</g>
</g>
</svg>