<?xml version="1.0" encoding="UTF-8"?><svg xmlns="http://www.w3.org/2000/svg" xmlns:xlink="http://www.w3.org/1999/xlink" height="100%" preserveAspectRatio="xMidYMid meet" version="1.1" viewBox="74.6 119.3 275.9 186.6" width="100%" zoomAndPan="magnify">
 <g id="surface1">
  <g id="change1_1"><path d="m85.07 296.26v0.11l0.141-0.11z" fill="#6e3c8c"/></g>
  <g id="change1_2"><path d="m340.1 296.37v-0.11h-0.14z" fill="#6e3c8c"/></g>
  <g id="change2_1"><path d="m349.2 125.76c-1.36-3.87-5-6.45-9.1-6.45h-255.03c-4.093 0-7.738 2.58-9.09 6.45-1.355 3.86-0.121 8.16 3.079 10.71l127.51 101.83c1.76 1.4 3.89 2.11 6.02 2.11 2.12 0 4.25-0.71 6.01-2.11l127.51-101.83c3.2-2.55 4.44-6.85 3.09-10.71" fill="#8f5cb4"/></g>
  <g id="change3_1"><path d="m346.14 288.73l-89.31-80.96-38.23 30.53c-1.76 1.4-3.89 2.11-6.01 2.11-2.13 0-4.26-0.71-6.02-2.11l-38.23-30.53-89.738 81.35c-2.95 2.67-3.95 6.89-2.52 10.6 1.434 3.72 5.008 6.17 8.988 6.17h255.03 0.03c5.32 0 9.63-4.31 9.63-9.63 0-3.05-1.41-5.77-3.62-7.53" fill="#78499e"/></g>
  <g id="change3_2"><path d="m346.14 288.73l-89.31-80.96-38.23 30.53c-1.76 1.4-3.89 2.11-6.01 2.11-2.13 0-4.26-0.71-6.02-2.11l-38.23-30.53-89.738 81.35c-2.95 2.67-3.95 6.89-2.52 10.6 1.434 3.72 5.008 6.17 8.988 6.17h255.03 0.03c5.32 0 9.63-4.31 9.63-9.63 0-3.05-1.41-5.77-3.62-7.53" fill="#78499e"/></g>
  <g id="change1_3"><path d="m75.613 298c-0.043-0.25-0.078-0.49-0.101-0.74 0.023 0.25 0.058 0.49 0.101 0.74" fill="#6e3c8c"/></g>
  <g id="change1_4"><path d="m77.684 302.42c0.16 0.19 0.336 0.37 0.511 0.55-0.175-0.18-0.351-0.36-0.511-0.55" fill="#6e3c8c"/></g>
  <g id="change1_5"><path d="m346.14 288.73c2.09 1.67 3.46 4.2 3.59 7.05v-166.84-0.12c0.03 2.92-1.25 5.76-3.62 7.65l-89.28 71.3 89.31 80.96" fill="#6e3c8c"/></g>
  <g id="change1_6"><path d="m78.602 289.12l89.738-81.35-89.281-71.3c-2.364-1.89-3.649-4.73-3.614-7.65 0 0.04-0.007 0.08-0.007 0.12v167.32c0 0.1 0.019 0.2 0.023 0.31-0.09-2.78 1.008-5.52 3.141-7.45" fill="#6e3c8c"/></g>
  <g id="change1_7"><path d="m76.551 300.71c-0.121-0.24-0.235-0.47-0.34-0.72 0.105 0.24 0.219 0.48 0.34 0.72" fill="#6e3c8c"/></g>
  <g id="change1_8"><path d="m75.984 299.4c-0.086-0.25-0.16-0.51-0.226-0.76 0.066 0.26 0.14 0.51 0.226 0.76" fill="#6e3c8c"/></g>
  <g id="change1_9"><path d="m80.402 304.65c-0.214-0.11-0.425-0.23-0.629-0.36 0.2 0.13 0.415 0.25 0.629 0.36" fill="#6e3c8c"/></g>
  <g id="change1_10"><path d="m77.289 301.9c-0.148-0.2-0.293-0.41-0.426-0.63 0.133 0.21 0.278 0.42 0.426 0.63" fill="#6e3c8c"/></g>
  <g id="change1_11"><path d="m83.426 305.73c-0.379-0.06-0.75-0.14-1.117-0.25 0.371 0.11 0.742 0.19 1.117 0.25" fill="#6e3c8c"/></g>
  <g id="change1_12"><path d="m83.766 305.79c0.433 0.06 0.867 0.1 1.304 0.1-0.441 0-0.875-0.04-1.304-0.1" fill="#6e3c8c"/></g>
  <g id="change1_13"><path d="m79.242 303.89c-0.199-0.14-0.398-0.3-0.586-0.46 0.188 0.16 0.387 0.31 0.586 0.46" fill="#6e3c8c"/></g>
  <g id="change1_14"><path d="m81.016 304.98c0.054 0.03 0.097 0.06 0.152 0.08 0.324 0.15 0.656 0.27 0.988 0.38-0.39-0.13-0.769-0.29-1.14-0.46" fill="#6e3c8c"/></g>
 </g>
</svg>
