<svg xmlns="http://www.w3.org/2000/svg" xmlns:xlink="http://www.w3.org/1999/xlink" version="1.1" x="0px" y="0px" viewBox="0 0 514.1 835.6" enable-background="new 0 0 514.1 835.6" xml:space="preserve" style="fill: rgb(0, 0, 0);">
<g id="__id1514_sr2f01etp">
	<path d="M279.5,349.7l-33.2,8c-3.7,0.9-7.5-1.3-8.5-5.1l-43.7-167.2l-12-45.9l-0.1-0.4c-0.1-0.2-0.1-0.5-0.1-0.7   c-3.3-14.5-10.4-28-20.9-39.1c-15.5-16.6-36.6-26.1-59.2-26.8c-0.9,0-1.9,0-2.8,0C77,72.5,56,81,40.1,96.4   c-16,15.4-25.2,36.1-25.9,58.3c-1.5,46.8,35.3,86.2,82.2,87.7c0.9,0,1.9,0,2.8,0c22.1,0,43.1-8.5,59-23.9c5.1-5,9.6-10.5,13.2-16.4   c0,0,0-0.1,0.1-0.1c0.1-0.2,0.2-0.4,0.3-0.5c0.9-1.4,2.3-2.4,4-2.9c3.8-1,7.6,1.2,8.7,5l0.8,2.9l54.9,201c0,0.1,0,0.1,0,0.2   l30.1,110.4c0,0,0,0,0,0.1l82.4,301.6l13.5-3.8L279.5,349.7z M148.2,159.1c-0.9,26.6-22.4,47.5-49.1,47.5c-0.5,0-1.1,0-1.6,0   C70.4,205.7,49.1,183,50,155.9c0.9-26.7,22.4-47.5,49.1-47.5c0.5,0,1.1,0,1.6,0C127.8,109.3,149.1,132,148.2,159.1z" style="fill: rgb(66, 33, 11);"></path>
	<polygon points="161.5,816.7 148.2,812.4 152.3,794.4 176.9,768.7  " style="fill: rgb(66, 33, 11);"></polygon>
	<path d="M180.1,758.6c-0.4-0.7-0.8-1.4-1.5-2c-2.8-2.7-7.3-2.6-10,0.2l-10.1,10.6l5.7-24.7l25.3-26.5   c2.7-2.8,2.6-7.3-0.2-10c-2.8-2.7-7.3-2.6-10,0.2l-8.9,9.3l5.2-22.5c0.4-0.3,0.8-0.6,1.1-1l26.9-28.2c2.7-2.8,2.6-7.3-0.2-10   s-7.3-2.6-10,0.2l-11.7,12.3l5.7-24.9l24.2-25.3c2.7-2.8,2.6-7.3-0.2-10c-2.8-2.7-7.3-2.6-10,0.2l-7.8,8.2l3.7-16.3   c0.9-0.4,1.7-0.9,2.4-1.6l26.9-28.2c2.7-2.8,2.6-7.3-0.2-10c-2.8-2.7-7.3-2.6-10,0.2l-13.1,13.8l5.7-24.9l25.6-26.8   c2.7-2.8,2.6-7.3-0.2-10c-2.8-2.7-7.3-2.6-10,0.2l-9.2,9.6l18.9-82.2l22.2,81.4L180.1,758.6z" style="fill: rgb(66, 33, 11);"></path>
	<path d="M417.8,72.5c-0.9,0-1.9,0-2.8,0c-22.1,0-43.1,8.5-59,23.9c-16,15.4-25.2,36.2-25.9,58.3   c-0.1,3.9,0,7.8,0.4,11.6c0,0,0,0,0,0c0.1,0.9,0,1.8-0.2,2.9l-6.3,27.4l-32.7,141.3c0.4,0.7,0.6,1.4,0.8,2.1l4.8,26l38.1-150   l0.8-3.2c1-3.8,4.8-6.1,8.6-5.1c1.7,0.4,3,1.4,3.9,2.5c0,0,0,0,0,0c15,19,37.9,31.5,64,32.4c0.9,0,1.9,0,2.8,0   c11,0,21.8-2.1,31.8-6.2c10-4,19.2-10,27.2-17.7c16-15.4,25.2-36.2,25.9-58.3C501.5,113.3,464.6,74,417.8,72.5z M464.1,159   c-0.9,26.7-22.4,47.5-49.1,47.5c-0.5,0-1.1,0-1.6,0c-27.1-0.9-48.4-23.6-47.5-50.7c0.9-26.6,22.4-47.5,49-47.5c0.5,0,1.1,0,1.6,0   C443.7,109.2,465,131.9,464.1,159z" style="fill: rgb(66, 33, 11);"></path>
	<path d="M266.4,378.2c-9.9,0-18,8.1-18,18s8.1,18,18,18c9.9,0,18-8.1,18-18S276.3,378.2,266.4,378.2z" style="fill: rgb(66, 33, 11);"></path>
	<path d="M266.4,400.1c-2.1,0-3.8-1.7-3.8-3.8s1.7-3.8,3.8-3.8s3.8,1.7,3.8,3.8S268.5,400.1,266.4,400.1z" style="fill: rgb(66, 33, 11);"></path>
</g>
<g id="__id1515_sr2f01etp">
	<path d="M418.3,58.3c-1.1,0-2.2-0.1-3.3-0.1c-25.8,0-50.2,9.9-68.8,27.8c-18.6,18-29.4,42.2-30.2,68.1   c-0.1,4.2,0,8.3,0.4,12.4l-39.1,169.2l-27.4,6.6L195.9,136c-3.8-17.2-12.1-33.1-24.5-46.3c-0.1-0.1-0.2-0.2-0.3-0.3   c-0.1-0.3-0.3-0.6-0.5-0.9c-29.2-43-69.9-64.8-99-75.5C40.3,1.5,16,0.1,15,0c-3.9-0.2-7.2,2.8-7.4,6.7c-0.2,3.9,2.8,7.2,6.7,7.5   c0.2,0,23.6,1.5,53.1,12.4c18,6.7,40.8,17.9,62,36.5c-8.6-2.7-17.7-4.3-27-4.6c-1.1,0-2.2,0-3.3,0c-25.8,0-50.2,9.9-68.8,27.8   c-18.6,18-29.3,42.2-30.2,68.1c-1.8,54.6,41.2,100.5,95.8,102.3c1.1,0,2.2,0,3.3,0c25.8,0,50.2-9.9,68.8-27.8   c2.4-2.3,4.6-4.7,6.7-7.2l51.4,188l-51.6,225.1l-0.1,0.1c-1.9,2-2.4,4.7-1.6,7.1l-21.6,94.3c-0.6,1.1-0.9,2.4-0.8,3.6l-17.4,75.8   c-0.8,3.6,1.2,7.2,4.7,8.3l26.3,8.4c0.7,0.2,1.4,0.3,2.2,0.3c1.1,0,2.2-0.3,3.2-0.8c1.7-0.9,2.9-2.3,3.5-4.1L263,545L341,830.4   c0.5,1.8,1.7,3.4,3.3,4.3c1.1,0.6,2.3,0.9,3.5,0.9c0.6,0,1.3-0.1,1.9-0.3l26.5-7.6c3.5-1,5.7-4.5,5-8.1L303.1,399l43.2-170.3   c17.1,16.5,40,26.9,65.5,27.7c1.1,0,2.2,0.1,3.3,0.1c25.8,0,50.2-9.9,68.8-27.8c18.6-18,29.3-42.2,30.2-68   C515.9,106,472.9,60.1,418.3,58.3z M161.5,816.7l-13.4-4.3l4.1-18.1l24.5-25.7L161.5,816.7z M180.1,758.6c-0.4-0.7-0.8-1.4-1.5-2   c-2.8-2.7-7.3-2.6-10,0.2l-10.1,10.6l5.7-24.7l25.3-26.5c2.7-2.8,2.6-7.3-0.2-10c-2.8-2.7-7.3-2.6-10,0.2l-8.9,9.3l5.2-22.5   c0.4-0.3,0.8-0.6,1.1-1l26.9-28.2c2.7-2.8,2.6-7.3-0.2-10s-7.3-2.6-10,0.2l-11.7,12.3l5.7-24.9l24.2-25.3c2.7-2.8,2.6-7.3-0.2-10   c-2.8-2.7-7.3-2.6-10,0.2l-7.8,8.2l3.7-16.3c0.9-0.4,1.7-0.9,2.4-1.6l26.9-28.2c2.7-2.8,2.6-7.3-0.2-10c-2.8-2.7-7.3-2.6-10,0.2   l-13.1,13.8l5.7-24.9l25.6-26.8c2.7-2.8,2.6-7.3-0.2-10c-2.8-2.7-7.3-2.6-10,0.2l-9.2,9.6l18.9-82.2l22.2,81.4L180.1,758.6z    M352.7,819.8l-82.4-301.6c0,0,0,0,0-0.1l-30.1-110.4c0-0.1,0-0.1,0-0.2l-54.9-201l-0.8-2.9c-1-3.8-4.9-6-8.7-5   c-1.7,0.5-3.1,1.5-4,2.9c-0.1,0.2-0.2,0.3-0.3,0.5c0,0-0.1,0.1-0.1,0.1c-3.7,5.9-8.1,11.4-13.2,16.4c-15.9,15.4-36.9,23.9-59,23.9   c-0.9,0-1.9,0-2.8,0c-46.8-1.5-83.7-40.8-82.2-87.7c0.7-22.2,9.9-42.9,25.9-58.3C56,81,77,72.5,99.1,72.5c0.9,0,1.9,0,2.8,0   c22.7,0.7,43.7,10.3,59.2,26.8c10.5,11.1,17.6,24.6,20.9,39.1c0,0.2,0.1,0.5,0.1,0.7l0.1,0.4l12,45.9l43.7,167.2   c1,3.7,4.8,6,8.5,5.1l33.2-8l86.7,466.2L352.7,819.8z M500,160.2c-0.7,22.2-9.9,42.9-25.9,58.3c-8,7.7-17.2,13.7-27.2,17.7   c-10,4-20.8,6.2-31.8,6.2c-0.9,0-1.9,0-2.8,0c-26-0.8-49-13.4-64-32.4c0,0,0,0,0,0c-0.9-1.2-2.3-2.1-3.9-2.5   c-3.8-1-7.6,1.3-8.6,5.1l-0.8,3.2l-38.1,150l-4.8-26c-0.1-0.7-0.4-1.5-0.8-2.1L324,196.4l6.3-27.4c0.2-1.1,0.3-2,0.2-2.9   c0,0,0,0,0,0c-0.4-3.8-0.5-7.7-0.4-11.6c0.7-22.2,9.9-42.9,25.9-58.3c15.9-15.4,36.9-23.9,59-23.9c0.9,0,1.9,0,2.8,0   C464.6,74,501.5,113.3,500,160.2z" style="fill: rgb(66, 33, 11);"></path>
	<path d="M417.1,94.2c-17.2-0.6-33.7,5.8-46,17.7c-11.9,11.5-18.7,26.9-19.3,43.4c-1.1,34.9,26.3,64.1,61.2,65.3   c0.7,0,1.4,0,2.1,0c0,0,0,0,0,0c16.5,0,32.1-6.3,43.9-17.8c11.9-11.5,18.7-26.9,19.3-43.4C479.4,124.6,452,95.3,417.1,94.2z    M464.1,159c-0.9,26.7-22.4,47.5-49.1,47.5c-0.5,0-1.1,0-1.6,0c-27.1-0.9-48.4-23.6-47.5-50.7c0.9-26.6,22.4-47.5,49-47.5   c0.5,0,1.1,0,1.6,0C443.7,109.2,465,131.9,464.1,159z" style="fill: rgb(66, 33, 11);"></path>
	<path d="M101.2,94.3c-17.3-0.6-33.7,5.8-46,17.7c-11.9,11.5-18.7,26.9-19.3,43.4c-1.1,34.9,26.3,64.1,61.2,65.3   c0.7,0,1.4,0,2.1,0c0,0,0,0,0,0c16.5,0,32.1-6.3,43.9-17.8c11.9-11.5,18.7-26.9,19.3-43.4C163.5,124.7,136,95.4,101.2,94.3z    M148.2,159.1c-0.9,26.6-22.4,47.5-49.1,47.5c-0.5,0-1.1,0-1.6,0C70.4,205.7,49.1,183,50,155.9c0.9-26.7,22.4-47.5,49.1-47.5   c0.5,0,1.1,0,1.6,0C127.8,109.3,149.1,132,148.2,159.1z" style="fill: rgb(66, 33, 11);"></path>
	<path d="M266.4,378.2c-9.9,0-18,8.1-18,18s8.1,18,18,18c9.9,0,18-8.1,18-18S276.3,378.2,266.4,378.2z M266.4,400.1   c-2.1,0-3.8-1.7-3.8-3.8s1.7-3.8,3.8-3.8s3.8,1.7,3.8,3.8S268.5,400.1,266.4,400.1z" style="fill: rgb(66, 33, 11);"></path>
</g>
</svg>