<svg width="100%" height="100%" viewBox="0 0 125 81" fill="none" xmlns="http://www.w3.org/2000/svg">
<g clip-path="url(#clip0)">
<path d="M72.6873 44.0372L71.4905 38.8063C71.3559 38.2233 71.685 37.6246 72.2534 37.467L97.2654 30.5818L104.132 28.6911L104.192 28.6754C104.221 28.6596 104.266 28.6596 104.296 28.6596C106.465 28.1397 108.485 27.021 110.145 25.3667C112.629 22.9245 114.05 19.6001 114.154 16.0393C114.154 15.8975 114.154 15.74 114.154 15.5981C114.154 12.1319 112.883 8.8232 110.579 6.31805C108.275 3.79714 105.179 2.34761 101.858 2.23732C94.857 2.00099 88.963 7.79908 88.7386 15.1885C88.7386 15.3303 88.7386 15.4879 88.7386 15.6297C88.7386 19.1117 90.0102 22.4204 92.3139 24.9255C93.0619 25.7291 93.8846 26.4381 94.7672 27.0053C94.7672 27.0053 94.7822 27.0053 94.7822 27.021C94.8121 27.0368 94.842 27.0525 94.857 27.0683C95.0664 27.2101 95.216 27.4307 95.2908 27.6985C95.4404 28.2972 95.1113 28.896 94.5428 29.0693L94.109 29.1953L64.0408 37.8452C64.0258 37.8452 64.0258 37.8452 64.0109 37.8452L47.4958 42.5876C47.4958 42.5876 47.4958 42.5876 47.4808 42.5876L2.36355 55.5703L2.932 57.6974L72.6873 44.0372ZM101.2 23.3499C97.2205 23.2081 94.094 19.8207 94.094 15.6139C94.094 15.5351 94.094 15.4406 94.094 15.3618C94.2287 11.092 97.6244 7.73606 101.678 7.87786C105.673 8.01966 108.784 11.4071 108.784 15.6139C108.784 15.6927 108.784 15.7872 108.784 15.866C108.649 20.1358 105.254 23.4917 101.2 23.3499Z" fill="#42210B"/>
<path d="M2.82728 25.4455L3.47053 23.35L6.1632 23.996L10.0078 27.8719L2.82728 25.4455Z" fill="#42210B"/>
<path d="M11.5186 28.376C11.6233 28.313 11.7281 28.25 11.8178 28.1397C12.2217 27.6985 12.2068 26.9895 11.7879 26.5641L10.2022 24.9728L13.8972 25.8709L17.8614 29.857C18.2802 30.2824 18.9534 30.2667 19.3573 29.8255C19.7612 29.3844 19.7462 28.6754 19.3274 28.25L17.9362 26.8477L21.302 27.667C21.3469 27.73 21.3918 27.793 21.4516 27.8403L25.6701 32.0786C26.089 32.504 26.7622 32.4882 27.1661 32.0471C27.57 31.6059 27.555 30.8969 27.1361 30.4715L25.2962 28.6281L29.021 29.5262L32.8057 33.3391C33.2246 33.7645 33.8978 33.7487 34.3017 33.3075C34.7056 32.8664 34.6906 32.1574 34.2717 31.732L33.0451 30.503L35.4834 31.086C35.5433 31.2278 35.6181 31.3538 35.7228 31.4641L39.9413 35.7024C40.3602 36.1278 41.0334 36.1121 41.4373 35.6709C41.8412 35.2297 41.8262 34.5207 41.4073 34.0953L39.343 32.0313L43.0678 32.9294L47.0769 36.9629C47.4958 37.3883 48.1689 37.3725 48.5728 36.9313C48.9767 36.4902 48.9618 35.7812 48.5429 35.3558L47.1068 33.9063L59.4034 36.8841L47.2265 40.3818L11.5186 28.376Z" fill="#42210B"/>
<path d="M114.154 65.8273C114.154 65.6855 114.154 65.5279 114.154 65.3861C114.154 61.9041 112.883 58.5954 110.579 56.0903C108.275 53.5694 105.164 52.1199 101.858 52.0096C101.275 51.9938 100.691 52.0096 100.123 52.0726C99.988 52.0883 99.8534 52.0726 99.6888 52.0411L95.59 51.0485L74.4525 45.8964C74.3478 45.9594 74.243 45.9909 74.1383 46.0224L70.2489 46.7787L92.6879 52.7816L93.1666 52.9076C93.735 53.0652 94.0791 53.6639 93.9295 54.2626C93.8697 54.5305 93.7201 54.7353 93.5555 54.8771C90.7132 57.2405 88.8433 60.8485 88.7087 64.9607C88.7087 65.1025 88.7087 65.2601 88.7087 65.4019C88.7087 67.135 89.0228 68.8366 89.6362 70.4122C90.2345 71.9878 91.1321 73.4373 92.284 74.6978C94.5877 77.2187 97.6992 78.6682 101.005 78.7785C108.051 79.0148 113.93 73.201 114.154 65.8273ZM101.215 73.1222C97.2205 72.9804 94.109 69.5929 94.109 65.3861C94.109 65.3074 94.109 65.2128 94.109 65.1341C94.2436 60.8643 97.6394 57.5083 101.693 57.6501C105.673 57.7919 108.799 61.1794 108.799 65.3704C108.799 65.4492 108.799 65.5437 108.799 65.6225C108.664 69.908 105.269 73.264 101.215 73.1222Z" fill="#42210B"/>
<path d="M68.4238 41.9731C68.4238 40.4133 67.2121 39.1371 65.7312 39.1371C64.2502 39.1371 63.0385 40.4133 63.0385 41.9731C63.0385 43.5329 64.2502 44.8091 65.7312 44.8091C67.2121 44.8091 68.4238 43.5329 68.4238 41.9731Z" fill="#42210B"/>
<path d="M65.1478 41.9731C65.1478 41.6422 65.4021 41.3744 65.7162 41.3744C66.0304 41.3744 66.2847 41.6422 66.2847 41.9731C66.2847 42.304 66.0304 42.5718 65.7162 42.5718C65.4021 42.5718 65.1478 42.304 65.1478 41.9731Z" fill="#42210B"/>
<path d="M116.279 65.9061C116.279 65.7328 116.294 65.5595 116.294 65.3862C116.294 61.3212 114.813 57.4768 112.135 54.5463C109.443 51.6157 105.823 49.9141 101.948 49.788C101.32 49.7723 100.706 49.788 100.093 49.8511L74.782 43.6906L73.7947 39.3735L104.656 30.8654C107.229 30.2667 109.607 28.959 111.582 27.0053C111.597 26.9895 111.612 26.9738 111.627 26.958C111.672 26.9423 111.717 26.9108 111.761 26.8793C118.194 22.2786 121.455 15.866 123.056 11.2811C124.776 6.34958 124.985 2.52095 125 2.36339C125.03 1.74892 124.582 1.22898 123.998 1.19747C123.415 1.16596 122.921 1.63863 122.876 2.2531C122.876 2.28461 122.652 5.97144 121.021 10.6194C120.019 13.4554 118.344 17.0477 115.561 20.3879C115.965 19.0329 116.204 17.5991 116.249 16.1339C116.249 15.9606 116.249 15.7872 116.249 15.6139C116.249 11.549 114.768 7.70457 112.091 4.77401C109.398 1.84345 105.778 0.157592 101.903 0.0157911C93.7355 -0.267811 86.8691 6.50714 86.5999 15.1097C86.5999 15.2831 86.5999 15.4564 86.5999 15.6297C86.5999 19.6947 88.0808 23.539 90.7586 26.4696C91.1026 26.8477 91.4616 27.1944 91.8356 27.5252L63.7121 35.6237L30.0387 27.4937L30.0237 27.478C29.7246 27.1786 29.3207 27.0998 28.9616 27.2259L14.855 23.8226C14.6905 23.7281 14.496 23.6808 14.3165 23.6966L2.97731 20.9551C2.43878 20.8291 1.90024 21.1442 1.73569 21.6956L0.479103 25.8394C0.449185 25.9497 0.434227 26.06 0.434227 26.186C0.434227 26.3593 0.479103 26.5326 0.5539 26.6902C0.688534 26.958 0.89797 27.1471 1.16724 27.2416L43.4722 41.4375L0.77829 53.727C0.509022 53.8057 0.269675 53.9948 0.135041 54.2469C0.0452852 54.4202 0.000412718 54.6093 0.000412718 54.7983C0.000412718 54.8929 0.0153702 55.0032 0.0452888 55.0977L1.18219 59.273C1.33179 59.8244 1.85537 60.171 2.3939 60.0608L65.3128 47.7556L90.7885 54.562C88.3202 57.2562 86.7644 60.8643 86.6447 64.882C86.6447 65.0553 86.6298 65.2286 86.6298 65.4019C86.6298 69.4669 88.1108 73.3113 90.7885 76.2418C93.4811 79.1724 97.1013 80.8583 100.961 81.0001C109.144 81.2837 116.01 74.5087 116.279 65.9061ZM2.82772 25.4455L3.47097 23.3342L6.17861 23.9802L10.0232 27.8404L2.82772 25.4455ZM11.5191 28.376C11.6238 28.313 11.7285 28.25 11.8183 28.1397C12.2222 27.6986 12.2072 26.9895 11.7883 26.5641L10.2027 24.9728L13.8976 25.8709L17.8618 29.8571C18.2807 30.2825 18.9539 30.2667 19.3578 29.8256C19.7617 29.3844 19.7467 28.6754 19.3278 28.25L17.9366 26.8477L21.3025 27.667C21.3473 27.7301 21.3922 27.7931 21.4521 27.8404L25.6706 32.0786C26.0894 32.504 26.7626 32.4883 27.1665 32.0471C27.5704 31.606 27.5555 30.897 27.1366 30.4716L25.2966 28.6281L29.0215 29.5262L32.8062 33.3391C33.225 33.7645 33.8982 33.7487 34.3021 33.3076C34.706 32.8664 34.6911 32.1574 34.2722 31.732L33.0455 30.5031L35.4839 31.086C35.5437 31.2278 35.6185 31.3539 35.7232 31.4642L39.9418 35.7024C40.3606 36.1278 41.0338 36.1121 41.4377 35.6709C41.8416 35.2298 41.8266 34.5208 41.4078 34.0954L39.3434 32.0314L43.0683 32.9294L47.0774 36.9629C47.4962 37.3883 48.1694 37.3725 48.5733 36.9314C48.9772 36.4902 48.9622 35.7812 48.5434 35.3558L47.1073 33.9063L59.4038 36.8841L47.227 40.3819L11.5191 28.376ZM2.36398 55.5704L47.4813 42.5877C47.4813 42.5877 47.4813 42.5877 47.4962 42.5877L64.0113 37.8452C64.0263 37.8452 64.0263 37.8452 64.0412 37.8452L94.1094 29.1953L94.5433 29.0693C95.1117 28.9117 95.4408 28.2973 95.2912 27.6986C95.2164 27.4307 95.0668 27.2101 94.8574 27.0683C94.8275 27.0526 94.8125 27.0368 94.7826 27.0211L94.7676 27.0053C93.885 26.4223 93.0623 25.7291 92.3143 24.9255C90.0106 22.4204 88.739 19.1117 88.739 15.6297C88.739 15.4879 88.739 15.3303 88.739 15.1885C88.9634 7.81486 94.8424 2.00101 101.858 2.23734C105.179 2.34763 108.276 3.79716 110.58 6.31807C112.883 8.82323 114.155 12.1319 114.155 15.6139C114.155 15.7557 114.155 15.9133 114.155 16.0551C114.05 19.6316 112.614 22.9403 110.146 25.3825C108.485 27.0368 106.466 28.1555 104.297 28.6754C104.267 28.6754 104.222 28.6912 104.192 28.6912L104.132 28.7069L97.2659 30.5976L72.2539 37.4828C71.7004 37.6404 71.3563 38.2391 71.491 38.8221L72.6877 44.053L2.94739 57.7131L2.36398 55.5704ZM101.036 78.7785C97.7146 78.6682 94.6181 77.2187 92.3143 74.6978C91.1625 73.4373 90.2649 71.9878 89.6665 70.4122C89.0682 68.8367 88.739 67.1351 88.739 65.4019C88.739 65.2601 88.739 65.1026 88.739 64.9608C88.8587 60.8643 90.7436 57.2405 93.5859 54.8771C93.7654 54.7353 93.9 54.5147 93.9598 54.2627C94.1094 53.6639 93.7654 53.0652 93.1969 52.9077L92.7182 52.7816L70.2793 46.7787L74.1687 46.0224C74.2734 46.0067 74.3931 45.9594 74.4828 45.8964L95.6203 51.0485L99.7192 52.0411C99.8837 52.0726 100.018 52.0884 100.153 52.0726C100.721 52.0096 101.305 51.9938 101.888 52.0096C105.209 52.1199 108.306 53.5694 110.61 56.0903C112.913 58.5955 114.185 61.9042 114.185 65.3862C114.185 65.528 114.185 65.6855 114.185 65.8273C113.931 73.201 108.052 79.0149 101.036 78.7785Z" fill="#42210B"/>
<path d="M110.908 65.717C110.998 63.007 110.041 60.4073 108.261 58.4694C106.54 56.5944 104.236 55.523 101.768 55.4285C96.5474 55.2552 92.1793 59.5723 91.9998 65.071C91.9998 65.1813 91.9998 65.2916 91.9998 65.4019C91.9998 68.0015 92.9422 70.4594 94.6625 72.3186C96.3828 74.1935 98.6866 75.2649 101.155 75.3595C106.361 75.5328 110.744 71.2157 110.908 65.717ZM101.215 73.1221C97.2206 72.9803 94.109 69.5929 94.109 65.3861C94.109 65.3073 94.109 65.2128 94.109 65.134C94.2437 60.8642 97.6394 57.5083 101.693 57.6501C105.673 57.7919 108.799 61.1793 108.799 65.3703C108.799 65.4491 108.799 65.5437 108.799 65.6224C108.664 69.908 105.269 73.2639 101.215 73.1221Z" fill="#42210B"/>
<path d="M110.893 15.9446C110.983 13.2189 110.026 10.635 108.246 8.69701C106.525 6.82208 104.222 5.7507 101.753 5.65616C96.5325 5.48285 92.1643 9.79991 91.9848 15.2986C91.9848 15.4089 91.9848 15.5192 91.9848 15.6295C91.9848 18.2292 92.9273 20.6871 94.6476 22.5463C96.3679 24.4212 98.6716 25.4926 101.14 25.5871C106.346 25.7604 110.729 21.4276 110.893 15.9446ZM101.2 23.3498C97.2206 23.208 94.0941 19.8205 94.0941 15.6138C94.0941 15.535 94.0941 15.4404 94.0941 15.3617C94.2287 11.0919 97.6245 7.73591 101.678 7.87772C105.673 8.01952 108.784 11.407 108.784 15.6138C108.784 15.6925 108.784 15.7871 108.784 15.8659C108.649 20.1356 105.254 23.4916 101.2 23.3498Z" fill="#42210B"/>
<path d="M68.4239 41.9731C68.4239 40.4133 67.2122 39.1371 65.7312 39.1371C64.2502 39.1371 63.0385 40.4133 63.0385 41.9731C63.0385 43.5329 64.2502 44.8091 65.7312 44.8091C67.2122 44.8091 68.4239 43.5329 68.4239 41.9731ZM65.1478 41.9731C65.1478 41.6422 65.4021 41.3744 65.7163 41.3744C66.0304 41.3744 66.2847 41.6422 66.2847 41.9731C66.2847 42.304 66.0304 42.5718 65.7163 42.5718C65.4021 42.5718 65.1478 42.304 65.1478 41.9731Z" fill="#42210B"/>
</g>
<defs>
<clipPath id="clip0">
<rect width="81" height="125" fill="white" transform="translate(125) rotate(90)"/>
</clipPath>
</defs>
</svg>
