<svg width="77" height="82" viewBox="0 0 77 82" fill="none" xmlns="http://www.w3.org/2000/svg">
<g clip-path="url(#clip0)">
<path d="M50.945 9.21564C43.212 14.4908 39.8087 23.54 43.3427 29.4277C43.649 29.9365 43.9958 30.4022 44.3805 30.8325L35.1584 37.1176L13.7858 22.606C11.7267 21.4188 9.27566 20.9809 6.81041 21.5555C4.45441 22.1073 2.47366 23.4944 1.07953 25.36L0.500031 26.332L25.7439 43.5343L0.500031 60.7367L1.07953 61.7087C2.47366 63.5742 4.45441 64.9614 6.81041 65.5132C9.27566 66.0903 11.7267 65.6524 13.7858 64.4627L35.1584 49.951L44.3805 56.2361C43.9958 56.6639 43.649 57.1322 43.3427 57.6385C39.8087 63.5261 43.212 72.5754 50.945 77.8505C58.678 83.1256 67.8146 82.627 71.3486 76.7418C74.8826 70.8541 71.4793 61.8049 63.7463 56.5298L44.6085 43.5343L63.7463 30.5389C71.4793 25.2638 74.8826 16.2145 71.3486 10.3269C67.8146 4.43917 58.678 3.94305 50.945 9.21817V9.21564ZM59.9059 62.9237C63.3877 65.298 65.081 68.3456 65.5062 70.4035C65.6439 71.0743 65.7294 72.0084 65.347 72.6437C64.9243 73.3474 63.808 73.8157 62.3569 73.8941C60.008 74.0207 57.2483 73.1322 54.783 71.4515C51.3013 69.0772 49.6079 66.0295 49.1828 63.9716C49.045 63.2983 48.9595 62.3643 49.3395 61.729C49.7623 61.0253 50.8785 60.557 52.3297 60.4785C54.6785 60.3494 57.4383 61.2404 59.9035 62.9212L59.9059 62.9237ZM38.5 43.5318C38.5 44.929 37.436 46.063 36.125 46.063C34.814 46.063 33.75 44.929 33.75 43.5318C33.75 42.1345 34.814 41.0005 36.125 41.0005C37.436 41.0005 38.5 42.1345 38.5 43.5318ZM62.3593 13.1695C63.808 13.2479 64.9267 13.7162 65.3494 14.4199C65.7318 15.0552 65.6463 15.9893 65.5085 16.6601C65.0834 18.7205 63.39 21.7656 59.9083 24.1399C57.4454 25.8206 54.6833 26.7116 52.3344 26.5826C50.8857 26.5041 49.767 26.0358 49.3443 25.3321C48.9643 24.6968 49.0474 23.7627 49.1875 23.0894C49.6127 21.029 51.306 17.9839 54.7878 15.6096C57.2507 13.9288 60.0128 13.0378 62.3617 13.1669L62.3593 13.1695Z" fill="#1CB5E6"/>
</g>
<defs>
<clipPath id="clip0">
<rect width="81" height="76" fill="white" transform="translate(0.500031 81.501) rotate(-90)"/>
</clipPath>
</defs>
</svg>
