<svg width="309" height="116" viewBox="0 0 309 116" fill="none" xmlns="http://www.w3.org/2000/svg">
<path d="M8.01562 13.9609C8.01562 14.9661 7.65104 15.75 6.92188 16.3125C6.19271 16.875 5.20312 17.1562 3.95312 17.1562C2.59896 17.1562 1.55729 16.9818 0.828125 16.6328V15.3516C1.29688 15.5495 1.80729 15.7057 2.35938 15.8203C2.91146 15.9349 3.45833 15.9922 4 15.9922C4.88542 15.9922 5.55208 15.8255 6 15.4922C6.44792 15.1536 6.67188 14.6849 6.67188 14.0859C6.67188 13.6901 6.59115 13.3672 6.42969 13.1172C6.27344 12.862 6.00781 12.6276 5.63281 12.4141C5.26302 12.2005 4.69792 11.9583 3.9375 11.6875C2.875 11.3073 2.11458 10.8568 1.65625 10.3359C1.20312 9.8151 0.976562 9.13542 0.976562 8.29688C0.976562 7.41667 1.30729 6.71615 1.96875 6.19531C2.63021 5.67448 3.50521 5.41406 4.59375 5.41406C5.72917 5.41406 6.77344 5.6224 7.72656 6.03906L7.3125 7.19531C6.36979 6.79948 5.45312 6.60156 4.5625 6.60156C3.85938 6.60156 3.3099 6.7526 2.91406 7.05469C2.51823 7.35677 2.32031 7.77604 2.32031 8.3125C2.32031 8.70833 2.39323 9.03385 2.53906 9.28906C2.6849 9.53906 2.92969 9.77083 3.27344 9.98438C3.6224 10.1927 4.15365 10.4245 4.86719 10.6797C6.0651 11.1068 6.88802 11.5651 7.33594 12.0547C7.78906 12.5443 8.01562 13.1797 8.01562 13.9609ZM11.4531 17H10.1562V8.4375H11.4531V17ZM10.0469 6.11719C10.0469 5.82031 10.1198 5.60417 10.2656 5.46875C10.4115 5.32812 10.5938 5.25781 10.8125 5.25781C11.0208 5.25781 11.2005 5.32812 11.3516 5.46875C11.5026 5.60938 11.5781 5.82552 11.5781 6.11719C11.5781 6.40885 11.5026 6.6276 11.3516 6.77344C11.2005 6.91406 11.0208 6.98438 10.8125 6.98438C10.5938 6.98438 10.4115 6.91406 10.2656 6.77344C10.1198 6.6276 10.0469 6.40885 10.0469 6.11719ZM20.0625 17V11.4609C20.0625 10.763 19.9036 10.2422 19.5859 9.89844C19.2682 9.55469 18.7708 9.38281 18.0938 9.38281C17.1979 9.38281 16.5417 9.625 16.125 10.1094C15.7083 10.5938 15.5 11.3932 15.5 12.5078V17H14.2031V8.4375H15.2578L15.4688 9.60938H15.5312C15.7969 9.1875 16.1693 8.86198 16.6484 8.63281C17.1276 8.39844 17.6615 8.28125 18.25 8.28125C19.2812 8.28125 20.0573 8.53125 20.5781 9.03125C21.099 9.52604 21.3594 10.3203 21.3594 11.4141V17H20.0625ZM27.4531 17.1562C26.2135 17.1562 25.2526 16.776 24.5703 16.0156C23.8932 15.25 23.5547 14.1693 23.5547 12.7734C23.5547 11.3411 23.8984 10.2344 24.5859 9.45312C25.2786 8.67188 26.263 8.28125 27.5391 8.28125C27.9505 8.28125 28.362 8.32552 28.7734 8.41406C29.1849 8.5026 29.5078 8.60677 29.7422 8.72656L29.3438 9.82812C29.0573 9.71354 28.7448 9.61979 28.4062 9.54688C28.0677 9.46875 27.7682 9.42969 27.5078 9.42969C25.7682 9.42969 24.8984 10.5391 24.8984 12.7578C24.8984 13.8099 25.1094 14.6172 25.5312 15.1797C25.9583 15.7422 26.5885 16.0234 27.4219 16.0234C28.1354 16.0234 28.8672 15.8698 29.6172 15.5625V16.7109C29.0443 17.0078 28.3229 17.1562 27.4531 17.1562ZM35.2734 17.1562C34.0078 17.1562 33.0078 16.7708 32.2734 16C31.5443 15.2292 31.1797 14.1589 31.1797 12.7891C31.1797 11.4089 31.5182 10.3125 32.1953 9.5C32.8776 8.6875 33.7917 8.28125 34.9375 8.28125C36.0104 8.28125 36.8594 8.63542 37.4844 9.34375C38.1094 10.0469 38.4219 10.9766 38.4219 12.1328V12.9531H32.5234C32.5495 13.9583 32.8021 14.7214 33.2812 15.2422C33.7656 15.763 34.4453 16.0234 35.3203 16.0234C36.2422 16.0234 37.1536 15.8307 38.0547 15.4453V16.6016C37.5964 16.7995 37.1615 16.9401 36.75 17.0234C36.3438 17.112 35.8516 17.1562 35.2734 17.1562ZM34.9219 9.36719C34.2344 9.36719 33.6849 9.59115 33.2734 10.0391C32.8672 10.487 32.6276 11.1068 32.5547 11.8984H37.0312C37.0312 11.0807 36.849 10.4557 36.4844 10.0234C36.1198 9.58594 35.599 9.36719 34.9219 9.36719ZM44.5469 8.28125C44.9271 8.28125 45.2682 8.3125 45.5703 8.375L45.3906 9.57812C45.0365 9.5 44.724 9.46094 44.4531 9.46094C43.7604 9.46094 43.1667 9.74219 42.6719 10.3047C42.1823 10.8672 41.9375 11.5677 41.9375 12.4062V17H40.6406V8.4375H41.7109L41.8594 10.0234H41.9219C42.2396 9.46615 42.6224 9.03646 43.0703 8.73438C43.5182 8.43229 44.0104 8.28125 44.5469 8.28125ZM50.7891 17.1562C49.5234 17.1562 48.5234 16.7708 47.7891 16C47.0599 15.2292 46.6953 14.1589 46.6953 12.7891C46.6953 11.4089 47.0339 10.3125 47.7109 9.5C48.3932 8.6875 49.3073 8.28125 50.4531 8.28125C51.526 8.28125 52.375 8.63542 53 9.34375C53.625 10.0469 53.9375 10.9766 53.9375 12.1328V12.9531H48.0391C48.0651 13.9583 48.3177 14.7214 48.7969 15.2422C49.2812 15.763 49.9609 16.0234 50.8359 16.0234C51.7578 16.0234 52.6693 15.8307 53.5703 15.4453V16.6016C53.112 16.7995 52.6771 16.9401 52.2656 17.0234C51.8594 17.112 51.3672 17.1562 50.7891 17.1562ZM50.4375 9.36719C49.75 9.36719 49.2005 9.59115 48.7891 10.0391C48.3828 10.487 48.1432 11.1068 48.0703 11.8984H52.5469C52.5469 11.0807 52.3646 10.4557 52 10.0234C51.6354 9.58594 51.1146 9.36719 50.4375 9.36719ZM57.4531 17H56.1562V4.84375H57.4531V17ZM58.8438 8.4375H60.2344L62.1094 13.3203C62.5208 14.4349 62.776 15.2396 62.875 15.7344H62.9375C63.0052 15.4688 63.1458 15.0156 63.3594 14.375C63.5781 13.7292 64.2865 11.75 65.4844 8.4375H66.875L63.1953 18.1875C62.8307 19.151 62.4036 19.8333 61.9141 20.2344C61.4297 20.6406 60.8333 20.8438 60.125 20.8438C59.7292 20.8438 59.3385 20.7995 58.9531 20.7109V19.6719C59.2396 19.7344 59.5599 19.7656 59.9141 19.7656C60.8047 19.7656 61.4401 19.2656 61.8203 18.2656L62.2969 17.0469L58.8438 8.4375ZM69.625 15.1406L69.7422 15.3203C69.6068 15.8411 69.4115 16.4453 69.1562 17.1328C68.901 17.8255 68.6354 18.4688 68.3594 19.0625H67.3828C67.5234 18.5208 67.6771 17.8516 67.8438 17.0547C68.0156 16.2578 68.1354 15.6198 68.2031 15.1406H69.625ZM10.7969 61H8.38281V56.0703H3.85938V61H1.4375V49.5781H3.85938V54.0547H8.38281V49.5781H10.7969V61ZM19.6875 61L19.3672 59.8828H19.2422C18.987 60.2891 18.625 60.6042 18.1562 60.8281C17.6875 61.0469 17.1536 61.1562 16.5547 61.1562C15.5286 61.1562 14.7552 60.8828 14.2344 60.3359C13.7135 59.7839 13.4531 58.9922 13.4531 57.9609V52.2656H15.8359V57.3672C15.8359 57.9974 15.9479 58.4714 16.1719 58.7891C16.3958 59.1016 16.7526 59.2578 17.2422 59.2578C17.9089 59.2578 18.3906 59.0365 18.6875 58.5938C18.9844 58.1458 19.1328 57.4062 19.1328 56.375V52.2656H21.5156V61H19.6875ZM31.6172 52.2656V53.4766L30.25 53.8281C30.5 54.2188 30.625 54.6562 30.625 55.1406C30.625 56.0781 30.2969 56.8099 29.6406 57.3359C28.9896 57.8568 28.0833 58.1172 26.9219 58.1172L26.4922 58.0938L26.1406 58.0547C25.8958 58.2422 25.7734 58.4505 25.7734 58.6797C25.7734 59.0234 26.2109 59.1953 27.0859 59.1953H28.5703C29.5286 59.1953 30.2578 59.401 30.7578 59.8125C31.263 60.224 31.5156 60.8281 31.5156 61.625C31.5156 62.6458 31.0885 63.4375 30.2344 64C29.3854 64.5625 28.1641 64.8438 26.5703 64.8438C25.3516 64.8438 24.4193 64.6302 23.7734 64.2031C23.1328 63.7812 22.8125 63.1875 22.8125 62.4219C22.8125 61.8958 22.9766 61.4557 23.3047 61.1016C23.6328 60.7474 24.1146 60.4948 24.75 60.3438C24.5052 60.2396 24.2917 60.0703 24.1094 59.8359C23.9271 59.5964 23.8359 59.3438 23.8359 59.0781C23.8359 58.7448 23.9323 58.4688 24.125 58.25C24.3177 58.026 24.5964 57.8073 24.9609 57.5938C24.5026 57.3958 24.138 57.0781 23.8672 56.6406C23.6016 56.2031 23.4688 55.6875 23.4688 55.0938C23.4688 54.1406 23.7786 53.4036 24.3984 52.8828C25.0182 52.362 25.9036 52.1016 27.0547 52.1016C27.2995 52.1016 27.5885 52.125 27.9219 52.1719C28.2604 52.2135 28.4766 52.2448 28.5703 52.2656H31.6172ZM24.875 62.2344C24.875 62.5625 25.0312 62.8203 25.3438 63.0078C25.6615 63.1953 26.1042 63.2891 26.6719 63.2891C27.526 63.2891 28.1953 63.1719 28.6797 62.9375C29.1641 62.7031 29.4062 62.3828 29.4062 61.9766C29.4062 61.6484 29.263 61.4219 28.9766 61.2969C28.6901 61.1719 28.2474 61.1094 27.6484 61.1094H26.4141C25.9766 61.1094 25.6094 61.2109 25.3125 61.4141C25.0208 61.6224 24.875 61.8958 24.875 62.2344ZM25.7422 55.125C25.7422 55.599 25.849 55.974 26.0625 56.25C26.2812 56.526 26.612 56.6641 27.0547 56.6641C27.5026 56.6641 27.8307 56.526 28.0391 56.25C28.2474 55.974 28.3516 55.599 28.3516 55.125C28.3516 54.0729 27.9193 53.5469 27.0547 53.5469C26.1797 53.5469 25.7422 54.0729 25.7422 55.125ZM34.9609 56.6172C34.9609 57.4818 35.1016 58.1354 35.3828 58.5781C35.6693 59.0208 36.1328 59.2422 36.7734 59.2422C37.4089 59.2422 37.8646 59.0234 38.1406 58.5859C38.4219 58.1432 38.5625 57.487 38.5625 56.6172C38.5625 55.7526 38.4219 55.1042 38.1406 54.6719C37.8594 54.2396 37.3984 54.0234 36.7578 54.0234C36.1224 54.0234 35.6641 54.2396 35.3828 54.6719C35.1016 55.099 34.9609 55.7474 34.9609 56.6172ZM41 56.6172C41 58.0391 40.625 59.151 39.875 59.9531C39.125 60.7552 38.0807 61.1562 36.7422 61.1562C35.9036 61.1562 35.1641 60.974 34.5234 60.6094C33.8828 60.2396 33.3906 59.7109 33.0469 59.0234C32.7031 58.3359 32.5312 57.5339 32.5312 56.6172C32.5312 55.1901 32.9036 54.0807 33.6484 53.2891C34.3932 52.4974 35.4401 52.1016 36.7891 52.1016C37.6276 52.1016 38.3672 52.2839 39.0078 52.6484C39.6484 53.013 40.1406 53.5365 40.4844 54.2188C40.8281 54.901 41 55.7005 41 56.6172ZM47.3125 49.5781H50.8672C52.487 49.5781 53.6615 49.8099 54.3906 50.2734C55.125 50.7318 55.4922 51.4635 55.4922 52.4688C55.4922 53.151 55.3307 53.7109 55.0078 54.1484C54.6901 54.5859 54.2656 54.849 53.7344 54.9375V55.0156C54.4583 55.1771 54.9792 55.4792 55.2969 55.9219C55.6198 56.3646 55.7812 56.9531 55.7812 57.6875C55.7812 58.7292 55.4036 59.5417 54.6484 60.125C53.8984 60.7083 52.8776 61 51.5859 61H47.3125V49.5781ZM49.7344 54.1016H51.1406C51.7969 54.1016 52.2708 54 52.5625 53.7969C52.8594 53.5938 53.0078 53.2578 53.0078 52.7891C53.0078 52.3516 52.8464 52.0391 52.5234 51.8516C52.2057 51.6589 51.7005 51.5625 51.0078 51.5625H49.7344V54.1016ZM49.7344 56.0234V59H51.3125C51.9792 59 52.4714 58.8724 52.7891 58.6172C53.1068 58.362 53.2656 57.9714 53.2656 57.4453C53.2656 56.4974 52.5885 56.0234 51.2344 56.0234H49.7344ZM63.4219 61L62.9609 59.8125H62.8984C62.4974 60.3177 62.0833 60.6693 61.6562 60.8672C61.2344 61.0599 60.6823 61.1562 60 61.1562C59.1615 61.1562 58.5 60.9167 58.0156 60.4375C57.5365 59.9583 57.2969 59.276 57.2969 58.3906C57.2969 57.4635 57.6198 56.7812 58.2656 56.3438C58.9167 55.901 59.8958 55.6562 61.2031 55.6094L62.7188 55.5625V55.1797C62.7188 54.2943 62.2656 53.8516 61.3594 53.8516C60.6615 53.8516 59.8411 54.0625 58.8984 54.4844L58.1094 52.875C59.1146 52.349 60.2292 52.0859 61.4531 52.0859C62.625 52.0859 63.5234 52.3411 64.1484 52.8516C64.7734 53.362 65.0859 54.138 65.0859 55.1797V61H63.4219ZM62.7188 56.9531L61.7969 56.9844C61.1042 57.0052 60.5885 57.1302 60.25 57.3594C59.9115 57.5885 59.7422 57.9375 59.7422 58.4062C59.7422 59.0781 60.1276 59.4141 60.8984 59.4141C61.4505 59.4141 61.8906 59.2552 62.2188 58.9375C62.5521 58.6198 62.7188 58.1979 62.7188 57.6719V56.9531ZM69.625 61L66.2969 52.2656H68.7891L70.4766 57.2422C70.6641 57.8724 70.7812 58.4688 70.8281 59.0312H70.875C70.901 58.5312 71.0182 57.9349 71.2266 57.2422L72.9062 52.2656H75.3984L72.0703 61H69.625ZM76.5547 50.0078C76.5547 49.2318 76.987 48.8438 77.8516 48.8438C78.7161 48.8438 79.1484 49.2318 79.1484 50.0078C79.1484 50.3776 79.0391 50.6667 78.8203 50.875C78.6068 51.0781 78.2839 51.1797 77.8516 51.1797C76.987 51.1797 76.5547 50.7891 76.5547 50.0078ZM79.0391 61H76.6562V52.2656H79.0391V61ZM89.6094 61H87.2266V55.8984C87.2266 55.2682 87.1146 54.7969 86.8906 54.4844C86.6667 54.1667 86.3099 54.0078 85.8203 54.0078C85.1536 54.0078 84.6719 54.2318 84.375 54.6797C84.0781 55.1224 83.9297 55.8594 83.9297 56.8906V61H81.5469V52.2656H83.3672L83.6875 53.3828H83.8203C84.0859 52.9609 84.4505 52.6432 84.9141 52.4297C85.3828 52.2109 85.9141 52.1016 86.5078 52.1016C87.5234 52.1016 88.2943 52.3776 88.8203 52.9297C89.3464 53.4766 89.6094 54.2682 89.6094 55.3047V61ZM94.3984 59.3203C94.1276 60.3724 93.6693 61.6198 93.0234 63.0625H91.3047C91.6432 61.6771 91.9062 60.3698 92.0938 59.1406H94.2812L94.3984 59.3203ZM6.625 83L2.75 72.875H2.6875C2.76042 73.6771 2.79688 74.6302 2.79688 75.7344V83H1.57031V71.5781H3.57031L7.1875 81H7.25L10.8984 71.5781H12.8828V83H11.5547V75.6406C11.5547 74.7969 11.5911 73.8802 11.6641 72.8906H11.6016L7.69531 83H6.625ZM21.0938 83L20.8359 81.7812H20.7734C20.3464 82.3177 19.9193 82.6823 19.4922 82.875C19.0703 83.0625 18.5417 83.1562 17.9062 83.1562C17.0573 83.1562 16.3906 82.9375 15.9062 82.5C15.4271 82.0625 15.1875 81.4401 15.1875 80.6328C15.1875 78.9036 16.5703 77.9974 19.3359 77.9141L20.7891 77.8672V77.3359C20.7891 76.6641 20.6432 76.1693 20.3516 75.8516C20.0651 75.5286 19.6042 75.3672 18.9688 75.3672C18.2552 75.3672 17.4479 75.5859 16.5469 76.0234L16.1484 75.0312C16.5703 74.8021 17.0312 74.6224 17.5312 74.4922C18.0365 74.362 18.5417 74.2969 19.0469 74.2969C20.0677 74.2969 20.8229 74.5234 21.3125 74.9766C21.8073 75.4297 22.0547 76.1562 22.0547 77.1562V83H21.0938ZM18.1641 82.0859C18.9714 82.0859 19.6042 81.8646 20.0625 81.4219C20.526 80.9792 20.7578 80.3594 20.7578 79.5625V78.7891L19.4609 78.8438C18.4297 78.8802 17.6849 79.0417 17.2266 79.3281C16.7734 79.6094 16.5469 80.0495 16.5469 80.6484C16.5469 81.1172 16.6875 81.474 16.9688 81.7188C17.2552 81.9635 17.6536 82.0859 18.1641 82.0859ZM28.6406 74.2812C29.0208 74.2812 29.362 74.3125 29.6641 74.375L29.4844 75.5781C29.1302 75.5 28.8177 75.4609 28.5469 75.4609C27.8542 75.4609 27.2604 75.7422 26.7656 76.3047C26.276 76.8672 26.0312 77.5677 26.0312 78.4062V83H24.7344V74.4375H25.8047L25.9531 76.0234H26.0156C26.3333 75.4661 26.7161 75.0365 27.1641 74.7344C27.612 74.4323 28.1042 74.2812 28.6406 74.2812ZM32.5469 78.6172C32.7708 78.2995 33.112 77.8828 33.5703 77.3672L36.3359 74.4375H37.875L34.4062 78.0859L38.1172 83H36.5469L33.5234 78.9531L32.5469 79.7969V83H31.2656V70.8438H32.5469V77.2891C32.5469 77.5755 32.526 78.0182 32.4844 78.6172H32.5469ZM43.2891 83.1562C42.0234 83.1562 41.0234 82.7708 40.2891 82C39.5599 81.2292 39.1953 80.1589 39.1953 78.7891C39.1953 77.4089 39.5339 76.3125 40.2109 75.5C40.8932 74.6875 41.8073 74.2812 42.9531 74.2812C44.026 74.2812 44.875 74.6354 45.5 75.3438C46.125 76.0469 46.4375 76.9766 46.4375 78.1328V78.9531H40.5391C40.5651 79.9583 40.8177 80.7214 41.2969 81.2422C41.7812 81.763 42.4609 82.0234 43.3359 82.0234C44.2578 82.0234 45.1693 81.8307 46.0703 81.4453V82.6016C45.612 82.7995 45.1771 82.9401 44.7656 83.0234C44.3594 83.112 43.8672 83.1562 43.2891 83.1562ZM42.9375 75.3672C42.25 75.3672 41.7005 75.5911 41.2891 76.0391C40.8828 76.487 40.6432 77.1068 40.5703 77.8984H45.0469C45.0469 77.0807 44.8646 76.4557 44.5 76.0234C44.1354 75.5859 43.6146 75.3672 42.9375 75.3672ZM51.4219 82.0859C51.651 82.0859 51.8724 82.0703 52.0859 82.0391C52.2995 82.0026 52.4688 81.9661 52.5938 81.9297V82.9219C52.4531 82.9896 52.2448 83.0443 51.9688 83.0859C51.6979 83.1328 51.4531 83.1562 51.2344 83.1562C49.5781 83.1562 48.75 82.2839 48.75 80.5391V75.4453H47.5234V74.8203L48.75 74.2812L49.2969 72.4531H50.0469V74.4375H52.5312V75.4453H50.0469V80.4844C50.0469 81 50.1693 81.3958 50.4141 81.6719C50.6589 81.9479 50.9948 82.0859 51.4219 82.0859ZM55.6094 83H54.3125V74.4375H55.6094V83ZM54.2031 72.1172C54.2031 71.8203 54.276 71.6042 54.4219 71.4688C54.5677 71.3281 54.75 71.2578 54.9688 71.2578C55.1771 71.2578 55.3568 71.3281 55.5078 71.4688C55.6589 71.6094 55.7344 71.8255 55.7344 72.1172C55.7344 72.4089 55.6589 72.6276 55.5078 72.7734C55.3568 72.9141 55.1771 72.9844 54.9688 72.9844C54.75 72.9844 54.5677 72.9141 54.4219 72.7734C54.276 72.6276 54.2031 72.4089 54.2031 72.1172ZM64.2188 83V77.4609C64.2188 76.763 64.0599 76.2422 63.7422 75.8984C63.4245 75.5547 62.9271 75.3828 62.25 75.3828C61.3542 75.3828 60.6979 75.625 60.2812 76.1094C59.8646 76.5938 59.6562 77.3932 59.6562 78.5078V83H58.3594V74.4375H59.4141L59.625 75.6094H59.6875C59.9531 75.1875 60.3255 74.862 60.8047 74.6328C61.2839 74.3984 61.8177 74.2812 62.4062 74.2812C63.4375 74.2812 64.2135 74.5312 64.7344 75.0312C65.2552 75.526 65.5156 76.3203 65.5156 77.4141V83H64.2188ZM75.1953 74.4375V75.2578L73.6094 75.4453C73.7552 75.6276 73.8854 75.8672 74 76.1641C74.1146 76.4557 74.1719 76.7865 74.1719 77.1562C74.1719 77.9948 73.8854 78.6641 73.3125 79.1641C72.7396 79.6641 71.9531 79.9141 70.9531 79.9141C70.6979 79.9141 70.4583 79.8932 70.2344 79.8516C69.6823 80.1432 69.4062 80.5104 69.4062 80.9531C69.4062 81.1875 69.5026 81.362 69.6953 81.4766C69.888 81.5859 70.2188 81.6406 70.6875 81.6406H72.2031C73.1302 81.6406 73.8411 81.8359 74.3359 82.2266C74.8359 82.6172 75.0859 83.1849 75.0859 83.9297C75.0859 84.8776 74.7057 85.599 73.9453 86.0938C73.1849 86.5938 72.0755 86.8438 70.6172 86.8438C69.4974 86.8438 68.6328 86.6354 68.0234 86.2188C67.4193 85.8021 67.1172 85.2135 67.1172 84.4531C67.1172 83.9323 67.2839 83.4818 67.6172 83.1016C67.9505 82.7214 68.4193 82.4635 69.0234 82.3281C68.8047 82.2292 68.6198 82.0755 68.4688 81.8672C68.3229 81.6589 68.25 81.4167 68.25 81.1406C68.25 80.8281 68.3333 80.5547 68.5 80.3203C68.6667 80.0859 68.9297 79.8594 69.2891 79.6406C68.8464 79.4583 68.4844 79.1484 68.2031 78.7109C67.9271 78.2734 67.7891 77.7734 67.7891 77.2109C67.7891 76.2734 68.0703 75.5521 68.6328 75.0469C69.1953 74.5365 69.9922 74.2812 71.0234 74.2812C71.4714 74.2812 71.875 74.3333 72.2344 74.4375H75.1953ZM68.3672 84.4375C68.3672 84.901 68.5625 85.2526 68.9531 85.4922C69.3438 85.7318 69.9036 85.8516 70.6328 85.8516C71.7214 85.8516 72.526 85.6875 73.0469 85.3594C73.5729 85.0365 73.8359 84.5964 73.8359 84.0391C73.8359 83.5755 73.6927 83.2526 73.4062 83.0703C73.1198 82.8932 72.5807 82.8047 71.7891 82.8047H70.2344C69.6458 82.8047 69.1875 82.9453 68.8594 83.2266C68.5312 83.5078 68.3672 83.9115 68.3672 84.4375ZM69.0703 77.1797C69.0703 77.7786 69.2396 78.2318 69.5781 78.5391C69.9167 78.8464 70.388 79 70.9922 79C72.2578 79 72.8906 78.3854 72.8906 77.1562C72.8906 75.8698 72.25 75.2266 70.9688 75.2266C70.3594 75.2266 69.8906 75.3906 69.5625 75.7188C69.2344 76.0469 69.0703 76.5339 69.0703 77.1797ZM90.4219 77.1797C90.4219 79.0651 89.9089 80.5078 88.8828 81.5078C87.862 82.5026 86.3906 83 84.4688 83H81.3047V71.5781H84.8047C86.5807 71.5781 87.9609 72.0703 88.9453 73.0547C89.9297 74.0391 90.4219 75.4141 90.4219 77.1797ZM89.0156 77.2266C89.0156 75.737 88.6406 74.6146 87.8906 73.8594C87.1458 73.1042 86.0365 72.7266 84.5625 72.7266H82.6328V81.8516H84.25C85.8333 81.8516 87.0234 81.4635 87.8203 80.6875C88.6172 79.9062 89.0156 78.7526 89.0156 77.2266ZM94.0781 83H92.7812V74.4375H94.0781V83ZM92.6719 72.1172C92.6719 71.8203 92.7448 71.6042 92.8906 71.4688C93.0365 71.3281 93.2188 71.2578 93.4375 71.2578C93.6458 71.2578 93.8255 71.3281 93.9766 71.4688C94.1276 71.6094 94.2031 71.8255 94.2031 72.1172C94.2031 72.4089 94.1276 72.6276 93.9766 72.7734C93.8255 72.9141 93.6458 72.9844 93.4375 72.9844C93.2188 72.9844 93.0365 72.9141 92.8906 72.7734C92.7448 72.6276 92.6719 72.4089 92.6719 72.1172ZM100.734 74.2812C101.115 74.2812 101.456 74.3125 101.758 74.375L101.578 75.5781C101.224 75.5 100.911 75.4609 100.641 75.4609C99.9479 75.4609 99.3542 75.7422 98.8594 76.3047C98.3698 76.8672 98.125 77.5677 98.125 78.4062V83H96.8281V74.4375H97.8984L98.0469 76.0234H98.1094C98.4271 75.4661 98.8099 75.0365 99.2578 74.7344C99.7057 74.4323 100.198 74.2812 100.734 74.2812ZM106.977 83.1562C105.711 83.1562 104.711 82.7708 103.977 82C103.247 81.2292 102.883 80.1589 102.883 78.7891C102.883 77.4089 103.221 76.3125 103.898 75.5C104.581 74.6875 105.495 74.2812 106.641 74.2812C107.714 74.2812 108.562 74.6354 109.188 75.3438C109.812 76.0469 110.125 76.9766 110.125 78.1328V78.9531H104.227C104.253 79.9583 104.505 80.7214 104.984 81.2422C105.469 81.763 106.148 82.0234 107.023 82.0234C107.945 82.0234 108.857 81.8307 109.758 81.4453V82.6016C109.299 82.7995 108.865 82.9401 108.453 83.0234C108.047 83.112 107.555 83.1562 106.977 83.1562ZM106.625 75.3672C105.938 75.3672 105.388 75.5911 104.977 76.0391C104.57 76.487 104.331 77.1068 104.258 77.8984H108.734C108.734 77.0807 108.552 76.4557 108.188 76.0234C107.823 75.5859 107.302 75.3672 106.625 75.3672ZM115.766 83.1562C114.526 83.1562 113.565 82.776 112.883 82.0156C112.206 81.25 111.867 80.1693 111.867 78.7734C111.867 77.3411 112.211 76.2344 112.898 75.4531C113.591 74.6719 114.576 74.2812 115.852 74.2812C116.263 74.2812 116.674 74.3255 117.086 74.4141C117.497 74.5026 117.82 74.6068 118.055 74.7266L117.656 75.8281C117.37 75.7135 117.057 75.6198 116.719 75.5469C116.38 75.4688 116.081 75.4297 115.82 75.4297C114.081 75.4297 113.211 76.5391 113.211 78.7578C113.211 79.8099 113.422 80.6172 113.844 81.1797C114.271 81.7422 114.901 82.0234 115.734 82.0234C116.448 82.0234 117.18 81.8698 117.93 81.5625V82.7109C117.357 83.0078 116.635 83.1562 115.766 83.1562ZM122.734 82.0859C122.964 82.0859 123.185 82.0703 123.398 82.0391C123.612 82.0026 123.781 81.9661 123.906 81.9297V82.9219C123.766 82.9896 123.557 83.0443 123.281 83.0859C123.01 83.1328 122.766 83.1562 122.547 83.1562C120.891 83.1562 120.062 82.2839 120.062 80.5391V75.4453H118.836V74.8203L120.062 74.2812L120.609 72.4531H121.359V74.4375H123.844V75.4453H121.359V80.4844C121.359 81 121.482 81.3958 121.727 81.6719C121.971 81.9479 122.307 82.0859 122.734 82.0859ZM133.016 78.7109C133.016 80.1068 132.664 81.1979 131.961 81.9844C131.258 82.7656 130.286 83.1562 129.047 83.1562C128.281 83.1562 127.602 82.9766 127.008 82.6172C126.414 82.2578 125.956 81.7422 125.633 81.0703C125.31 80.3984 125.148 79.612 125.148 78.7109C125.148 77.3151 125.497 76.2292 126.195 75.4531C126.893 74.6719 127.862 74.2812 129.102 74.2812C130.299 74.2812 131.25 74.6797 131.953 75.4766C132.661 76.2734 133.016 77.3516 133.016 78.7109ZM126.492 78.7109C126.492 79.8047 126.711 80.638 127.148 81.2109C127.586 81.7839 128.229 82.0703 129.078 82.0703C129.927 82.0703 130.57 81.7865 131.008 81.2188C131.451 80.6458 131.672 79.8099 131.672 78.7109C131.672 77.6224 131.451 76.7969 131.008 76.2344C130.57 75.6667 129.922 75.3828 129.062 75.3828C128.214 75.3828 127.573 75.6615 127.141 76.2188C126.708 76.776 126.492 77.6068 126.492 78.7109ZM139.203 74.2812C139.583 74.2812 139.924 74.3125 140.227 74.375L140.047 75.5781C139.693 75.5 139.38 75.4609 139.109 75.4609C138.417 75.4609 137.823 75.7422 137.328 76.3047C136.839 76.8672 136.594 77.5677 136.594 78.4062V83H135.297V74.4375H136.367L136.516 76.0234H136.578C136.896 75.4661 137.279 75.0365 137.727 74.7344C138.174 74.4323 138.667 74.2812 139.203 74.2812ZM1.57031 93.5781H4.79688C6.3125 93.5781 7.40885 93.8047 8.08594 94.2578C8.76302 94.7109 9.10156 95.4271 9.10156 96.4062C9.10156 97.0833 8.91146 97.6432 8.53125 98.0859C8.15625 98.5234 7.60677 98.8073 6.88281 98.9375V99.0156C8.61719 99.3125 9.48438 100.224 9.48438 101.75C9.48438 102.771 9.13802 103.568 8.44531 104.141C7.75781 104.714 6.79427 105 5.55469 105H1.57031V93.5781ZM2.89844 98.4688H5.08594C6.02344 98.4688 6.69792 98.3229 7.10938 98.0312C7.52083 97.7344 7.72656 97.237 7.72656 96.5391C7.72656 95.8984 7.4974 95.4375 7.03906 95.1562C6.58073 94.8698 5.85156 94.7266 4.85156 94.7266H2.89844V98.4688ZM2.89844 99.5938V103.867H5.28125C6.20312 103.867 6.89583 103.69 7.35938 103.336C7.82812 102.977 8.0625 102.417 8.0625 101.656C8.0625 100.948 7.82292 100.427 7.34375 100.094C6.86979 99.7604 6.14583 99.5938 5.17188 99.5938H2.89844ZM12.9688 96.4375V101.992C12.9688 102.69 13.1276 103.211 13.4453 103.555C13.763 103.898 14.2604 104.07 14.9375 104.07C15.8333 104.07 16.487 103.826 16.8984 103.336C17.3151 102.846 17.5234 102.047 17.5234 100.938V96.4375H18.8203V105H17.75L17.5625 103.852H17.4922C17.2266 104.273 16.8568 104.596 16.3828 104.82C15.9141 105.044 15.3776 105.156 14.7734 105.156C13.7318 105.156 12.9505 104.909 12.4297 104.414C11.9141 103.919 11.6562 103.128 11.6562 102.039V96.4375H12.9688ZM25.4844 96.2812C25.8646 96.2812 26.2057 96.3125 26.5078 96.375L26.3281 97.5781C25.974 97.5 25.6615 97.4609 25.3906 97.4609C24.6979 97.4609 24.1042 97.7422 23.6094 98.3047C23.1198 98.8672 22.875 99.5677 22.875 100.406V105H21.5781V96.4375H22.6484L22.7969 98.0234H22.8594C23.1771 97.4661 23.5599 97.0365 24.0078 96.7344C24.4557 96.4323 24.9479 96.2812 25.4844 96.2812ZM33.9688 105V99.4609C33.9688 98.763 33.8099 98.2422 33.4922 97.8984C33.1745 97.5547 32.6771 97.3828 32 97.3828C31.1042 97.3828 30.4479 97.625 30.0312 98.1094C29.6146 98.5938 29.4062 99.3932 29.4062 100.508V105H28.1094V96.4375H29.1641L29.375 97.6094H29.4375C29.7031 97.1875 30.0755 96.862 30.5547 96.6328C31.0339 96.3984 31.5677 96.2812 32.1562 96.2812C33.1875 96.2812 33.9635 96.5312 34.4844 97.0312C35.0052 97.526 35.2656 98.3203 35.2656 99.4141V105H33.9688ZM43.4609 102.664C43.4609 103.461 43.1641 104.076 42.5703 104.508C41.9766 104.94 41.1432 105.156 40.0703 105.156C38.9349 105.156 38.0495 104.977 37.4141 104.617V103.414C37.8255 103.622 38.2656 103.786 38.7344 103.906C39.2083 104.026 39.6641 104.086 40.1016 104.086C40.7786 104.086 41.2995 103.979 41.6641 103.766C42.0286 103.547 42.2109 103.216 42.2109 102.773C42.2109 102.44 42.0651 102.156 41.7734 101.922C41.487 101.682 40.9245 101.401 40.0859 101.078C39.2891 100.781 38.7214 100.523 38.3828 100.305C38.0495 100.081 37.7995 99.8281 37.6328 99.5469C37.4714 99.2656 37.3906 98.9297 37.3906 98.5391C37.3906 97.8411 37.6745 97.2917 38.2422 96.8906C38.8099 96.4844 39.5885 96.2812 40.5781 96.2812C41.5 96.2812 42.401 96.4688 43.2812 96.8438L42.8203 97.8984C41.9609 97.5443 41.1823 97.3672 40.4844 97.3672C39.8698 97.3672 39.4062 97.4635 39.0938 97.6562C38.7812 97.849 38.625 98.1146 38.625 98.4531C38.625 98.6823 38.6823 98.8776 38.7969 99.0391C38.9167 99.2005 39.1068 99.3542 39.3672 99.5C39.6276 99.6458 40.1276 99.8568 40.8672 100.133C41.8828 100.503 42.5677 100.875 42.9219 101.25C43.2812 101.625 43.4609 102.096 43.4609 102.664ZM51.5938 95.8516C51.5938 96.2109 51.6875 96.5547 51.875 96.8828C52.0625 97.2057 52.3828 97.5964 52.8359 98.0547C53.5078 97.6641 53.974 97.3047 54.2344 96.9766C54.5 96.6432 54.6328 96.2604 54.6328 95.8281C54.6328 95.4271 54.4974 95.1016 54.2266 94.8516C53.9609 94.5964 53.6042 94.4688 53.1562 94.4688C52.6927 94.4688 52.3151 94.5938 52.0234 94.8438C51.737 95.0938 51.5938 95.4297 51.5938 95.8516ZM52.8047 103.992C54.0599 103.992 55.1016 103.591 55.9297 102.789L52.5156 99.4766C51.9375 99.8307 51.5286 100.125 51.2891 100.359C51.0495 100.589 50.8724 100.836 50.7578 101.102C50.6432 101.367 50.5859 101.669 50.5859 102.008C50.5859 102.617 50.7865 103.102 51.1875 103.461C51.5938 103.815 52.1328 103.992 52.8047 103.992ZM49.2422 102.039C49.2422 101.362 49.4219 100.763 49.7812 100.242C50.1458 99.7214 50.7969 99.1953 51.7344 98.6641C51.2917 98.1693 50.9896 97.7943 50.8281 97.5391C50.6719 97.2839 50.5469 97.0182 50.4531 96.7422C50.3594 96.4661 50.3125 96.1797 50.3125 95.8828C50.3125 95.1016 50.5677 94.4922 51.0781 94.0547C51.5885 93.6172 52.2995 93.3984 53.2109 93.3984C54.0547 93.3984 54.7188 93.6172 55.2031 94.0547C55.6875 94.487 55.9297 95.0911 55.9297 95.8672C55.9297 96.4245 55.7526 96.9401 55.3984 97.4141C55.0443 97.8828 54.4583 98.3594 53.6406 98.8438L56.8203 101.898C57.112 101.576 57.3438 101.198 57.5156 100.766C57.6927 100.328 57.8411 99.8516 57.9609 99.3359H59.2734C58.9193 100.826 58.3854 101.956 57.6719 102.727L60.0078 105H58.2188L56.7734 103.609C56.1589 104.161 55.5339 104.557 54.8984 104.797C54.263 105.036 53.5547 105.156 52.7734 105.156C51.6536 105.156 50.7839 104.88 50.1641 104.328C49.5495 103.776 49.2422 103.013 49.2422 102.039ZM70.6641 94.6016C69.4089 94.6016 68.4167 95.0208 67.6875 95.8594C66.9635 96.6927 66.6016 97.8359 66.6016 99.2891C66.6016 100.784 66.9505 101.94 67.6484 102.758C68.3516 103.57 69.3516 103.977 70.6484 103.977C71.4453 103.977 72.3542 103.833 73.375 103.547V104.711C72.5833 105.008 71.6068 105.156 70.4453 105.156C68.763 105.156 67.4635 104.646 66.5469 103.625C65.6354 102.604 65.1797 101.154 65.1797 99.2734C65.1797 98.0964 65.3984 97.0651 65.8359 96.1797C66.2786 95.2943 66.9141 94.612 67.7422 94.1328C68.5755 93.6536 69.5547 93.4141 70.6797 93.4141C71.8776 93.4141 72.9245 93.6328 73.8203 94.0703L73.2578 95.2109C72.3932 94.8047 71.5286 94.6016 70.6641 94.6016ZM80.9375 105L80.6797 103.781H80.6172C80.1901 104.318 79.763 104.682 79.3359 104.875C78.9141 105.062 78.3854 105.156 77.75 105.156C76.901 105.156 76.2344 104.938 75.75 104.5C75.2708 104.062 75.0312 103.44 75.0312 102.633C75.0312 100.904 76.4141 99.9974 79.1797 99.9141L80.6328 99.8672V99.3359C80.6328 98.6641 80.487 98.1693 80.1953 97.8516C79.9089 97.5286 79.4479 97.3672 78.8125 97.3672C78.099 97.3672 77.2917 97.5859 76.3906 98.0234L75.9922 97.0312C76.4141 96.8021 76.875 96.6224 77.375 96.4922C77.8802 96.362 78.3854 96.2969 78.8906 96.2969C79.9115 96.2969 80.6667 96.5234 81.1562 96.9766C81.651 97.4297 81.8984 98.1562 81.8984 99.1562V105H80.9375ZM78.0078 104.086C78.8151 104.086 79.4479 103.865 79.9062 103.422C80.3698 102.979 80.6016 102.359 80.6016 101.562V100.789L79.3047 100.844C78.2734 100.88 77.5286 101.042 77.0703 101.328C76.6172 101.609 76.3906 102.049 76.3906 102.648C76.3906 103.117 76.5312 103.474 76.8125 103.719C77.099 103.964 77.4974 104.086 78.0078 104.086ZM95.4922 105V99.4297C95.4922 98.7474 95.3464 98.237 95.0547 97.8984C94.763 97.5547 94.3099 97.3828 93.6953 97.3828C92.888 97.3828 92.2917 97.6146 91.9062 98.0781C91.5208 98.5417 91.3281 99.2552 91.3281 100.219V105H90.0312V99.4297C90.0312 98.7474 89.8854 98.237 89.5938 97.8984C89.3021 97.5547 88.8464 97.3828 88.2266 97.3828C87.4141 97.3828 86.8177 97.6276 86.4375 98.1172C86.0625 98.6016 85.875 99.3984 85.875 100.508V105H84.5781V96.4375H85.6328L85.8438 97.6094H85.9062C86.151 97.1927 86.4948 96.8672 86.9375 96.6328C87.3854 96.3984 87.8854 96.2812 88.4375 96.2812C89.776 96.2812 90.651 96.7656 91.0625 97.7344H91.125C91.3802 97.2865 91.75 96.9323 92.2344 96.6719C92.7188 96.4115 93.2708 96.2812 93.8906 96.2812C94.8594 96.2812 95.5833 96.5312 96.0625 97.0312C96.5469 97.526 96.7891 98.3203 96.7891 99.4141V105H95.4922ZM103.453 105.156C102.896 105.156 102.385 105.055 101.922 104.852C101.464 104.643 101.078 104.326 100.766 103.898H100.672C100.734 104.398 100.766 104.872 100.766 105.32V108.844H99.4688V96.4375H100.523L100.703 97.6094H100.766C101.099 97.1406 101.487 96.8021 101.93 96.5938C102.372 96.3854 102.88 96.2812 103.453 96.2812C104.589 96.2812 105.464 96.6693 106.078 97.4453C106.698 98.2214 107.008 99.3099 107.008 100.711C107.008 102.117 106.693 103.211 106.062 103.992C105.438 104.768 104.568 105.156 103.453 105.156ZM103.266 97.3828C102.391 97.3828 101.758 97.625 101.367 98.1094C100.977 98.5938 100.776 99.3646 100.766 100.422V100.711C100.766 101.914 100.966 102.776 101.367 103.297C101.768 103.812 102.411 104.07 103.297 104.07C104.036 104.07 104.615 103.771 105.031 103.172C105.453 102.573 105.664 101.747 105.664 100.695C105.664 99.6276 105.453 98.8099 105.031 98.2422C104.615 97.6693 104.026 97.3828 103.266 97.3828ZM113.266 96.2969C114.391 96.2969 115.263 96.6823 115.883 97.4531C116.508 98.2188 116.82 99.3047 116.82 100.711C116.82 102.117 116.505 103.211 115.875 103.992C115.25 104.768 114.38 105.156 113.266 105.156C112.708 105.156 112.198 105.055 111.734 104.852C111.276 104.643 110.891 104.326 110.578 103.898H110.484L110.211 105H109.281V92.8438H110.578V95.7969C110.578 96.4583 110.557 97.0521 110.516 97.5781H110.578C111.182 96.724 112.078 96.2969 113.266 96.2969ZM113.078 97.3828C112.193 97.3828 111.555 97.638 111.164 98.1484C110.773 98.6536 110.578 99.5078 110.578 100.711C110.578 101.914 110.779 102.776 111.18 103.297C111.581 103.812 112.224 104.07 113.109 104.07C113.906 104.07 114.5 103.781 114.891 103.203C115.281 102.62 115.477 101.784 115.477 100.695C115.477 99.5807 115.281 98.75 114.891 98.2031C114.5 97.6562 113.896 97.3828 113.078 97.3828ZM122.711 105.156C121.445 105.156 120.445 104.771 119.711 104C118.982 103.229 118.617 102.159 118.617 100.789C118.617 99.4089 118.956 98.3125 119.633 97.5C120.315 96.6875 121.229 96.2812 122.375 96.2812C123.448 96.2812 124.297 96.6354 124.922 97.3438C125.547 98.0469 125.859 98.9766 125.859 100.133V100.953H119.961C119.987 101.958 120.24 102.721 120.719 103.242C121.203 103.763 121.883 104.023 122.758 104.023C123.68 104.023 124.591 103.831 125.492 103.445V104.602C125.034 104.799 124.599 104.94 124.188 105.023C123.781 105.112 123.289 105.156 122.711 105.156ZM122.359 97.3672C121.672 97.3672 121.122 97.5911 120.711 98.0391C120.305 98.487 120.065 99.1068 119.992 99.8984H124.469C124.469 99.0807 124.286 98.4557 123.922 98.0234C123.557 97.5859 123.036 97.3672 122.359 97.3672ZM129.375 105H128.078V92.8438H129.375V105ZM133.422 105H132.125V92.8438H133.422V105ZM141.852 100.25V105H140.523V93.5781H143.656C145.057 93.5781 146.091 93.8464 146.758 94.3828C147.43 94.9193 147.766 95.7266 147.766 96.8047C147.766 98.3151 147 99.3359 145.469 99.8672L148.57 105H147L144.234 100.25H141.852ZM141.852 99.1094H143.672C144.609 99.1094 145.297 98.9245 145.734 98.5547C146.172 98.1797 146.391 97.6198 146.391 96.875C146.391 96.1198 146.167 95.5755 145.719 95.2422C145.276 94.9089 144.562 94.7422 143.578 94.7422H141.852V99.1094ZM153.836 105.156C152.57 105.156 151.57 104.771 150.836 104C150.107 103.229 149.742 102.159 149.742 100.789C149.742 99.4089 150.081 98.3125 150.758 97.5C151.44 96.6875 152.354 96.2812 153.5 96.2812C154.573 96.2812 155.422 96.6354 156.047 97.3438C156.672 98.0469 156.984 98.9766 156.984 100.133V100.953H151.086C151.112 101.958 151.365 102.721 151.844 103.242C152.328 103.763 153.008 104.023 153.883 104.023C154.805 104.023 155.716 103.831 156.617 103.445V104.602C156.159 104.799 155.724 104.94 155.312 105.023C154.906 105.112 154.414 105.156 153.836 105.156ZM153.484 97.3672C152.797 97.3672 152.247 97.5911 151.836 98.0391C151.43 98.487 151.19 99.1068 151.117 99.8984H155.594C155.594 99.0807 155.411 98.4557 155.047 98.0234C154.682 97.5859 154.161 97.3672 153.484 97.3672ZM161.969 104.086C162.198 104.086 162.419 104.07 162.633 104.039C162.846 104.003 163.016 103.966 163.141 103.93V104.922C163 104.99 162.792 105.044 162.516 105.086C162.245 105.133 162 105.156 161.781 105.156C160.125 105.156 159.297 104.284 159.297 102.539V97.4453H158.07V96.8203L159.297 96.2812L159.844 94.4531H160.594V96.4375H163.078V97.4453H160.594V102.484C160.594 103 160.716 103.396 160.961 103.672C161.206 103.948 161.542 104.086 161.969 104.086ZM170.125 105L169.867 103.781H169.805C169.378 104.318 168.951 104.682 168.523 104.875C168.102 105.062 167.573 105.156 166.938 105.156C166.089 105.156 165.422 104.938 164.938 104.5C164.458 104.062 164.219 103.44 164.219 102.633C164.219 100.904 165.602 99.9974 168.367 99.9141L169.82 99.8672V99.3359C169.82 98.6641 169.674 98.1693 169.383 97.8516C169.096 97.5286 168.635 97.3672 168 97.3672C167.286 97.3672 166.479 97.5859 165.578 98.0234L165.18 97.0312C165.602 96.8021 166.062 96.6224 166.562 96.4922C167.068 96.362 167.573 96.2969 168.078 96.2969C169.099 96.2969 169.854 96.5234 170.344 96.9766C170.839 97.4297 171.086 98.1562 171.086 99.1562V105H170.125ZM167.195 104.086C168.003 104.086 168.635 103.865 169.094 103.422C169.557 102.979 169.789 102.359 169.789 101.562V100.789L168.492 100.844C167.461 100.88 166.716 101.042 166.258 101.328C165.805 101.609 165.578 102.049 165.578 102.648C165.578 103.117 165.719 103.474 166 103.719C166.286 103.964 166.685 104.086 167.195 104.086ZM175.062 105H173.766V96.4375H175.062V105ZM173.656 94.1172C173.656 93.8203 173.729 93.6042 173.875 93.4688C174.021 93.3281 174.203 93.2578 174.422 93.2578C174.63 93.2578 174.81 93.3281 174.961 93.4688C175.112 93.6094 175.188 93.8255 175.188 94.1172C175.188 94.4089 175.112 94.6276 174.961 94.7734C174.81 94.9141 174.63 94.9844 174.422 94.9844C174.203 94.9844 174.021 94.9141 173.875 94.7734C173.729 94.6276 173.656 94.4089 173.656 94.1172ZM179.109 105H177.812V92.8438H179.109V105ZM191.234 99.0156H195.117V104.57C194.513 104.763 193.898 104.909 193.273 105.008C192.648 105.107 191.924 105.156 191.102 105.156C189.372 105.156 188.026 104.643 187.062 103.617C186.099 102.586 185.617 101.143 185.617 99.2891C185.617 98.1016 185.854 97.0625 186.328 96.1719C186.807 95.276 187.495 94.5938 188.391 94.125C189.286 93.651 190.336 93.4141 191.539 93.4141C192.758 93.4141 193.893 93.638 194.945 94.0859L194.43 95.2578C193.398 94.8203 192.406 94.6016 191.453 94.6016C190.062 94.6016 188.977 95.0156 188.195 95.8438C187.414 96.6719 187.023 97.8203 187.023 99.2891C187.023 100.831 187.398 102 188.148 102.797C188.904 103.594 190.01 103.992 191.469 103.992C192.26 103.992 193.034 103.901 193.789 103.719V100.203H191.234V99.0156ZM201.578 96.2812C201.958 96.2812 202.299 96.3125 202.602 96.375L202.422 97.5781C202.068 97.5 201.755 97.4609 201.484 97.4609C200.792 97.4609 200.198 97.7422 199.703 98.3047C199.214 98.8672 198.969 99.5677 198.969 100.406V105H197.672V96.4375H198.742L198.891 98.0234H198.953C199.271 97.4661 199.654 97.0365 200.102 96.7344C200.549 96.4323 201.042 96.2812 201.578 96.2812ZM211.594 100.711C211.594 102.107 211.242 103.198 210.539 103.984C209.836 104.766 208.865 105.156 207.625 105.156C206.859 105.156 206.18 104.977 205.586 104.617C204.992 104.258 204.534 103.742 204.211 103.07C203.888 102.398 203.727 101.612 203.727 100.711C203.727 99.3151 204.076 98.2292 204.773 97.4531C205.471 96.6719 206.44 96.2812 207.68 96.2812C208.878 96.2812 209.828 96.6797 210.531 97.4766C211.24 98.2734 211.594 99.3516 211.594 100.711ZM205.07 100.711C205.07 101.805 205.289 102.638 205.727 103.211C206.164 103.784 206.807 104.07 207.656 104.07C208.505 104.07 209.148 103.786 209.586 103.219C210.029 102.646 210.25 101.81 210.25 100.711C210.25 99.6224 210.029 98.7969 209.586 98.2344C209.148 97.6667 208.5 97.3828 207.641 97.3828C206.792 97.3828 206.151 97.6615 205.719 98.2188C205.286 98.776 205.07 99.6068 205.07 100.711ZM215.094 96.4375V101.992C215.094 102.69 215.253 103.211 215.57 103.555C215.888 103.898 216.385 104.07 217.062 104.07C217.958 104.07 218.612 103.826 219.023 103.336C219.44 102.846 219.648 102.047 219.648 100.938V96.4375H220.945V105H219.875L219.688 103.852H219.617C219.352 104.273 218.982 104.596 218.508 104.82C218.039 105.044 217.503 105.156 216.898 105.156C215.857 105.156 215.076 104.909 214.555 104.414C214.039 103.919 213.781 103.128 213.781 102.039V96.4375H215.094ZM227.688 105.156C227.13 105.156 226.62 105.055 226.156 104.852C225.698 104.643 225.312 104.326 225 103.898H224.906C224.969 104.398 225 104.872 225 105.32V108.844H223.703V96.4375H224.758L224.938 97.6094H225C225.333 97.1406 225.721 96.8021 226.164 96.5938C226.607 96.3854 227.115 96.2812 227.688 96.2812C228.823 96.2812 229.698 96.6693 230.312 97.4453C230.932 98.2214 231.242 99.3099 231.242 100.711C231.242 102.117 230.927 103.211 230.297 103.992C229.672 104.768 228.802 105.156 227.688 105.156ZM227.5 97.3828C226.625 97.3828 225.992 97.625 225.602 98.1094C225.211 98.5938 225.01 99.3646 225 100.422V100.711C225 101.914 225.201 102.776 225.602 103.297C226.003 103.812 226.646 104.07 227.531 104.07C228.271 104.07 228.849 103.771 229.266 103.172C229.688 102.573 229.898 101.747 229.898 100.695C229.898 99.6276 229.688 98.8099 229.266 98.2422C228.849 97.6693 228.26 97.3828 227.5 97.3828Z" fill="black"/>
</svg>
