<svg width="233" height="93" viewBox="0 0 233 93" fill="none" xmlns="http://www.w3.org/2000/svg">
<g clip-path="url(#clip0)">
<path d="M4 6.824H0.064V5.8H9.12V6.824H5.184V17H4V6.824ZM15.0595 8.52C16.1155 8.52 16.9528 8.82933 17.5715 9.448C18.2008 10.056 18.5155 10.9467 18.5155 12.12V17H17.3795V12.232C17.3795 11.3573 17.1608 10.6907 16.7235 10.232C16.2862 9.77333 15.6622 9.544 14.8515 9.544C13.9448 9.544 13.2248 9.816 12.6915 10.36C12.1688 10.8933 11.9075 11.6347 11.9075 12.584V17H10.7715V5.128H11.9075V10.056C12.2168 9.56533 12.6435 9.18667 13.1875 8.92C13.7315 8.65333 14.3555 8.52 15.0595 8.52ZM24.5436 8.52C25.6423 8.52 26.485 8.79733 27.0716 9.352C27.6583 9.896 27.9516 10.7067 27.9516 11.784V17H26.8636V15.688C26.6076 16.1253 26.229 16.4667 25.7276 16.712C25.237 16.9573 24.6503 17.08 23.9676 17.08C23.029 17.08 22.2823 16.856 21.7276 16.408C21.173 15.96 20.8956 15.368 20.8956 14.632C20.8956 13.9173 21.1516 13.3413 21.6636 12.904C22.1863 12.4667 23.013 12.248 24.1436 12.248H26.8156V11.736C26.8156 11.0107 26.613 10.4613 26.2076 10.088C25.8023 9.704 25.2103 9.512 24.4316 9.512C23.8983 9.512 23.3863 9.60267 22.8956 9.784C22.405 9.95467 21.9836 10.1947 21.6316 10.504L21.1196 9.656C21.5463 9.29333 22.0583 9.016 22.6556 8.824C23.253 8.62133 23.8823 8.52 24.5436 8.52ZM24.1436 16.184C24.7836 16.184 25.333 16.04 25.7916 15.752C26.2503 15.4533 26.5916 15.0267 26.8156 14.472V13.096H24.1756C22.7356 13.096 22.0156 13.5973 22.0156 14.6C22.0156 15.0907 22.2023 15.48 22.5756 15.768C22.949 16.0453 23.4716 16.184 24.1436 16.184ZM35.3251 8.52C36.3811 8.52 37.2185 8.82933 37.8371 9.448C38.4665 10.056 38.7811 10.9467 38.7811 12.12V17H37.6451V12.232C37.6451 11.3573 37.4265 10.6907 36.9891 10.232C36.5518 9.77333 35.9278 9.544 35.1171 9.544C34.2105 9.544 33.4905 9.816 32.9571 10.36C32.4345 10.8933 32.1731 11.6347 32.1731 12.584V17H31.0371V8.584H32.1251V10.136C32.4345 9.624 32.8611 9.22933 33.4051 8.952C33.9598 8.664 34.5998 8.52 35.3251 8.52ZM44.9852 12.776L43.0013 14.6V17H41.8653V5.128H43.0013V13.176L48.0253 8.584H49.4333L45.8333 12.024L49.7693 17H48.3773L44.9852 12.776ZM62.7341 8.584L58.5261 18.008C58.1848 18.7973 57.7901 19.3573 57.3421 19.688C56.8941 20.0187 56.3555 20.184 55.7261 20.184C55.3208 20.184 54.9421 20.12 54.5901 19.992C54.2381 19.864 53.9341 19.672 53.6781 19.416L54.2061 18.568C54.6328 18.9947 55.1448 19.208 55.7421 19.208C56.1261 19.208 56.4515 19.1013 56.7181 18.888C56.9955 18.6747 57.2515 18.312 57.4861 17.8L57.8541 16.984L54.0941 8.584H55.2781L58.4461 15.736L61.6141 8.584H62.7341ZM67.5396 17.08C66.729 17.08 65.9983 16.8987 65.3476 16.536C64.697 16.1627 64.185 15.6507 63.8116 15C63.4383 14.3493 63.2516 13.6133 63.2516 12.792C63.2516 11.9707 63.4383 11.2347 63.8116 10.584C64.185 9.93333 64.697 9.42667 65.3476 9.064C65.9983 8.70133 66.729 8.52 67.5396 8.52C68.3503 8.52 69.081 8.70133 69.7316 9.064C70.3823 9.42667 70.889 9.93333 71.2516 10.584C71.625 11.2347 71.8116 11.9707 71.8116 12.792C71.8116 13.6133 71.625 14.3493 71.2516 15C70.889 15.6507 70.3823 16.1627 69.7316 16.536C69.081 16.8987 68.3503 17.08 67.5396 17.08ZM67.5396 16.072C68.137 16.072 68.6703 15.9387 69.1396 15.672C69.6196 15.3947 69.993 15.0053 70.2596 14.504C70.5263 14.0027 70.6596 13.432 70.6596 12.792C70.6596 12.152 70.5263 11.5813 70.2596 11.08C69.993 10.5787 69.6196 10.1947 69.1396 9.928C68.6703 9.65067 68.137 9.512 67.5396 9.512C66.9423 9.512 66.4036 9.65067 65.9236 9.928C65.4543 10.1947 65.081 10.5787 64.8036 11.08C64.537 11.5813 64.4036 12.152 64.4036 12.792C64.4036 13.432 64.537 14.0027 64.8036 14.504C65.081 15.0053 65.4543 15.3947 65.9236 15.672C66.4036 15.9387 66.9423 16.072 67.5396 16.072ZM81.7149 8.584V17H80.6269V15.464C80.3282 15.976 79.9175 16.376 79.3949 16.664C78.8722 16.9413 78.2749 17.08 77.6029 17.08C76.5042 17.08 75.6349 16.776 74.9949 16.168C74.3655 15.5493 74.0509 14.648 74.0509 13.464V8.584H75.1869V13.352C75.1869 14.2373 75.4055 14.9093 75.8429 15.368C76.2802 15.8267 76.9042 16.056 77.7149 16.056C78.6002 16.056 79.2989 15.7893 79.8109 15.256C80.3229 14.712 80.5789 13.96 80.5789 13V8.584H81.7149ZM91.868 6.008C91.3773 6.008 91.004 6.14133 90.748 6.408C90.5027 6.67467 90.38 7.06933 90.38 7.592V8.584H92.972V9.544H90.412V17H89.276V9.544H87.772V8.584H89.276V7.544C89.276 6.776 89.4947 6.168 89.932 5.72C90.38 5.272 91.0093 5.048 91.82 5.048C92.14 5.048 92.4493 5.096 92.748 5.192C93.0467 5.27733 93.2973 5.40533 93.5 5.576L93.116 6.424C92.7853 6.14667 92.3693 6.008 91.868 6.008ZM97.8053 17.08C96.9946 17.08 96.2639 16.8987 95.6133 16.536C94.9626 16.1627 94.4506 15.6507 94.0773 15C93.7039 14.3493 93.5173 13.6133 93.5173 12.792C93.5173 11.9707 93.7039 11.2347 94.0773 10.584C94.4506 9.93333 94.9626 9.42667 95.6133 9.064C96.2639 8.70133 96.9946 8.52 97.8053 8.52C98.6159 8.52 99.3466 8.70133 99.9973 9.064C100.648 9.42667 101.155 9.93333 101.517 10.584C101.891 11.2347 102.077 11.9707 102.077 12.792C102.077 13.6133 101.891 14.3493 101.517 15C101.155 15.6507 100.648 16.1627 99.9973 16.536C99.3466 16.8987 98.6159 17.08 97.8053 17.08ZM97.8053 16.072C98.4026 16.072 98.9359 15.9387 99.4053 15.672C99.8853 15.3947 100.259 15.0053 100.525 14.504C100.792 14.0027 100.925 13.432 100.925 12.792C100.925 12.152 100.792 11.5813 100.525 11.08C100.259 10.5787 99.8853 10.1947 99.4053 9.928C98.9359 9.65067 98.4026 9.512 97.8053 9.512C97.2079 9.512 96.6693 9.65067 96.1893 9.928C95.7199 10.1947 95.3466 10.5787 95.0693 11.08C94.8026 11.5813 94.6693 12.152 94.6693 12.792C94.6693 13.432 94.8026 14.0027 95.0693 14.504C95.3466 15.0053 95.7199 15.3947 96.1893 15.672C96.6693 15.9387 97.2079 16.072 97.8053 16.072ZM105.485 10.232C105.751 9.66667 106.146 9.24 106.669 8.952C107.202 8.664 107.858 8.52 108.637 8.52V9.624L108.365 9.608C107.479 9.608 106.786 9.88 106.285 10.424C105.783 10.968 105.533 11.7307 105.533 12.712V17H104.397V8.584H105.485V10.232ZM122.078 8.584L117.87 18.008C117.529 18.7973 117.134 19.3573 116.686 19.688C116.238 20.0187 115.699 20.184 115.07 20.184C114.665 20.184 114.286 20.12 113.934 19.992C113.582 19.864 113.278 19.672 113.022 19.416L113.55 18.568C113.977 18.9947 114.489 19.208 115.086 19.208C115.47 19.208 115.795 19.1013 116.062 18.888C116.339 18.6747 116.595 18.312 116.83 17.8L117.198 16.984L113.438 8.584H114.622L117.79 15.736L120.958 8.584H122.078ZM126.883 17.08C126.073 17.08 125.342 16.8987 124.691 16.536C124.041 16.1627 123.529 15.6507 123.155 15C122.782 14.3493 122.595 13.6133 122.595 12.792C122.595 11.9707 122.782 11.2347 123.155 10.584C123.529 9.93333 124.041 9.42667 124.691 9.064C125.342 8.70133 126.073 8.52 126.883 8.52C127.694 8.52 128.425 8.70133 129.075 9.064C129.726 9.42667 130.233 9.93333 130.595 10.584C130.969 11.2347 131.155 11.9707 131.155 12.792C131.155 13.6133 130.969 14.3493 130.595 15C130.233 15.6507 129.726 16.1627 129.075 16.536C128.425 16.8987 127.694 17.08 126.883 17.08ZM126.883 16.072C127.481 16.072 128.014 15.9387 128.483 15.672C128.963 15.3947 129.337 15.0053 129.603 14.504C129.87 14.0027 130.003 13.432 130.003 12.792C130.003 12.152 129.87 11.5813 129.603 11.08C129.337 10.5787 128.963 10.1947 128.483 9.928C128.014 9.65067 127.481 9.512 126.883 9.512C126.286 9.512 125.747 9.65067 125.267 9.928C124.798 10.1947 124.425 10.5787 124.147 11.08C123.881 11.5813 123.747 12.152 123.747 12.792C123.747 13.432 123.881 14.0027 124.147 14.504C124.425 15.0053 124.798 15.3947 125.267 15.672C125.747 15.9387 126.286 16.072 126.883 16.072ZM141.059 8.584V17H139.971V15.464C139.672 15.976 139.261 16.376 138.739 16.664C138.216 16.9413 137.619 17.08 136.947 17.08C135.848 17.08 134.979 16.776 134.339 16.168C133.709 15.5493 133.395 14.648 133.395 13.464V8.584H134.531V13.352C134.531 14.2373 134.749 14.9093 135.187 15.368C135.624 15.8267 136.248 16.056 137.059 16.056C137.944 16.056 138.643 15.7893 139.155 15.256C139.667 14.712 139.923 13.96 139.923 13V8.584H141.059ZM145.328 10.232C145.595 9.66667 145.99 9.24 146.512 8.952C147.046 8.664 147.702 8.52 148.48 8.52V9.624L148.208 9.608C147.323 9.608 146.63 9.88 146.128 10.424C145.627 10.968 145.376 11.7307 145.376 12.712V17H144.24V8.584H145.328V10.232ZM159.282 16.488C159.068 16.68 158.802 16.8293 158.482 16.936C158.172 17.032 157.847 17.08 157.506 17.08C156.716 17.08 156.108 16.8667 155.682 16.44C155.255 16.0133 155.042 15.4107 155.042 14.632V9.544H153.538V8.584H155.042V6.744H156.178V8.584H158.738V9.544H156.178V14.568C156.178 15.0693 156.3 15.4533 156.546 15.72C156.802 15.976 157.164 16.104 157.634 16.104C157.868 16.104 158.092 16.0667 158.306 15.992C158.53 15.9173 158.722 15.8107 158.882 15.672L159.282 16.488ZM161.35 8.584H162.486V17H161.35V8.584ZM161.926 6.744C161.691 6.744 161.494 6.664 161.334 6.504C161.174 6.344 161.094 6.152 161.094 5.928C161.094 5.71467 161.174 5.528 161.334 5.368C161.494 5.208 161.691 5.128 161.926 5.128C162.16 5.128 162.358 5.208 162.518 5.368C162.678 5.51733 162.758 5.69867 162.758 5.912C162.758 6.14667 162.678 6.344 162.518 6.504C162.358 6.664 162.16 6.744 161.926 6.744ZM176.143 8.52C177.199 8.52 178.025 8.824 178.623 9.432C179.231 10.04 179.535 10.936 179.535 12.12V17H178.399V12.232C178.399 11.3573 178.185 10.6907 177.759 10.232C177.343 9.77333 176.751 9.544 175.983 9.544C175.108 9.544 174.42 9.816 173.919 10.36C173.417 10.8933 173.167 11.6347 173.167 12.584V17H172.031V12.232C172.031 11.3573 171.817 10.6907 171.391 10.232C170.975 9.77333 170.377 9.544 169.599 9.544C168.735 9.544 168.047 9.816 167.535 10.36C167.033 10.8933 166.783 11.6347 166.783 12.584V17H165.647V8.584H166.735V10.12C167.033 9.608 167.449 9.21333 167.983 8.936C168.516 8.65867 169.129 8.52 169.823 8.52C170.527 8.52 171.135 8.66933 171.647 8.968C172.169 9.26667 172.559 9.70933 172.815 10.296C173.124 9.74133 173.567 9.30933 174.143 9C174.729 8.68 175.396 8.52 176.143 8.52ZM189.975 13.144H182.935C182.999 14.0187 183.335 14.728 183.943 15.272C184.551 15.8053 185.319 16.072 186.247 16.072C186.769 16.072 187.249 15.9813 187.687 15.8C188.124 15.608 188.503 15.3307 188.823 14.968L189.463 15.704C189.089 16.152 188.62 16.4933 188.055 16.728C187.5 16.9627 186.887 17.08 186.215 17.08C185.351 17.08 184.583 16.8987 183.911 16.536C183.249 16.1627 182.732 15.6507 182.359 15C181.985 14.3493 181.799 13.6133 181.799 12.792C181.799 11.9707 181.975 11.2347 182.327 10.584C182.689 9.93333 183.18 9.42667 183.799 9.064C184.428 8.70133 185.132 8.52 185.911 8.52C186.689 8.52 187.388 8.70133 188.007 9.064C188.625 9.42667 189.111 9.93333 189.463 10.584C189.815 11.224 189.991 11.96 189.991 12.792L189.975 13.144ZM185.911 9.496C185.1 9.496 184.417 9.75733 183.863 10.28C183.319 10.792 183.009 11.464 182.935 12.296H188.903C188.828 11.464 188.513 10.792 187.959 10.28C187.415 9.75733 186.732 9.496 185.911 9.496ZM192.431 15.336C192.676 15.336 192.879 15.4213 193.039 15.592C193.199 15.752 193.279 15.9547 193.279 16.2C193.279 16.328 193.257 16.4667 193.215 16.616C193.183 16.7653 193.129 16.936 193.055 17.128L192.383 19.336H191.615L192.159 17.016C191.988 16.9627 191.849 16.8667 191.743 16.728C191.636 16.5787 191.583 16.4027 191.583 16.2C191.583 15.9547 191.663 15.752 191.823 15.592C191.983 15.4213 192.185 15.336 192.431 15.336ZM0.242188 64.3594C-0.304688 64.3594 -0.78125 64.3021 -1.1875 64.1875V62.1719C-0.770833 62.276 -0.390625 62.3281 -0.046875 62.3281C0.484375 62.3281 0.864583 62.1615 1.09375 61.8281C1.32292 61.5 1.4375 60.9844 1.4375 60.2812V49.5781H3.85938V60.2656C3.85938 61.599 3.55469 62.6146 2.94531 63.3125C2.33594 64.0104 1.4349 64.3594 0.242188 64.3594ZM13.3125 61H6.73438V49.5781H13.3125V51.5625H9.15625V54.0703H13.0234V56.0547H9.15625V59H13.3125V61ZM25.8359 61H22.7578L17.7891 52.3594H17.7188C17.8177 53.8854 17.8672 54.974 17.8672 55.625V61H15.7031V49.5781H18.7578L23.7188 58.1328H23.7734C23.6953 56.6484 23.6562 55.599 23.6562 54.9844V49.5781H25.8359V61ZM38.8516 61H35.7734L30.8047 52.3594H30.7344C30.8333 53.8854 30.8828 54.974 30.8828 55.625V61H28.7188V49.5781H31.7734L36.7344 58.1328H36.7891C36.7109 56.6484 36.6719 55.599 36.6719 54.9844V49.5781H38.8516V61ZM41.7344 61V49.5781H44.1562V61H41.7344ZM49.4141 61H47.0312V49.5781H53.5781V51.5625H49.4141V54.5078H53.2891V56.4844H49.4141V61ZM62.3906 61H55.8125V49.5781H62.3906V51.5625H58.2344V54.0703H62.1016V56.0547H58.2344V59H62.3906V61ZM67.2031 54.6484H67.9844C68.75 54.6484 69.3151 54.5208 69.6797 54.2656C70.0443 54.0104 70.2266 53.6094 70.2266 53.0625C70.2266 52.5208 70.0391 52.1354 69.6641 51.9062C69.2943 51.6771 68.7188 51.5625 67.9375 51.5625H67.2031V54.6484ZM67.2031 56.6172V61H64.7812V49.5781H68.1094C69.6615 49.5781 70.8099 49.862 71.5547 50.4297C72.2995 50.9922 72.6719 51.849 72.6719 53C72.6719 53.6719 72.487 54.2708 72.1172 54.7969C71.7474 55.3177 71.224 55.7266 70.5469 56.0234C72.2656 58.5911 73.3854 60.25 73.9062 61H71.2188L68.4922 56.6172H67.2031ZM78.3047 64.3594C77.7578 64.3594 77.2812 64.3021 76.875 64.1875V62.1719C77.2917 62.276 77.6719 62.3281 78.0156 62.3281C78.5469 62.3281 78.9271 62.1615 79.1562 61.8281C79.3854 61.5 79.5 60.9844 79.5 60.2812V49.5781H81.9219V60.2656C81.9219 61.599 81.6172 62.6146 81.0078 63.3125C80.3984 64.0104 79.4974 64.3594 78.3047 64.3594ZM95.1641 55.2734C95.1641 57.1641 94.6953 58.6172 93.7578 59.6328C92.8203 60.6484 91.4766 61.1562 89.7266 61.1562C87.9766 61.1562 86.6328 60.6484 85.6953 59.6328C84.7578 58.6172 84.2891 57.1589 84.2891 55.2578C84.2891 53.3568 84.7578 51.9062 85.6953 50.9062C86.638 49.901 87.987 49.3984 89.7422 49.3984C91.4974 49.3984 92.8385 49.9036 93.7656 50.9141C94.6979 51.9245 95.1641 53.3776 95.1641 55.2734ZM86.8281 55.2734C86.8281 56.5495 87.0703 57.5104 87.5547 58.1562C88.0391 58.8021 88.763 59.125 89.7266 59.125C91.6589 59.125 92.625 57.8411 92.625 55.2734C92.625 52.7005 91.6641 51.4141 89.7422 51.4141C88.7786 51.4141 88.0521 51.7396 87.5625 52.3906C87.0729 53.0365 86.8281 53.9974 86.8281 55.2734ZM107.664 61H104.586L99.6172 52.3594H99.5469C99.6458 53.8854 99.6953 54.974 99.6953 55.625V61H97.5312V49.5781H100.586L105.547 58.1328H105.602C105.523 56.6484 105.484 55.599 105.484 54.9844V49.5781H107.664V61ZM117.125 61H110.547V49.5781H117.125V51.5625H112.969V54.0703H116.836V56.0547H112.969V59H117.125V61ZM126.258 57.8281C126.258 58.8594 125.885 59.6719 125.141 60.2656C124.401 60.8594 123.37 61.1562 122.047 61.1562C120.828 61.1562 119.75 60.9271 118.812 60.4688V58.2188C119.583 58.5625 120.234 58.8047 120.766 58.9453C121.302 59.0859 121.792 59.1562 122.234 59.1562C122.766 59.1562 123.172 59.0547 123.453 58.8516C123.74 58.6484 123.883 58.3464 123.883 57.9453C123.883 57.7214 123.82 57.5234 123.695 57.3516C123.57 57.1745 123.385 57.0052 123.141 56.8438C122.901 56.6823 122.409 56.4245 121.664 56.0703C120.966 55.7422 120.443 55.4271 120.094 55.125C119.745 54.8229 119.466 54.4714 119.258 54.0703C119.049 53.6693 118.945 53.2005 118.945 52.6641C118.945 51.6536 119.286 50.8594 119.969 50.2812C120.656 49.7031 121.604 49.4141 122.812 49.4141C123.406 49.4141 123.971 49.4844 124.508 49.625C125.049 49.7656 125.615 49.9635 126.203 50.2188L125.422 52.1016C124.812 51.8516 124.307 51.6771 123.906 51.5781C123.51 51.4792 123.12 51.4297 122.734 51.4297C122.276 51.4297 121.924 51.5365 121.68 51.75C121.435 51.9635 121.312 52.2422 121.312 52.5859C121.312 52.7995 121.362 52.987 121.461 53.1484C121.56 53.3047 121.716 53.4583 121.93 53.6094C122.148 53.7552 122.661 54.0208 123.469 54.4062C124.536 54.9167 125.268 55.4297 125.664 55.9453C126.06 56.4557 126.258 57.0833 126.258 57.8281ZM130.477 59.3203C130.206 60.3724 129.747 61.6198 129.102 63.0625H127.383C127.721 61.6771 127.984 60.3698 128.172 59.1406H130.359L130.477 59.3203ZM6.28906 73.4297C5.3776 73.4297 4.67188 73.7734 4.17188 74.4609C3.67188 75.1432 3.42188 76.0964 3.42188 77.3203C3.42188 79.8672 4.3776 81.1406 6.28906 81.1406C7.09115 81.1406 8.0625 80.9401 9.20312 80.5391V82.5703C8.26562 82.9609 7.21875 83.1562 6.0625 83.1562C4.40104 83.1562 3.13021 82.6536 2.25 81.6484C1.36979 80.638 0.929688 79.1901 0.929688 77.3047C0.929688 76.1172 1.14583 75.0781 1.57812 74.1875C2.01042 73.2917 2.63021 72.6068 3.4375 72.1328C4.25 71.6536 5.20052 71.4141 6.28906 71.4141C7.39844 71.4141 8.51302 71.6823 9.63281 72.2188L8.85156 74.1875C8.42448 73.9844 7.99479 73.8073 7.5625 73.6562C7.13021 73.5052 6.70573 73.4297 6.28906 73.4297ZM14.0625 76.6484H14.8438C15.6094 76.6484 16.1745 76.5208 16.5391 76.2656C16.9036 76.0104 17.0859 75.6094 17.0859 75.0625C17.0859 74.5208 16.8984 74.1354 16.5234 73.9062C16.1536 73.6771 15.5781 73.5625 14.7969 73.5625H14.0625V76.6484ZM14.0625 78.6172V83H11.6406V71.5781H14.9688C16.5208 71.5781 17.6693 71.862 18.4141 72.4297C19.1589 72.9922 19.5312 73.849 19.5312 75C19.5312 75.6719 19.3464 76.2708 18.9766 76.7969C18.6068 77.3177 18.0833 77.7266 17.4062 78.0234C19.125 80.5911 20.2448 82.25 20.7656 83H18.0781L15.3516 78.6172H14.0625ZM28.7812 83H22.2031V71.5781H28.7812V73.5625H24.625V76.0703H28.4922V78.0547H24.625V81H28.7812V83ZM38.1641 83L37.3359 80.2812H33.1719L32.3438 83H29.7344L33.7656 71.5312H36.7266L40.7734 83H38.1641ZM36.7578 78.25C35.9922 75.7865 35.5599 74.3932 35.4609 74.0703C35.3672 73.7474 35.2995 73.4922 35.2578 73.3047C35.0859 73.9714 34.5938 75.6198 33.7812 78.25H36.7578ZM46.625 83H44.2031V73.5938H41.1016V71.5781H49.7266V73.5938H46.625V83ZM51.4844 83V71.5781H53.9062V83H51.4844ZM63.2969 71.5781H65.7422L61.8594 83H59.2188L55.3438 71.5781H57.7891L59.9375 78.375C60.0573 78.776 60.1797 79.2448 60.3047 79.7812C60.4349 80.3125 60.5156 80.6823 60.5469 80.8906C60.6042 80.4115 60.7995 79.5729 61.1328 78.375L63.2969 71.5781ZM73.7656 83H67.1875V71.5781H73.7656V73.5625H69.6094V76.0703H73.4766V78.0547H69.6094V81H73.7656V83ZM82.7344 76.9531H83.5312C84.276 76.9531 84.8333 76.8073 85.2031 76.5156C85.5729 76.2188 85.7578 75.7891 85.7578 75.2266C85.7578 74.6589 85.6016 74.2396 85.2891 73.9688C84.9818 73.6979 84.4974 73.5625 83.8359 73.5625H82.7344V76.9531ZM88.2031 75.1406C88.2031 76.3698 87.8177 77.3099 87.0469 77.9609C86.2812 78.612 85.1901 78.9375 83.7734 78.9375H82.7344V83H80.3125V71.5781H83.9609C85.3464 71.5781 86.3984 71.8776 87.1172 72.4766C87.8411 73.0703 88.2031 73.9583 88.2031 75.1406ZM99.7188 83H97.3047V78.0703H92.7812V83H90.3594V71.5781H92.7812V76.0547H97.3047V71.5781H99.7188V83ZM112.977 77.2734C112.977 79.1641 112.508 80.6172 111.57 81.6328C110.633 82.6484 109.289 83.1562 107.539 83.1562C105.789 83.1562 104.445 82.6484 103.508 81.6328C102.57 80.6172 102.102 79.1589 102.102 77.2578C102.102 75.3568 102.57 73.9062 103.508 72.9062C104.451 71.901 105.799 71.3984 107.555 71.3984C109.31 71.3984 110.651 71.9036 111.578 72.9141C112.51 73.9245 112.977 75.3776 112.977 77.2734ZM104.641 77.2734C104.641 78.5495 104.883 79.5104 105.367 80.1562C105.852 80.8021 106.576 81.125 107.539 81.125C109.471 81.125 110.438 79.8411 110.438 77.2734C110.438 74.7005 109.477 73.4141 107.555 73.4141C106.591 73.4141 105.865 73.7396 105.375 74.3906C104.885 75.0365 104.641 75.9974 104.641 77.2734ZM119.75 83H117.328V73.5938H114.227V71.5781H122.852V73.5938H119.75V83ZM134.977 77.2734C134.977 79.1641 134.508 80.6172 133.57 81.6328C132.633 82.6484 131.289 83.1562 129.539 83.1562C127.789 83.1562 126.445 82.6484 125.508 81.6328C124.57 80.6172 124.102 79.1589 124.102 77.2578C124.102 75.3568 124.57 73.9062 125.508 72.9062C126.451 71.901 127.799 71.3984 129.555 71.3984C131.31 71.3984 132.651 71.9036 133.578 72.9141C134.51 73.9245 134.977 75.3776 134.977 77.2734ZM126.641 77.2734C126.641 78.5495 126.883 79.5104 127.367 80.1562C127.852 80.8021 128.576 81.125 129.539 81.125C131.471 81.125 132.438 79.8411 132.438 77.2734C132.438 74.7005 131.477 73.4141 129.555 73.4141C128.591 73.4141 127.865 73.7396 127.375 74.3906C126.885 75.0365 126.641 75.9974 126.641 77.2734ZM141.68 76.5859H146.211V82.5078C145.477 82.7474 144.784 82.9141 144.133 83.0078C143.487 83.1068 142.826 83.1562 142.148 83.1562C140.424 83.1562 139.107 82.651 138.195 81.6406C137.289 80.625 136.836 79.1693 136.836 77.2734C136.836 75.4297 137.362 73.9922 138.414 72.9609C139.471 71.9297 140.935 71.4141 142.805 71.4141C143.977 71.4141 145.107 71.6484 146.195 72.1172L145.391 74.0547C144.557 73.638 143.69 73.4297 142.789 73.4297C141.742 73.4297 140.904 73.7812 140.273 74.4844C139.643 75.1875 139.328 76.1328 139.328 77.3203C139.328 78.5599 139.581 79.5078 140.086 80.1641C140.596 80.8151 141.336 81.1406 142.305 81.1406C142.81 81.1406 143.323 81.0885 143.844 80.9844V78.6016H141.68V76.5859ZM151.359 76.6484H152.141C152.906 76.6484 153.471 76.5208 153.836 76.2656C154.201 76.0104 154.383 75.6094 154.383 75.0625C154.383 74.5208 154.195 74.1354 153.82 73.9062C153.451 73.6771 152.875 73.5625 152.094 73.5625H151.359V76.6484ZM151.359 78.6172V83H148.938V71.5781H152.266C153.818 71.5781 154.966 71.862 155.711 72.4297C156.456 72.9922 156.828 73.849 156.828 75C156.828 75.6719 156.643 76.2708 156.273 76.7969C155.904 77.3177 155.38 77.7266 154.703 78.0234C156.422 80.5911 157.542 82.25 158.062 83H155.375L152.648 78.6172H151.359ZM166.492 83L165.664 80.2812H161.5L160.672 83H158.062L162.094 71.5312H165.055L169.102 83H166.492ZM165.086 78.25C164.32 75.7865 163.888 74.3932 163.789 74.0703C163.695 73.7474 163.628 73.4922 163.586 73.3047C163.414 73.9714 162.922 75.6198 162.109 78.25H165.086ZM172.969 76.9531H173.766C174.51 76.9531 175.068 76.8073 175.438 76.5156C175.807 76.2188 175.992 75.7891 175.992 75.2266C175.992 74.6589 175.836 74.2396 175.523 73.9688C175.216 73.6979 174.732 73.5625 174.07 73.5625H172.969V76.9531ZM178.438 75.1406C178.438 76.3698 178.052 77.3099 177.281 77.9609C176.516 78.612 175.424 78.9375 174.008 78.9375H172.969V83H170.547V71.5781H174.195C175.581 71.5781 176.633 71.8776 177.352 72.4766C178.076 73.0703 178.438 73.9583 178.438 75.1406ZM189.953 83H187.539V78.0703H183.016V83H180.594V71.5781H183.016V76.0547H187.539V71.5781H189.953V83ZM199.422 83H192.844V71.5781H199.422V73.5625H195.266V76.0703H199.133V78.0547H195.266V81H199.422V83ZM204.234 76.6484H205.016C205.781 76.6484 206.346 76.5208 206.711 76.2656C207.076 76.0104 207.258 75.6094 207.258 75.0625C207.258 74.5208 207.07 74.1354 206.695 73.9062C206.326 73.6771 205.75 73.5625 204.969 73.5625H204.234V76.6484ZM204.234 78.6172V83H201.812V71.5781H205.141C206.693 71.5781 207.841 71.862 208.586 72.4297C209.331 72.9922 209.703 73.849 209.703 75C209.703 75.6719 209.518 76.2708 209.148 76.7969C208.779 77.3177 208.255 77.7266 207.578 78.0234C209.297 80.5911 210.417 82.25 210.938 83H208.25L205.523 78.6172H204.234Z" fill="black"/>
</g>
<defs>
<clipPath id="clip0">
<rect width="233" height="93" fill="white"/>
</clipPath>
</defs>
</svg>
