<svg width="502" height="102" viewBox="0 0 502 102" fill="none" xmlns="http://www.w3.org/2000/svg">
<path d="M32.8741 67L30.7003 59.8633H19.7696L17.5958 67H10.7462L21.3282 36.8945H29.1007L39.7237 67H32.8741ZM29.1827 54.5312C27.1729 48.0645 26.0382 44.4072 25.7784 43.5596C25.5323 42.7119 25.3546 42.042 25.2452 41.5498C24.794 43.2998 23.502 47.627 21.3692 54.5312H29.1827ZM50.2852 67.4102C47.5919 67.4102 45.4727 66.3643 43.9278 64.2725C42.3966 62.1807 41.6309 59.2822 41.6309 55.5771C41.6309 51.8174 42.4102 48.8916 43.9688 46.7998C45.5411 44.6943 47.7013 43.6416 50.4493 43.6416C53.3341 43.6416 55.5352 44.7627 57.0528 47.0049H57.2579C56.9434 45.2959 56.7862 43.7715 56.7862 42.4316V35.0898H63.0616V67H58.2628L57.0528 64.0264H56.7862C55.3643 66.2822 53.1973 67.4102 50.2852 67.4102ZM52.4796 62.4268C54.0792 62.4268 55.2481 61.9619 55.9864 61.0322C56.7384 60.1025 57.1485 58.5234 57.2169 56.2949V55.6182C57.2169 53.1572 56.8341 51.3936 56.0684 50.3271C55.3165 49.2607 54.086 48.7275 52.377 48.7275C50.9825 48.7275 49.8956 49.3223 49.1163 50.5117C48.3507 51.6875 47.9679 53.4033 47.9679 55.6592C47.9679 57.915 48.3575 59.6104 49.1368 60.7451C49.9161 61.8662 51.0304 62.4268 52.4796 62.4268ZM76.8634 67.4102C74.17 67.4102 72.0509 66.3643 70.5059 64.2725C68.9747 62.1807 68.2091 59.2822 68.2091 55.5771C68.2091 51.8174 68.9884 48.8916 70.547 46.7998C72.1192 44.6943 74.2794 43.6416 77.0274 43.6416C79.9122 43.6416 82.1134 44.7627 83.6309 47.0049H83.836C83.5216 45.2959 83.3643 43.7715 83.3643 42.4316V35.0898H89.6397V67H84.8409L83.6309 64.0264H83.3643C81.9425 66.2822 79.7755 67.4102 76.8634 67.4102ZM79.0577 62.4268C80.6573 62.4268 81.8263 61.9619 82.5645 61.0322C83.3165 60.1025 83.7266 58.5234 83.795 56.2949V55.6182C83.795 53.1572 83.4122 51.3936 82.6466 50.3271C81.8946 49.2607 80.6641 48.7275 78.9552 48.7275C77.5606 48.7275 76.4737 49.3223 75.6944 50.5117C74.9288 51.6875 74.546 53.4033 74.546 55.6592C74.546 57.915 74.9356 59.6104 75.7149 60.7451C76.4942 61.8662 77.6085 62.4268 79.0577 62.4268ZM121.652 67L120.442 63.8828H120.278C119.226 65.209 118.139 66.1318 117.018 66.6514C115.91 67.1572 114.461 67.4102 112.67 67.4102C110.469 67.4102 108.733 66.7812 107.461 65.5234C106.203 64.2656 105.574 62.4746 105.574 60.1504C105.574 57.7168 106.422 55.9258 108.117 54.7773C109.826 53.6152 112.397 52.9727 115.828 52.8496L119.807 52.7266V51.7217C119.807 49.3975 118.617 48.2354 116.238 48.2354C114.406 48.2354 112.253 48.7891 109.778 49.8965L107.707 45.6719C110.346 44.291 113.272 43.6006 116.484 43.6006C119.561 43.6006 121.919 44.2705 123.56 45.6104C125.2 46.9502 126.021 48.9873 126.021 51.7217V67H121.652ZM119.807 56.377L117.387 56.459C115.568 56.5137 114.215 56.8418 113.326 57.4434C112.438 58.0449 111.993 58.9609 111.993 60.1914C111.993 61.9551 113.005 62.8369 115.028 62.8369C116.478 62.8369 117.633 62.4199 118.494 61.5859C119.369 60.752 119.807 59.6445 119.807 58.2637V56.377ZM159.387 60.1914C159.387 62.543 158.566 64.334 156.926 65.5645C155.299 66.7949 152.858 67.4102 149.605 67.4102C147.937 67.4102 146.515 67.2939 145.339 67.0615C144.163 66.8428 143.063 66.5146 142.037 66.0771V60.9092C143.199 61.4561 144.505 61.9141 145.954 62.2832C147.417 62.6523 148.702 62.8369 149.81 62.8369C152.079 62.8369 153.214 62.1807 153.214 60.8682C153.214 60.376 153.064 59.9795 152.763 59.6787C152.462 59.3643 151.942 59.0156 151.204 58.6328C150.466 58.2363 149.482 57.7783 148.251 57.2588C146.487 56.5205 145.189 55.8369 144.355 55.208C143.534 54.5791 142.933 53.8613 142.55 53.0547C142.181 52.2344 141.996 51.2295 141.996 50.04C141.996 48.0029 142.782 46.4307 144.355 45.3232C145.941 44.2021 148.183 43.6416 151.081 43.6416C153.843 43.6416 156.529 44.2432 159.141 45.4463L157.254 49.958C156.106 49.4658 155.032 49.0625 154.034 48.748C153.036 48.4336 152.018 48.2764 150.979 48.2764C149.133 48.2764 148.21 48.7754 148.21 49.7734C148.21 50.334 148.504 50.8193 149.092 51.2295C149.693 51.6396 150.999 52.248 153.009 53.0547C154.8 53.7793 156.112 54.4561 156.946 55.085C157.78 55.7139 158.396 56.4385 158.792 57.2588C159.189 58.0791 159.387 59.0566 159.387 60.1914ZM180.51 67L179.669 64.0674H179.341C178.671 65.1338 177.721 65.9609 176.49 66.5488C175.26 67.123 173.858 67.4102 172.286 67.4102C169.593 67.4102 167.563 66.6924 166.195 65.2568C164.828 63.8076 164.145 61.7295 164.145 59.0225V44.0723H170.399V57.4639C170.399 59.1182 170.693 60.3623 171.281 61.1963C171.869 62.0166 172.806 62.4268 174.091 62.4268C175.841 62.4268 177.106 61.8457 177.885 60.6836C178.664 59.5078 179.054 57.5664 179.054 54.8594V44.0723H185.309V67H180.51ZM204.627 43.6416C207.334 43.6416 209.453 44.7012 210.984 46.8203C212.516 48.9258 213.281 51.8174 213.281 55.4951C213.281 59.2822 212.488 62.2148 210.902 64.293C209.33 66.3711 207.184 67.4102 204.463 67.4102C201.77 67.4102 199.657 66.4326 198.126 64.4775H197.695L196.649 67H191.871V35.0898H198.126V42.5137C198.126 43.457 198.044 44.9678 197.88 47.0459H198.126C199.589 44.7764 201.756 43.6416 204.627 43.6416ZM202.617 48.6455C201.072 48.6455 199.944 49.124 199.233 50.0811C198.523 51.0244 198.153 52.5898 198.126 54.7773V55.4541C198.126 57.915 198.488 59.6787 199.213 60.7451C199.951 61.8115 201.113 62.3447 202.699 62.3447C203.984 62.3447 205.003 61.7568 205.755 60.5811C206.521 59.3916 206.903 57.6689 206.903 55.4131C206.903 53.1572 206.521 51.4688 205.755 50.3477C204.989 49.2129 203.943 48.6455 202.617 48.6455ZM239.613 67H233.358V53.6084C233.358 50.2998 232.128 48.6455 229.667 48.6455C227.917 48.6455 226.652 49.2402 225.873 50.4297C225.094 51.6191 224.704 53.5469 224.704 56.2129V67H218.449V35.0898H224.704V41.5908C224.704 42.0967 224.656 43.2861 224.561 45.1592L224.417 47.0049H224.745C226.14 44.7627 228.355 43.6416 231.39 43.6416C234.083 43.6416 236.127 44.3662 237.522 45.8154C238.916 47.2646 239.613 49.3428 239.613 52.0498V67ZM255.548 48.0918C254.222 48.0918 253.183 48.5156 252.431 49.3633C251.679 50.1973 251.248 51.3867 251.139 52.9316H259.916C259.889 51.3867 259.485 50.1973 258.706 49.3633C257.927 48.5156 256.874 48.0918 255.548 48.0918ZM256.43 67.4102C252.738 67.4102 249.854 66.3916 247.775 64.3545C245.697 62.3174 244.658 59.4326 244.658 55.7002C244.658 51.8584 245.615 48.8916 247.529 46.7998C249.457 44.6943 252.116 43.6416 255.507 43.6416C258.747 43.6416 261.27 44.5645 263.074 46.4102C264.879 48.2559 265.781 50.8057 265.781 54.0596V57.0947H250.995C251.064 58.8721 251.59 60.2598 252.574 61.2578C253.559 62.2559 254.94 62.7549 256.717 62.7549C258.098 62.7549 259.403 62.6113 260.634 62.3242C261.864 62.0371 263.149 61.5791 264.489 60.9502V65.79C263.396 66.3369 262.227 66.7402 260.983 67C259.738 67.2734 258.221 67.4102 256.43 67.4102ZM285.428 67L284.218 63.8828H284.054C283.001 65.209 281.914 66.1318 280.793 66.6514C279.686 67.1572 278.236 67.4102 276.445 67.4102C274.244 67.4102 272.508 66.7812 271.236 65.5234C269.979 64.2656 269.35 62.4746 269.35 60.1504C269.35 57.7168 270.197 55.9258 271.893 54.7773C273.602 53.6152 276.172 52.9727 279.604 52.8496L283.582 52.7266V51.7217C283.582 49.3975 282.393 48.2354 280.014 48.2354C278.182 48.2354 276.028 48.7891 273.554 49.8965L271.483 45.6719C274.121 44.291 277.047 43.6006 280.26 43.6006C283.336 43.6006 285.694 44.2705 287.335 45.6104C288.976 46.9502 289.796 48.9873 289.796 51.7217V67H285.428ZM283.582 56.377L281.162 56.459C279.344 56.5137 277.99 56.8418 277.102 57.4434C276.213 58.0449 275.769 58.9609 275.769 60.1914C275.769 61.9551 276.78 62.8369 278.804 62.8369C280.253 62.8369 281.408 62.4199 282.27 61.5859C283.145 60.752 283.582 59.6445 283.582 58.2637V56.377ZM303.516 67.4102C300.822 67.4102 298.703 66.3643 297.158 64.2725C295.627 62.1807 294.861 59.2822 294.861 55.5771C294.861 51.8174 295.641 48.8916 297.199 46.7998C298.772 44.6943 300.932 43.6416 303.68 43.6416C306.565 43.6416 308.766 44.7627 310.283 47.0049H310.488C310.174 45.2959 310.017 43.7715 310.017 42.4316V35.0898H316.292V67H311.493L310.283 64.0264H310.017C308.595 66.2822 306.428 67.4102 303.516 67.4102ZM305.71 62.4268C307.31 62.4268 308.479 61.9619 309.217 61.0322C309.969 60.1025 310.379 58.5234 310.447 56.2949V55.6182C310.447 53.1572 310.065 51.3936 309.299 50.3271C308.547 49.2607 307.316 48.7275 305.608 48.7275C304.213 48.7275 303.126 49.3223 302.347 50.5117C301.581 51.6875 301.198 53.4033 301.198 55.6592C301.198 57.915 301.588 59.6104 302.367 60.7451C303.147 61.8662 304.261 62.4268 305.71 62.4268ZM322.567 38.1455C322.567 36.1084 323.702 35.0898 325.972 35.0898C328.241 35.0898 329.376 36.1084 329.376 38.1455C329.376 39.1162 329.089 39.875 328.515 40.4219C327.954 40.9551 327.107 41.2217 325.972 41.2217C323.702 41.2217 322.567 40.1963 322.567 38.1455ZM329.089 67H322.834V44.0723H329.089V67ZM356.836 67H350.581V53.6084C350.581 51.9541 350.287 50.7168 349.699 49.8965C349.111 49.0625 348.175 48.6455 346.89 48.6455C345.14 48.6455 343.875 49.2334 343.096 50.4092C342.316 51.5713 341.927 53.5059 341.927 56.2129V67H335.672V44.0723H340.45L341.291 47.0049H341.64C342.337 45.8975 343.294 45.0635 344.511 44.5029C345.741 43.9287 347.136 43.6416 348.694 43.6416C351.36 43.6416 353.384 44.3662 354.765 45.8154C356.146 47.251 356.836 49.3291 356.836 52.0498V67ZM383.23 44.0723V47.251L379.641 48.1738C380.297 49.1992 380.625 50.3477 380.625 51.6191C380.625 54.0801 379.764 56.001 378.041 57.3818C376.332 58.749 373.953 59.4326 370.904 59.4326L369.776 59.3711L368.854 59.2686C368.211 59.7607 367.89 60.3076 367.89 60.9092C367.89 61.8115 369.038 62.2627 371.335 62.2627H375.232C377.747 62.2627 379.661 62.8027 380.974 63.8828C382.3 64.9629 382.963 66.5488 382.963 68.6406C382.963 71.3203 381.842 73.3984 379.6 74.875C377.371 76.3516 374.165 77.0898 369.982 77.0898C366.782 77.0898 364.335 76.5293 362.64 75.4082C360.958 74.3008 360.117 72.7422 360.117 70.7324C360.117 69.3516 360.548 68.1963 361.409 67.2666C362.271 66.3369 363.535 65.6738 365.203 65.2773C364.561 65.0039 364 64.5596 363.522 63.9443C363.043 63.3154 362.804 62.6523 362.804 61.9551C362.804 61.0801 363.057 60.3555 363.563 59.7812C364.068 59.1934 364.8 58.6191 365.757 58.0586C364.554 57.5391 363.597 56.7051 362.886 55.5566C362.189 54.4082 361.84 53.0547 361.84 51.4961C361.84 48.9941 362.653 47.0596 364.28 45.6924C365.907 44.3252 368.232 43.6416 371.253 43.6416C371.896 43.6416 372.654 43.7031 373.529 43.8262C374.418 43.9355 374.985 44.0176 375.232 44.0723H383.23ZM365.531 70.2402C365.531 71.1016 365.941 71.7783 366.762 72.2705C367.596 72.7627 368.758 73.0088 370.248 73.0088C372.49 73.0088 374.247 72.7012 375.519 72.0859C376.79 71.4707 377.426 70.6299 377.426 69.5635C377.426 68.7021 377.05 68.1074 376.298 67.7793C375.546 67.4512 374.384 67.2871 372.812 67.2871H369.571C368.423 67.2871 367.459 67.5537 366.68 68.0869C365.914 68.6338 365.531 69.3516 365.531 70.2402ZM367.808 51.5781C367.808 52.8223 368.088 53.8066 368.649 54.5312C369.223 55.2559 370.091 55.6182 371.253 55.6182C372.429 55.6182 373.29 55.2559 373.837 54.5312C374.384 53.8066 374.657 52.8223 374.657 51.5781C374.657 48.8164 373.523 47.4355 371.253 47.4355C368.956 47.4355 367.808 48.8164 367.808 51.5781Z" fill="black"/>
</svg>
