<svg width="373" height="43" viewBox="0 0 373 43" fill="none" xmlns="http://www.w3.org/2000/svg">
<path d="M22.1279 32L19.9541 24.8633H9.02344L6.84961 32H0L10.582 1.89453H18.3545L28.9775 32H22.1279ZM18.4365 19.5312C16.4268 13.0645 15.292 9.40723 15.0322 8.55957C14.7861 7.71191 14.6084 7.04199 14.499 6.5498C14.0479 8.2998 12.7559 12.627 10.623 19.5312H18.4365ZM39.5391 32.4102C36.8457 32.4102 34.7266 31.3643 33.1816 29.2725C31.6504 27.1807 30.8848 24.2822 30.8848 20.5771C30.8848 16.8174 31.6641 13.8916 33.2227 11.7998C34.7949 9.69434 36.9551 8.6416 39.7031 8.6416C42.5879 8.6416 44.7891 9.7627 46.3066 12.0049H46.5117C46.1973 10.2959 46.04 8.77148 46.04 7.43164V0.0898438H52.3154V32H47.5166L46.3066 29.0264H46.04C44.6182 31.2822 42.4512 32.4102 39.5391 32.4102ZM41.7334 27.4268C43.333 27.4268 44.502 26.9619 45.2402 26.0322C45.9922 25.1025 46.4023 23.5234 46.4707 21.2949V20.6182C46.4707 18.1572 46.0879 16.3936 45.3223 15.3271C44.5703 14.2607 43.3398 13.7275 41.6309 13.7275C40.2363 13.7275 39.1494 14.3223 38.3701 15.5117C37.6045 16.6875 37.2217 18.4033 37.2217 20.6592C37.2217 22.915 37.6113 24.6104 38.3906 25.7451C39.1699 26.8662 40.2842 27.4268 41.7334 27.4268ZM66.1172 32.4102C63.4238 32.4102 61.3047 31.3643 59.7598 29.2725C58.2285 27.1807 57.4629 24.2822 57.4629 20.5771C57.4629 16.8174 58.2422 13.8916 59.8008 11.7998C61.373 9.69434 63.5332 8.6416 66.2812 8.6416C69.166 8.6416 71.3672 9.7627 72.8848 12.0049H73.0898C72.7754 10.2959 72.6182 8.77148 72.6182 7.43164V0.0898438H78.8936V32H74.0947L72.8848 29.0264H72.6182C71.1963 31.2822 69.0293 32.4102 66.1172 32.4102ZM68.3115 27.4268C69.9111 27.4268 71.0801 26.9619 71.8184 26.0322C72.5703 25.1025 72.9805 23.5234 73.0488 21.2949V20.6182C73.0488 18.1572 72.666 16.3936 71.9004 15.3271C71.1484 14.2607 69.918 13.7275 68.209 13.7275C66.8145 13.7275 65.7275 14.3223 64.9482 15.5117C64.1826 16.6875 63.7998 18.4033 63.7998 20.6592C63.7998 22.915 64.1895 24.6104 64.9688 25.7451C65.748 26.8662 66.8623 27.4268 68.3115 27.4268ZM110.906 32L109.696 28.8828H109.532C108.479 30.209 107.393 31.1318 106.271 31.6514C105.164 32.1572 103.715 32.4102 101.924 32.4102C99.7227 32.4102 97.9863 31.7812 96.7148 30.5234C95.457 29.2656 94.8281 27.4746 94.8281 25.1504C94.8281 22.7168 95.6758 20.9258 97.3711 19.7773C99.0801 18.6152 101.65 17.9727 105.082 17.8496L109.061 17.7266V16.7217C109.061 14.3975 107.871 13.2354 105.492 13.2354C103.66 13.2354 101.507 13.7891 99.0322 14.8965L96.9609 10.6719C99.5996 9.29102 102.525 8.60059 105.738 8.60059C108.814 8.60059 111.173 9.27051 112.813 10.6104C114.454 11.9502 115.274 13.9873 115.274 16.7217V32H110.906ZM109.061 21.377L106.641 21.459C104.822 21.5137 103.469 21.8418 102.58 22.4434C101.691 23.0449 101.247 23.9609 101.247 25.1914C101.247 26.9551 102.259 27.8369 104.282 27.8369C105.731 27.8369 106.887 27.4199 107.748 26.5859C108.623 25.752 109.061 24.6445 109.061 23.2637V21.377ZM148.641 25.1914C148.641 27.543 147.82 29.334 146.18 30.5645C144.553 31.7949 142.112 32.4102 138.858 32.4102C137.19 32.4102 135.769 32.2939 134.593 32.0615C133.417 31.8428 132.316 31.5146 131.291 31.0771V25.9092C132.453 26.4561 133.759 26.9141 135.208 27.2832C136.671 27.6523 137.956 27.8369 139.063 27.8369C141.333 27.8369 142.468 27.1807 142.468 25.8682C142.468 25.376 142.317 24.9795 142.017 24.6787C141.716 24.3643 141.196 24.0156 140.458 23.6328C139.72 23.2363 138.735 22.7783 137.505 22.2588C135.741 21.5205 134.442 20.8369 133.608 20.208C132.788 19.5791 132.187 18.8613 131.804 18.0547C131.435 17.2344 131.25 16.2295 131.25 15.04C131.25 13.0029 132.036 11.4307 133.608 10.3232C135.194 9.20215 137.437 8.6416 140.335 8.6416C143.097 8.6416 145.783 9.24316 148.395 10.4463L146.508 14.958C145.359 14.4658 144.286 14.0625 143.288 13.748C142.29 13.4336 141.271 13.2764 140.232 13.2764C138.387 13.2764 137.464 13.7754 137.464 14.7734C137.464 15.334 137.758 15.8193 138.346 16.2295C138.947 16.6396 140.253 17.248 142.263 18.0547C144.054 18.7793 145.366 19.4561 146.2 20.085C147.034 20.7139 147.649 21.4385 148.046 22.2588C148.442 23.0791 148.641 24.0566 148.641 25.1914ZM169.764 32L168.923 29.0674H168.595C167.925 30.1338 166.975 30.9609 165.744 31.5488C164.514 32.123 163.112 32.4102 161.54 32.4102C158.847 32.4102 156.816 31.6924 155.449 30.2568C154.082 28.8076 153.398 26.7295 153.398 24.0225V9.07227H159.653V22.4639C159.653 24.1182 159.947 25.3623 160.535 26.1963C161.123 27.0166 162.06 27.4268 163.345 27.4268C165.095 27.4268 166.359 26.8457 167.139 25.6836C167.918 24.5078 168.308 22.5664 168.308 19.8594V9.07227H174.562V32H169.764ZM193.881 8.6416C196.588 8.6416 198.707 9.70117 200.238 11.8203C201.77 13.9258 202.535 16.8174 202.535 20.4951C202.535 24.2822 201.742 27.2148 200.156 29.293C198.584 31.3711 196.438 32.4102 193.717 32.4102C191.023 32.4102 188.911 31.4326 187.38 29.4775H186.949L185.903 32H181.125V0.0898438H187.38V7.51367C187.38 8.45703 187.298 9.96777 187.134 12.0459H187.38C188.843 9.77637 191.01 8.6416 193.881 8.6416ZM191.871 13.6455C190.326 13.6455 189.198 14.124 188.487 15.0811C187.776 16.0244 187.407 17.5898 187.38 19.7773V20.4541C187.38 22.915 187.742 24.6787 188.467 25.7451C189.205 26.8115 190.367 27.3447 191.953 27.3447C193.238 27.3447 194.257 26.7568 195.009 25.5811C195.774 24.3916 196.157 22.6689 196.157 20.4131C196.157 18.1572 195.774 16.4688 195.009 15.3477C194.243 14.2129 193.197 13.6455 191.871 13.6455ZM228.867 32H222.612V18.6084C222.612 15.2998 221.382 13.6455 218.921 13.6455C217.171 13.6455 215.906 14.2402 215.127 15.4297C214.348 16.6191 213.958 18.5469 213.958 21.2129V32H207.703V0.0898438H213.958V6.59082C213.958 7.09668 213.91 8.28613 213.814 10.1592L213.671 12.0049H213.999C215.394 9.7627 217.608 8.6416 220.644 8.6416C223.337 8.6416 225.381 9.36621 226.775 10.8154C228.17 12.2646 228.867 14.3428 228.867 17.0498V32ZM244.802 13.0918C243.476 13.0918 242.437 13.5156 241.685 14.3633C240.933 15.1973 240.502 16.3867 240.393 17.9316H249.17C249.143 16.3867 248.739 15.1973 247.96 14.3633C247.181 13.5156 246.128 13.0918 244.802 13.0918ZM245.684 32.4102C241.992 32.4102 239.107 31.3916 237.029 29.3545C234.951 27.3174 233.912 24.4326 233.912 20.7002C233.912 16.8584 234.869 13.8916 236.783 11.7998C238.711 9.69434 241.37 8.6416 244.761 8.6416C248.001 8.6416 250.523 9.56445 252.328 11.4102C254.133 13.2559 255.035 15.8057 255.035 19.0596V22.0947H240.249C240.317 23.8721 240.844 25.2598 241.828 26.2578C242.812 27.2559 244.193 27.7549 245.971 27.7549C247.352 27.7549 248.657 27.6113 249.888 27.3242C251.118 27.0371 252.403 26.5791 253.743 25.9502V30.79C252.649 31.3369 251.48 31.7402 250.236 32C248.992 32.2734 247.475 32.4102 245.684 32.4102ZM274.682 32L273.472 28.8828H273.308C272.255 30.209 271.168 31.1318 270.047 31.6514C268.939 32.1572 267.49 32.4102 265.699 32.4102C263.498 32.4102 261.762 31.7812 260.49 30.5234C259.232 29.2656 258.604 27.4746 258.604 25.1504C258.604 22.7168 259.451 20.9258 261.146 19.7773C262.855 18.6152 265.426 17.9727 268.857 17.8496L272.836 17.7266V16.7217C272.836 14.3975 271.646 13.2354 269.268 13.2354C267.436 13.2354 265.282 13.7891 262.808 14.8965L260.736 10.6719C263.375 9.29102 266.301 8.60059 269.514 8.60059C272.59 8.60059 274.948 9.27051 276.589 10.6104C278.229 11.9502 279.05 13.9873 279.05 16.7217V32H274.682ZM272.836 21.377L270.416 21.459C268.598 21.5137 267.244 21.8418 266.355 22.4434C265.467 23.0449 265.022 23.9609 265.022 25.1914C265.022 26.9551 266.034 27.8369 268.058 27.8369C269.507 27.8369 270.662 27.4199 271.523 26.5859C272.398 25.752 272.836 24.6445 272.836 23.2637V21.377ZM292.77 32.4102C290.076 32.4102 287.957 31.3643 286.412 29.2725C284.881 27.1807 284.115 24.2822 284.115 20.5771C284.115 16.8174 284.895 13.8916 286.453 11.7998C288.025 9.69434 290.186 8.6416 292.934 8.6416C295.818 8.6416 298.02 9.7627 299.537 12.0049H299.742C299.428 10.2959 299.271 8.77148 299.271 7.43164V0.0898438H305.546V32H300.747L299.537 29.0264H299.271C297.849 31.2822 295.682 32.4102 292.77 32.4102ZM294.964 27.4268C296.563 27.4268 297.732 26.9619 298.471 26.0322C299.223 25.1025 299.633 23.5234 299.701 21.2949V20.6182C299.701 18.1572 299.318 16.3936 298.553 15.3271C297.801 14.2607 296.57 13.7275 294.861 13.7275C293.467 13.7275 292.38 14.3223 291.601 15.5117C290.835 16.6875 290.452 18.4033 290.452 20.6592C290.452 22.915 290.842 24.6104 291.621 25.7451C292.4 26.8662 293.515 27.4268 294.964 27.4268ZM311.821 3.14551C311.821 1.1084 312.956 0.0898438 315.226 0.0898438C317.495 0.0898438 318.63 1.1084 318.63 3.14551C318.63 4.11621 318.343 4.875 317.769 5.42188C317.208 5.95508 316.36 6.22168 315.226 6.22168C312.956 6.22168 311.821 5.19629 311.821 3.14551ZM318.343 32H312.088V9.07227H318.343V32ZM346.09 32H339.835V18.6084C339.835 16.9541 339.541 15.7168 338.953 14.8965C338.365 14.0625 337.429 13.6455 336.144 13.6455C334.394 13.6455 333.129 14.2334 332.35 15.4092C331.57 16.5713 331.181 18.5059 331.181 21.2129V32H324.926V9.07227H329.704L330.545 12.0049H330.894C331.591 10.8975 332.548 10.0635 333.765 9.50293C334.995 8.92871 336.39 8.6416 337.948 8.6416C340.614 8.6416 342.638 9.36621 344.019 10.8154C345.399 12.251 346.09 14.3291 346.09 17.0498V32ZM372.483 9.07227V12.251L368.895 13.1738C369.551 14.1992 369.879 15.3477 369.879 16.6191C369.879 19.0801 369.018 21.001 367.295 22.3818C365.586 23.749 363.207 24.4326 360.158 24.4326L359.03 24.3711L358.107 24.2686C357.465 24.7607 357.144 25.3076 357.144 25.9092C357.144 26.8115 358.292 27.2627 360.589 27.2627H364.485C367.001 27.2627 368.915 27.8027 370.228 28.8828C371.554 29.9629 372.217 31.5488 372.217 33.6406C372.217 36.3203 371.096 38.3984 368.854 39.875C366.625 41.3516 363.419 42.0898 359.235 42.0898C356.036 42.0898 353.589 41.5293 351.894 40.4082C350.212 39.3008 349.371 37.7422 349.371 35.7324C349.371 34.3516 349.802 33.1963 350.663 32.2666C351.524 31.3369 352.789 30.6738 354.457 30.2773C353.814 30.0039 353.254 29.5596 352.775 28.9443C352.297 28.3154 352.058 27.6523 352.058 26.9551C352.058 26.0801 352.311 25.3555 352.816 24.7812C353.322 24.1934 354.054 23.6191 355.011 23.0586C353.808 22.5391 352.851 21.7051 352.14 20.5566C351.442 19.4082 351.094 18.0547 351.094 16.4961C351.094 13.9941 351.907 12.0596 353.534 10.6924C355.161 9.3252 357.485 8.6416 360.507 8.6416C361.149 8.6416 361.908 8.70312 362.783 8.82617C363.672 8.93555 364.239 9.01758 364.485 9.07227H372.483ZM354.785 35.2402C354.785 36.1016 355.195 36.7783 356.016 37.2705C356.85 37.7627 358.012 38.0088 359.502 38.0088C361.744 38.0088 363.501 37.7012 364.772 37.0859C366.044 36.4707 366.68 35.6299 366.68 34.5635C366.68 33.7021 366.304 33.1074 365.552 32.7793C364.8 32.4512 363.638 32.2871 362.065 32.2871H358.825C357.677 32.2871 356.713 32.5537 355.934 33.0869C355.168 33.6338 354.785 34.3516 354.785 35.2402ZM357.062 16.5781C357.062 17.8223 357.342 18.8066 357.902 19.5312C358.477 20.2559 359.345 20.6182 360.507 20.6182C361.683 20.6182 362.544 20.2559 363.091 19.5312C363.638 18.8066 363.911 17.8223 363.911 16.5781C363.911 13.8164 362.776 12.4355 360.507 12.4355C358.21 12.4355 357.062 13.8164 357.062 16.5781Z" fill="black"/>
</svg>
