<svg width="492" height="60" viewBox="0 0 492 60" fill="none" xmlns="http://www.w3.org/2000/svg">
<path d="M22.8741 45L20.7003 37.8633H9.76962L7.59579 45H0.746178L11.3282 14.8945H19.1007L29.7237 45H22.8741ZM19.1827 32.5312C17.1729 26.0645 16.0382 22.4072 15.7784 21.5596C15.5323 20.7119 15.3546 20.042 15.2452 19.5498C14.794 21.2998 13.502 25.627 11.3692 32.5312H19.1827ZM40.2852 45.4102C37.5919 45.4102 35.4727 44.3643 33.9278 42.2725C32.3966 40.1807 31.6309 37.2822 31.6309 33.5771C31.6309 29.8174 32.4102 26.8916 33.9688 24.7998C35.5411 22.6943 37.7013 21.6416 40.4493 21.6416C43.3341 21.6416 45.5352 22.7627 47.0528 25.0049H47.2579C46.9434 23.2959 46.7862 21.7715 46.7862 20.4316V13.0898H53.0616V45H48.2628L47.0528 42.0264H46.7862C45.3643 44.2822 43.1973 45.4102 40.2852 45.4102ZM42.4796 40.4268C44.0792 40.4268 45.2481 39.9619 45.9864 39.0322C46.7384 38.1025 47.1485 36.5234 47.2169 34.2949V33.6182C47.2169 31.1572 46.8341 29.3936 46.0684 28.3271C45.3165 27.2607 44.086 26.7275 42.377 26.7275C40.9825 26.7275 39.8956 27.3223 39.1163 28.5117C38.3507 29.6875 37.9679 31.4033 37.9679 33.6592C37.9679 35.915 38.3575 37.6104 39.1368 38.7451C39.9161 39.8662 41.0304 40.4268 42.4796 40.4268ZM66.8634 45.4102C64.17 45.4102 62.0509 44.3643 60.5059 42.2725C58.9747 40.1807 58.2091 37.2822 58.2091 33.5771C58.2091 29.8174 58.9884 26.8916 60.547 24.7998C62.1192 22.6943 64.2794 21.6416 67.0274 21.6416C69.9122 21.6416 72.1134 22.7627 73.6309 25.0049H73.836C73.5216 23.2959 73.3643 21.7715 73.3643 20.4316V13.0898H79.6397V45H74.8409L73.6309 42.0264H73.3643C71.9425 44.2822 69.7755 45.4102 66.8634 45.4102ZM69.0577 40.4268C70.6573 40.4268 71.8263 39.9619 72.5645 39.0322C73.3165 38.1025 73.7266 36.5234 73.795 34.2949V33.6182C73.795 31.1572 73.4122 29.3936 72.6466 28.3271C71.8946 27.2607 70.6641 26.7275 68.9552 26.7275C67.5606 26.7275 66.4737 27.3223 65.6944 28.5117C64.9288 29.6875 64.546 31.4033 64.546 33.6592C64.546 35.915 64.9356 37.6104 65.7149 38.7451C66.4942 39.8662 67.6085 40.4268 69.0577 40.4268ZM111.652 45L110.442 41.8828H110.278C109.226 43.209 108.139 44.1318 107.018 44.6514C105.91 45.1572 104.461 45.4102 102.67 45.4102C100.469 45.4102 98.7325 44.7812 97.461 43.5234C96.2032 42.2656 95.5743 40.4746 95.5743 38.1504C95.5743 35.7168 96.422 33.9258 98.1173 32.7773C99.8263 31.6152 102.397 30.9727 105.828 30.8496L109.807 30.7266V29.7217C109.807 27.3975 108.617 26.2354 106.238 26.2354C104.406 26.2354 102.253 26.7891 99.7784 27.8965L97.7071 23.6719C100.346 22.291 103.272 21.6006 106.484 21.6006C109.561 21.6006 111.919 22.2705 113.56 23.6104C115.2 24.9502 116.021 26.9873 116.021 29.7217V45H111.652ZM109.807 34.377L107.387 34.459C105.568 34.5137 104.215 34.8418 103.326 35.4434C102.438 36.0449 101.993 36.9609 101.993 38.1914C101.993 39.9551 103.005 40.8369 105.028 40.8369C106.478 40.8369 107.633 40.4199 108.494 39.5859C109.369 38.752 109.807 37.6445 109.807 36.2637V34.377ZM149.387 38.1914C149.387 40.543 148.566 42.334 146.926 43.5645C145.299 44.7949 142.858 45.4102 139.605 45.4102C137.937 45.4102 136.515 45.2939 135.339 45.0615C134.163 44.8428 133.063 44.5146 132.037 44.0771V38.9092C133.199 39.4561 134.505 39.9141 135.954 40.2832C137.417 40.6523 138.702 40.8369 139.81 40.8369C142.079 40.8369 143.214 40.1807 143.214 38.8682C143.214 38.376 143.064 37.9795 142.763 37.6787C142.462 37.3643 141.942 37.0156 141.204 36.6328C140.466 36.2363 139.482 35.7783 138.251 35.2588C136.487 34.5205 135.189 33.8369 134.355 33.208C133.534 32.5791 132.933 31.8613 132.55 31.0547C132.181 30.2344 131.996 29.2295 131.996 28.04C131.996 26.0029 132.782 24.4307 134.355 23.3232C135.941 22.2021 138.183 21.6416 141.081 21.6416C143.843 21.6416 146.529 22.2432 149.141 23.4463L147.254 27.958C146.106 27.4658 145.032 27.0625 144.034 26.748C143.036 26.4336 142.018 26.2764 140.979 26.2764C139.133 26.2764 138.21 26.7754 138.21 27.7734C138.21 28.334 138.504 28.8193 139.092 29.2295C139.693 29.6396 140.999 30.248 143.009 31.0547C144.8 31.7793 146.112 32.4561 146.946 33.085C147.78 33.7139 148.396 34.4385 148.792 35.2588C149.189 36.0791 149.387 37.0566 149.387 38.1914ZM170.51 45L169.669 42.0674H169.341C168.671 43.1338 167.721 43.9609 166.49 44.5488C165.26 45.123 163.858 45.4102 162.286 45.4102C159.593 45.4102 157.563 44.6924 156.195 43.2568C154.828 41.8076 154.145 39.7295 154.145 37.0225V22.0723H160.399V35.4639C160.399 37.1182 160.693 38.3623 161.281 39.1963C161.869 40.0166 162.806 40.4268 164.091 40.4268C165.841 40.4268 167.106 39.8457 167.885 38.6836C168.664 37.5078 169.054 35.5664 169.054 32.8594V22.0723H175.309V45H170.51ZM194.627 21.6416C197.334 21.6416 199.453 22.7012 200.984 24.8203C202.516 26.9258 203.281 29.8174 203.281 33.4951C203.281 37.2822 202.488 40.2148 200.902 42.293C199.33 44.3711 197.184 45.4102 194.463 45.4102C191.77 45.4102 189.657 44.4326 188.126 42.4775H187.695L186.649 45H181.871V13.0898H188.126V20.5137C188.126 21.457 188.044 22.9678 187.88 25.0459H188.126C189.589 22.7764 191.756 21.6416 194.627 21.6416ZM192.617 26.6455C191.072 26.6455 189.944 27.124 189.233 28.0811C188.523 29.0244 188.153 30.5898 188.126 32.7773V33.4541C188.126 35.915 188.488 37.6787 189.213 38.7451C189.951 39.8115 191.113 40.3447 192.699 40.3447C193.984 40.3447 195.003 39.7568 195.755 38.5811C196.521 37.3916 196.903 35.6689 196.903 33.4131C196.903 31.1572 196.521 29.4688 195.755 28.3477C194.989 27.2129 193.943 26.6455 192.617 26.6455ZM229.613 45H223.358V31.6084C223.358 28.2998 222.128 26.6455 219.667 26.6455C217.917 26.6455 216.652 27.2402 215.873 28.4297C215.094 29.6191 214.704 31.5469 214.704 34.2129V45H208.449V13.0898H214.704V19.5908C214.704 20.0967 214.656 21.2861 214.561 23.1592L214.417 25.0049H214.745C216.14 22.7627 218.355 21.6416 221.39 21.6416C224.083 21.6416 226.127 22.3662 227.522 23.8154C228.916 25.2646 229.613 27.3428 229.613 30.0498V45ZM245.548 26.0918C244.222 26.0918 243.183 26.5156 242.431 27.3633C241.679 28.1973 241.248 29.3867 241.139 30.9316H249.916C249.889 29.3867 249.485 28.1973 248.706 27.3633C247.927 26.5156 246.874 26.0918 245.548 26.0918ZM246.43 45.4102C242.738 45.4102 239.854 44.3916 237.775 42.3545C235.697 40.3174 234.658 37.4326 234.658 33.7002C234.658 29.8584 235.615 26.8916 237.529 24.7998C239.457 22.6943 242.116 21.6416 245.507 21.6416C248.747 21.6416 251.27 22.5645 253.074 24.4102C254.879 26.2559 255.781 28.8057 255.781 32.0596V35.0947H240.995C241.064 36.8721 241.59 38.2598 242.574 39.2578C243.559 40.2559 244.94 40.7549 246.717 40.7549C248.098 40.7549 249.403 40.6113 250.634 40.3242C251.864 40.0371 253.149 39.5791 254.489 38.9502V43.79C253.396 44.3369 252.227 44.7402 250.983 45C249.738 45.2734 248.221 45.4102 246.43 45.4102ZM275.428 45L274.218 41.8828H274.054C273.001 43.209 271.914 44.1318 270.793 44.6514C269.686 45.1572 268.236 45.4102 266.445 45.4102C264.244 45.4102 262.508 44.7812 261.236 43.5234C259.979 42.2656 259.35 40.4746 259.35 38.1504C259.35 35.7168 260.197 33.9258 261.893 32.7773C263.602 31.6152 266.172 30.9727 269.604 30.8496L273.582 30.7266V29.7217C273.582 27.3975 272.393 26.2354 270.014 26.2354C268.182 26.2354 266.028 26.7891 263.554 27.8965L261.483 23.6719C264.121 22.291 267.047 21.6006 270.26 21.6006C273.336 21.6006 275.694 22.2705 277.335 23.6104C278.976 24.9502 279.796 26.9873 279.796 29.7217V45H275.428ZM273.582 34.377L271.162 34.459C269.344 34.5137 267.99 34.8418 267.102 35.4434C266.213 36.0449 265.769 36.9609 265.769 38.1914C265.769 39.9551 266.78 40.8369 268.804 40.8369C270.253 40.8369 271.408 40.4199 272.27 39.5859C273.145 38.752 273.582 37.6445 273.582 36.2637V34.377ZM293.516 45.4102C290.822 45.4102 288.703 44.3643 287.158 42.2725C285.627 40.1807 284.861 37.2822 284.861 33.5771C284.861 29.8174 285.641 26.8916 287.199 24.7998C288.772 22.6943 290.932 21.6416 293.68 21.6416C296.565 21.6416 298.766 22.7627 300.283 25.0049H300.488C300.174 23.2959 300.017 21.7715 300.017 20.4316V13.0898H306.292V45H301.493L300.283 42.0264H300.017C298.595 44.2822 296.428 45.4102 293.516 45.4102ZM295.71 40.4268C297.31 40.4268 298.479 39.9619 299.217 39.0322C299.969 38.1025 300.379 36.5234 300.447 34.2949V33.6182C300.447 31.1572 300.065 29.3936 299.299 28.3271C298.547 27.2607 297.316 26.7275 295.608 26.7275C294.213 26.7275 293.126 27.3223 292.347 28.5117C291.581 29.6875 291.198 31.4033 291.198 33.6592C291.198 35.915 291.588 37.6104 292.367 38.7451C293.147 39.8662 294.261 40.4268 295.71 40.4268ZM312.567 16.1455C312.567 14.1084 313.702 13.0898 315.972 13.0898C318.241 13.0898 319.376 14.1084 319.376 16.1455C319.376 17.1162 319.089 17.875 318.515 18.4219C317.954 18.9551 317.107 19.2217 315.972 19.2217C313.702 19.2217 312.567 18.1963 312.567 16.1455ZM319.089 45H312.834V22.0723H319.089V45ZM346.836 45H340.581V31.6084C340.581 29.9541 340.287 28.7168 339.699 27.8965C339.111 27.0625 338.175 26.6455 336.89 26.6455C335.14 26.6455 333.875 27.2334 333.096 28.4092C332.316 29.5713 331.927 31.5059 331.927 34.2129V45H325.672V22.0723H330.45L331.291 25.0049H331.64C332.337 23.8975 333.294 23.0635 334.511 22.5029C335.741 21.9287 337.136 21.6416 338.694 21.6416C341.36 21.6416 343.384 22.3662 344.765 23.8154C346.146 25.251 346.836 27.3291 346.836 30.0498V45ZM373.23 22.0723V25.251L369.641 26.1738C370.297 27.1992 370.625 28.3477 370.625 29.6191C370.625 32.0801 369.764 34.001 368.041 35.3818C366.332 36.749 363.953 37.4326 360.904 37.4326L359.776 37.3711L358.854 37.2686C358.211 37.7607 357.89 38.3076 357.89 38.9092C357.89 39.8115 359.038 40.2627 361.335 40.2627H365.232C367.747 40.2627 369.661 40.8027 370.974 41.8828C372.3 42.9629 372.963 44.5488 372.963 46.6406C372.963 49.3203 371.842 51.3984 369.6 52.875C367.371 54.3516 364.165 55.0898 359.982 55.0898C356.782 55.0898 354.335 54.5293 352.64 53.4082C350.958 52.3008 350.117 50.7422 350.117 48.7324C350.117 47.3516 350.548 46.1963 351.409 45.2666C352.271 44.3369 353.535 43.6738 355.203 43.2773C354.561 43.0039 354 42.5596 353.522 41.9443C353.043 41.3154 352.804 40.6523 352.804 39.9551C352.804 39.0801 353.057 38.3555 353.563 37.7812C354.068 37.1934 354.8 36.6191 355.757 36.0586C354.554 35.5391 353.597 34.7051 352.886 33.5566C352.189 32.4082 351.84 31.0547 351.84 29.4961C351.84 26.9941 352.653 25.0596 354.28 23.6924C355.907 22.3252 358.232 21.6416 361.253 21.6416C361.896 21.6416 362.654 21.7031 363.529 21.8262C364.418 21.9355 364.985 22.0176 365.232 22.0723H373.23ZM355.531 48.2402C355.531 49.1016 355.941 49.7783 356.762 50.2705C357.596 50.7627 358.758 51.0088 360.248 51.0088C362.49 51.0088 364.247 50.7012 365.519 50.0859C366.79 49.4707 367.426 48.6299 367.426 47.5635C367.426 46.7021 367.05 46.1074 366.298 45.7793C365.546 45.4512 364.384 45.2871 362.812 45.2871H359.571C358.423 45.2871 357.459 45.5537 356.68 46.0869C355.914 46.6338 355.531 47.3516 355.531 48.2402ZM357.808 29.5781C357.808 30.8223 358.088 31.8066 358.649 32.5312C359.223 33.2559 360.091 33.6182 361.253 33.6182C362.429 33.6182 363.29 33.2559 363.837 32.5312C364.384 31.8066 364.657 30.8223 364.657 29.5781C364.657 26.8164 363.523 25.4355 361.253 25.4355C358.956 25.4355 357.808 26.8164 357.808 29.5781Z" fill="black"/>
</svg>
