<svg width="533" height="48" viewBox="0 0 533 48" fill="none" xmlns="http://www.w3.org/2000/svg">
<path d="M209.633 22L208.184 17.2422H200.896L199.447 22H194.881L201.936 1.92969H207.117L214.199 22H209.633ZM207.172 13.6875C205.832 9.3763 205.076 6.93815 204.902 6.37305C204.738 5.80794 204.62 5.36133 204.547 5.0332C204.246 6.19987 203.385 9.08464 201.963 13.6875H207.172ZM221.24 22.2734C219.445 22.2734 218.032 21.5762 217.002 20.1816C215.981 18.7871 215.471 16.8548 215.471 14.3848C215.471 11.8783 215.99 9.92773 217.029 8.5332C218.077 7.12956 219.518 6.42773 221.35 6.42773C223.273 6.42773 224.74 7.17513 225.752 8.66992H225.889C225.679 7.5306 225.574 6.51432 225.574 5.62109V0.726562H229.758V22H226.559L225.752 20.0176H225.574C224.626 21.5215 223.182 22.2734 221.24 22.2734ZM222.703 18.9512C223.77 18.9512 224.549 18.6413 225.041 18.0215C225.542 17.4017 225.816 16.349 225.861 14.8633V14.4121C225.861 12.7715 225.606 11.5957 225.096 10.8848C224.594 10.1738 223.774 9.81836 222.635 9.81836C221.705 9.81836 220.98 10.2148 220.461 11.0078C219.951 11.7917 219.695 12.9355 219.695 14.4395C219.695 15.9434 219.955 17.0736 220.475 17.8301C220.994 18.5775 221.737 18.9512 222.703 18.9512ZM238.959 22.2734C237.163 22.2734 235.751 21.5762 234.721 20.1816C233.7 18.7871 233.189 16.8548 233.189 14.3848C233.189 11.8783 233.709 9.92773 234.748 8.5332C235.796 7.12956 237.236 6.42773 239.068 6.42773C240.992 6.42773 242.459 7.17513 243.471 8.66992H243.607C243.398 7.5306 243.293 6.51432 243.293 5.62109V0.726562H247.477V22H244.277L243.471 20.0176H243.293C242.345 21.5215 240.9 22.2734 238.959 22.2734ZM240.422 18.9512C241.488 18.9512 242.268 18.6413 242.76 18.0215C243.261 17.4017 243.535 16.349 243.58 14.8633V14.4121C243.58 12.7715 243.325 11.5957 242.814 10.8848C242.313 10.1738 241.493 9.81836 240.354 9.81836C239.424 9.81836 238.699 10.2148 238.18 11.0078C237.669 11.7917 237.414 12.9355 237.414 14.4395C237.414 15.9434 237.674 17.0736 238.193 17.8301C238.713 18.5775 239.456 18.9512 240.422 18.9512ZM268.818 22L268.012 19.9219H267.902C267.201 20.806 266.476 21.4212 265.729 21.7676C264.99 22.1048 264.024 22.2734 262.83 22.2734C261.363 22.2734 260.205 21.8542 259.357 21.0156C258.519 20.1771 258.1 18.9831 258.1 17.4336C258.1 15.8112 258.665 14.6172 259.795 13.8516C260.934 13.0768 262.648 12.6484 264.936 12.5664L267.588 12.4844V11.8145C267.588 10.265 266.795 9.49023 265.209 9.49023C263.988 9.49023 262.552 9.85938 260.902 10.5977L259.521 7.78125C261.281 6.86068 263.231 6.40039 265.373 6.40039C267.424 6.40039 268.996 6.84701 270.09 7.74023C271.184 8.63346 271.73 9.99154 271.73 11.8145V22H268.818ZM267.588 14.918L265.975 14.9727C264.762 15.0091 263.86 15.2279 263.268 15.6289C262.675 16.0299 262.379 16.6406 262.379 17.4609C262.379 18.6367 263.053 19.2246 264.402 19.2246C265.368 19.2246 266.139 18.9466 266.713 18.3906C267.296 17.8346 267.588 17.0964 267.588 16.1758V14.918ZM289.75 18.9512C290.479 18.9512 291.354 18.7917 292.375 18.4727V21.5762C291.336 22.041 290.06 22.2734 288.547 22.2734C286.879 22.2734 285.662 21.8542 284.896 21.0156C284.14 20.168 283.762 18.901 283.762 17.2148V9.8457H281.766V8.08203L284.062 6.6875L285.266 3.46094H287.932V6.71484H292.211V9.8457H287.932V17.2148C287.932 17.8073 288.096 18.2448 288.424 18.5273C288.761 18.8099 289.203 18.9512 289.75 18.9512ZM295.301 2.76367C295.301 1.4056 296.057 0.726562 297.57 0.726562C299.083 0.726562 299.84 1.4056 299.84 2.76367C299.84 3.41081 299.648 3.91667 299.266 4.28125C298.892 4.63672 298.327 4.81445 297.57 4.81445C296.057 4.81445 295.301 4.13086 295.301 2.76367ZM299.648 22H295.479V6.71484H299.648V22ZM310.477 18.9512C311.206 18.9512 312.081 18.7917 313.102 18.4727V21.5762C312.062 22.041 310.786 22.2734 309.273 22.2734C307.605 22.2734 306.389 21.8542 305.623 21.0156C304.867 20.168 304.488 18.901 304.488 17.2148V9.8457H302.492V8.08203L304.789 6.6875L305.992 3.46094H308.658V6.71484H312.938V9.8457H308.658V17.2148C308.658 17.8073 308.822 18.2448 309.15 18.5273C309.488 18.8099 309.93 18.9512 310.477 18.9512ZM320.375 22H316.205V0.726562H320.375V22ZM331.094 9.39453C330.21 9.39453 329.517 9.67708 329.016 10.2422C328.514 10.7982 328.227 11.5911 328.154 12.6211H334.006C333.988 11.5911 333.719 10.7982 333.199 10.2422C332.68 9.67708 331.978 9.39453 331.094 9.39453ZM331.682 22.2734C329.221 22.2734 327.298 21.5944 325.912 20.2363C324.527 18.8783 323.834 16.9551 323.834 14.4668C323.834 11.9056 324.472 9.92773 325.748 8.5332C327.033 7.12956 328.806 6.42773 331.066 6.42773C333.227 6.42773 334.908 7.04297 336.111 8.27344C337.314 9.50391 337.916 11.2038 337.916 13.373V15.3965H328.059C328.104 16.5814 328.455 17.5065 329.111 18.1719C329.768 18.8372 330.688 19.1699 331.873 19.1699C332.794 19.1699 333.664 19.0742 334.484 18.8828C335.305 18.6914 336.161 18.3861 337.055 17.9668V21.1934C336.326 21.5579 335.546 21.8268 334.717 22C333.887 22.1823 332.876 22.2734 331.682 22.2734ZM5.4375 44H4.10938V33.7578H0.492188V32.5781H9.05469V33.7578H5.4375V44ZM11.8828 44H10.5859V35.4375H11.8828V44ZM10.4766 33.1172C10.4766 32.8203 10.5495 32.6042 10.6953 32.4688C10.8411 32.3281 11.0234 32.2578 11.2422 32.2578C11.4505 32.2578 11.6302 32.3281 11.7812 32.4688C11.9323 32.6094 12.0078 32.8255 12.0078 33.1172C12.0078 33.4089 11.9323 33.6276 11.7812 33.7734C11.6302 33.9141 11.4505 33.9844 11.2422 33.9844C11.0234 33.9844 10.8411 33.9141 10.6953 33.7734C10.5495 33.6276 10.4766 33.4089 10.4766 33.1172ZM17.3984 43.0859C17.6276 43.0859 17.849 43.0703 18.0625 43.0391C18.276 43.0026 18.4453 42.9661 18.5703 42.9297V43.9219C18.4297 43.9896 18.2214 44.0443 17.9453 44.0859C17.6745 44.1328 17.4297 44.1562 17.2109 44.1562C15.5547 44.1562 14.7266 43.2839 14.7266 41.5391V36.4453H13.5V35.8203L14.7266 35.2812L15.2734 33.4531H16.0234V35.4375H18.5078V36.4453H16.0234V41.4844C16.0234 42 16.1458 42.3958 16.3906 42.6719C16.6354 42.9479 16.9714 43.0859 17.3984 43.0859ZM21.5859 44H20.2891V31.8438H21.5859V44ZM27.9531 44.1562C26.6875 44.1562 25.6875 43.7708 24.9531 43C24.224 42.2292 23.8594 41.1589 23.8594 39.7891C23.8594 38.4089 24.1979 37.3125 24.875 36.5C25.5573 35.6875 26.4714 35.2812 27.6172 35.2812C28.6901 35.2812 29.5391 35.6354 30.1641 36.3438C30.7891 37.0469 31.1016 37.9766 31.1016 39.1328V39.9531H25.2031C25.2292 40.9583 25.4818 41.7214 25.9609 42.2422C26.4453 42.763 27.125 43.0234 28 43.0234C28.9219 43.0234 29.8333 42.8307 30.7344 42.4453V43.6016C30.276 43.7995 29.8411 43.9401 29.4297 44.0234C29.0234 44.112 28.5312 44.1562 27.9531 44.1562ZM27.6016 36.3672C26.9141 36.3672 26.3646 36.5911 25.9531 37.0391C25.5469 37.487 25.3073 38.1068 25.2344 38.8984H29.7109C29.7109 38.0807 29.5286 37.4557 29.1641 37.0234C28.7995 36.5859 28.2786 36.3672 27.6016 36.3672ZM43.3359 44V38.4609C43.3359 37.763 43.1771 37.2422 42.8594 36.8984C42.5417 36.5547 42.0443 36.3828 41.3672 36.3828C40.4661 36.3828 39.8073 36.6276 39.3906 37.1172C38.9792 37.6068 38.7734 38.4089 38.7734 39.5234V44H37.4766V31.8438H38.7734V35.5234C38.7734 35.9661 38.7526 36.3333 38.7109 36.625H38.7891C39.0443 36.2135 39.4062 35.8906 39.875 35.6562C40.349 35.4167 40.888 35.2969 41.4922 35.2969C42.5391 35.2969 43.3229 35.5469 43.8438 36.0469C44.3698 36.5417 44.6328 37.3307 44.6328 38.4141V44H43.3359ZM50.9219 44.1562C49.6562 44.1562 48.6562 43.7708 47.9219 43C47.1927 42.2292 46.8281 41.1589 46.8281 39.7891C46.8281 38.4089 47.1667 37.3125 47.8438 36.5C48.526 35.6875 49.4401 35.2812 50.5859 35.2812C51.6589 35.2812 52.5078 35.6354 53.1328 36.3438C53.7578 37.0469 54.0703 37.9766 54.0703 39.1328V39.9531H48.1719C48.1979 40.9583 48.4505 41.7214 48.9297 42.2422C49.4141 42.763 50.0938 43.0234 50.9688 43.0234C51.8906 43.0234 52.8021 42.8307 53.7031 42.4453V43.6016C53.2448 43.7995 52.8099 43.9401 52.3984 44.0234C51.9922 44.112 51.5 44.1562 50.9219 44.1562ZM50.5703 36.3672C49.8828 36.3672 49.3333 36.5911 48.9219 37.0391C48.5156 37.487 48.276 38.1068 48.2031 38.8984H52.6797C52.6797 38.0807 52.4974 37.4557 52.1328 37.0234C51.7682 36.5859 51.2474 36.3672 50.5703 36.3672ZM57.5859 44H56.2891V31.8438H57.5859V44ZM64.3203 44.1562C63.763 44.1562 63.2526 44.0547 62.7891 43.8516C62.3307 43.6432 61.9453 43.3255 61.6328 42.8984H61.5391C61.6016 43.3984 61.6328 43.8724 61.6328 44.3203V47.8438H60.3359V35.4375H61.3906L61.5703 36.6094H61.6328C61.9661 36.1406 62.3542 35.8021 62.7969 35.5938C63.2396 35.3854 63.7474 35.2812 64.3203 35.2812C65.4557 35.2812 66.3307 35.6693 66.9453 36.4453C67.5651 37.2214 67.875 38.3099 67.875 39.7109C67.875 41.1172 67.5599 42.2109 66.9297 42.9922C66.3047 43.7682 65.4349 44.1562 64.3203 44.1562ZM64.1328 36.3828C63.2578 36.3828 62.625 36.625 62.2344 37.1094C61.8438 37.5938 61.6432 38.3646 61.6328 39.4219V39.7109C61.6328 40.9141 61.8333 41.776 62.2344 42.2969C62.6354 42.8125 63.2786 43.0703 64.1641 43.0703C64.9036 43.0703 65.4818 42.7708 65.8984 42.1719C66.3203 41.5729 66.5312 40.7474 66.5312 39.6953C66.5312 38.6276 66.3203 37.8099 65.8984 37.2422C65.4818 36.6693 64.8932 36.3828 64.1328 36.3828ZM77.0703 43.0859C77.2995 43.0859 77.5208 43.0703 77.7344 43.0391C77.9479 43.0026 78.1172 42.9661 78.2422 42.9297V43.9219C78.1016 43.9896 77.8932 44.0443 77.6172 44.0859C77.3464 44.1328 77.1016 44.1562 76.8828 44.1562C75.2266 44.1562 74.3984 43.2839 74.3984 41.5391V36.4453H73.1719V35.8203L74.3984 35.2812L74.9453 33.4531H75.6953V35.4375H78.1797V36.4453H75.6953V41.4844C75.6953 42 75.8177 42.3958 76.0625 42.6719C76.3073 42.9479 76.6432 43.0859 77.0703 43.0859ZM83.5781 44.1562C82.3125 44.1562 81.3125 43.7708 80.5781 43C79.849 42.2292 79.4844 41.1589 79.4844 39.7891C79.4844 38.4089 79.8229 37.3125 80.5 36.5C81.1823 35.6875 82.0964 35.2812 83.2422 35.2812C84.3151 35.2812 85.1641 35.6354 85.7891 36.3438C86.4141 37.0469 86.7266 37.9766 86.7266 39.1328V39.9531H80.8281C80.8542 40.9583 81.1068 41.7214 81.5859 42.2422C82.0703 42.763 82.75 43.0234 83.625 43.0234C84.5469 43.0234 85.4583 42.8307 86.3594 42.4453V43.6016C85.901 43.7995 85.4661 43.9401 85.0547 44.0234C84.6484 44.112 84.1562 44.1562 83.5781 44.1562ZM83.2266 36.3672C82.5391 36.3672 81.9896 36.5911 81.5781 37.0391C81.1719 37.487 80.9323 38.1068 80.8594 38.8984H85.3359C85.3359 38.0807 85.1536 37.4557 84.7891 37.0234C84.4245 36.5859 83.9036 36.3672 83.2266 36.3672ZM91.0078 39.6172L88.0312 35.4375H89.5078L91.7656 38.7188L94.0156 35.4375H95.4766L92.5 39.6172L95.6328 44H94.1641L91.7656 40.5312L89.3438 44H87.875L91.0078 39.6172ZM100.102 43.0859C100.331 43.0859 100.552 43.0703 100.766 43.0391C100.979 43.0026 101.148 42.9661 101.273 42.9297V43.9219C101.133 43.9896 100.924 44.0443 100.648 44.0859C100.378 44.1328 100.133 44.1562 99.9141 44.1562C98.2578 44.1562 97.4297 43.2839 97.4297 41.5391V36.4453H96.2031V35.8203L97.4297 35.2812L97.9766 33.4531H98.7266V35.4375H101.211V36.4453H98.7266V41.4844C98.7266 42 98.849 42.3958 99.0938 42.6719C99.3385 42.9479 99.6745 43.0859 100.102 43.0859ZM110.57 44.1562C109.331 44.1562 108.37 43.776 107.688 43.0156C107.01 42.25 106.672 41.1693 106.672 39.7734C106.672 38.3411 107.016 37.2344 107.703 36.4531C108.396 35.6719 109.38 35.2812 110.656 35.2812C111.068 35.2812 111.479 35.3255 111.891 35.4141C112.302 35.5026 112.625 35.6068 112.859 35.7266L112.461 36.8281C112.174 36.7135 111.862 36.6198 111.523 36.5469C111.185 36.4688 110.885 36.4297 110.625 36.4297C108.885 36.4297 108.016 37.5391 108.016 39.7578C108.016 40.8099 108.227 41.6172 108.648 42.1797C109.076 42.7422 109.706 43.0234 110.539 43.0234C111.253 43.0234 111.984 42.8698 112.734 42.5625V43.7109C112.161 44.0078 111.44 44.1562 110.57 44.1562ZM120.039 44L119.781 42.7812H119.719C119.292 43.3177 118.865 43.6823 118.438 43.875C118.016 44.0625 117.487 44.1562 116.852 44.1562C116.003 44.1562 115.336 43.9375 114.852 43.5C114.372 43.0625 114.133 42.4401 114.133 41.6328C114.133 39.9036 115.516 38.9974 118.281 38.9141L119.734 38.8672V38.3359C119.734 37.6641 119.589 37.1693 119.297 36.8516C119.01 36.5286 118.549 36.3672 117.914 36.3672C117.201 36.3672 116.393 36.5859 115.492 37.0234L115.094 36.0312C115.516 35.8021 115.977 35.6224 116.477 35.4922C116.982 35.362 117.487 35.2969 117.992 35.2969C119.013 35.2969 119.768 35.5234 120.258 35.9766C120.753 36.4297 121 37.1562 121 38.1562V44H120.039ZM117.109 43.0859C117.917 43.0859 118.549 42.8646 119.008 42.4219C119.471 41.9792 119.703 41.3594 119.703 40.5625V39.7891L118.406 39.8438C117.375 39.8802 116.63 40.0417 116.172 40.3281C115.719 40.6094 115.492 41.0495 115.492 41.6484C115.492 42.1172 115.633 42.474 115.914 42.7188C116.201 42.9635 116.599 43.0859 117.109 43.0859ZM129.539 44V38.4609C129.539 37.763 129.38 37.2422 129.062 36.8984C128.745 36.5547 128.247 36.3828 127.57 36.3828C126.674 36.3828 126.018 36.625 125.602 37.1094C125.185 37.5938 124.977 38.3932 124.977 39.5078V44H123.68V35.4375H124.734L124.945 36.6094H125.008C125.273 36.1875 125.646 35.862 126.125 35.6328C126.604 35.3984 127.138 35.2812 127.727 35.2812C128.758 35.2812 129.534 35.5312 130.055 36.0312C130.576 36.526 130.836 37.3203 130.836 38.4141V44H129.539ZM143.523 44V38.4609C143.523 37.763 143.365 37.2422 143.047 36.8984C142.729 36.5547 142.232 36.3828 141.555 36.3828C140.654 36.3828 139.995 36.6276 139.578 37.1172C139.167 37.6068 138.961 38.4089 138.961 39.5234V44H137.664V31.8438H138.961V35.5234C138.961 35.9661 138.94 36.3333 138.898 36.625H138.977C139.232 36.2135 139.594 35.8906 140.062 35.6562C140.536 35.4167 141.076 35.2969 141.68 35.2969C142.727 35.2969 143.51 35.5469 144.031 36.0469C144.557 36.5417 144.82 37.3307 144.82 38.4141V44H143.523ZM151.109 44.1562C149.844 44.1562 148.844 43.7708 148.109 43C147.38 42.2292 147.016 41.1589 147.016 39.7891C147.016 38.4089 147.354 37.3125 148.031 36.5C148.714 35.6875 149.628 35.2812 150.773 35.2812C151.846 35.2812 152.695 35.6354 153.32 36.3438C153.945 37.0469 154.258 37.9766 154.258 39.1328V39.9531H148.359C148.385 40.9583 148.638 41.7214 149.117 42.2422C149.602 42.763 150.281 43.0234 151.156 43.0234C152.078 43.0234 152.99 42.8307 153.891 42.4453V43.6016C153.432 43.7995 152.997 43.9401 152.586 44.0234C152.18 44.112 151.688 44.1562 151.109 44.1562ZM150.758 36.3672C150.07 36.3672 149.521 36.5911 149.109 37.0391C148.703 37.487 148.464 38.1068 148.391 38.8984H152.867C152.867 38.0807 152.685 37.4557 152.32 37.0234C151.956 36.5859 151.435 36.3672 150.758 36.3672ZM157.773 44H156.477V31.8438H157.773V44ZM164.508 44.1562C163.951 44.1562 163.44 44.0547 162.977 43.8516C162.518 43.6432 162.133 43.3255 161.82 42.8984H161.727C161.789 43.3984 161.82 43.8724 161.82 44.3203V47.8438H160.523V35.4375H161.578L161.758 36.6094H161.82C162.154 36.1406 162.542 35.8021 162.984 35.5938C163.427 35.3854 163.935 35.2812 164.508 35.2812C165.643 35.2812 166.518 35.6693 167.133 36.4453C167.753 37.2214 168.062 38.3099 168.062 39.7109C168.062 41.1172 167.747 42.2109 167.117 42.9922C166.492 43.7682 165.622 44.1562 164.508 44.1562ZM164.32 36.3828C163.445 36.3828 162.812 36.625 162.422 37.1094C162.031 37.5938 161.831 38.3646 161.82 39.4219V39.7109C161.82 40.9141 162.021 41.776 162.422 42.2969C162.823 42.8125 163.466 43.0703 164.352 43.0703C165.091 43.0703 165.669 42.7708 166.086 42.1719C166.508 41.5729 166.719 40.7474 166.719 39.6953C166.719 38.6276 166.508 37.8099 166.086 37.2422C165.669 36.6693 165.081 36.3828 164.32 36.3828ZM178.477 44.1562C177.919 44.1562 177.409 44.0547 176.945 43.8516C176.487 43.6432 176.102 43.3255 175.789 42.8984H175.695C175.758 43.3984 175.789 43.8724 175.789 44.3203V47.8438H174.492V35.4375H175.547L175.727 36.6094H175.789C176.122 36.1406 176.51 35.8021 176.953 35.5938C177.396 35.3854 177.904 35.2812 178.477 35.2812C179.612 35.2812 180.487 35.6693 181.102 36.4453C181.721 37.2214 182.031 38.3099 182.031 39.7109C182.031 41.1172 181.716 42.2109 181.086 42.9922C180.461 43.7682 179.591 44.1562 178.477 44.1562ZM178.289 36.3828C177.414 36.3828 176.781 36.625 176.391 37.1094C176 37.5938 175.799 38.3646 175.789 39.4219V39.7109C175.789 40.9141 175.99 41.776 176.391 42.2969C176.792 42.8125 177.435 43.0703 178.32 43.0703C179.06 43.0703 179.638 42.7708 180.055 42.1719C180.477 41.5729 180.688 40.7474 180.688 39.6953C180.688 38.6276 180.477 37.8099 180.055 37.2422C179.638 36.6693 179.049 36.3828 178.289 36.3828ZM187.922 44.1562C186.656 44.1562 185.656 43.7708 184.922 43C184.193 42.2292 183.828 41.1589 183.828 39.7891C183.828 38.4089 184.167 37.3125 184.844 36.5C185.526 35.6875 186.44 35.2812 187.586 35.2812C188.659 35.2812 189.508 35.6354 190.133 36.3438C190.758 37.0469 191.07 37.9766 191.07 39.1328V39.9531H185.172C185.198 40.9583 185.451 41.7214 185.93 42.2422C186.414 42.763 187.094 43.0234 187.969 43.0234C188.891 43.0234 189.802 42.8307 190.703 42.4453V43.6016C190.245 43.7995 189.81 43.9401 189.398 44.0234C188.992 44.112 188.5 44.1562 187.922 44.1562ZM187.57 36.3672C186.883 36.3672 186.333 36.5911 185.922 37.0391C185.516 37.487 185.276 38.1068 185.203 38.8984H189.68C189.68 38.0807 189.497 37.4557 189.133 37.0234C188.768 36.5859 188.247 36.3672 187.57 36.3672ZM200.68 39.7109C200.68 41.1068 200.328 42.1979 199.625 42.9844C198.922 43.7656 197.951 44.1562 196.711 44.1562C195.945 44.1562 195.266 43.9766 194.672 43.6172C194.078 43.2578 193.62 42.7422 193.297 42.0703C192.974 41.3984 192.812 40.612 192.812 39.7109C192.812 38.3151 193.161 37.2292 193.859 36.4531C194.557 35.6719 195.526 35.2812 196.766 35.2812C197.964 35.2812 198.914 35.6797 199.617 36.4766C200.326 37.2734 200.68 38.3516 200.68 39.7109ZM194.156 39.7109C194.156 40.8047 194.375 41.638 194.812 42.2109C195.25 42.7839 195.893 43.0703 196.742 43.0703C197.591 43.0703 198.234 42.7865 198.672 42.2188C199.115 41.6458 199.336 40.8099 199.336 39.7109C199.336 38.6224 199.115 37.7969 198.672 37.2344C198.234 36.6667 197.586 36.3828 196.727 36.3828C195.878 36.3828 195.237 36.6615 194.805 37.2188C194.372 37.776 194.156 38.6068 194.156 39.7109ZM206.945 44.1562C206.388 44.1562 205.878 44.0547 205.414 43.8516C204.956 43.6432 204.57 43.3255 204.258 42.8984H204.164C204.227 43.3984 204.258 43.8724 204.258 44.3203V47.8438H202.961V35.4375H204.016L204.195 36.6094H204.258C204.591 36.1406 204.979 35.8021 205.422 35.5938C205.865 35.3854 206.372 35.2812 206.945 35.2812C208.081 35.2812 208.956 35.6693 209.57 36.4453C210.19 37.2214 210.5 38.3099 210.5 39.7109C210.5 41.1172 210.185 42.2109 209.555 42.9922C208.93 43.7682 208.06 44.1562 206.945 44.1562ZM206.758 36.3828C205.883 36.3828 205.25 36.625 204.859 37.1094C204.469 37.5938 204.268 38.3646 204.258 39.4219V39.7109C204.258 40.9141 204.458 41.776 204.859 42.2969C205.26 42.8125 205.904 43.0703 206.789 43.0703C207.529 43.0703 208.107 42.7708 208.523 42.1719C208.945 41.5729 209.156 40.7474 209.156 39.6953C209.156 38.6276 208.945 37.8099 208.523 37.2422C208.107 36.6693 207.518 36.3828 206.758 36.3828ZM214.07 44H212.773V31.8438H214.07V44ZM220.438 44.1562C219.172 44.1562 218.172 43.7708 217.438 43C216.708 42.2292 216.344 41.1589 216.344 39.7891C216.344 38.4089 216.682 37.3125 217.359 36.5C218.042 35.6875 218.956 35.2812 220.102 35.2812C221.174 35.2812 222.023 35.6354 222.648 36.3438C223.273 37.0469 223.586 37.9766 223.586 39.1328V39.9531H217.688C217.714 40.9583 217.966 41.7214 218.445 42.2422C218.93 42.763 219.609 43.0234 220.484 43.0234C221.406 43.0234 222.318 42.8307 223.219 42.4453V43.6016C222.76 43.7995 222.326 43.9401 221.914 44.0234C221.508 44.112 221.016 44.1562 220.438 44.1562ZM220.086 36.3672C219.398 36.3672 218.849 36.5911 218.438 37.0391C218.031 37.487 217.792 38.1068 217.719 38.8984H222.195C222.195 38.0807 222.013 37.4557 221.648 37.0234C221.284 36.5859 220.763 36.3672 220.086 36.3672ZM232.727 43.0859C232.956 43.0859 233.177 43.0703 233.391 43.0391C233.604 43.0026 233.773 42.9661 233.898 42.9297V43.9219C233.758 43.9896 233.549 44.0443 233.273 44.0859C233.003 44.1328 232.758 44.1562 232.539 44.1562C230.883 44.1562 230.055 43.2839 230.055 41.5391V36.4453H228.828V35.8203L230.055 35.2812L230.602 33.4531H231.352V35.4375H233.836V36.4453H231.352V41.4844C231.352 42 231.474 42.3958 231.719 42.6719C231.964 42.9479 232.299 43.0859 232.727 43.0859ZM243.008 39.7109C243.008 41.1068 242.656 42.1979 241.953 42.9844C241.25 43.7656 240.279 44.1562 239.039 44.1562C238.273 44.1562 237.594 43.9766 237 43.6172C236.406 43.2578 235.948 42.7422 235.625 42.0703C235.302 41.3984 235.141 40.612 235.141 39.7109C235.141 38.3151 235.49 37.2292 236.188 36.4531C236.885 35.6719 237.854 35.2812 239.094 35.2812C240.292 35.2812 241.242 35.6797 241.945 36.4766C242.654 37.2734 243.008 38.3516 243.008 39.7109ZM236.484 39.7109C236.484 40.8047 236.703 41.638 237.141 42.2109C237.578 42.7839 238.221 43.0703 239.07 43.0703C239.919 43.0703 240.562 42.7865 241 42.2188C241.443 41.6458 241.664 40.8099 241.664 39.7109C241.664 38.6224 241.443 37.7969 241 37.2344C240.562 36.6667 239.914 36.3828 239.055 36.3828C238.206 36.3828 237.565 36.6615 237.133 37.2188C236.701 37.776 236.484 38.6068 236.484 39.7109ZM250.664 35.4375V40.9922C250.664 41.6901 250.823 42.2109 251.141 42.5547C251.458 42.8984 251.956 43.0703 252.633 43.0703C253.529 43.0703 254.182 42.8255 254.594 42.3359C255.01 41.8464 255.219 41.0469 255.219 39.9375V35.4375H256.516V44H255.445L255.258 42.8516H255.188C254.922 43.2734 254.552 43.5964 254.078 43.8203C253.609 44.0443 253.073 44.1562 252.469 44.1562C251.427 44.1562 250.646 43.9089 250.125 43.4141C249.609 42.9193 249.352 42.1276 249.352 41.0391V35.4375H250.664ZM265.133 44V38.4609C265.133 37.763 264.974 37.2422 264.656 36.8984C264.339 36.5547 263.841 36.3828 263.164 36.3828C262.268 36.3828 261.612 36.625 261.195 37.1094C260.779 37.5938 260.57 38.3932 260.57 39.5078V44H259.273V35.4375H260.328L260.539 36.6094H260.602C260.867 36.1875 261.24 35.862 261.719 35.6328C262.198 35.3984 262.732 35.2812 263.32 35.2812C264.352 35.2812 265.128 35.5312 265.648 36.0312C266.169 36.526 266.43 37.3203 266.43 38.4141V44H265.133ZM274.93 42.8516H274.859C274.26 43.7214 273.365 44.1562 272.172 44.1562C271.052 44.1562 270.18 43.7734 269.555 43.0078C268.935 42.2422 268.625 41.1536 268.625 39.7422C268.625 38.3307 268.938 37.2344 269.562 36.4531C270.188 35.6719 271.057 35.2812 272.172 35.2812C273.333 35.2812 274.224 35.7031 274.844 36.5469H274.945L274.891 35.9297L274.859 35.3281V31.8438H276.156V44H275.102L274.93 42.8516ZM272.336 43.0703C273.221 43.0703 273.862 42.8307 274.258 42.3516C274.659 41.8672 274.859 41.0885 274.859 40.0156V39.7422C274.859 38.5286 274.656 37.6641 274.25 37.1484C273.849 36.6276 273.206 36.3672 272.32 36.3672C271.56 36.3672 270.977 36.6641 270.57 37.2578C270.169 37.8464 269.969 38.6797 269.969 39.7578C269.969 40.8516 270.169 41.6771 270.57 42.2344C270.971 42.7917 271.56 43.0703 272.336 43.0703ZM282.531 44.1562C281.266 44.1562 280.266 43.7708 279.531 43C278.802 42.2292 278.438 41.1589 278.438 39.7891C278.438 38.4089 278.776 37.3125 279.453 36.5C280.135 35.6875 281.049 35.2812 282.195 35.2812C283.268 35.2812 284.117 35.6354 284.742 36.3438C285.367 37.0469 285.68 37.9766 285.68 39.1328V39.9531H279.781C279.807 40.9583 280.06 41.7214 280.539 42.2422C281.023 42.763 281.703 43.0234 282.578 43.0234C283.5 43.0234 284.411 42.8307 285.312 42.4453V43.6016C284.854 43.7995 284.419 43.9401 284.008 44.0234C283.602 44.112 283.109 44.1562 282.531 44.1562ZM282.18 36.3672C281.492 36.3672 280.943 36.5911 280.531 37.0391C280.125 37.487 279.885 38.1068 279.812 38.8984H284.289C284.289 38.0807 284.107 37.4557 283.742 37.0234C283.378 36.5859 282.857 36.3672 282.18 36.3672ZM291.805 35.2812C292.185 35.2812 292.526 35.3125 292.828 35.375L292.648 36.5781C292.294 36.5 291.982 36.4609 291.711 36.4609C291.018 36.4609 290.424 36.7422 289.93 37.3047C289.44 37.8672 289.195 38.5677 289.195 39.4062V44H287.898V35.4375H288.969L289.117 37.0234H289.18C289.497 36.4661 289.88 36.0365 290.328 35.7344C290.776 35.4323 291.268 35.2812 291.805 35.2812ZM299.953 41.6641C299.953 42.4609 299.656 43.0755 299.062 43.5078C298.469 43.9401 297.635 44.1562 296.562 44.1562C295.427 44.1562 294.542 43.9766 293.906 43.6172V42.4141C294.318 42.6224 294.758 42.7865 295.227 42.9062C295.701 43.026 296.156 43.0859 296.594 43.0859C297.271 43.0859 297.792 42.9792 298.156 42.7656C298.521 42.5469 298.703 42.2161 298.703 41.7734C298.703 41.4401 298.557 41.1562 298.266 40.9219C297.979 40.6823 297.417 40.401 296.578 40.0781C295.781 39.7812 295.214 39.5234 294.875 39.3047C294.542 39.0807 294.292 38.8281 294.125 38.5469C293.964 38.2656 293.883 37.9297 293.883 37.5391C293.883 36.8411 294.167 36.2917 294.734 35.8906C295.302 35.4844 296.081 35.2812 297.07 35.2812C297.992 35.2812 298.893 35.4688 299.773 35.8438L299.312 36.8984C298.453 36.5443 297.674 36.3672 296.977 36.3672C296.362 36.3672 295.898 36.4635 295.586 36.6562C295.273 36.849 295.117 37.1146 295.117 37.4531C295.117 37.6823 295.174 37.8776 295.289 38.0391C295.409 38.2005 295.599 38.3542 295.859 38.5C296.12 38.6458 296.62 38.8568 297.359 39.1328C298.375 39.5026 299.06 39.875 299.414 40.25C299.773 40.625 299.953 41.0964 299.953 41.6641ZM304.836 43.0859C305.065 43.0859 305.286 43.0703 305.5 43.0391C305.714 43.0026 305.883 42.9661 306.008 42.9297V43.9219C305.867 43.9896 305.659 44.0443 305.383 44.0859C305.112 44.1328 304.867 44.1562 304.648 44.1562C302.992 44.1562 302.164 43.2839 302.164 41.5391V36.4453H300.938V35.8203L302.164 35.2812L302.711 33.4531H303.461V35.4375H305.945V36.4453H303.461V41.4844C303.461 42 303.583 42.3958 303.828 42.6719C304.073 42.9479 304.409 43.0859 304.836 43.0859ZM312.992 44L312.734 42.7812H312.672C312.245 43.3177 311.818 43.6823 311.391 43.875C310.969 44.0625 310.44 44.1562 309.805 44.1562C308.956 44.1562 308.289 43.9375 307.805 43.5C307.326 43.0625 307.086 42.4401 307.086 41.6328C307.086 39.9036 308.469 38.9974 311.234 38.9141L312.688 38.8672V38.3359C312.688 37.6641 312.542 37.1693 312.25 36.8516C311.964 36.5286 311.503 36.3672 310.867 36.3672C310.154 36.3672 309.346 36.5859 308.445 37.0234L308.047 36.0312C308.469 35.8021 308.93 35.6224 309.43 35.4922C309.935 35.362 310.44 35.2969 310.945 35.2969C311.966 35.2969 312.721 35.5234 313.211 35.9766C313.706 36.4297 313.953 37.1562 313.953 38.1562V44H312.992ZM310.062 43.0859C310.87 43.0859 311.503 42.8646 311.961 42.4219C312.424 41.9792 312.656 41.3594 312.656 40.5625V39.7891L311.359 39.8438C310.328 39.8802 309.583 40.0417 309.125 40.3281C308.672 40.6094 308.445 41.0495 308.445 41.6484C308.445 42.1172 308.586 42.474 308.867 42.7188C309.154 42.9635 309.552 43.0859 310.062 43.0859ZM322.492 44V38.4609C322.492 37.763 322.333 37.2422 322.016 36.8984C321.698 36.5547 321.201 36.3828 320.523 36.3828C319.628 36.3828 318.971 36.625 318.555 37.1094C318.138 37.5938 317.93 38.3932 317.93 39.5078V44H316.633V35.4375H317.688L317.898 36.6094H317.961C318.227 36.1875 318.599 35.862 319.078 35.6328C319.557 35.3984 320.091 35.2812 320.68 35.2812C321.711 35.2812 322.487 35.5312 323.008 36.0312C323.529 36.526 323.789 37.3203 323.789 38.4141V44H322.492ZM332.289 42.8516H332.219C331.62 43.7214 330.724 44.1562 329.531 44.1562C328.411 44.1562 327.539 43.7734 326.914 43.0078C326.294 42.2422 325.984 41.1536 325.984 39.7422C325.984 38.3307 326.297 37.2344 326.922 36.4531C327.547 35.6719 328.417 35.2812 329.531 35.2812C330.693 35.2812 331.583 35.7031 332.203 36.5469H332.305L332.25 35.9297L332.219 35.3281V31.8438H333.516V44H332.461L332.289 42.8516ZM329.695 43.0703C330.581 43.0703 331.221 42.8307 331.617 42.3516C332.018 41.8672 332.219 41.0885 332.219 40.0156V39.7422C332.219 38.5286 332.016 37.6641 331.609 37.1484C331.208 36.6276 330.565 36.3672 329.68 36.3672C328.919 36.3672 328.336 36.6641 327.93 37.2578C327.529 37.8464 327.328 38.6797 327.328 39.7578C327.328 40.8516 327.529 41.6771 327.93 42.2344C328.331 42.7917 328.919 43.0703 329.695 43.0703ZM343.664 43.0703C344.529 43.0703 345.159 42.8385 345.555 42.375C345.951 41.9115 346.161 41.1302 346.188 40.0312V39.7422C346.188 38.5443 345.984 37.6823 345.578 37.1562C345.172 36.6302 344.529 36.3672 343.648 36.3672C342.888 36.3672 342.305 36.6641 341.898 37.2578C341.497 37.8464 341.297 38.6797 341.297 39.7578C341.297 40.8359 341.495 41.6589 341.891 42.2266C342.292 42.7891 342.883 43.0703 343.664 43.0703ZM343.469 44.1562C342.365 44.1562 341.503 43.7682 340.883 42.9922C340.263 42.2161 339.953 41.1328 339.953 39.7422C339.953 38.3411 340.266 37.2474 340.891 36.4609C341.516 35.6745 342.385 35.2812 343.5 35.2812C344.672 35.2812 345.573 35.724 346.203 36.6094H346.273L346.461 35.4375H347.484V47.8438H346.188V44.1797C346.188 43.6589 346.216 43.2161 346.273 42.8516H346.172C345.573 43.7214 344.672 44.1562 343.469 44.1562ZM351.461 35.4375V40.9922C351.461 41.6901 351.62 42.2109 351.938 42.5547C352.255 42.8984 352.753 43.0703 353.43 43.0703C354.326 43.0703 354.979 42.8255 355.391 42.3359C355.807 41.8464 356.016 41.0469 356.016 39.9375V35.4375H357.312V44H356.242L356.055 42.8516H355.984C355.719 43.2734 355.349 43.5964 354.875 43.8203C354.406 44.0443 353.87 44.1562 353.266 44.1562C352.224 44.1562 351.443 43.9089 350.922 43.4141C350.406 42.9193 350.148 42.1276 350.148 41.0391V35.4375H351.461ZM361.367 44H360.07V35.4375H361.367V44ZM359.961 33.1172C359.961 32.8203 360.034 32.6042 360.18 32.4688C360.326 32.3281 360.508 32.2578 360.727 32.2578C360.935 32.2578 361.115 32.3281 361.266 32.4688C361.417 32.6094 361.492 32.8255 361.492 33.1172C361.492 33.4089 361.417 33.6276 361.266 33.7734C361.115 33.9141 360.935 33.9844 360.727 33.9844C360.508 33.9844 360.326 33.9141 360.18 33.7734C360.034 33.6276 359.961 33.4089 359.961 33.1172ZM367.539 44.1562C366.299 44.1562 365.339 43.776 364.656 43.0156C363.979 42.25 363.641 41.1693 363.641 39.7734C363.641 38.3411 363.984 37.2344 364.672 36.4531C365.365 35.6719 366.349 35.2812 367.625 35.2812C368.036 35.2812 368.448 35.3255 368.859 35.4141C369.271 35.5026 369.594 35.6068 369.828 35.7266L369.43 36.8281C369.143 36.7135 368.831 36.6198 368.492 36.5469C368.154 36.4688 367.854 36.4297 367.594 36.4297C365.854 36.4297 364.984 37.5391 364.984 39.7578C364.984 40.8099 365.195 41.6172 365.617 42.1797C366.044 42.7422 366.674 43.0234 367.508 43.0234C368.221 43.0234 368.953 42.8698 369.703 42.5625V43.7109C369.13 44.0078 368.409 44.1562 367.539 44.1562ZM373.023 39.6172C373.247 39.2995 373.589 38.8828 374.047 38.3672L376.812 35.4375H378.352L374.883 39.0859L378.594 44H377.023L374 39.9531L373.023 40.7969V44H371.742V31.8438H373.023V38.2891C373.023 38.5755 373.003 39.0182 372.961 39.6172H373.023ZM381.445 44H380.148V31.8438H381.445V44ZM382.836 35.4375H384.227L386.102 40.3203C386.513 41.4349 386.768 42.2396 386.867 42.7344H386.93C386.997 42.4688 387.138 42.0156 387.352 41.375C387.57 40.7292 388.279 38.75 389.477 35.4375H390.867L387.188 45.1875C386.823 46.151 386.396 46.8333 385.906 47.2344C385.422 47.6406 384.826 47.8438 384.117 47.8438C383.721 47.8438 383.331 47.7995 382.945 47.7109V46.6719C383.232 46.7344 383.552 46.7656 383.906 46.7656C384.797 46.7656 385.432 46.2656 385.812 45.2656L386.289 44.0469L382.836 35.4375ZM401.68 44L401.422 42.7812H401.359C400.932 43.3177 400.505 43.6823 400.078 43.875C399.656 44.0625 399.128 44.1562 398.492 44.1562C397.643 44.1562 396.977 43.9375 396.492 43.5C396.013 43.0625 395.773 42.4401 395.773 41.6328C395.773 39.9036 397.156 38.9974 399.922 38.9141L401.375 38.8672V38.3359C401.375 37.6641 401.229 37.1693 400.938 36.8516C400.651 36.5286 400.19 36.3672 399.555 36.3672C398.841 36.3672 398.034 36.5859 397.133 37.0234L396.734 36.0312C397.156 35.8021 397.617 35.6224 398.117 35.4922C398.622 35.362 399.128 35.2969 399.633 35.2969C400.654 35.2969 401.409 35.5234 401.898 35.9766C402.393 36.4297 402.641 37.1562 402.641 38.1562V44H401.68ZM398.75 43.0859C399.557 43.0859 400.19 42.8646 400.648 42.4219C401.112 41.9792 401.344 41.3594 401.344 40.5625V39.7891L400.047 39.8438C399.016 39.8802 398.271 40.0417 397.812 40.3281C397.359 40.6094 397.133 41.0495 397.133 41.6484C397.133 42.1172 397.273 42.474 397.555 42.7188C397.841 42.9635 398.24 43.0859 398.75 43.0859ZM409.305 35.2969C410.43 35.2969 411.302 35.6823 411.922 36.4531C412.547 37.2188 412.859 38.3047 412.859 39.7109C412.859 41.1172 412.544 42.2109 411.914 42.9922C411.289 43.7682 410.419 44.1562 409.305 44.1562C408.747 44.1562 408.237 44.0547 407.773 43.8516C407.315 43.6432 406.93 43.3255 406.617 42.8984H406.523L406.25 44H405.32V31.8438H406.617V34.7969C406.617 35.4583 406.596 36.0521 406.555 36.5781H406.617C407.221 35.724 408.117 35.2969 409.305 35.2969ZM409.117 36.3828C408.232 36.3828 407.594 36.638 407.203 37.1484C406.812 37.6536 406.617 38.5078 406.617 39.7109C406.617 40.9141 406.818 41.776 407.219 42.2969C407.62 42.8125 408.263 43.0703 409.148 43.0703C409.945 43.0703 410.539 42.7812 410.93 42.2031C411.32 41.6198 411.516 40.7839 411.516 39.6953C411.516 38.5807 411.32 37.75 410.93 37.2031C410.539 36.6562 409.935 36.3828 409.117 36.3828ZM422.523 39.7109C422.523 41.1068 422.172 42.1979 421.469 42.9844C420.766 43.7656 419.794 44.1562 418.555 44.1562C417.789 44.1562 417.109 43.9766 416.516 43.6172C415.922 43.2578 415.464 42.7422 415.141 42.0703C414.818 41.3984 414.656 40.612 414.656 39.7109C414.656 38.3151 415.005 37.2292 415.703 36.4531C416.401 35.6719 417.37 35.2812 418.609 35.2812C419.807 35.2812 420.758 35.6797 421.461 36.4766C422.169 37.2734 422.523 38.3516 422.523 39.7109ZM416 39.7109C416 40.8047 416.219 41.638 416.656 42.2109C417.094 42.7839 417.737 43.0703 418.586 43.0703C419.435 43.0703 420.078 42.7865 420.516 42.2188C420.958 41.6458 421.18 40.8099 421.18 39.7109C421.18 38.6224 420.958 37.7969 420.516 37.2344C420.078 36.6667 419.43 36.3828 418.57 36.3828C417.721 36.3828 417.081 36.6615 416.648 37.2188C416.216 37.776 416 38.6068 416 39.7109ZM426.023 35.4375V40.9922C426.023 41.6901 426.182 42.2109 426.5 42.5547C426.818 42.8984 427.315 43.0703 427.992 43.0703C428.888 43.0703 429.542 42.8255 429.953 42.3359C430.37 41.8464 430.578 41.0469 430.578 39.9375V35.4375H431.875V44H430.805L430.617 42.8516H430.547C430.281 43.2734 429.911 43.5964 429.438 43.8203C428.969 44.0443 428.432 44.1562 427.828 44.1562C426.786 44.1562 426.005 43.9089 425.484 43.4141C424.969 42.9193 424.711 42.1276 424.711 41.0391V35.4375H426.023ZM437.398 43.0859C437.628 43.0859 437.849 43.0703 438.062 43.0391C438.276 43.0026 438.445 42.9661 438.57 42.9297V43.9219C438.43 43.9896 438.221 44.0443 437.945 44.0859C437.674 44.1328 437.43 44.1562 437.211 44.1562C435.555 44.1562 434.727 43.2839 434.727 41.5391V36.4453H433.5V35.8203L434.727 35.2812L435.273 33.4531H436.023V35.4375H438.508V36.4453H436.023V41.4844C436.023 42 436.146 42.3958 436.391 42.6719C436.635 42.9479 436.971 43.0859 437.398 43.0859ZM447.211 43.0859C447.44 43.0859 447.661 43.0703 447.875 43.0391C448.089 43.0026 448.258 42.9661 448.383 42.9297V43.9219C448.242 43.9896 448.034 44.0443 447.758 44.0859C447.487 44.1328 447.242 44.1562 447.023 44.1562C445.367 44.1562 444.539 43.2839 444.539 41.5391V36.4453H443.312V35.8203L444.539 35.2812L445.086 33.4531H445.836V35.4375H448.32V36.4453H445.836V41.4844C445.836 42 445.958 42.3958 446.203 42.6719C446.448 42.9479 446.784 43.0859 447.211 43.0859ZM455.961 44V38.4609C455.961 37.763 455.802 37.2422 455.484 36.8984C455.167 36.5547 454.669 36.3828 453.992 36.3828C453.091 36.3828 452.432 36.6276 452.016 37.1172C451.604 37.6068 451.398 38.4089 451.398 39.5234V44H450.102V31.8438H451.398V35.5234C451.398 35.9661 451.378 36.3333 451.336 36.625H451.414C451.669 36.2135 452.031 35.8906 452.5 35.6562C452.974 35.4167 453.513 35.2969 454.117 35.2969C455.164 35.2969 455.948 35.5469 456.469 36.0469C456.995 36.5417 457.258 37.3307 457.258 38.4141V44H455.961ZM463.547 44.1562C462.281 44.1562 461.281 43.7708 460.547 43C459.818 42.2292 459.453 41.1589 459.453 39.7891C459.453 38.4089 459.792 37.3125 460.469 36.5C461.151 35.6875 462.065 35.2812 463.211 35.2812C464.284 35.2812 465.133 35.6354 465.758 36.3438C466.383 37.0469 466.695 37.9766 466.695 39.1328V39.9531H460.797C460.823 40.9583 461.076 41.7214 461.555 42.2422C462.039 42.763 462.719 43.0234 463.594 43.0234C464.516 43.0234 465.427 42.8307 466.328 42.4453V43.6016C465.87 43.7995 465.435 43.9401 465.023 44.0234C464.617 44.112 464.125 44.1562 463.547 44.1562ZM463.195 36.3672C462.508 36.3672 461.958 36.5911 461.547 37.0391C461.141 37.487 460.901 38.1068 460.828 38.8984H465.305C465.305 38.0807 465.122 37.4557 464.758 37.0234C464.393 36.5859 463.872 36.3672 463.195 36.3672ZM476.93 36.4453H474.75V44H473.453V36.4453H471.922V35.8594L473.453 35.3906V34.9141C473.453 32.8099 474.372 31.7578 476.211 31.7578C476.664 31.7578 477.195 31.849 477.805 32.0312L477.469 33.0703C476.969 32.9089 476.542 32.8281 476.188 32.8281C475.698 32.8281 475.336 32.9922 475.102 33.3203C474.867 33.6432 474.75 34.1641 474.75 34.8828V35.4375H476.93V36.4453ZM482.109 44.1562C480.844 44.1562 479.844 43.7708 479.109 43C478.38 42.2292 478.016 41.1589 478.016 39.7891C478.016 38.4089 478.354 37.3125 479.031 36.5C479.714 35.6875 480.628 35.2812 481.773 35.2812C482.846 35.2812 483.695 35.6354 484.32 36.3438C484.945 37.0469 485.258 37.9766 485.258 39.1328V39.9531H479.359C479.385 40.9583 479.638 41.7214 480.117 42.2422C480.602 42.763 481.281 43.0234 482.156 43.0234C483.078 43.0234 483.99 42.8307 484.891 42.4453V43.6016C484.432 43.7995 483.997 43.9401 483.586 44.0234C483.18 44.112 482.688 44.1562 482.109 44.1562ZM481.758 36.3672C481.07 36.3672 480.521 36.5911 480.109 37.0391C479.703 37.487 479.464 38.1068 479.391 38.8984H483.867C483.867 38.0807 483.685 37.4557 483.32 37.0234C482.956 36.5859 482.435 36.3672 481.758 36.3672ZM492.742 44L492.484 42.7812H492.422C491.995 43.3177 491.568 43.6823 491.141 43.875C490.719 44.0625 490.19 44.1562 489.555 44.1562C488.706 44.1562 488.039 43.9375 487.555 43.5C487.076 43.0625 486.836 42.4401 486.836 41.6328C486.836 39.9036 488.219 38.9974 490.984 38.9141L492.438 38.8672V38.3359C492.438 37.6641 492.292 37.1693 492 36.8516C491.714 36.5286 491.253 36.3672 490.617 36.3672C489.904 36.3672 489.096 36.5859 488.195 37.0234L487.797 36.0312C488.219 35.8021 488.68 35.6224 489.18 35.4922C489.685 35.362 490.19 35.2969 490.695 35.2969C491.716 35.2969 492.471 35.5234 492.961 35.9766C493.456 36.4297 493.703 37.1562 493.703 38.1562V44H492.742ZM489.812 43.0859C490.62 43.0859 491.253 42.8646 491.711 42.4219C492.174 41.9792 492.406 41.3594 492.406 40.5625V39.7891L491.109 39.8438C490.078 39.8802 489.333 40.0417 488.875 40.3281C488.422 40.6094 488.195 41.0495 488.195 41.6484C488.195 42.1172 488.336 42.474 488.617 42.7188C488.904 42.9635 489.302 43.0859 489.812 43.0859ZM499.148 43.0859C499.378 43.0859 499.599 43.0703 499.812 43.0391C500.026 43.0026 500.195 42.9661 500.32 42.9297V43.9219C500.18 43.9896 499.971 44.0443 499.695 44.0859C499.424 44.1328 499.18 44.1562 498.961 44.1562C497.305 44.1562 496.477 43.2839 496.477 41.5391V36.4453H495.25V35.8203L496.477 35.2812L497.023 33.4531H497.773V35.4375H500.258V36.4453H497.773V41.4844C497.773 42 497.896 42.3958 498.141 42.6719C498.385 42.9479 498.721 43.0859 499.148 43.0859ZM503.258 35.4375V40.9922C503.258 41.6901 503.417 42.2109 503.734 42.5547C504.052 42.8984 504.549 43.0703 505.227 43.0703C506.122 43.0703 506.776 42.8255 507.188 42.3359C507.604 41.8464 507.812 41.0469 507.812 39.9375V35.4375H509.109V44H508.039L507.852 42.8516H507.781C507.516 43.2734 507.146 43.5964 506.672 43.8203C506.203 44.0443 505.667 44.1562 505.062 44.1562C504.021 44.1562 503.24 43.9089 502.719 43.4141C502.203 42.9193 501.945 42.1276 501.945 41.0391V35.4375H503.258ZM515.773 35.2812C516.154 35.2812 516.495 35.3125 516.797 35.375L516.617 36.5781C516.263 36.5 515.951 36.4609 515.68 36.4609C514.987 36.4609 514.393 36.7422 513.898 37.3047C513.409 37.8672 513.164 38.5677 513.164 39.4062V44H511.867V35.4375H512.938L513.086 37.0234H513.148C513.466 36.4661 513.849 36.0365 514.297 35.7344C514.745 35.4323 515.237 35.2812 515.773 35.2812ZM522.016 44.1562C520.75 44.1562 519.75 43.7708 519.016 43C518.286 42.2292 517.922 41.1589 517.922 39.7891C517.922 38.4089 518.26 37.3125 518.938 36.5C519.62 35.6875 520.534 35.2812 521.68 35.2812C522.753 35.2812 523.602 35.6354 524.227 36.3438C524.852 37.0469 525.164 37.9766 525.164 39.1328V39.9531H519.266C519.292 40.9583 519.544 41.7214 520.023 42.2422C520.508 42.763 521.188 43.0234 522.062 43.0234C522.984 43.0234 523.896 42.8307 524.797 42.4453V43.6016C524.339 43.7995 523.904 43.9401 523.492 44.0234C523.086 44.112 522.594 44.1562 522.016 44.1562ZM521.664 36.3672C520.977 36.3672 520.427 36.5911 520.016 37.0391C519.609 37.487 519.37 38.1068 519.297 38.8984H523.773C523.773 38.0807 523.591 37.4557 523.227 37.0234C522.862 36.5859 522.341 36.3672 521.664 36.3672ZM532.906 41.6641C532.906 42.4609 532.609 43.0755 532.016 43.5078C531.422 43.9401 530.589 44.1562 529.516 44.1562C528.38 44.1562 527.495 43.9766 526.859 43.6172V42.4141C527.271 42.6224 527.711 42.7865 528.18 42.9062C528.654 43.026 529.109 43.0859 529.547 43.0859C530.224 43.0859 530.745 42.9792 531.109 42.7656C531.474 42.5469 531.656 42.2161 531.656 41.7734C531.656 41.4401 531.51 41.1562 531.219 40.9219C530.932 40.6823 530.37 40.401 529.531 40.0781C528.734 39.7812 528.167 39.5234 527.828 39.3047C527.495 39.0807 527.245 38.8281 527.078 38.5469C526.917 38.2656 526.836 37.9297 526.836 37.5391C526.836 36.8411 527.12 36.2917 527.688 35.8906C528.255 35.4844 529.034 35.2812 530.023 35.2812C530.945 35.2812 531.846 35.4688 532.727 35.8438L532.266 36.8984C531.406 36.5443 530.628 36.3672 529.93 36.3672C529.315 36.3672 528.852 36.4635 528.539 36.6562C528.227 36.849 528.07 37.1146 528.07 37.4531C528.07 37.6823 528.128 37.8776 528.242 38.0391C528.362 38.2005 528.552 38.3542 528.812 38.5C529.073 38.6458 529.573 38.8568 530.312 39.1328C531.328 39.5026 532.013 39.875 532.367 40.25C532.727 40.625 532.906 41.0964 532.906 41.6641Z" fill="black"/>
</svg>
