<?xml version="1.0" encoding="utf-8"?>
<!-- Generator: Adobe Illustrator 16.0.0, SVG Export Plug-In . SVG Version: 6.00 Build 0)  -->
<!DOCTYPE svg PUBLIC "-//W3C//DTD SVG 1.1//EN" "http://www.w3.org/Graphics/SVG/1.1/DTD/svg11.dtd">
<svg version="1.1" id="Layer_1" xmlns="http://www.w3.org/2000/svg" xmlns:xlink="http://www.w3.org/1999/xlink" x="0px" y="0px"
	 width="100%" height="100%" viewBox="0 -0.001 88.305 88.307" enable-background="new 0 -0.001 88.305 88.307"
	 xml:space="preserve">
<g id="change2">
	<path fill="#FFFFFF" d="M85.47,69.581c0,8.773-7.115,15.891-15.891,15.891H18.724c-8.775,0-15.891-7.119-15.891-15.891V18.725
		c0-8.777,7.117-15.891,15.891-15.891H69.58c8.777,0,15.891,7.115,15.891,15.891V69.581z"/>
</g>
<g id="change1">
	<path fill="#00A79D" d="M69.58,88.305H18.724C8.4,88.305,0,79.905,0,69.581V18.725C0,8.401,8.4-0.001,18.724-0.001H69.58
		c10.324,0,18.725,8.402,18.725,18.727v50.855C88.304,79.905,79.904,88.305,69.58,88.305z M18.724,5.671
		c-7.199,0-13.057,5.857-13.057,13.055v50.855c0,7.201,5.859,13.057,13.057,13.057H69.58c7.201,0,13.057-5.857,13.057-13.057V18.725
		c0-7.199-5.857-13.055-13.057-13.055H18.724z"/>
</g>
</svg>
